<svg width="42" height="43" viewBox="0 0 42 43" fill="none" xmlns="http://www.w3.org/2000/svg">
<path d="M28.0339 33.8499C30.2333 34.2203 32.1204 36.0937 33.6733 36.3503C35.3992 36.6355 38.0093 35.0693 40.6711 36.9127C41.3562 37.3871 41.9187 37.9573 41.7091 38.666C41.3438 39.9009 40.5752 40.3848 38.8913 40.7203L38.7117 40.7546C37.41 40.9937 36.0109 41.0516 32.4643 41.084L31.2524 41.0967C26.9291 41.1486 24.4289 41.4283 21.1913 41.7854L20.8613 41.8224C14.8993 42.5 10.1404 42.3914 6.5844 41.6403L6.47701 41.6174C3.60403 40.9958 1.87675 39.9677 1.03358 38.8013C0.537209 38.1146 0.251289 37.4743 0.23653 36.79C0.221771 36.1056 0.953857 35.3533 1.37066 35.0693C2.53174 34.278 2.91059 33.9911 5.14273 33.586C6.10382 33.4116 7.54369 33.4255 9.20805 33.3479C15.1787 33.0695 24.4025 33.2384 28.0339 33.8499Z" fill="white"/>
<path fill-rule="evenodd" clip-rule="evenodd" d="M24.2788 28.9258C21.5242 37.5369 11.5557 37.2596 4.61954 31.3822C3.29487 30.2598 -1.25862 24.9692 3.22309 21.8798C7.7048 18.7905 6.2693 14.0453 9.8862 8.38554C14.069 1.84031 21.8584 -1.51668 27.3366 7.28964C41.2603 29.6722 25.2064 26.0261 24.2788 28.9258Z" fill="#2C1320" fill-opacity="0.8"/>
<path fill-rule="evenodd" clip-rule="evenodd" d="M7.1547 7.28877C6.8507 6.61011 6.54504 6.34988 6.24321 6.57559C5.98776 6.76662 5.94439 7.27587 6.07854 8.09025L5.99929 8.14927C5.88772 8.23237 5.84604 8.42465 5.90621 8.57875C5.91141 8.59208 5.9173 8.60488 5.92383 8.61704L5.96734 8.69746C6.60255 9.86126 7.1059 10.3379 7.49861 10.0758C7.82869 9.85549 7.88445 8.91709 7.71463 7.21898C7.70273 7.10005 7.62599 7.01553 7.54052 7.0241L7.52979 7.02566C7.5104 7.02936 7.49164 7.03783 7.47441 7.05066L7.1547 7.28877ZM6.25032 7.90577L6.9594 7.37561L6.95774 7.37202C6.7155 6.85116 6.50964 6.68569 6.33531 6.81603L6.32731 6.82239C6.19856 6.93093 6.16218 7.27123 6.24271 7.85258L6.25032 7.90577ZM7.52645 7.32122L6.09307 8.38879C6.07713 8.40066 6.07117 8.42813 6.07977 8.45015C6.08051 8.45205 6.08135 8.45388 6.08229 8.45562L6.12451 8.53364C6.70512 9.59732 7.1418 10.0128 7.41341 9.83151C7.61977 9.69378 7.67393 8.85723 7.53036 7.36077L7.52645 7.32122ZM7.23319 9.02931C7.26675 8.98058 7.28734 8.91466 7.28734 8.84209C7.28734 8.69203 7.19926 8.57038 7.09061 8.57038C6.98195 8.57038 6.89387 8.69203 6.89387 8.84209C6.89387 8.99216 6.98195 9.11381 7.09061 9.11381C7.0993 9.11381 7.10786 9.11303 7.11626 9.11152L7.22809 9.39504L7.23213 9.40402C7.25106 9.44107 7.28751 9.45347 7.31704 9.43125C7.34885 9.40732 7.36059 9.35231 7.34326 9.30838L7.23319 9.02931Z" fill="#2C1320"/>
<path fill-rule="evenodd" clip-rule="evenodd" d="M28.0339 33.8499C30.2333 34.2203 32.1204 36.0937 33.6733 36.3503C35.3992 36.6355 38.0093 35.0693 40.6711 36.9127C41.3562 37.3871 41.9187 37.9573 41.7091 38.666C41.3438 39.9009 40.5752 40.3848 38.8913 40.7203L38.7117 40.7546C37.41 40.9937 36.0109 41.0516 32.4643 41.084L31.2524 41.0967C26.9291 41.1486 24.4289 41.4283 21.1913 41.7854L20.8613 41.8224C14.8993 42.5 10.1404 42.3914 6.5844 41.6403L6.47701 41.6174C3.60403 40.9958 1.87675 39.9677 1.03358 38.8013C0.537209 38.1146 0.251289 37.4743 0.23653 36.79C0.221771 36.1056 0.953857 35.3533 1.37066 35.0693C2.53174 34.278 2.91059 33.9911 5.14273 33.586C6.10382 33.4116 7.54369 33.4255 9.20805 33.3479C15.1787 33.0695 24.4025 33.2384 28.0339 33.8499ZM5.09306 34.158L4.94677 34.1848C2.86665 34.5744 1.53693 35.2832 0.907024 35.9898L0.86771 36.0353C0.384029 36.611 0.338814 37.2581 1.03407 38.2148C1.79426 39.2609 3.73313 40.441 6.52879 41.0426C10.0287 41.7958 14.7342 42.0145 20.6435 41.3595L21.263 41.2906C24.6746 40.9201 27.2921 40.7229 32.1364 40.6759L33.4737 40.6621C36.3578 40.6261 37.5837 40.5548 38.767 40.3277L38.8796 40.3053C44.1052 38.8936 40.3346 36.3605 38.1713 36.349C36.3186 36.3392 34.0934 37.0589 33.4737 36.7895C31.5206 35.9404 30.5177 34.6403 28.0335 34.2244L27.3112 34.1048L26.6946 34.0646C16.5883 33.4162 9.38587 33.383 5.09306 34.158Z" fill="#00160A"/>
<path d="M11.6392 1.35809C11.6034 1.3565 11.5674 1.35655 11.5315 1.35825C10.6472 1.40026 9.95299 2.41466 9.96902 3.63281L9.96972 3.66978L9.98058 4.12623C10.0116 5.49725 10.0287 6.86286 10.0318 8.22304L10.0372 12.4081C10.0384 13.9144 10.0377 15.2739 10.0345 16.6052L10.0301 18.017C10.0129 22.5119 9.96656 25.6665 9.88053 27.0397L9.86391 27.2965C9.76007 28.9747 9.73855 31.3851 9.80014 34.5221C9.80085 34.5584 9.80218 34.5946 9.80411 34.6308C9.87217 35.9026 10.6665 36.8606 11.5853 36.7875L11.6132 36.785L11.9186 36.7543C14.7729 36.473 17.6273 36.3324 20.4818 36.3324C23.2756 36.3324 26.091 36.4671 28.9277 36.7366C29.0098 36.7444 29.0921 36.7451 29.1742 36.7387C30.2498 36.6546 31.0749 35.3942 31.0316 33.9126L31.03 33.8676L31.0085 33.3333C30.8181 28.5198 30.7195 23.7064 30.7127 18.8929L30.7123 18.3581C30.7123 14.8498 30.8313 10.0383 31.0691 3.92143C31.0718 3.8529 31.0723 3.78425 31.0708 3.71566C31.0409 2.38786 30.2451 1.34208 29.2869 1.36175L29.2578 1.36268L27.8075 1.42341C24.5125 1.55763 22.1133 1.62777 20.6083 1.63381L20.3503 1.6342L20.0849 1.63325C18.5486 1.62414 16.1702 1.55137 12.9484 1.41496L11.6392 1.35809Z" fill="white"/>
<path fill-rule="evenodd" clip-rule="evenodd" d="M29.1446 1.23412C29.0284 1.32203 28.8753 1.38388 28.6853 1.41956C29.1744 1.47957 29.559 1.46557 29.839 1.3776L29.7784 1.36725C29.5813 1.33286 29.37 1.28848 29.1446 1.23412Z" fill="#E7EAEE"/>
<path fill-rule="evenodd" clip-rule="evenodd" d="M10.7495 33.625L10.7631 33.6257C10.8476 33.6338 10.9072 33.725 10.8995 33.8256C10.8906 33.9408 10.8014 34.0526 10.7041 34.0618C10.6267 34.0692 10.573 33.987 10.5816 33.8594C10.5906 33.7256 10.6665 33.6255 10.7495 33.625Z" fill="#E7EAEE"/>
<path fill-rule="evenodd" clip-rule="evenodd" d="M12.2968 35.3726L12.3105 35.3733C12.395 35.3814 12.4546 35.4725 12.4468 35.5732C12.4379 35.6884 12.3488 35.8002 12.2515 35.8094C12.1741 35.8168 12.1204 35.7346 12.129 35.6069C12.138 35.4731 12.2139 35.373 12.2968 35.3726Z" fill="#E7EAEE"/>
<path fill-rule="evenodd" clip-rule="evenodd" d="M20.498 35.2583C17.1395 36.282 23.4454 36.1011 25.9052 35.8769C27.244 35.7548 28.313 36.6785 28.9268 36.7368C29.0089 36.7446 29.0912 36.7453 29.1733 36.7388C30.2488 36.6548 31.0739 35.3943 31.0307 33.9127L31.0291 33.8678L31.0076 33.3334C30.8172 28.52 30.7186 23.7066 30.7118 18.8931L30.7114 18.3583C30.7114 14.85 30.8304 10.0384 31.0682 3.92159C31.0709 3.85307 31.0714 3.78442 31.0699 3.71582C31.04 2.38803 29.1977 32.6064 20.498 35.2583Z" fill="#E7EAEE"/>
<path d="M30.459 34.0195L30.4709 34.0202C30.5321 34.0269 30.5822 34.115 30.575 34.2224C30.567 34.3414 30.4927 34.4484 30.4185 34.4565C30.3664 34.4622 30.3224 34.3848 30.3302 34.2519C30.3381 34.1158 30.3998 34.0216 30.459 34.0195Z" fill="white"/>
<path fill-rule="evenodd" clip-rule="evenodd" d="M25.7327 31.3628C24.9903 31.4439 24.4685 30.5271 24.5331 29.4232C24.5959 28.3508 25.1873 27.4991 25.8977 27.5767C26.5963 27.653 27.0975 28.5334 27.0309 29.5232C26.967 30.4738 26.4002 31.29 25.7327 31.3628ZM25.8446 28.7295L25.8043 28.7274C25.6033 28.7344 25.3937 29.0544 25.3667 29.5164C25.3403 29.9679 25.4898 30.2306 25.6667 30.2113C25.9185 30.1838 26.1708 29.8204 26.198 29.4164C26.2225 29.0515 26.0523 28.7524 25.8446 28.7295Z" fill="white"/>
<path d="M28.3785 3.31836C29.1557 3.31836 29.7858 4.18859 29.7858 5.26208C29.7858 5.30226 29.7849 5.34243 29.7831 5.38253L29.7625 5.8587C29.7247 6.76245 29.6869 7.83547 29.6493 9.07776L29.6436 9.27666C29.5516 12.6185 29.5487 20.5245 29.6349 32.9946C29.6423 34.0681 29.0182 34.9466 28.241 34.9568C28.2221 34.9571 28.2031 34.9568 28.1842 34.956L12.7444 34.2981C12.0295 34.2676 11.4448 33.5014 11.3853 32.5169L11.3722 32.2947C11.1689 28.7547 11.1568 24.2346 11.3359 18.7345L11.3622 17.9457C11.4537 15.0513 11.4609 10.8359 11.3837 5.29947C11.3689 4.23736 11.9738 3.35786 12.7395 3.31965L12.7773 3.31845L28.3785 3.31836Z" fill="white"/>
<path fill-rule="evenodd" clip-rule="evenodd" d="M17.9988 26.2398C18.681 26.2795 19.3814 26.1124 19.9889 25.7025C20.7497 25.189 21.3222 24.3277 21.639 23.0925C22.0564 21.4657 21.9031 19.7066 21.3031 18.1583C20.769 16.7803 19.9294 15.7315 19.1555 15.4722C19.1555 15.4722 21.3031 19.6447 20.9954 21.9257C20.525 25.4133 17.9988 26.2398 17.9988 26.2398Z" fill="#E7EAEE"/>
<path fill-rule="evenodd" clip-rule="evenodd" d="M18.494 21.3403C18.826 21.5305 18.9274 21.8839 18.7981 22.4005L18.7907 22.4294C17.95 25.6173 16.9587 25.6463 17.807 22.4294C17.9098 22.0396 17.8843 21.7407 17.7306 21.5325C18.0022 21.4563 18.2567 21.3922 18.494 21.3403Z" fill="#E7EAEE"/>
<path fill-rule="evenodd" clip-rule="evenodd" d="M13.2289 17.6133C13.4464 16.7207 13.764 16.0498 14.3576 15.5193L14.433 15.4532C14.5611 15.3422 14.719 15.2165 14.8474 15.3024C15.0105 15.4115 15.2467 15.8091 15.103 15.9653C15.0056 16.0711 14.6044 16.1837 14.3019 16.5496C13.9449 16.9816 13.6879 17.6778 13.6879 17.8482C13.6879 18.4043 13.1005 18.1403 13.2289 17.6133Z" fill="#E7EAEE"/>
<path fill-rule="evenodd" clip-rule="evenodd" d="M12.5569 4.89155C11.8103 7.72309 11.8153 8.2849 11.7705 7.79686C11.6256 6.21847 11.5163 5.18126 11.6885 4.55121C11.9065 3.75355 12.4529 3.59664 12.5936 3.68922C12.8912 3.88495 12.5569 4.89155 12.5569 4.89155Z" fill="#E7EAEE"/>
<path fill-rule="evenodd" clip-rule="evenodd" d="M24.84 19.4453L24.5916 19.4348C24.2969 19.4244 24.0845 19.4268 23.9063 19.4461C23.7632 19.4615 23.6563 19.4885 23.5959 19.5149L23.5839 19.5204L23.5827 19.5282C23.576 19.5744 23.5712 19.6362 23.5691 19.7109L23.5685 19.7395C23.5645 19.9636 23.5841 20.2631 23.6231 20.5975C23.6551 20.8718 23.6987 21.1566 23.7443 21.3967L23.7557 21.4558C23.7733 21.5454 23.7904 21.6232 23.8053 21.6839L23.8107 21.7055L23.8172 21.7089C23.9087 21.7538 24.0907 21.7591 24.4415 21.7234L24.6798 21.6977C24.8403 21.6814 24.9573 21.6744 25.0727 21.6764L26.1926 21.7088C26.3493 21.7128 26.4908 21.716 26.6295 21.7185L26.8811 21.7225C27.5093 21.773 28.1998 21.7351 28.2856 21.5191C28.5476 20.8604 28.6711 19.5037 28.5476 19.4946C28.3254 19.4783 28.0564 19.4591 27.9286 19.4614L27.6335 19.4688L27.3659 19.4717C27.2437 19.4727 27.1163 19.4732 26.9795 19.4734L25.4447 19.4685C25.3449 19.4676 25.2472 19.4642 25.0711 19.4562L24.84 19.4453Z" fill="#E7EAEE"/>
<path fill-rule="evenodd" clip-rule="evenodd" d="M13.073 0.93416L11.6504 0.872503C11.6067 0.87056 11.563 0.870626 11.5193 0.872701C10.4318 0.92435 9.58055 2.18383 9.61794 3.68582L9.62878 4.14151C9.64152 4.70426 9.66092 5.26608 9.68028 5.82698C9.71316 6.77942 9.74595 7.7292 9.74595 8.67632L9.75052 12.1115C9.75489 16.9019 9.74439 24.7914 9.59033 27.0766L9.57875 27.2559C9.47861 28.875 9.38865 31.153 9.44002 34.0899L9.4483 34.5354C9.44916 34.5792 9.45076 34.623 9.4531 34.6667C9.53616 36.219 10.5146 37.3844 11.6386 37.2697L11.9435 37.2391L11.9937 37.2342L12.0246 37.3049C12.074 37.4175 12.1201 37.5227 12.1309 37.5744C12.1579 37.7046 12.1608 37.8521 12.1452 38.1858L12.1293 38.4987L12.125 38.6003C12.102 39.224 12.1541 39.595 12.3744 39.8744C12.6577 40.2337 12.9578 40.1956 13.5728 40.1175L13.6004 40.114L13.7587 40.0928C13.9417 40.0684 14.1475 40.0881 14.2877 40.1016C14.328 40.1055 14.363 40.1088 14.3903 40.1104L14.4421 40.114C14.795 40.1334 14.851 39.973 14.8819 39.5765C14.8989 39.358 14.8767 39.186 14.7838 38.7424L14.7142 38.4155L14.6911 38.3018C14.5825 37.7476 14.5924 37.471 14.7339 37.3372C14.7682 37.3047 14.9116 37.2458 15.0769 37.1779L15.0769 37.1779L15.0771 37.1778C15.2476 37.1078 15.4415 37.0281 15.5632 36.958C17.2027 36.8649 18.8421 36.8184 20.4816 36.8184C22.2045 36.8184 23.9355 36.8698 25.6748 36.9725C25.6629 36.9986 25.6606 37.0363 25.673 37.0892C25.6868 37.1482 25.7391 37.1891 25.806 37.2413C25.9833 37.3798 26.2628 37.5981 26.1978 38.4457L26.198 38.4805C26.2078 39.1487 26.501 39.5407 26.9728 39.6737C27.2882 39.7626 27.647 39.7358 28.0377 39.6422C28.2312 39.5959 28.3558 39.4288 28.4153 39.1742C28.4482 39.0335 28.4599 38.9071 28.4676 38.6557C28.4676 38.6557 28.3813 37.3444 28.8625 37.2176C28.8762 37.2189 28.8898 37.2202 28.9034 37.2215C28.9577 37.2266 29.0121 37.2292 29.0666 37.229C29.0749 37.2317 29.0833 37.2346 29.0918 37.2378C29.1152 37.2465 29.1375 37.2412 29.1575 37.2264C29.1697 37.2257 29.1818 37.2249 29.194 37.2239C30.4744 37.1239 31.4536 35.6092 31.3812 33.8407L31.3597 33.3069C31.1626 28.324 31.064 23.3411 31.064 18.3582C31.064 14.965 31.1758 10.3435 31.3992 4.49385L31.4203 3.94758C31.4235 3.86534 31.4242 3.78296 31.4223 3.70065C31.3861 2.0912 30.4121 0.827041 29.2468 0.877072L28.5082 0.908398C24.8483 1.06166 22.2148 1.14151 20.6077 1.14797L20.3505 1.14836C18.8501 1.14676 16.4243 1.07536 13.073 0.93416ZM28.3802 37.1733C27.5664 37.1007 26.7543 37.0392 25.944 36.9889C26.3328 37.2486 26.4713 37.7341 26.479 38.4062L26.4792 38.4457C26.4792 38.88 26.7238 39.1635 27.0528 39.2562C27.0873 39.266 27.1226 39.2765 27.1587 39.2874C27.386 39.3555 27.6458 39.4333 27.9339 39.368L27.9776 39.3578C28.1769 39.2562 28.1769 38.2675 28.1769 38.2675C28.1791 38.1871 28.1811 38.1346 28.1845 38.0708L28.1889 37.9991C28.2138 37.6386 28.2684 37.3695 28.3802 37.1733ZM12.4691 37.4404C12.4499 37.3481 12.4225 37.2666 12.3872 37.1965C13.0777 37.132 13.7682 37.0757 14.4588 37.0277C14.3506 37.1938 14.3404 37.4181 14.3365 37.6863C14.333 37.9171 14.3668 38.1625 14.4378 38.5083L14.4421 38.5289L14.5071 38.8345C14.5867 39.212 14.6106 39.3698 14.6039 39.5021L14.6024 39.5245C14.5929 39.6473 14.4787 39.7858 14.2859 39.7703L14.2514 39.7678C14.1687 39.7505 13.3541 39.7703 13.3541 39.7703C12.978 39.8229 12.7969 39.7505 12.6124 39.5165C12.4885 39.3593 12.4552 39.0804 12.4797 38.5463L12.4949 38.2465C12.514 37.8546 12.5124 37.6711 12.4767 37.479L12.4691 37.4404ZM11.5313 1.35816C11.5671 1.35646 11.6031 1.35641 11.639 1.358L12.9481 1.41487C16.1699 1.55128 18.5483 1.62405 20.0846 1.63316L20.35 1.63411L20.608 1.63371C22.113 1.62768 24.5123 1.55754 27.8072 1.42332L29.2575 1.36259L29.2866 1.36166C30.2448 1.34199 31.0406 2.38777 31.0705 3.71557C31.072 3.78416 31.0715 3.85281 31.0688 3.92134C30.831 10.0382 30.7121 14.8497 30.7121 18.358L30.7124 18.8928C30.7192 23.7063 30.8178 28.5197 31.0082 33.3332L31.0297 33.8675L31.0313 33.9125C31.0746 35.3941 30.2495 36.6545 29.1739 36.7386C29.0918 36.745 29.0095 36.7443 28.9274 36.7365C26.0907 36.467 23.2753 36.3323 20.4815 36.3323C17.627 36.3323 14.7727 36.4729 11.9183 36.7542L11.6129 36.7849L11.585 36.7874C10.6662 36.8605 9.87187 35.9025 9.80382 34.6307C9.80188 34.5945 9.80056 34.5583 9.79985 34.522C9.73826 31.385 9.75977 28.9746 9.86361 27.2964L9.88023 27.0396C9.96627 25.6664 10.0126 22.5118 10.0298 18.0169L10.0342 16.6051C10.0374 15.2738 10.0381 13.9143 10.0369 12.408L10.0315 8.22295C10.0284 6.86277 10.0113 5.49716 9.98028 4.12614L9.96943 3.66969L9.96873 3.63271C9.9527 2.41457 10.6469 1.40017 11.5313 1.35816ZM29.785 5.26356C29.785 4.19007 29.1549 3.31984 28.3777 3.31984L12.7764 3.31993L12.7387 3.32113C11.973 3.35934 11.3681 4.23884 11.3829 5.30095C11.46 10.8374 11.4529 15.0528 11.3614 17.9472L11.3351 18.7359C11.156 24.2361 11.1681 28.7562 11.3714 32.2961L11.3845 32.5184C11.444 33.5028 12.0287 34.2691 12.7436 34.2995L28.1834 34.9575C28.2023 34.9583 28.2213 34.9585 28.2402 34.9583C29.0174 34.9481 29.6414 34.0696 29.634 32.9961C29.5479 20.5259 29.5508 12.62 29.6428 9.27814L29.6485 9.07924C29.6861 7.83695 29.7238 6.76393 29.7617 5.86018L29.7823 5.38401C29.7841 5.3439 29.785 5.30374 29.785 5.26356ZM12.7907 3.80559H28.3784C28.9613 3.80559 29.4339 4.45826 29.4339 5.26338C29.4339 5.29351 29.4332 5.32364 29.4319 5.35371C29.395 6.17338 29.3583 7.15187 29.3217 8.28941L29.2977 9.05876C29.2047 12.1288 29.1957 19.4807 29.2705 31.1261L29.2829 33.0006C29.2885 33.8057 28.8205 34.4645 28.2376 34.4722C28.2234 34.4724 28.2092 34.4722 28.195 34.4716L12.7552 33.8137L12.7319 33.8123C12.2063 33.7741 11.7798 33.2054 11.7359 32.4778C11.5192 28.8921 11.5047 24.2597 11.693 18.5836L11.7107 18.0584C11.7995 15.3272 11.8121 11.4105 11.7488 6.30542L11.7354 5.29142C11.7242 4.48646 12.1876 3.82135 12.7704 3.80586L12.7907 3.80559ZM12.251 2.31383C12.2732 2.64418 12.0999 2.90929 11.8664 2.8871C11.6528 2.8668 11.4649 2.63126 11.443 2.34759L11.4417 2.32686C11.4282 2.04462 11.5847 1.8047 11.7947 1.77393L11.8106 1.77202C12.0346 1.75073 12.2296 1.99523 12.251 2.31383ZM11.8387 2.11023L11.825 2.11094C11.7405 2.11903 11.6809 2.21021 11.6887 2.31084C11.6976 2.42606 11.7867 2.53783 11.884 2.54708C11.9614 2.55443 12.0151 2.47224 12.0065 2.34461C11.9975 2.21081 11.9216 2.11071 11.8387 2.11023ZM10.5933 4.89131C10.3498 4.92114 10.1858 4.59762 10.206 4.20964C10.2258 3.82936 10.4149 3.52373 10.6491 3.55242L10.6642 3.5547C10.8792 3.59333 11.0278 3.8855 11.0156 4.21298L11.0145 4.23589C10.9944 4.57064 10.8127 4.86442 10.5933 4.89131ZM10.6302 3.89063L10.6183 3.88982C10.5436 3.89109 10.4614 4.03047 10.4509 4.2331C10.4403 4.43554 10.5033 4.55977 10.5707 4.5515C10.6623 4.54029 10.7575 4.38633 10.7683 4.20686C10.7784 4.03694 10.7092 3.90039 10.6302 3.89063ZM28.8245 2.31383C28.8023 2.64418 28.9756 2.90929 29.2092 2.8871C29.4228 2.8668 29.6106 2.63126 29.6325 2.34759L29.6338 2.32686C29.6474 2.04462 29.4909 1.8047 29.2808 1.77393L29.265 1.77202C29.041 1.75073 28.846 1.99523 28.8245 2.31383ZM29.2382 2.11023L29.2518 2.11094C29.3363 2.11903 29.396 2.21021 29.3882 2.31084C29.3793 2.42606 29.2901 2.53783 29.1928 2.54708C29.1155 2.55443 29.0617 2.47224 29.0703 2.34461C29.0793 2.21081 29.1552 2.11071 29.2382 2.11023ZM30.1333 4.337C30.004 4.06987 30.0858 3.72991 30.3054 3.59015C30.5172 3.45537 30.7679 3.56472 30.865 3.84235L30.8716 3.8622C30.9559 4.12799 30.8817 4.43527 30.6968 4.56112L30.6831 4.57001C30.4931 4.68664 30.2516 4.5813 30.1333 4.337ZM30.643 3.9972L30.6368 3.98061C30.5955 3.88197 30.4948 3.8418 30.406 3.89834C30.3212 3.95227 30.2959 4.05764 30.3387 4.14615C30.3926 4.25751 30.5072 4.30757 30.5843 4.26025C30.6516 4.21892 30.6797 4.10203 30.643 3.9972ZM10.4181 33.4477C10.2479 33.6805 10.2581 34.0373 10.4477 34.2279C10.6211 34.4022 10.8746 34.389 11.0229 34.1916L11.0335 34.1769C11.1747 33.9731 11.1658 33.6505 11.0187 33.4403L11.0074 33.4247C10.8453 33.2094 10.5822 33.2231 10.4181 33.4477ZM10.8294 33.6615L10.8395 33.6741C10.9007 33.7554 10.9042 33.8781 10.8515 33.9482C10.7913 34.0284 10.6711 34.0346 10.592 33.9552C10.5292 33.8921 10.5261 33.7815 10.5918 33.6915C10.6608 33.5972 10.7655 33.5881 10.8294 33.6615ZM11.9964 35.9776C11.8068 35.7871 11.7966 35.4303 11.9668 35.1974C12.1309 34.9728 12.394 34.9591 12.5561 35.1745L12.5674 35.19C12.7144 35.4002 12.7234 35.7228 12.5821 35.9266L12.5715 35.9413C12.4232 36.1388 12.1698 36.1519 11.9964 35.9776ZM12.388 35.4236L12.3779 35.4109C12.3139 35.3376 12.2092 35.3467 12.1403 35.441C12.0746 35.531 12.0777 35.6416 12.1405 35.7047C12.2195 35.7841 12.3398 35.7779 12.4 35.6977C12.4526 35.6276 12.4491 35.5049 12.388 35.4236ZM29.3196 35.309C29.1241 35.5816 29.1198 35.9833 29.3293 36.1904C29.5211 36.38 29.8075 36.3433 29.9784 36.1108C30.1555 35.8698 30.1596 35.4814 29.9842 35.2447C29.8068 35.0053 29.5101 35.0433 29.3196 35.309ZM29.8049 35.4758L29.8149 35.4885C29.8876 35.5866 29.8858 35.7563 29.8051 35.866C29.7182 35.9843 29.5651 36.0039 29.4723 35.9123C29.3972 35.8381 29.3989 35.6817 29.4954 35.5471C29.5934 35.4105 29.73 35.3887 29.8049 35.4758ZM30.4383 34.7964C30.2197 34.8202 30.066 34.5503 30.0851 34.2252C30.1036 33.9095 30.2777 33.6587 30.4869 33.6815C30.6926 33.704 30.8402 33.9632 30.8206 34.2547C30.8017 34.5346 30.6349 34.7749 30.4383 34.7964ZM30.4708 34.0206L30.4589 34.02C30.3997 34.0221 30.338 34.1163 30.3301 34.2523C30.3223 34.3853 30.3663 34.4626 30.4184 34.4569C30.4925 34.4488 30.5668 34.3419 30.5748 34.2229C30.5821 34.1154 30.5319 34.0274 30.4708 34.0206Z" fill="#00160A"/>
<path fill-rule="evenodd" clip-rule="evenodd" d="M11.9671 35.1972C11.7969 35.4301 11.807 35.7868 11.9967 35.9774C12.1701 36.1517 12.4235 36.1385 12.5718 35.9411L12.5825 35.9264C12.7237 35.7226 12.7147 35.4 12.5677 35.1898L12.5564 35.1742C12.3943 34.9589 12.1312 34.9726 11.9671 35.1972ZM12.3782 35.4107L12.3883 35.4234C12.4495 35.5047 12.453 35.6274 12.4003 35.6974C12.3401 35.7776 12.2199 35.7839 12.1408 35.7045C12.078 35.6413 12.0749 35.5307 12.1406 35.4408C12.2096 35.3464 12.3143 35.3374 12.3782 35.4107Z" fill="#00160A"/>
<path d="M29.8059 35.4758L29.8159 35.4885C29.8884 35.5866 29.8861 35.7563 29.8053 35.8662C29.7181 35.9847 29.5649 36.0046 29.4724 35.9131C29.3975 35.8391 29.3996 35.6826 29.4964 35.5478C29.5946 35.4109 29.7313 35.3888 29.8059 35.4758Z" fill="white"/>
<path fill-rule="evenodd" clip-rule="evenodd" d="M14.275 14.6204C14.1938 14.6593 14.1205 14.7122 14.0299 14.7892L13.9604 14.8494L13.926 14.8797C13.4012 15.3475 13.0509 15.9293 12.8017 16.7171L12.7883 16.7597L12.7784 16.7556C12.7122 16.7288 12.6522 16.7157 12.5881 16.723C12.4515 16.7387 12.3241 16.8518 12.2786 17.0626C12.2075 17.3919 12.2369 17.7684 12.3291 18.1538L12.3464 18.2244C12.4365 18.5818 12.5361 18.8242 12.7017 18.895C12.922 18.9891 13.6828 18.5726 13.9481 18.1946C14.1373 17.925 14.0615 17.5952 13.8814 17.4049L13.8649 17.388L13.8475 17.3714L13.8277 17.3537L13.8409 17.3211C13.8501 17.2987 13.8598 17.2759 13.8698 17.253C13.9774 17.0066 14.1119 16.7736 14.2482 16.6087C14.3007 16.5452 14.3614 16.487 14.4305 16.4327C14.5376 16.3487 14.9645 16.1172 15.0364 16.0391C15.2672 15.7884 15.2405 15.4252 15.0945 15.1104C15.0037 14.9146 14.861 14.7311 14.723 14.6388C14.5781 14.5419 14.4264 14.5477 14.275 14.6204ZM14.5842 15.0328C14.7474 15.1419 14.9836 15.5396 14.8398 15.6957C14.7424 15.8016 14.3412 15.9141 14.0388 16.2801C13.6817 16.7121 13.4248 17.4082 13.4248 17.5786L13.4655 17.5997C13.6881 17.7181 13.7729 17.815 13.7199 17.8905C13.4838 18.2269 12.8421 18.4979 12.7945 18.4776C12.7478 18.4576 12.4709 17.6991 12.5812 17.1879C12.596 17.1196 12.7242 17.1715 12.9658 17.3437C13.1833 16.4511 13.5009 15.7802 14.0944 15.2497L14.1699 15.1837C14.2979 15.0726 14.4558 14.9469 14.5842 15.0328Z" fill="#00160A"/>
<path fill-rule="evenodd" clip-rule="evenodd" d="M12.2398 21.9893C10.9363 20.0219 10.8609 16.6657 12.269 14.5044C13.1439 13.1617 15.2001 12.2968 16.6389 12.7789C17.4129 13.0383 18.2525 14.0871 18.7865 15.4651C19.3866 17.0134 19.5399 18.7725 19.1225 20.3993C18.8056 21.6344 18.2331 22.4958 17.4723 23.0092C16.8649 23.4192 16.1644 23.5862 15.4823 23.5466C14.2514 23.475 12.7207 22.7152 12.2398 21.9893ZM18.4766 15.6939C17.9861 14.4284 17.2219 13.4738 16.5562 13.2507L16.5166 13.2379C15.2041 12.8267 13.3108 13.6317 12.5308 14.829C11.2466 16.8 11.3157 19.8739 12.4996 21.6608C12.9081 22.2775 14.3516 22.994 15.4973 23.0606C16.1245 23.0971 16.7675 22.9437 17.3181 22.5722C17.9977 22.1136 18.5056 21.3493 18.7911 20.2365C19.1733 18.7466 19.0323 17.1278 18.4766 15.6939ZM17.7986 20.351C18.5772 18.4632 17.5217 14.3871 16.0476 14.0469C14.6619 13.7272 14.1366 14.1914 13.539 14.9071L13.4234 15.0471C12.2538 16.4753 12.2538 19.5435 13.3965 20.967C13.6836 21.3247 14.947 22.2424 15.9164 21.9616C16.5592 21.7754 17.4538 21.187 17.7986 20.351ZM14.5451 14.5788C14.6181 14.5427 14.695 14.5129 14.7768 14.4897C14.7659 14.5247 14.7565 14.5619 14.7488 14.6012C14.7051 14.8231 14.7096 15.013 14.7567 15.4751L14.7889 15.7813L14.7965 15.8584L14.8036 15.9364C14.8537 16.5214 14.8083 16.8266 14.6189 16.9949C14.4455 17.1489 14.2751 17.2071 13.8857 17.2697L13.7399 17.2925C13.5603 17.321 13.4659 17.3408 13.3525 17.3762L13.3011 17.3905C13.1446 17.436 13.0145 17.4924 12.9134 17.5634C12.9804 16.7281 13.2281 15.9338 13.6566 15.4106C14.0609 14.9168 14.2649 14.7176 14.5451 14.5788ZM15.851 14.6156C15.8431 14.5714 15.8336 14.5295 15.8224 14.4901C15.8766 14.5006 15.9324 14.5124 15.9897 14.5257C16.7231 14.6949 17.3803 16.1481 17.619 17.6243C17.459 17.5054 17.2389 17.3989 16.9515 17.2896L16.8561 17.254C16.7981 17.2329 16.7375 17.2116 16.6694 17.1882L16.3226 17.0709L16.2414 17.0423C16.1929 17.0246 16.1549 17.0098 16.1247 16.9965L16.1117 16.9907C16.0993 16.985 16.089 16.9798 16.0808 16.9753L16.075 16.9719L16.0603 16.9491C15.9282 16.7356 15.8744 16.4203 15.8711 15.9461L15.8711 15.8394C15.8717 15.7504 15.8737 15.6578 15.8777 15.5021L15.8816 15.3404C15.8896 14.9655 15.8839 14.801 15.851 14.6156ZM17.6562 18.7091C17.6764 18.6913 17.6955 18.6732 17.7135 18.6548C17.7223 19.2061 17.6555 19.7159 17.493 20.1099C17.2597 20.6756 16.6114 21.2142 15.9786 21.4418C15.9948 21.3857 16.0078 21.3248 16.0179 21.2596C16.0486 21.0602 16.0535 20.832 16.0414 20.5086L16.0338 20.3347L16.0223 20.1058C16.0007 19.6488 16.0059 19.4575 16.0348 19.4117C16.1646 19.2056 16.3444 19.1268 16.802 19.0361L16.9081 19.0152C17.2907 18.938 17.4701 18.8728 17.6562 18.7091ZM14.9671 21.2039C14.9719 21.286 14.9917 21.3698 15.0237 21.4489C14.8617 21.4015 14.6933 21.3336 14.5216 21.2468C14.1368 21.0523 13.7637 20.7693 13.6322 20.6055C13.2149 20.0857 12.9747 19.301 12.9116 18.4748C13.0196 18.5433 13.1622 18.6013 13.339 18.6591L13.3663 18.6679C13.438 18.6909 13.5112 18.7123 13.5977 18.7358L13.8448 18.8021C14.3979 18.9591 14.6835 19.141 14.814 19.384L14.8271 19.4094C14.9136 19.5835 14.9375 19.7805 14.9444 20.2922L14.9483 20.6566C14.9514 20.8749 14.9563 21.0196 14.9671 21.2039ZM15.3825 14.5082L15.3984 14.5102C15.5477 14.5348 15.5793 14.7261 15.5616 15.4476L15.5557 15.6977C15.5542 15.7731 15.5537 15.8338 15.5537 15.9004C15.5539 16.3526 15.5931 16.704 15.6983 16.9854C15.6791 16.9718 15.6574 16.9642 15.6343 16.9642L15.6103 16.9646L15.6044 16.9648L15.6017 16.9633C15.5613 16.9426 15.5171 16.9491 15.4814 16.9781L15.4778 16.9812L15.4654 16.984C15.1585 17.0546 14.8535 17.3078 14.69 17.6432C14.5145 18.003 14.5232 18.3959 14.7235 18.7323C14.5329 18.5928 14.2796 18.481 13.945 18.3834L13.8374 18.3535C13.774 18.3365 13.6951 18.3156 13.6951 18.3157L13.6315 18.2984C13.57 18.2814 13.5156 18.2655 13.4633 18.2491L13.4373 18.2409C13.2785 18.19 13.1531 18.1377 13.0654 18.0832L13.0515 18.0743C13.0245 18.0566 13.0031 18.0395 12.9879 18.0243L12.9859 18.0221L12.9897 18.0166C13.0006 18.0017 13.017 17.9849 13.0394 17.967C13.1163 17.9057 13.243 17.8495 13.4167 17.8032L13.4607 17.7901C13.538 17.7681 13.6138 17.7525 13.732 17.733L13.924 17.7027C14.3606 17.6325 14.5628 17.5632 14.7896 17.3617C15.1203 17.0677 15.1834 16.6081 15.1137 15.8415L15.106 15.7606C15.1021 15.7209 15.0978 15.6796 15.0922 15.6268L15.0704 15.4197C15.0312 15.0345 15.0256 14.8692 15.0513 14.7278L15.0537 14.715C15.0851 14.5555 15.1651 14.4895 15.3825 14.5082ZM15.0553 19.1C15.0595 19.1074 15.0637 19.1149 15.0677 19.1225C15.2173 19.4011 15.2516 19.6472 15.2603 20.2757L15.2638 20.6076C15.2664 20.8154 15.2703 20.9522 15.2789 21.1107L15.2821 21.1677C15.2886 21.28 15.4274 21.4586 15.5808 21.4182C15.7003 21.3867 15.7464 21.1164 15.7239 20.5148L15.7208 20.4395L15.7034 20.0865C15.676 19.5119 15.6844 19.3187 15.7784 19.152C15.5495 19.2695 15.2839 19.2626 15.0553 19.1ZM16.153 18.7821C16.2944 18.709 16.4742 18.6592 16.7232 18.6088L16.8593 18.5819C17.1773 18.5178 17.331 18.4653 17.4612 18.3597L17.4854 18.3392C17.6328 18.2096 17.6469 18.1837 17.5814 18.1106L17.5602 18.088C17.4443 17.9674 17.2204 17.8471 16.8982 17.7222L16.8301 17.6964C16.7566 17.6689 16.6811 17.642 16.5921 17.6115L16.2218 17.4861C16.1526 17.462 16.097 17.4419 16.0518 17.4234C16.3383 17.8415 16.3858 18.3122 16.189 18.7143L16.1779 18.7364C16.1698 18.752 16.1615 18.7672 16.153 18.7821ZM15.5222 17.3651L15.5422 17.3612L15.5564 17.373C16.0167 17.7595 16.1191 18.1806 15.9489 18.5111C15.7796 18.8398 15.4078 18.9533 15.141 18.7198C14.8317 18.4491 14.7803 18.1547 14.9238 17.8603C15.0451 17.6117 15.2875 17.415 15.5222 17.3651Z" fill="#00160A"/>
<path fill-rule="evenodd" clip-rule="evenodd" d="M25.371 18.6014L25.371 18.6014C25.7969 18.6034 26.2281 18.6054 26.6504 18.6018L26.8848 18.5991C26.905 18.5988 26.9348 18.598 26.9724 18.5969C27.3248 18.5866 28.3649 18.5563 28.5937 18.7961C28.9679 19.1883 28.8189 21.6578 28.2839 21.7381C27.396 21.8713 25.904 21.8261 24.7294 21.7904L24.7292 21.7904C24.5967 21.7864 24.4682 21.7825 24.3452 21.779C24.1742 21.7742 23.9901 21.7948 23.8083 21.8151C23.4008 21.8607 23.0049 21.905 22.7943 21.6578C22.6856 21.5303 22.2672 19.1032 22.5931 18.7699C22.8421 18.5151 23.5563 18.5494 24.198 18.5802C24.3958 18.5897 24.5868 18.5989 24.7551 18.5991C24.9581 18.5994 25.1639 18.6004 25.371 18.6014ZM24.0965 19.062L23.8481 19.0515C23.5533 19.0411 23.3409 19.0435 23.1627 19.0628C23.0196 19.0782 22.9128 19.1052 22.8523 19.1316L22.8404 19.1371L22.8392 19.1449C22.8325 19.1911 22.8277 19.2529 22.8256 19.3276L22.825 19.3562C22.821 19.5803 22.8406 19.8798 22.8796 20.2142C22.9115 20.4885 22.9552 20.7733 23.0007 21.0134L23.0121 21.0725C23.0298 21.1621 23.0468 21.2399 23.0618 21.3006L23.0672 21.3222L23.0737 21.3256C23.1652 21.3705 23.3471 21.3758 23.698 21.3401L23.9363 21.3144C24.0968 21.2981 24.2138 21.2911 24.3292 21.2931L24.4109 21.2954C24.4037 21.1208 24.4077 20.8815 24.4188 20.53L24.4313 20.1535C24.4484 19.632 24.4456 19.2781 24.4219 19.077L24.3276 19.0729L24.0965 19.062ZM25.4491 21.3255L24.7679 21.3058C24.7642 21.2508 24.7615 21.1833 24.7607 21.1052L24.7605 21.0884C24.7594 20.9653 24.7611 20.8478 24.7674 20.6413L24.7872 20.0339C24.7992 19.6163 24.7995 19.3132 24.7795 19.0855L26.236 19.0901C26.3134 19.09 26.3878 19.0898 26.46 19.0895C26.4378 19.6947 26.4733 20.7522 26.5188 21.3421C26.3965 21.3418 26.2694 21.3409 26.1375 21.3392L25.886 21.3352C25.7473 21.3327 25.6057 21.3295 25.4491 21.3255ZM26.8762 21.3405C27.4175 21.3343 27.8519 21.3101 28.1887 21.2639L28.2202 21.2594L28.2244 21.2533C28.2423 21.2252 28.2633 21.18 28.2848 21.1196L28.2928 21.0962C28.356 20.9075 28.406 20.6324 28.4318 20.328C28.4573 20.0268 28.4571 19.7215 28.4317 19.4803C28.42 19.369 28.4035 19.2777 28.3849 19.2138L28.3796 19.1967L28.3757 19.1853L28.3617 19.1793C28.324 19.1639 28.2723 19.1491 28.2091 19.1361C28.0844 19.1104 27.9238 19.0933 27.736 19.0842C27.5614 19.0757 27.3838 19.0744 27.185 19.0781L26.8899 19.0855L26.8047 19.0864C26.802 19.1519 26.8 19.2296 26.7992 19.3166L26.799 19.345C26.7976 19.5819 26.8037 19.8803 26.8159 20.2107L26.8184 20.2772C26.8285 20.5364 26.8419 20.8042 26.8561 21.0398L26.8648 21.1769C26.8687 21.236 26.8725 21.2909 26.8762 21.3405ZM25.3268 19.9055L25.3589 19.969C25.3955 20.0403 25.4301 20.1034 25.4631 20.1591C25.4188 20.2922 25.3956 20.4418 25.3883 20.6343C25.3857 20.7043 25.4246 20.764 25.4753 20.7677C25.526 20.7713 25.5692 20.7176 25.5719 20.6476C25.5761 20.5366 25.5859 20.4452 25.6034 20.364C25.7051 20.4869 25.7941 20.5326 25.8878 20.5349L25.9058 20.535C25.9566 20.535 25.9977 20.4781 25.9977 20.408C25.9977 20.3423 25.9616 20.2883 25.9152 20.2818L25.9058 20.2811L25.8904 20.2811C25.8304 20.2792 25.77 20.2443 25.6877 20.1296C25.7145 20.0779 25.7468 20.0265 25.7854 19.9717L25.884 19.837C25.9201 19.7877 25.9203 19.7073 25.8846 19.6575C25.8489 19.6077 25.7907 19.6074 25.7546 19.6567L25.6721 19.769C25.632 19.8243 25.5968 19.8776 25.5661 19.931L25.5326 19.8684C25.5154 19.8354 25.4973 19.8 25.4783 19.7618C25.4496 19.704 25.3924 19.6894 25.3506 19.729C25.3087 19.7687 25.2981 19.8477 25.3268 19.9055ZM27.8368 19.7862L27.8377 19.7088C27.8381 19.6387 27.7973 19.5814 27.7466 19.5808C27.6958 19.5802 27.6543 19.6366 27.6539 19.7067C27.6534 19.7837 27.652 19.8528 27.6497 19.9146C27.6026 19.8941 27.5518 19.8772 27.4962 19.8622L27.3823 19.8329C27.3324 19.8198 27.2843 19.8651 27.2749 19.9339C27.2654 20.0028 27.2982 20.0692 27.348 20.0823L27.4843 20.1178C27.5385 20.1334 27.5861 20.151 27.6292 20.1733C27.6074 20.3319 27.5715 20.4075 27.5225 20.4554L27.5097 20.4673L27.5022 20.4751C27.4664 20.5163 27.4583 20.5891 27.4849 20.6435C27.5133 20.7017 27.5704 20.717 27.6125 20.6778L27.6275 20.6638C27.7041 20.5896 27.7595 20.4829 27.7941 20.3025C27.8414 20.3562 27.8866 20.4245 27.935 20.5132C27.9655 20.5692 28.0231 20.5804 28.0637 20.5382C28.1042 20.496 28.1123 20.4165 28.0818 20.3605C27.9978 20.2065 27.918 20.1004 27.8274 20.0242C27.8322 19.9526 27.8353 19.8736 27.8368 19.7862Z" fill="#00160A"/>
</svg>
