<svg width="44" height="37" viewBox="0 0 44 37" fill="none" xmlns="http://www.w3.org/2000/svg">
<path fill-rule="evenodd" clip-rule="evenodd" d="M36.6898 1.51047C29.8753 -3.38043 24.5619 10.9761 20.7027 12.7834C12.925 16.4258 -1.52143 19.5938 1.23364 26.6751C5.01657 36.3983 18.179 37.3685 27.5917 36.3983C39.8347 35.1364 50.0879 11.1264 36.6898 1.51047Z" fill="#2C1320" fill-opacity="0.8"/>
<path fill-rule="evenodd" clip-rule="evenodd" d="M13.9993 9.87241C13.6677 8.58443 14.571 6.44646 16.1851 5.58683C17.7991 4.7272 19.8636 4.66831 21.6611 5.1788C21.6038 3.66099 23.3648 2.35855 25.0963 2.48395C26.8278 2.60935 28.2644 3.96814 28.4971 5.47309C28.6783 6.64572 27.9896 8.04249 26.6579 8.25489C27.1286 9.72507 27.3904 11.2719 27.132 12.7818C26.8736 14.2917 26.0516 15.7666 24.6642 16.6941C24.2812 17.1445 24.5705 17.8238 25.0748 18.1711C25.579 18.5184 26.2316 18.6405 26.835 18.8322C29.3632 19.6353 31.1431 21.8155 31.5581 24.1386C31.973 26.4617 31.1442 28.871 29.6466 30.8241C28.6207 32.1618 27.2252 33.3499 25.4793 33.8644C23.0286 34.5865 20.3417 33.8834 17.9621 32.9983C17.055 32.6608 16.1312 32.2774 15.4909 31.6222C14.8044 30.9199 13.507 31.2992 12.5714 31.7288C13.1935 31.9544 13.8156 32.18 14.4377 32.4056C14.5714 32.4541 14.7164 32.5117 14.7784 32.626C14.9089 32.8666 14.5875 33.0982 14.3154 33.2179C14.023 33.3466 13.7306 33.4753 13.4382 33.604C11.6435 34.394 9.77431 35.2011 7.76565 35.2499C5.56957 35.3032 3.49514 34.4452 1.51871 33.6068C1.29903 33.5136 1.06616 33.4098 0.946708 33.2236C0.827258 33.0375 0.894028 32.7472 1.13011 32.6926C3.34732 32.1801 5.4465 31.2806 7.26797 30.0624C7.12863 29.3041 7.16147 28.522 7.36402 27.7747C7.39332 27.6666 7.43546 27.5481 7.54566 27.4927C7.81659 27.3567 8.05192 27.7151 8.09979 27.985C8.22063 28.6662 8.34146 29.3475 8.4623 30.0287C9.91325 29.8884 11.3215 29.4226 12.5151 28.688C11.5841 28.0326 10.6531 27.3773 9.72219 26.722C9.18504 26.3439 8.66655 26.1177 8.37645 25.3773C8.18305 24.8837 8.33914 24.3767 8.84473 23.8562C8.28033 21.3977 8.03337 19.5444 8.10386 18.2964C8.12268 17.9632 8.16534 17.6036 8.42187 17.3567C8.87469 16.9208 9.76383 17.1088 10.1772 17.5737C10.5905 18.0385 10.6597 18.6624 10.7131 19.2493C12.2869 19.0812 13.8606 18.9131 15.4344 18.7451C16.0102 18.6836 16.6064 18.6235 17.1606 18.7733C17.8559 18.9612 18.4143 19.4935 18.5684 20.1152C19.2325 19.9583 19.9558 19.7651 20.3308 19.261C20.7059 18.7569 20.3882 17.8802 19.7009 17.9062C17.5511 17.9875 15.4486 16.5931 14.9593 14.7615C14.8349 14.2957 14.7865 13.778 14.4124 13.4289C13.8195 12.8757 13.3678 12.1624 13.3707 11.4044C13.3736 10.6464 13.7369 10.5559 13.9993 9.87241ZM1.16644 33.2004C1.21485 33.2636 1.29933 33.2967 1.37934 33.3267C2.2003 33.6338 3.02125 33.9409 3.84221 34.248C4.21576 34.3877 4.59052 34.5278 4.98116 34.6255C6.07061 34.898 7.24456 34.8315 8.32777 35.1224C8.45916 35.1576 8.60019 35.1212 8.73101 35.0844C9.67576 34.8184 10.6094 34.5223 11.5294 34.1968C12.492 33.8563 13.4458 33.4806 14.3004 32.965C14.3782 32.9181 14.4589 32.866 14.4944 32.7895C14.5298 32.7129 14.4971 32.6065 14.4063 32.584C13.8295 32.4408 13.2611 32.2719 12.704 32.0781C12.5249 32.0159 12.3233 31.9271 12.2853 31.7619C11.7945 31.7791 11.3654 32.0497 11.0033 32.3399C10.6413 32.63 10.3013 32.9577 9.85522 33.1375C9.40916 33.3172 8.81048 33.3017 8.50147 32.968C8.46846 32.9323 8.43532 32.8913 8.38457 32.8797C8.33382 32.8681 8.26864 32.9123 8.29229 32.9533C8.35355 33.0593 8.22197 33.1933 8.08635 33.186C7.95073 33.1786 7.84469 33.0706 7.81131 32.9555C7.77793 32.8404 7.59673 33.046 7.33411 33.0802C7.0715 33.1145 6.79288 32.9672 6.70565 32.748C6.63376 32.5673 6.3519 32.5641 6.13652 32.5303C5.64679 32.4535 5.27491 32.0049 5.34378 31.5742C3.93636 31.9845 2.55444 32.4616 1.20618 33.0028C1.12709 33.0346 1.11804 33.1372 1.16644 33.2004Z" fill="white"/>
<path d="M20.9244 15.48C21.3377 15.48 21.6727 15.1872 21.6727 14.8259C21.6727 14.4647 21.3377 14.1719 20.9244 14.1719C20.5112 14.1719 20.1761 14.4647 20.1761 14.8259C20.1761 15.1872 20.5112 15.48 20.9244 15.48Z" fill="#FFB61D"/>
<path d="M15.7317 14.9416C15.9505 14.9416 16.1279 14.7865 16.1279 14.5953C16.1279 14.4041 15.9505 14.249 15.7317 14.249C15.5129 14.249 15.3356 14.4041 15.3356 14.5953C15.3356 14.7865 15.5129 14.9416 15.7317 14.9416Z" fill="#FFB61D"/>
<path fill-rule="evenodd" clip-rule="evenodd" d="M24.4988 17.4495C24.5673 17.7604 24.771 18.0616 25.0422 18.2483C25.5464 18.5957 26.6799 18.9533 27.2832 19.1449C27.3381 19.1624 27.0286 19.3152 26.6289 19.6531C25.547 20.568 23.1812 22.2063 20.8701 21.383C20.5999 21.2868 20.3741 21.176 20.1901 21.0586C20.0206 20.9504 21.5766 21.1062 23.0312 20.8652C24.4938 20.6228 25.8546 19.9825 25.4904 19.4748C25.148 18.9976 24.1851 18.1894 24.11 17.714C24.01 17.0806 24.4398 17.1823 24.4988 17.4495Z" fill="#E7EAEE"/>
<path fill-rule="evenodd" clip-rule="evenodd" d="M1.13672 33.0212C1.13672 32.7675 2.052 32.5622 3.61668 32.0478C4.69286 31.6939 6.79049 30.6701 7.82254 30.6224C8.50928 30.5907 11.2537 31.4689 13.0448 32.0996C13.9454 32.4168 14.6401 32.6154 14.6401 32.7171C14.6401 32.9215 12.7279 33.9081 10.7735 34.5566C9.8196 34.8731 8.92461 35.1566 8.10383 35.1374C5.60148 35.0791 1.13672 33.6636 1.13672 33.0212Z" fill="white"/>
<path fill-rule="evenodd" clip-rule="evenodd" d="M36.4882 11.9474C32.8998 13.287 29.9021 15.576 27.046 17.9037L26.8713 18.0463C26.7047 18.1824 26.4518 18.3247 26.272 18.2021L26.827 17.7605C29.7309 15.4544 32.7333 13.1677 36.3262 11.8091C39.0886 10.7646 39.0592 10.9876 36.4882 11.9474ZM21.0317 34.2611L22.715 35.8637C22.7975 35.9422 22.8834 36.0265 22.9064 36.1312C22.9295 36.2359 22.8601 36.3637 22.7388 36.3748L19.273 36.6916C18.6973 36.7442 18.1103 36.3953 17.9445 35.9106C17.7788 35.4259 18.0441 34.8581 18.5454 34.6053C19.0468 34.3525 19.7345 34.4323 20.1507 34.7838C20.2538 34.8709 20.4348 34.797 20.508 34.6892C20.5812 34.5814 20.597 34.4493 20.6727 34.3428C20.7483 34.2364 20.9347 34.1687 21.0317 34.2611ZM18.2368 35.1861C18.0219 35.5426 18.1578 36.0255 18.5256 36.2684C18.7059 36.3875 18.9272 36.4513 19.1502 36.4827C19.4653 36.5271 19.8308 36.4935 20.0333 36.278C20.1072 36.1993 20.1525 36.1029 20.1835 36.0047C20.2864 35.6779 20.2341 35.316 20.0413 35.0219C19.9889 34.9419 19.9082 34.8583 19.8027 34.8623C19.7526 34.8642 19.7061 34.8864 19.6562 34.8908C19.5732 34.8983 19.4963 34.8569 19.4207 34.8261C19.0027 34.656 18.4517 34.8296 18.2368 35.1861ZM20.8821 34.5825C20.816 34.8237 20.679 35.0498 20.488 35.2332C20.4342 35.2849 20.4474 35.3647 20.4583 35.4339C20.5114 35.7709 20.4236 36.1235 20.2151 36.4108C20.5568 36.34 20.9062 36.2978 21.257 36.2847C21.7379 36.2668 22.2397 36.3005 22.6804 36.1315C22.445 36.0419 22.2451 35.8825 22.1214 35.6858C22.0487 35.5701 21.9481 35.47 21.8483 35.3709L21.0819 34.6097C21.0265 34.5546 20.9017 34.5113 20.8821 34.5825ZM12.1781 34.5681C12.288 34.868 12.7014 34.9709 13.0595 35.0249L15.4494 35.3737C16.0021 35.4544 16.5692 35.5349 17.1188 35.4397C17.2225 35.4217 17.2773 35.5656 17.2089 35.636C17.1405 35.7065 17.0215 35.7149 16.9158 35.7152C16.437 35.7166 15.961 35.6609 15.4871 35.5987L14.9824 35.5314C14.0891 35.4114 13.1962 35.2836 12.3218 35.0848C12.1721 35.0507 12.0171 35.0118 11.9025 34.921C11.788 34.8302 11.7284 34.6716 11.809 34.5562C11.8896 34.4409 12.1309 34.4394 12.1781 34.5681ZM25.0963 2.48395C26.8278 2.60935 28.2644 3.96814 28.4971 5.47309C28.6783 6.64572 27.9896 8.04249 26.6579 8.25489C27.1286 9.72507 27.3904 11.2719 27.132 12.7818C26.8736 14.2917 26.0516 15.7666 24.6642 16.6941C24.2812 17.1445 24.5705 17.8238 25.0748 18.1711C25.579 18.5184 26.2316 18.6405 26.835 18.8322C29.3632 19.6353 31.1431 21.8155 31.5581 24.1386C31.973 26.4617 31.1442 28.871 29.6466 30.8241C28.6207 32.1618 27.2252 33.3499 25.4793 33.8644C23.0531 34.5793 20.3954 33.8973 18.0336 33.0247L17.9621 32.9983C17.0739 32.6679 16.1697 32.2933 15.5312 31.6628L15.4909 31.6222C14.8044 30.9199 13.507 31.2992 12.5714 31.7288L14.4377 32.4056C14.5714 32.4541 14.7164 32.5117 14.7784 32.626C14.9089 32.8666 14.5875 33.0982 14.3154 33.2179L13.2195 33.7001C11.4917 34.4582 9.69288 35.2031 7.76565 35.2499C5.5951 35.3026 3.5434 34.4651 1.58769 33.636L1.46359 33.5832C1.261 33.4957 1.0562 33.3943 0.946708 33.2236C0.827258 33.0375 0.894028 32.7472 1.13011 32.6926C3.34732 32.1801 5.4465 31.2806 7.26797 30.0624C7.12863 29.3041 7.16147 28.522 7.36402 27.7747L7.37434 27.7383C7.40352 27.641 7.4477 27.5419 7.54566 27.4927C7.81659 27.3567 8.05192 27.7151 8.09979 27.985L8.4623 30.0287C9.91325 29.8884 11.3215 29.4226 12.5151 28.688L9.64713 26.6691C9.13365 26.3059 8.61377 25.9134 8.37645 25.3773C8.12755 24.8151 8.32779 24.053 8.97099 23.8354C9.02175 21.7058 8.89332 19.5729 8.58708 17.4596C8.16364 19.5702 8.50395 21.7342 8.84473 23.8562C8.26041 22.0882 8.00739 20.237 8.09845 18.3985L8.10386 18.2964C8.12268 17.9632 8.16534 17.6036 8.42187 17.3567C8.87469 16.9208 9.76383 17.1088 10.1772 17.5737C10.5905 18.0385 10.6597 18.6624 10.7131 19.2493L15.5426 18.7336C16.0845 18.6769 16.6411 18.6329 17.1606 18.7733C17.8559 18.9612 18.4143 19.4935 18.5684 20.1152L18.6817 20.0881C19.3132 19.9354 19.977 19.7365 20.3308 19.261C20.7019 18.7623 20.3949 17.8988 19.7228 17.9057L19.7009 17.9062C17.5511 17.9875 15.4486 16.5931 14.9593 14.7615C14.8349 14.2957 14.7865 13.778 14.4124 13.4289C13.8195 12.8757 13.3678 12.1624 13.3707 11.4044C13.3736 10.6464 13.9265 9.86467 14.7686 9.68346C15.6107 9.50226 16.6073 10.1164 16.5347 10.8717C16.9432 10.8354 17.3611 10.8818 17.7462 11.0065C17.5266 10.4889 18.0959 9.91764 18.7215 9.84252C19.3472 9.7674 19.9568 10.0405 20.4771 10.3534C20.9974 10.6663 21.4946 11.0346 22.0995 11.1932L22.1274 11.1368C22.2524 10.8817 22.3675 10.6092 22.3045 10.3395C22.2369 10.0498 21.8635 9.79926 21.5612 9.9319C21.3489 9.40042 21.0113 8.9075 20.5754 8.49304L19.3643 8.99216C19.2082 8.78789 19.1126 8.54863 19.0892 8.30385C18.2895 8.70332 17.4215 8.99814 16.5231 9.17544L16.615 8.57584L13.9301 9.79481C13.5336 8.17953 14.571 6.44646 16.1851 5.58683C17.7991 4.7272 19.8636 4.66831 21.6611 5.1788C21.6038 3.66099 23.3648 2.35855 25.0963 2.48395ZM38.3052 28.8111C36.7584 29.1373 35.2568 29.6272 33.8437 30.2666L33.7415 30.3132C32.9585 30.6738 32.1899 31.1058 31.6991 31.747C32.0306 31.6967 32.3844 31.7722 32.6521 31.9503C32.8212 32.0628 32.9624 32.2314 32.9523 32.4169C32.9471 32.5131 32.9014 32.6049 32.8398 32.6847C32.599 32.9965 32.0893 33.1231 31.6969 32.9685C31.3045 32.8139 31.0754 32.3963 31.1831 32.0321C29.5185 32.5288 28.0875 33.5976 27.2648 34.9563L27.2373 35.0022C27.1968 35.0707 27.1473 35.1472 27.0613 35.1642C26.9431 35.1876 26.8379 35.0722 26.8433 34.9664C26.8487 34.8606 26.9263 34.7695 27.0013 34.6862C27.9713 33.6096 29.1049 32.5848 30.5557 32.0652L30.6649 32.0268C31.0072 31.9081 31.3654 31.7916 31.5864 31.5386C32.1224 30.9248 32.8941 30.5034 33.6777 30.1468C34.3791 29.8276 35.1045 29.549 35.8478 29.3134C36.5937 29.0769 37.3564 28.884 38.1207 28.6971L40.7098 28.067C40.0095 28.4972 39.1372 28.6356 38.3052 28.8111ZM5.34378 31.5742C3.93636 31.9845 2.55444 32.4616 1.20618 33.0028C1.12709 33.0346 1.11804 33.1372 1.16644 33.2004C1.21485 33.2636 1.29933 33.2967 1.37934 33.3267L3.84221 34.248C4.21576 34.3877 4.59052 34.5278 4.98116 34.6255C6.07061 34.898 7.24456 34.8315 8.32777 35.1224C8.45916 35.1576 8.60019 35.1212 8.73101 35.0844C9.67576 34.8184 10.6094 34.5223 11.5294 34.1968C12.492 33.8563 13.4458 33.4806 14.3004 32.965C14.3782 32.9181 14.4589 32.866 14.4944 32.7895C14.5298 32.7129 14.4971 32.6065 14.4063 32.584C13.8295 32.4408 13.2611 32.2719 12.704 32.0781L12.6654 32.0644C12.497 32.0028 12.3206 31.9153 12.2853 31.7619C11.7945 31.7791 11.3654 32.0497 11.0033 32.3399C10.6413 32.63 10.3013 32.9577 9.85522 33.1375C9.40916 33.3172 8.81048 33.3017 8.50147 32.968L8.48151 32.9462C8.4545 32.9171 8.42517 32.889 8.38457 32.8797C8.33382 32.8681 8.26864 32.9123 8.29229 32.9533C8.35355 33.0593 8.22197 33.1933 8.08635 33.186C7.95073 33.1786 7.84469 33.0706 7.81131 32.9555C7.78985 32.8815 7.79174 32.805 7.802 32.7286L7.80458 32.7099C7.74428 32.8966 7.55526 33.0514 7.33411 33.0802C7.0715 33.1145 6.79288 32.9672 6.70565 32.748C6.63376 32.5673 6.3519 32.5641 6.13652 32.5303C5.64679 32.4535 5.27491 32.0049 5.34378 31.5742ZM8.66986 24.3851C8.37975 24.8361 8.64921 25.407 9.00655 25.8195C10.1271 27.1133 12.004 27.7341 13.2846 28.9089C13.6064 29.2041 13.8869 29.5312 14.1638 29.8595L15.0341 30.8926C15.194 31.0825 15.3545 31.273 15.5412 31.4432C16.0279 31.8871 16.6687 32.1735 17.3025 32.4401C18.5886 32.9811 19.9117 33.4781 21.308 33.7363C22.7043 33.9945 24.1879 34.0033 25.5314 33.5822C26.7889 33.1881 27.8724 32.4323 28.7142 31.5257C29.5359 30.6407 30.1391 29.6148 30.6226 28.5558L30.6578 28.4782C30.7273 28.3238 30.7957 28.1622 30.7813 27.9967C30.766 27.8217 30.6593 27.6625 30.5348 27.5248C30.06 26.9998 29.2664 26.7028 28.5065 26.7849C27.7585 26.8656 27.0735 27.3193 26.7995 27.9324L26.7868 27.9617C26.1913 29.3727 24.7085 30.4339 23.0427 30.8104C21.3769 31.187 19.5651 30.9172 18.0446 30.2132C16.5242 29.5093 15.2835 28.395 14.3584 27.1269L14.3079 27.0569C14.1408 26.8225 13.9889 26.5758 13.9301 26.3053C13.8653 26.0078 13.9311 25.6732 14.177 25.4597C14.3393 25.3187 14.5704 25.236 14.6885 25.0646C14.8066 24.8933 14.668 24.5906 14.4501 24.6518L14.3047 24.692C13.3032 24.9644 12.1413 25.1757 11.3356 24.6089L11.2582 24.5548C10.8823 24.2936 10.4806 24.0444 10.0135 23.9546C9.51431 23.8586 8.92036 23.9956 8.66986 24.3851ZM12.662 28.9576C11.4472 29.6284 10.0764 30.0823 8.65797 30.2831C8.47071 30.3096 8.42039 30.5218 8.41744 30.6876C8.40807 31.2145 8.43727 31.742 8.50478 32.2657C8.65842 32.2025 8.72127 32.0445 8.82601 31.9277C8.93076 31.8109 9.1698 31.7469 9.25076 31.8773C9.30732 31.9685 9.23183 32.0826 9.13545 32.143C9.03907 32.2035 8.92053 32.2362 8.83458 32.3077C8.62073 32.4854 8.73251 32.835 8.99304 32.9562C9.25358 33.0773 9.58313 33.0141 9.83292 32.8767C10.0827 32.7394 10.2757 32.538 10.4875 32.3583C10.9405 31.9741 11.4945 31.6816 12.0943 31.5099C12.8558 31.2918 13.7037 31.2594 14.3736 30.8752C14.4187 30.8493 14.4654 30.8189 14.4824 30.7742C14.5057 30.713 14.4663 30.6496 14.4246 30.5952L13.6231 29.5779C13.4954 29.4158 13.3485 29.2418 13.1297 29.1954C13.0297 29.1742 12.9231 29.1824 12.8249 29.1554C12.7268 29.1283 12.6343 29.0442 12.662 28.9576ZM7.06606 30.4353C6.75356 30.5628 6.56862 30.8627 6.52746 31.162C6.48631 31.4613 6.56713 31.7626 6.66313 32.0522C6.72205 32.2299 6.7874 32.4071 6.88486 32.5714C6.947 32.6761 7.02929 32.7806 7.15382 32.8261C7.27835 32.8717 7.45117 32.8307 7.49165 32.7182C7.50832 32.6718 7.50085 32.6217 7.4912 32.5738C7.45493 32.3939 7.38986 32.2185 7.29854 32.0541L7.2602 31.9876C7.20526 31.8915 7.15353 31.7781 7.22416 31.6943C7.2916 31.6142 7.45737 31.5811 7.44152 31.4827L7.28676 30.5211C7.28224 30.493 7.27692 30.4633 7.25604 30.4416C7.21208 30.3959 7.12798 30.41 7.06606 30.4353ZM31.8419 31.9185C31.7387 31.9181 31.6301 31.9305 31.5473 31.9843C31.4988 32.0157 31.4622 32.0597 31.4364 32.1075C31.3276 32.3093 31.428 32.5687 31.6343 32.7001C31.8407 32.8315 32.1266 32.8438 32.3654 32.7651C32.5481 32.7049 32.7238 32.5685 32.7177 32.398C32.7129 32.2634 32.596 32.151 32.4671 32.0773C32.283 31.972 32.062 31.9193 31.8419 31.9185ZM7.6524 27.7103C7.626 27.7274 7.61293 27.7558 7.60177 27.7829C7.43928 28.177 7.41938 28.6041 7.42386 29.023C7.4351 30.0733 7.58948 31.1224 7.88268 32.141L7.89725 32.1905C7.95719 32.3894 8.03912 32.5934 8.22473 32.7164C8.25925 31.1023 8.13943 29.4856 7.86693 27.8889C7.84924 27.7852 7.74862 27.6478 7.6524 27.7103ZM6.18901 31.1798C6.15022 31.1893 6.12531 31.2216 6.10595 31.2525C5.94748 31.5053 5.93678 31.8246 6.07805 32.085C6.1414 32.2018 6.25001 32.3153 6.39693 32.3296C6.45683 32.2644 6.42945 32.1705 6.39589 32.0906L6.36691 32.023C6.25907 31.7675 6.17055 31.491 6.26561 31.2341C6.27801 31.2006 6.2278 31.1703 6.18901 31.1798ZM5.66036 31.5299C5.54923 31.7459 5.59874 32.0176 5.78113 32.1927C5.85641 32.1254 5.8233 32.0152 5.79758 31.9238C5.75735 31.7808 5.74827 31.6312 5.77096 31.4853C5.74292 31.4493 5.68078 31.4902 5.66036 31.5299ZM8.0027 23.8331C8.17115 23.96 8.27825 24.2337 8.0782 24.3184C7.95003 24.3727 7.80479 24.2933 7.68376 24.2277C7.05485 23.8866 6.25072 23.8615 5.53771 24.035C4.8247 24.2085 4.18726 24.562 3.589 24.9428C2.99323 25.3221 2.41877 25.7383 1.97079 26.2499C1.52281 26.7614 1.20594 27.3779 1.17994 28.0218C1.14878 28.7932 1.5301 29.5308 1.97104 30.1996C2.25207 30.6259 2.56897 31.0462 3.00523 31.3558L3.09492 31.4178C3.21867 31.5046 3.34574 31.6123 3.31418 31.7429C2.88657 31.726 2.57621 31.3916 2.34072 31.0792C2.00587 30.6349 1.70063 30.1736 1.42708 29.6983C1.19962 29.3032 0.991703 28.8914 0.922599 28.4532C0.792634 27.629 1.17546 26.7909 1.7705 26.1416C2.36553 25.4922 3.15742 25.0049 3.95837 24.5553C4.56676 24.2139 5.19289 23.8864 5.87583 23.6789C6.58015 23.465 7.43775 23.4078 8.0027 23.8331ZM26.0774 20.2031C25.0647 21.0294 23.7184 21.5369 22.3358 21.6138C21.7247 21.6478 21.0937 21.5968 20.5408 21.3668C19.9879 21.1369 19.5222 20.7081 19.3937 20.1849L19.3478 20.1972C18.9475 20.3079 18.4893 20.5082 18.4934 20.8687C18.5105 22.3976 18.4698 23.927 18.3713 25.4536C18.3525 25.7465 18.2248 26.1311 17.8893 26.1224C16.6973 26.0918 15.4974 26.3324 14.4398 26.8141C15.6302 28.4458 17.3231 29.8725 19.429 30.4702C21.5348 31.0678 24.0745 30.6943 25.5502 29.2516C26.0232 28.7891 26.3714 28.2424 26.7066 27.6947L26.7838 27.5683C26.8551 27.4515 26.9277 27.3126 26.8643 27.1924C26.8238 27.1156 26.9111 27.0358 26.9911 26.9884C28.1687 26.2918 29.922 26.4808 30.8706 27.4066C30.7955 27.2781 30.8638 27.101 31.0126 27.0385C31.1309 27.2047 31.156 27.4191 31.0785 27.6027C31.1298 27.6662 31.2238 27.5642 31.232 27.4868C31.3585 26.2833 31.3485 25.0689 31.2024 23.8671C31.1497 23.4338 31.0781 22.9978 30.9007 22.5905C30.7451 22.2333 30.5114 21.906 30.2552 21.5963C29.6659 20.8838 28.9494 20.2517 28.1397 19.7301L28.0808 19.6927C27.9524 19.6124 27.8173 19.5383 27.6656 19.5022C27.0652 19.3593 26.5324 19.8319 26.0774 20.2031ZM17.8959 19.5107C17.2264 19.7077 16.5014 19.6698 15.7967 19.7124C14.8036 19.7724 13.8239 19.9981 12.9261 20.3738C12.5394 20.5357 12.1653 20.7259 11.7563 20.8384C10.8878 21.0775 9.89211 20.9298 9.16234 20.4538C9.00502 21.5036 9.05143 22.5765 9.29898 23.6129C9.31488 23.6795 9.36503 23.7646 9.43941 23.7446C9.93297 23.6122 10.4638 23.7996 10.9026 24.0374C11.3415 24.2751 11.7539 24.5716 12.2524 24.6893C12.8371 24.8273 13.4568 24.6997 14.0355 24.5394L14.0789 24.5273C14.3755 24.444 14.7593 24.3746 14.9495 24.5903C15.11 24.7722 15.0086 25.044 14.8388 25.2192C14.6689 25.3945 14.4385 25.5248 14.2999 25.72C14.1297 25.9596 14.1288 26.2833 14.2977 26.5237C15.4031 26.1362 16.5861 25.9188 17.7764 25.8845C18.0151 25.8776 18.0989 25.6076 18.1135 25.3993C18.2421 23.5735 18.2815 21.7429 18.2318 19.9142C18.2265 19.7192 18.1073 19.4486 17.8959 19.5107ZM35.7919 24.4479L35.8392 24.4686C36.1324 24.5988 36.4443 24.7723 36.488 25.0529C36.5024 25.1453 36.4843 25.2392 36.4591 25.3298C36.4243 25.4553 36.3714 25.584 36.2598 25.6686C36.1415 25.7582 35.9753 25.7837 35.8188 25.7784C35.5107 25.7679 35.2023 25.6425 35.0239 25.4227C34.8454 25.2029 34.8167 24.8885 34.9832 24.6617C35.1497 24.4349 35.5156 24.3282 35.7919 24.4479ZM35.3349 24.7618C35.1523 24.8284 35.0865 25.0443 35.1628 25.2039C35.239 25.3635 35.42 25.4685 35.6081 25.5224C35.8004 25.5774 36.0482 25.5729 36.1628 25.4271C36.201 25.3786 36.219 25.3201 36.2295 25.2619C36.2525 25.1353 36.2386 24.9951 36.1452 24.8962C36.0296 24.7736 35.8324 24.749 35.648 24.7399L35.6023 24.7379C35.512 24.7344 35.4183 24.7314 35.3349 24.7618ZM12.2793 21.4617C12.3024 21.5383 12.2847 21.6192 12.2689 21.6973C12.1577 22.2469 12.1497 22.8123 12.245 23.3642L12.2626 23.4619C12.2742 23.531 12.2789 23.6039 12.2335 23.6595C12.1811 23.7237 12.0343 23.7172 12.0269 23.6387C11.9644 22.97 11.9243 22.2997 11.9068 21.6289C11.9034 21.5008 11.9417 21.3304 12.0879 21.3206C12.1783 21.3145 12.2562 21.3851 12.2793 21.4617ZM7.13486 20.1217C7.24297 20.1501 7.34682 20.2148 7.37816 20.3097C7.40949 20.4045 7.33818 20.5243 7.2255 20.5305C7.12049 20.5363 7.04035 20.4527 6.94386 20.416C6.77064 20.3501 6.5763 20.4421 6.41705 20.5309L6.33598 20.5767C6.18309 20.6647 6.03499 20.7634 5.95104 20.9037C5.86515 21.0473 5.85796 21.216 5.86062 21.378C5.86246 21.4906 5.8685 21.6048 5.90833 21.7119C5.99474 21.9443 6.24132 22.1184 6.51483 22.1687C6.78835 22.2191 7.08088 22.1538 7.31225 22.0168L7.35754 21.9898C7.39839 21.9663 7.44122 21.9458 7.48928 21.9438C7.55536 21.941 7.6277 21.9955 7.60523 22.0498C7.5985 22.0662 7.58467 22.0794 7.57083 22.0918C7.19264 22.4314 6.5396 22.504 6.07612 22.2582C5.99344 22.2143 5.91636 22.1614 5.85388 22.0968C5.66606 21.9029 5.63102 21.631 5.62585 21.377C5.62306 21.2395 5.62695 21.0999 5.67165 20.9681C5.76825 20.6832 6.04124 20.4716 6.32497 20.308C6.56588 20.1691 6.85848 20.049 7.13486 20.1217ZM4.94683 19.5373L5.88966 20.5159C5.8378 20.565 5.74689 20.5682 5.67681 20.5415C5.61452 20.5179 5.56484 20.4755 5.51803 20.4321L4.96484 19.912C4.88942 20.4398 4.70672 20.9558 4.42782 21.4286C4.40068 21.4746 4.47759 21.5134 4.5365 21.5187C4.68039 21.5316 4.82589 21.5173 4.96778 21.4927L5.0409 21.4798C5.15547 21.4599 5.27297 21.4443 5.37979 21.4813C5.50949 21.5262 5.58953 21.6912 5.48552 21.7725C5.4214 21.8226 5.32428 21.8163 5.23894 21.8071L4.32071 21.7078L4.29249 21.7043C4.20184 21.6913 4.1022 21.6603 4.08892 21.5839C4.08091 21.5379 4.11016 21.4939 4.13754 21.454C4.46437 20.9772 4.68211 20.4436 4.77455 19.8937L4.78847 19.8065C4.80644 19.6995 4.83824 19.5833 4.94683 19.5373ZM37.0692 21.0749C37.183 21.1452 37.2903 21.2834 37.2022 21.3778C37.147 21.4368 37.0407 21.4383 36.9614 21.4065C36.8821 21.3747 36.8205 21.3178 36.7521 21.2705C36.4715 21.0766 36.0501 21.0562 35.7468 21.2218C35.7036 21.2453 35.6606 21.2746 35.6431 21.3164C35.6256 21.3582 35.645 21.4143 35.6938 21.4269C36.081 21.2835 36.5427 21.3035 36.9117 21.4798C36.9651 21.5053 37.0211 21.5392 37.0342 21.5911C37.0473 21.6429 36.9836 21.7052 36.9305 21.6792C36.6897 21.5614 36.4023 21.518 36.1302 21.5585C36.0034 21.5773 35.8793 21.6138 35.7507 21.6173C35.6221 21.6209 35.4814 21.5834 35.4132 21.4881C35.3502 21.4001 35.3652 21.2814 35.4266 21.1926C35.488 21.1038 35.5887 21.0409 35.694 20.993C36.1227 20.798 36.6747 20.8308 37.0692 21.0749ZM24.2238 16.317C23.3044 16.9924 22.2241 17.4997 21.0724 17.7971L20.9955 17.8166C20.8459 17.8539 20.6578 17.9367 20.6892 18.0698L20.7086 18.1524C20.766 18.4008 20.8148 18.6537 20.7738 18.9036C20.7296 19.1731 20.5596 19.4429 20.2783 19.5561L20.2524 19.566C19.7516 19.7462 19.6812 20.4002 20.0096 20.7766C20.3381 21.1531 20.9077 21.2989 21.4458 21.3533C23.0249 21.5129 24.6729 21.0501 25.8501 20.1164C26.2771 19.7777 26.6592 19.3723 27.1879 19.1711L25.8658 18.7481C25.5092 18.634 25.1479 18.5178 24.8374 18.3266C24.527 18.1354 24.2681 17.857 24.2047 17.5297C24.1269 17.1288 24.3468 16.7091 24.2238 16.317ZM8.97377 17.4009C8.94059 17.4137 8.90671 17.4309 8.89076 17.4594C8.87478 17.4879 8.88017 17.5216 8.88581 17.553L9.18871 19.2219C9.27797 19.7137 9.40337 20.2588 9.86743 20.5476C10.3758 20.864 11.0738 20.7401 11.6658 20.5594L11.6974 20.5497C12.7993 20.2076 13.8597 19.7314 15.0146 19.5712C15.8437 19.4562 16.7133 19.5054 17.4973 19.243C17.2105 18.8647 16.5892 18.8667 16.0695 18.9163L11.8234 19.3381C11.4945 19.3708 11.149 19.4089 10.8818 19.5799C10.7649 19.6546 10.6543 19.7574 10.5095 19.7626C10.3687 19.7677 10.2463 19.5884 10.3567 19.5225L10.3664 19.5173C10.4874 19.4591 10.4793 19.3072 10.4545 19.1884L10.3261 18.5729C10.2612 18.2676 10.1819 17.957 9.97291 17.7077C9.74722 17.4385 9.32268 17.2653 8.97377 17.4009ZM38.2871 19.8953C38.3894 19.9995 38.3938 20.1594 38.3256 20.2831C38.2574 20.4068 38.1281 20.4978 37.9883 20.5605C37.8197 20.6361 37.6339 20.6756 37.4477 20.7093L37.3547 20.7258C37.3182 20.7322 37.2798 20.7385 37.2445 20.7282C37.2152 20.7197 37.1914 20.7005 37.1721 20.6794C37.0761 20.5741 37.0795 20.4188 37.1445 20.2968C37.2094 20.1747 37.3257 20.0799 37.4452 19.9949C37.5673 19.9081 37.7001 19.8264 37.8533 19.7946C38.0064 19.7629 38.1846 19.7909 38.2871 19.8953ZM37.785 20.0784L37.736 20.1072C37.6628 20.1511 37.5921 20.199 37.5429 20.263C37.4827 20.3412 37.4618 20.4503 37.5212 20.529L37.915 20.3374C37.9792 20.3062 38.0456 20.2732 38.0872 20.2204C38.1289 20.1675 38.1372 20.0887 38.0857 20.0429C38.0085 19.9742 37.8768 20.0251 37.785 20.0784ZM31.5026 16.3109C31.5301 16.3206 31.5486 16.3424 31.5647 16.3646L32.1417 17.1884C32.2448 17.3356 32.4794 17.352 32.6764 17.3398C33.0539 17.3166 33.4279 17.2493 33.7851 17.1401C33.8451 17.1218 33.9019 17.1885 33.889 17.2428C33.8761 17.2972 33.8226 17.3358 33.7726 17.37L32.906 17.9604C32.7996 17.9538 32.8298 17.8015 32.9161 17.7467L32.9416 17.7312C33.0248 17.6821 33.1257 17.6337 33.1204 17.5494L32.6196 17.6862C32.524 17.7123 32.4177 17.738 32.3267 17.7012C32.2663 17.6768 32.2239 17.629 32.1856 17.5808L31.5494 16.769L31.5384 17.4799C31.5375 17.5382 31.5346 17.6014 31.4923 17.6464C31.4622 17.6784 31.4173 17.6956 31.3724 17.7101L30.4945 17.9854C30.729 18.1903 31.1678 17.9747 31.4484 18.1291C31.6406 18.2349 31.6734 18.4707 31.6319 18.6659C31.5904 18.8611 31.4954 19.051 31.5078 19.2493C31.6679 19.1477 31.7856 18.996 31.8342 18.8283C31.8538 18.7607 31.8635 18.6887 31.9065 18.63C32.0251 18.4682 32.3084 18.5011 32.5048 18.5877C32.7011 18.6742 32.9048 18.7989 33.1196 18.7577L32.808 18.3222C32.7795 18.2824 32.7501 18.2394 32.7526 18.1926C32.7551 18.1458 32.806 18.0984 32.8573 18.112C32.8798 18.118 32.8965 18.1335 32.9114 18.1498L33.6066 18.9376C33.3625 19.0783 33.0403 18.9896 32.7584 18.9217L32.7166 18.9122C32.4415 18.8527 32.1058 18.8468 31.9539 19.0505C31.8469 19.1941 31.7212 19.3271 31.5802 19.4462C31.5208 19.4963 31.453 19.5463 31.3709 19.5545C31.2889 19.5627 31.1946 19.5083 31.2019 19.4364L31.2827 18.6398C31.2879 18.5883 31.2919 18.5321 31.259 18.4891C31.2244 18.4437 31.1591 18.4261 31.099 18.4115L30.3394 18.2282C30.1743 18.1883 30.1731 17.9636 30.2969 17.8602C30.4208 17.7568 30.6033 17.7351 30.7683 17.695C30.9334 17.655 31.112 17.5701 31.1417 17.4226L31.3345 16.4683C31.351 16.3867 31.4147 16.2798 31.5026 16.3109ZM11.0671 2.85569L10.9268 2.95532C9.9922 3.62106 9.07121 4.31899 8.38574 5.1844C7.66601 6.09308 7.22415 7.21986 7.43843 8.30908C7.75068 9.89634 9.37498 11.1604 9.44442 12.7698C9.45364 12.9836 9.70271 13.1166 9.91108 13.2289C10.7334 13.6719 11.3428 14.3749 11.7449 15.1426C12.1345 15.8863 12.3424 16.6921 12.4937 17.4998L12.5081 17.5779C12.5306 17.7011 12.5471 17.8413 12.4562 17.9374C12.3653 18.0335 12.1316 17.9999 12.1407 17.8754C12.2473 16.4121 11.6389 14.9192 10.4978 13.8445C10.2014 13.5653 9.85701 13.3064 9.43957 13.1971C9.41298 13.7608 9.19587 14.3351 8.73626 14.7312C8.27666 15.1272 7.55161 15.3081 6.95662 15.0896C6.36163 14.871 5.99763 14.2112 6.26541 13.6979C6.48973 13.2679 7.04683 13.0507 7.57723 12.9592C8.09766 12.8694 8.63716 12.8647 9.15953 12.9454C9.22982 12.9563 9.26044 12.8704 9.25903 12.8081C9.22126 11.1352 7.45214 9.82546 7.21991 8.16462C7.093 7.25697 7.4473 6.34328 7.96149 5.54694C8.63672 4.50116 9.59731 3.59726 10.7408 2.93164L10.7707 2.91466C10.8623 2.86427 10.9691 2.82129 11.0671 2.85569ZM16.8921 11.376C16.6361 11.5199 16.6427 11.8393 16.6215 12.1048C16.5924 12.4688 16.4492 12.8332 16.1699 13.1045C15.8906 13.3758 15.4663 13.5424 15.052 13.4969C14.9449 13.4851 14.9123 13.6206 14.9264 13.7143C15.1672 15.3187 16.2807 16.894 18.0114 17.4685C19.0695 17.8197 20.2647 17.773 21.3435 17.4737C22.3965 17.1814 23.3497 16.6617 24.2207 16.0667L24.2843 16.023C24.4106 15.9358 24.5376 15.845 24.6254 15.727C24.7145 15.6074 24.7583 15.466 24.7796 15.3245C24.8939 14.5667 24.3145 13.7737 23.4798 13.5456C23.3815 13.5187 23.4043 13.3794 23.4905 13.3302C23.5767 13.2811 23.6876 13.2844 23.7861 13.2581C24.0527 13.1869 24.1754 12.9214 24.2363 12.6836C24.3199 12.3568 24.3434 11.9841 24.1117 11.7174C23.7985 11.357 23.1897 11.3575 22.6735 11.392L21.8358 11.4481C21.5467 11.4674 21.1745 11.5565 21.1609 11.8097C21.1317 12.3549 20.8569 12.8981 20.3714 13.2414C19.8859 13.5847 19.1868 13.7035 18.6104 13.4933C18.0432 13.2865 17.6425 12.7467 17.708 12.2139L17.7115 12.1881C17.7457 11.9627 17.7269 11.7179 17.5758 11.5328C17.4247 11.3477 17.1109 11.253 16.8921 11.376ZM23.8109 2.85535C23.4373 2.94816 23.0785 3.09787 22.7836 3.31872C22.3715 3.62738 22.0976 4.0734 22.0309 4.54416C22.0073 4.71097 22.0452 4.9261 22.2306 4.97091C22.6833 5.08038 23.0884 5.33423 23.3524 5.67387C22.9243 5.45125 22.4551 5.28926 21.9686 5.19613L24.0251 6.21328C24.1443 6.27224 24.2681 6.33485 24.3431 6.43505C24.418 6.53525 24.4259 6.68479 24.3229 6.76371L24.1791 6.66592C23.8188 6.42217 23.4505 6.1859 23.0472 6.00144C22.7406 5.86118 22.417 5.75235 22.0915 5.64869L21.914 5.59249C21.3116 5.40254 20.7037 5.21137 20.0693 5.13548C19.4804 5.06503 18.8758 5.09631 18.3005 5.22698L18.187 5.25239C17.4099 5.42428 16.5996 5.56483 15.9571 5.98014C15.5749 6.22719 15.2756 6.55792 14.9915 6.89098L14.9244 6.97047C14.3598 7.64806 13.8439 8.48346 14.1742 9.26088C15.6909 9.09759 16.8725 8.07188 18.2464 7.48718C18.3514 7.44249 18.5246 7.42881 18.5406 7.52995L17.0031 8.32406C17.0458 8.52912 17.0055 8.74663 16.8909 8.92941C18.0142 8.65198 19.0643 8.15103 19.9393 7.47577L19.9949 7.43243C20.1337 7.32321 20.4011 7.23285 20.4602 7.38768L20.385 7.42441C20.1091 7.56007 19.8346 7.70844 19.6444 7.92811C19.437 8.16774 19.3544 8.51611 19.5383 8.77003L21.4791 7.77116C21.5579 7.73059 21.6439 7.68856 21.7349 7.69691C21.8259 7.70526 21.9112 7.79092 21.8719 7.86313L21.8059 7.87516C21.5964 7.91406 21.384 7.9628 21.2209 8.08208C21.0406 8.21391 20.9472 8.46106 21.0812 8.62989C21.3215 8.93271 21.5165 9.26296 21.6597 9.6096C21.6628 9.45802 21.8992 9.3805 22.055 9.44705C22.2108 9.5136 22.2933 9.66381 22.3497 9.80715C22.5113 10.2172 22.554 10.6626 22.4727 11.0904C22.9608 11.241 23.5332 11.0631 24.0027 11.2536C24.4384 11.4305 24.6516 11.8892 24.6213 12.3083C24.591 12.7274 24.3644 13.1149 24.1225 13.4777C24.7987 13.9356 25.1599 14.7244 25.032 15.4636C25.1499 15.4468 25.2495 15.3579 25.2662 15.2545L25.5344 15.4024C25.1149 15.6096 24.8165 15.9942 24.7514 16.4115C26.5943 14.9041 27.2061 12.5151 26.9402 10.3213L26.9298 10.2395C26.8244 9.44724 26.5737 8.62146 25.8921 8.0967C26.2575 7.91254 26.7262 7.98497 27.1172 7.84669C27.4867 7.71603 27.7406 7.41317 27.9121 7.09871C28.4855 6.04742 28.288 4.70982 27.4282 3.82017C26.5683 2.93051 25.0925 2.53688 23.8109 2.85535ZM17.7863 16.0398C17.8444 16.0482 17.9104 16.0654 17.9331 16.1129C17.9695 16.1887 17.8676 16.258 17.7795 16.2868C17.6515 16.3284 17.5171 16.3551 17.381 16.3659C17.2669 16.3749 17.1229 16.3556 17.0876 16.2603C17.0644 16.1977 17.1047 16.1273 17.1657 16.0886C17.2267 16.05 17.3039 16.0369 17.3788 16.0298C17.5143 16.017 17.6518 16.0204 17.7863 16.0398ZM15.7016 14.9526C16.1026 15.3646 16.7301 15.5828 17.3489 15.587C17.9678 15.5913 18.5749 15.3957 19.0887 15.0942L19.1319 15.0688C19.1972 15.0309 19.2649 14.9953 19.3414 14.9837C19.435 14.9694 19.5462 15.0037 19.578 15.0819C19.0406 15.4809 18.367 15.7443 17.6648 15.8C16.9626 15.8557 16.2353 15.6983 15.6624 15.3391C15.559 15.2743 15.4522 15.189 15.4479 15.0779C15.4436 14.9668 15.6191 14.868 15.7016 14.9526ZM7.29511 13.2076C7.01623 13.2854 6.73556 13.3993 6.55962 13.6038C6.29826 13.9076 6.34396 14.3685 6.62625 14.6576C6.90853 14.9467 7.38587 15.0621 7.81173 14.9853C8.2376 14.9085 8.60733 14.6573 8.84664 14.34C9.08595 14.0226 9.20312 13.6438 9.23862 13.2649C9.24457 13.2014 9.23137 13.1174 9.1597 13.1057C8.54123 13.0051 7.89444 13.0405 7.29511 13.2076ZM17.1773 11.7274C17.189 11.8148 17.1503 11.9005 17.1147 11.9828C16.9139 12.4478 16.7916 12.9386 16.7532 13.4345C16.7469 13.5148 16.7434 13.5981 16.7771 13.6731C16.8089 13.7438 16.8828 13.8054 16.9684 13.8096L16.9837 13.8098C17.0616 13.8073 17.0986 13.9089 17.0496 13.962C17.0005 14.015 16.9085 14.0209 16.8337 14.0015C16.6802 13.9615 16.5701 13.8366 16.5256 13.7021C16.481 13.5676 16.4924 13.424 16.5147 13.2854C16.5904 12.8153 16.7867 12.3595 16.7964 11.8849C16.7991 11.7509 16.8304 11.5704 16.9832 11.5597C17.0835 11.5527 17.1657 11.64 17.1773 11.7274ZM19.0857 10.1409C18.7668 10.1982 18.5233 10.4269 18.3579 10.6721C18.019 11.1744 17.9225 11.7971 18.0962 12.3601C18.1742 12.6129 18.3075 12.8572 18.5167 13.0445C18.7259 13.2319 19.0166 13.3577 19.3161 13.3534C19.5251 13.3503 19.728 13.2855 19.9096 13.1949C20.516 12.8925 20.9013 12.2796 20.8681 11.6701C20.835 11.0605 20.385 10.4824 19.7485 10.2316C19.5412 10.1499 19.3084 10.1008 19.0857 10.1409ZM14.6839 9.89097C14.114 10.0755 13.7461 10.5928 13.6677 11.1195C13.5893 11.6463 13.7583 12.1791 13.9993 12.6668C14.0642 12.7981 14.1379 12.9317 14.2625 13.0244C14.3871 13.1172 14.5757 13.1588 14.7173 13.087C14.7832 13.0536 14.8448 13.1317 14.8948 13.182C14.9944 13.2821 15.1697 13.2906 15.3185 13.2646C15.8089 13.1789 16.1858 12.8044 16.3383 12.3881C16.4858 11.9857 16.4543 11.5501 16.3672 11.1337L16.358 11.0907C16.2661 10.6708 16.0585 10.1988 15.5907 10.0738C15.3454 10.0082 15.0496 10.0465 14.86 9.89553C14.8142 9.85908 14.7419 9.87217 14.6839 9.89097ZM23.74 11.6715C23.9327 11.8582 23.8538 12.1481 23.7574 12.3877L23.7496 12.407C23.711 12.5009 23.671 12.5971 23.5973 12.6732C23.5235 12.7494 23.4076 12.8026 23.2959 12.7823C23.1841 12.7619 23.097 12.6486 23.1439 12.5577C23.2022 12.4448 23.4003 12.439 23.4718 12.332L23.2786 12.3161C23.1485 12.3054 23.0085 12.2909 22.9121 12.2138C22.8157 12.1367 22.8036 11.9734 22.9208 11.9229C23.002 11.8879 23.0998 11.9222 23.175 11.9663C23.2502 12.0105 23.3221 12.0664 23.4116 12.0784C23.5012 12.0905 23.61 12.029 23.5916 11.9515C23.5659 11.8436 23.6292 11.7242 23.74 11.6715ZM19.331 12.4003C19.3463 12.4745 19.3519 12.5533 19.3201 12.6234C19.2883 12.6935 19.2108 12.7521 19.1246 12.749C18.9911 12.7441 18.9196 12.6098 18.8963 12.4948C18.8675 12.3527 18.9125 12.1571 19.0772 12.1466C19.2181 12.1375 19.306 12.2788 19.331 12.4003ZM15.2177 12.0987C15.2842 12.1834 15.2748 12.2966 15.2484 12.3967C15.2146 12.5248 15.1296 12.6677 14.98 12.6811C14.8449 12.6931 14.7296 12.5875 14.6854 12.4752C14.6315 12.3383 14.6577 12.1709 14.78 12.0732C14.9024 11.9755 15.124 11.9793 15.2177 12.0987ZM15.3423 10.6532C15.402 10.6771 15.4441 10.7429 15.4138 10.7939L15.3561 10.8072C15.0273 10.8838 14.6768 10.9906 14.5198 11.2504C14.4822 11.3126 14.4578 11.3814 14.4109 11.4386C14.3641 11.4959 14.2851 11.5414 14.2062 11.5269C14.1164 11.5104 14.0644 11.42 14.074 11.3402C14.0836 11.2604 14.1391 11.1908 14.1986 11.1297C14.4407 10.8812 14.7817 10.7078 15.1485 10.6468C15.2131 10.636 15.2826 10.6292 15.3423 10.6532ZM19.5441 10.7967C19.6424 10.8659 19.7171 10.9582 19.8164 11.0263C19.9003 11.0838 20.0064 11.1293 20.0445 11.2164C20.0827 11.3035 19.968 11.4264 19.8847 11.3681C19.6674 11.2159 19.4261 11.0898 19.1699 10.9945C19.0537 10.9513 19.0801 10.7804 19.1934 10.7318C19.3067 10.6831 19.4457 10.7274 19.5441 10.7967ZM18.3264 10.2506C18.1122 10.3123 17.96 10.5094 17.9745 10.7061C18.0564 10.6694 18.1189 10.601 18.1414 10.523L18.1382 10.5151C18.2333 10.4494 18.3011 10.3542 18.3264 10.2506Z" fill="#00160A"/>
<path fill-rule="evenodd" clip-rule="evenodd" d="M6.25703 33.8296C6.34321 33.8303 6.42247 33.8651 6.49776 33.9036L6.53845 33.9247C6.99997 34.1662 7.48696 34.3705 7.99123 34.5341C8.06053 34.5566 8.039 34.6583 7.97146 34.6845C7.90391 34.7107 7.82595 34.6874 7.75706 34.6639L6.26783 34.1574C6.17253 34.125 6.0619 34.0756 6.05355 33.9865C6.04522 33.8978 6.15519 33.8288 6.25703 33.8296Z" fill="#E7EAEE"/>
<path fill-rule="evenodd" clip-rule="evenodd" d="M3.88137 32.4143L8.48836 33.8427L8.51731 33.8521C8.63907 33.8938 8.77076 33.9649 8.75775 34.0748C8.74715 34.1644 8.63377 34.2221 8.53083 34.2191C8.44373 34.2165 8.36327 34.1827 8.2863 34.1455L8.24465 34.125C7.60228 33.8065 6.92833 33.5438 6.23713 33.3168C5.45415 33.0597 4.64904 32.8484 3.84263 32.6539C3.71931 32.6242 3.56304 32.5279 3.63376 32.4347C3.68335 32.3694 3.79681 32.388 3.88137 32.4143Z" fill="#E7EAEE"/>
</svg>
