<svg width="68" height="59" viewBox="0 0 68 59" fill="none" xmlns="http://www.w3.org/2000/svg">
<path fill-rule="evenodd" clip-rule="evenodd" d="M13.3414 42.6021C17.3951 46.3942 33.071 44.216 43.3928 44.216C47.8458 44.216 62.7891 46.1339 56.6183 32.9622C36.3855 -10.2253 0.497177 30.5869 13.3414 42.6021Z" fill="#2C1320" fill-opacity="0.8"/>
<path fill-rule="evenodd" clip-rule="evenodd" d="M31.2799 42.9114C31.2996 42.8984 31.3202 42.8844 31.3288 42.8643C31.3563 42.8001 31.2484 42.7574 31.1688 42.7589C31.0532 42.7612 30.905 42.8281 30.9404 42.9226C30.9609 42.9774 31.0393 43.0027 31.1051 42.9926C31.171 42.9825 31.2268 42.9465 31.2799 42.9114ZM31.6216 41.7828C31.7089 41.8063 31.795 41.8354 31.871 41.8791C32.0137 41.9612 32.1108 42.0887 32.2039 42.2126C32.2707 42.3015 32.3384 42.3921 32.3718 42.494C32.4079 42.6043 32.4014 42.722 32.3772 42.8347C32.3019 43.1857 32.0499 43.5059 31.6988 43.6967C31.3478 43.8874 30.903 43.9458 30.5018 43.8538C30.4236 43.8359 30.345 43.8115 30.2849 43.765C30.2344 43.7259 30.2004 43.6739 30.1693 43.622C30.0058 43.3497 29.8956 43.0471 29.9082 42.7409C29.9208 42.4346 30.0673 42.1247 30.3447 41.9323C30.6929 41.6907 31.1947 41.6677 31.6216 41.7828" fill="white"/>
<path fill-rule="evenodd" clip-rule="evenodd" d="M50.0441 25.1222C49.8528 25.1201 49.6733 25.258 49.6544 25.4216C49.6467 25.4885 49.6797 25.5716 49.7571 25.5808C49.8152 25.5877 49.8661 25.5492 49.9051 25.5116C49.9876 25.4321 50.0585 25.3437 50.1155 25.2492C50.1347 25.2174 50.1516 25.1767 50.1264 25.1483C50.1081 25.1275 50.0744 25.1225 50.0441 25.1222ZM49.9648 24.3902C50.2365 24.4717 50.4827 24.615 50.6716 24.8015C50.834 24.9618 50.9576 25.1699 50.9235 25.3804C50.911 25.4577 50.8778 25.5314 50.84 25.6023C50.6967 25.8709 50.4502 26.1284 50.1117 26.1804C49.9342 26.2077 49.7511 26.175 49.5803 26.125C49.3828 26.0673 49.1946 25.9863 49.0224 25.885C48.9311 25.8313 48.8404 25.7676 48.8004 25.6789C48.7728 25.6178 48.7719 25.5505 48.773 25.485C48.7755 25.3229 48.788 25.1581 48.8538 25.0062C48.937 24.814 49.0998 24.6553 49.2724 24.5137C49.3418 24.4567 49.4154 24.4006 49.5046 24.3701C49.6504 24.3202 49.8166 24.3458 49.9648 24.3902Z" fill="white"/>
<path fill-rule="evenodd" clip-rule="evenodd" d="M50.0474 12.6929C51.1715 13.6892 52.0588 14.8805 52.6396 16.1734C52.6795 16.2622 52.7182 16.3608 52.6802 16.4502C52.3872 17.1384 51.8217 17.7122 51.2672 18.2701C50.9129 18.6266 50.5586 18.9831 50.2043 19.3396C49.8661 19.6799 49.5278 20.0203 49.1781 20.3521C47.3979 22.0413 45.2943 23.5184 42.8579 24.4272C42.766 24.4615 42.6674 24.4957 42.5684 24.482C42.4693 24.4683 42.3766 24.386 42.4025 24.3031C42.7037 23.3391 43.0068 22.3313 42.7651 21.3551C42.7068 21.1197 42.6418 20.8232 42.8691 20.6815C44.7091 19.5344 46.0339 17.8947 47.3035 16.2774C47.6228 15.8707 47.9412 15.4629 48.2237 15.0367C48.7253 14.2801 49.1115 13.4676 49.3697 12.6261C49.4051 12.5107 49.5754 12.4587 49.7103 12.4889C49.8452 12.5192 49.9505 12.6071 50.0474 12.6929" fill="white"/>
<path fill-rule="evenodd" clip-rule="evenodd" d="M14.9903 16.5653C15.1731 17.9852 15.6817 19.3735 16.4785 20.6273C16.9719 21.4036 17.572 22.1254 18.1705 22.845C18.587 23.3457 19.0323 23.8675 19.6821 24.1263C19.8549 24.1951 19.8308 24.4092 19.7844 24.5679C19.584 25.254 19.4905 25.9631 19.5071 26.6703C19.5087 26.7372 19.5108 26.8064 19.4802 26.8679C19.3765 27.0765 19.0212 27.0417 18.7766 26.9564C17.2632 26.4284 16.1012 25.3667 15.0158 24.3177C13.6065 22.9559 12.2182 21.5342 11.3857 19.858C11.3291 19.7441 11.2742 19.6242 11.2837 19.5005C11.2933 19.3746 11.3686 19.2601 11.445 19.1522C12.1997 18.087 13.2496 17.1773 14.4831 16.5201C14.5699 16.4739 14.6627 16.4275 14.7649 16.4244C14.867 16.4214 14.9791 16.478 14.9903 16.5653Z" fill="white"/>
<path fill-rule="evenodd" clip-rule="evenodd" d="M49.8271 41.4759C49.9576 41.2859 50.1192 41.0768 50.3724 41.0408C50.4722 41.0266 50.5248 40.9334 50.5588 40.8515C50.9773 39.8427 51.0176 38.7208 50.6724 37.6917C50.5739 37.398 50.6952 37.0866 50.8152 36.7988C51.125 36.0562 51.4348 35.3135 51.7446 34.5709C51.5671 34.3071 51.0991 34.3149 50.8594 34.0903C50.5509 33.8014 50.7836 33.342 51.0252 33.0093C52.4372 31.0661 53.8492 29.1228 55.2612 27.1795C55.4342 26.9414 55.8138 26.8668 56.132 26.9303C56.4501 26.9937 56.7219 27.1658 56.9835 27.3337C58.0133 27.9947 59.0431 28.6558 60.0729 29.3168C60.6256 29.6715 61.2358 30.1247 61.2039 30.7169C61.1863 31.0446 60.9681 31.3359 60.757 31.6093C59.9409 32.6661 59.1248 33.723 58.3086 34.7798C57.8488 35.3753 57.9758 36.1572 57.8369 36.8618C57.6173 37.975 56.729 38.8892 55.9065 39.7697C55.0839 40.6501 54.2609 41.6332 54.2146 42.7616C54.1595 44.1065 53.416 45.42 52.2189 46.2875C52.5661 45.5635 50.3724 45.8523 47.8629 44.9942C48.2759 43.7388 49.0555 42.5994 49.8271 41.4759Z" fill="white"/>
<path fill-rule="evenodd" clip-rule="evenodd" d="M22.2738 44.6195C22.1174 44.5095 22.0675 44.3238 22.0398 44.1512C21.7202 42.1543 23.0927 40.1833 22.8483 38.1785C22.7223 37.1454 22.1699 36.1814 21.4748 35.3336C20.9948 34.7481 20.9678 33.9637 21.1469 33.2632C21.326 32.5627 21.6873 31.9076 21.9309 31.2218C23.0145 28.1719 21.696 24.9136 20.3925 21.9286C22.99 20.8491 26.0212 21.0582 28.8988 21.2045C31.7765 21.3507 34.8713 21.3611 37.2697 19.98C37.5985 22.9677 36.8736 25.9587 36.1528 28.8946C39.81 28.5884 43.4671 28.2822 47.1243 27.976C47.2292 27.9672 47.3438 27.9604 47.431 28.0116C47.5473 28.0799 47.5651 28.2191 47.5718 28.3404C47.7427 31.4475 47.8464 34.5574 47.8826 37.6678C47.8835 37.7458 47.8804 37.8328 47.8167 37.8881C47.7622 37.9355 47.679 37.9454 47.6021 37.9528C42.4784 38.4435 37.3546 38.9341 32.2308 39.4248C31.7877 39.4673 31.1566 39.3681 31.1825 38.9837C31.2982 37.2699 31.2307 35.5468 30.981 33.8437C29.6194 33.7994 28.2484 33.9778 26.9623 34.3667C26.6705 34.455 26.3197 34.6922 26.4771 34.922C27.5182 36.4424 26.226 38.7278 27.64 40.004C28.1262 40.4429 28.0926 41.1332 27.9962 41.7349C27.7897 43.0245 27.4388 44.2968 26.95 45.5283C27.1863 44.1108 22.4182 45.3796 22.2738 44.6195Z" fill="white"/>
<path fill-rule="evenodd" clip-rule="evenodd" d="M7.61904 12.4444C7.62342 12.4747 7.60436 12.5065 7.57313 12.521C7.54827 12.4996 7.5234 12.4782 7.49854 12.4569C7.53581 12.4428 7.57809 12.4388 7.61802 12.4456L7.61904 12.4444Z" fill="#00160A"/>
<path fill-rule="evenodd" clip-rule="evenodd" d="M31.5307 41.7828C31.6179 41.8063 31.7041 41.8354 31.7801 41.8791C31.9227 41.9612 32.0198 42.0887 32.113 42.2126C32.1798 42.3015 32.2475 42.3921 32.2808 42.494C32.3169 42.6043 32.3105 42.722 32.2863 42.8347C32.211 43.1857 31.9589 43.5059 31.6079 43.6967C31.2569 43.8874 30.8121 43.9458 30.4108 43.8538C30.3327 43.8359 30.254 43.8115 30.194 43.765C30.1435 43.7259 30.1095 43.6739 30.0783 43.622C29.9149 43.3497 29.8047 43.0471 29.8173 42.7409C29.8298 42.4346 29.9763 42.1247 30.2538 41.9323C30.602 41.6907 31.1037 41.6677 31.5307 41.7828M31.041 43.6031C31.2592 43.5746 31.4513 43.4521 31.5768 43.296C31.7022 43.1398 31.7666 42.9526 31.7975 42.7648C31.8151 42.6575 31.8167 42.5345 31.7286 42.4571C31.6759 42.4107 31.6005 42.39 31.5282 42.3714C31.2569 42.3016 30.9471 42.2423 30.704 42.3673C30.527 42.4583 30.4283 42.627 30.3389 42.7867C30.2341 42.9737 30.26 43.2098 30.4036 43.3768C30.5471 43.5437 30.8021 43.6342 31.041 43.6031V43.6031Z" fill="#00160A"/>
<path fill-rule="evenodd" clip-rule="evenodd" d="M41.499 33.3467C41.5028 33.3069 41.5084 33.2642 41.539 33.2342C41.569 33.2048 41.6161 33.1943 41.6604 33.1854C42.8007 32.9573 43.9784 32.868 45.1476 32.9211C45.2964 32.9279 45.4879 32.9712 45.4978 33.0991C45.5543 33.8321 45.6107 34.5651 45.6672 35.2982C45.6701 35.3353 45.6715 35.3764 45.6439 35.405C45.6214 35.4283 45.5851 35.4374 45.551 35.445C44.335 35.7174 43.0532 35.7711 41.8121 35.6016C41.7802 35.5973 41.7466 35.5921 41.7218 35.5743C41.6918 35.5527 41.6813 35.5176 41.6727 35.4848C41.4897 34.785 41.4309 34.0614 41.499 33.3467ZM41.7688 34.5574C41.7912 34.8342 41.8588 35.1083 41.9689 35.3692C42.0788 35.3828 42.1875 35.4024 42.2969 35.4183C43.2401 35.5555 44.2047 35.4175 45.1477 35.2796C45.2146 35.2698 45.288 35.2568 45.3293 35.2105C45.3714 35.1632 45.3658 35.0973 45.3582 35.0381C45.3257 34.7855 45.2933 34.5329 45.2608 34.2804C45.2581 34.26 45.2548 34.2381 45.2387 34.223C45.2193 34.2046 45.1874 34.2016 45.1586 34.2C44.4884 34.1621 43.8161 34.205 43.1464 34.248C42.7762 34.2717 42.406 34.2955 42.0358 34.3192C41.9488 34.3248 41.85 34.3359 41.8 34.3973C41.7631 34.4425 41.7644 34.5023 41.7688 34.5574ZM41.778 33.5012C41.7194 33.6626 41.7089 33.8368 41.7477 34.0026C41.7547 34.0324 41.7645 34.0638 41.7908 34.0841C41.8298 34.1142 41.8893 34.1092 41.9411 34.1027C42.5718 34.0233 43.2093 33.9838 43.8467 33.9848C43.9366 33.9849 43.9642 33.8809 43.9632 33.8036C43.9618 33.6904 43.9603 33.5772 43.9589 33.4639C43.9581 33.3984 43.9543 33.3262 43.9021 33.2785C43.8394 33.2211 43.7346 33.2229 43.6432 33.2289C43.432 33.2427 43.2209 33.2566 43.0097 33.2705C42.9087 33.2771 42.6408 33.3361 42.5176 33.343C42.3032 33.3724 42.0888 33.4018 41.8745 33.4312C41.8516 33.4344 41.8275 33.438 41.8099 33.4509C41.7927 33.4635 41.7847 33.4827 41.778 33.5012ZM44.6081 33.9986C44.7757 34.0005 44.9435 33.9861 45.1074 33.9557C45.1464 33.9485 45.1874 33.9394 45.2152 33.9148C45.2561 33.8787 45.2557 33.8221 45.2527 33.7718C45.244 33.6259 45.2354 33.4799 45.2267 33.3339C45.2236 33.2818 45.2168 33.2232 45.1694 33.1906C45.1278 33.1619 45.069 33.1637 45.0157 33.1668C44.8294 33.1777 44.643 33.1886 44.4566 33.1995C44.4271 33.2012 44.3961 33.2033 44.3715 33.2173C44.3263 33.243 44.3196 33.2967 44.3183 33.3431C44.3142 33.4979 44.3215 33.6528 44.3403 33.8067C44.3458 33.8513 44.3533 33.8982 44.3854 33.9336C44.4354 33.9886 44.5269 33.9977 44.6081 33.9986Z" fill="#FFB61D"/>
<path fill-rule="evenodd" clip-rule="evenodd" d="M44.4184 30.1564C44.6674 30.0637 44.9731 30.0948 45.1902 30.2347C45.4073 30.3747 45.5275 30.6182 45.4937 30.8496C45.6463 30.7787 45.8399 30.7089 45.9823 30.7941C46.1432 30.8902 46.1064 31.0973 46.0823 31.2644C46.04 31.5563 46.0948 31.8581 46.2384 32.1252C46.2977 32.2355 46.3486 32.4028 46.2171 32.4473C46.1949 32.4548 46.1707 32.4566 46.1469 32.4582C44.604 32.5651 43.0612 32.6719 41.5183 32.7788C41.476 32.7817 41.4286 32.7833 41.3966 32.7593C41.364 32.7349 41.3599 32.6933 41.3581 32.6561C41.3433 32.3442 41.3285 32.0324 41.3138 31.7205C41.3098 31.6368 41.3079 31.5466 41.3629 31.4775C41.4539 31.3631 41.6444 31.3635 41.8037 31.3416C41.9629 31.3196 42.1481 31.2042 42.0868 31.076C42.0185 30.9332 42.2513 30.8288 42.429 30.8055C42.6067 30.7823 42.8425 30.6912 42.7886 30.5439C42.7298 30.3829 42.9876 30.2829 43.1823 30.2607C43.3196 30.245 43.4632 30.2299 43.5935 30.2704C43.7238 30.3109 43.8339 30.4262 43.8046 30.5425C43.771 30.6757 43.9598 30.7999 44.1087 30.7528C44.2575 30.7057 44.3178 30.5309 44.2425 30.4109C44.181 30.313 44.2995 30.2006 44.4184 30.1564ZM45.2142 32.213C45.1565 32.1211 45.156 32.0116 45.1555 31.9071C45.1531 31.4166 45.118 30.9262 45.0505 30.4391C45.0471 30.4146 45.0417 30.3871 45.0183 30.3727C44.9981 30.3603 44.971 30.3617 44.9462 30.3637C44.8257 30.3734 44.6829 30.3963 44.6353 30.4919C44.6149 30.5327 44.6173 30.5788 44.6201 30.6232C44.6507 31.1148 44.6812 31.6064 44.7118 32.098C44.7146 32.1438 44.7217 32.1964 44.766 32.222C44.7901 32.2359 44.8205 32.2385 44.8495 32.2399C44.9717 32.2456 45.0949 32.2365 45.2142 32.213ZM43.1425 31.4574C43.1275 31.5393 43.1065 31.6206 43.1009 31.7033C43.0916 31.8417 43.1255 31.9791 43.1592 32.1146C43.1808 32.2015 43.3115 32.2443 43.4072 32.2108C43.503 32.1773 43.5608 32.0895 43.5767 32.0017C43.5926 31.9139 43.574 31.8246 43.5577 31.7369C43.4938 31.3922 43.4661 31.0426 43.4751 30.6937C43.4774 30.6054 43.3772 30.5256 43.2749 30.5343C43.1726 30.5431 43.0926 30.6382 43.115 30.7244C43.1775 30.9643 43.1868 31.2144 43.1425 31.4574ZM44.1534 30.9845C44.0933 30.9168 43.9554 30.9528 43.9085 31.0278C43.8615 31.1029 43.8759 31.1939 43.8875 31.2785C43.9179 31.4994 43.9208 31.7231 43.8961 31.9445C43.8889 32.0098 43.8808 32.0811 43.9228 32.1359C43.9873 32.2202 44.1288 32.2194 44.2456 32.2092C44.2822 32.206 44.3243 32.1999 44.3427 32.1725C44.3555 32.1535 44.3525 32.1298 44.3491 32.108C44.2952 31.7644 44.2414 31.4208 44.1875 31.0772C44.1824 31.0447 44.1766 31.0106 44.1534 30.9845ZM45.4891 31.1359C45.4437 31.189 45.4342 31.2582 45.4302 31.3239C45.4167 31.5495 45.4515 31.7748 45.4862 31.9987C45.4999 32.0868 45.5468 32.2002 45.6501 32.1942C45.7548 32.1881 45.7821 32.0678 45.7797 31.9776C45.7732 31.7389 45.7668 31.5001 45.7604 31.2613C45.7587 31.1986 45.751 31.1258 45.6903 31.0908C45.6267 31.054 45.5344 31.0828 45.4891 31.1359ZM42.3285 31.0802C42.3285 31.0802 42.3744 31.3918 42.3905 31.5506C42.4106 31.7499 42.4362 31.9488 42.4674 32.1471C42.4719 32.1759 42.4779 32.2071 42.5026 32.2269C42.5455 32.2613 42.7108 32.2384 42.7413 32.1954C42.7717 32.1524 42.77 32.0986 42.7674 32.0483C42.759 31.8892 42.7506 31.73 42.7422 31.5709C42.7332 31.4003 42.686 31.0324 42.686 31.0324M41.7301 32.2072C41.7434 32.2429 41.759 32.2803 41.7925 32.3041C41.8581 32.3508 41.9644 32.3219 42.016 32.2638C42.0677 32.2058 42.0793 32.1293 42.0892 32.0567C42.1013 31.9676 42.1131 31.875 42.0795 31.79C42.0459 31.7051 41.953 31.6304 41.849 31.6383C41.7534 31.6455 41.6793 31.7206 41.657 31.8008C41.6347 31.8811 41.6535 31.9653 41.6767 32.0453C41.6925 32.0997 41.7103 32.1538 41.7301 32.2072Z" fill="#E7EAEE"/>
<path fill-rule="evenodd" clip-rule="evenodd" d="M48.3775 19.8025C48.2145 20.0126 48.0379 20.2255 47.7858 20.3553C47.5337 20.4851 47.1857 20.5103 46.9592 20.3495C46.7093 20.172 46.6938 19.852 46.7136 19.574C46.7212 19.4669 46.7312 19.359 46.7669 19.2562C46.8288 19.0779 46.964 18.9258 47.1052 18.7847C47.2764 18.6136 47.466 18.4485 47.7035 18.3522C47.9411 18.2559 48.2362 18.239 48.4587 18.3588C48.7251 18.5022 48.8237 18.8073 48.7732 19.074C48.7228 19.3406 48.5517 19.5777 48.3775 19.8025M47.8599 20.0243C48.0653 19.8362 48.2415 19.6246 48.3823 19.3969C48.475 19.247 48.5539 19.084 48.5501 18.9143C48.5464 18.7446 48.4423 18.5672 48.2589 18.5043C48.02 18.4222 47.7577 18.5534 47.5581 18.6929C47.4159 18.7921 47.2783 18.901 47.1872 19.0375C47.1295 19.1238 47.092 19.2188 47.0549 19.313C46.9847 19.4914 46.9135 19.6772 46.9403 19.8641C46.967 20.0509 47.1226 20.2385 47.3405 20.2579C47.5422 20.2758 47.7211 20.1513 47.8599 20.0243Z" fill="#FFB61D"/>
<path fill-rule="evenodd" clip-rule="evenodd" d="M16.3168 21.3583C16.572 21.5804 16.7827 21.8403 16.9368 22.123C17.0917 22.4071 16.9356 22.7723 16.6316 22.9461C16.3276 23.1199 15.9167 23.1176 15.5834 22.9895C15.2501 22.8614 14.9882 22.6223 14.7953 22.3559C14.6499 22.1551 14.5371 21.93 14.525 21.6937C14.5129 21.4574 14.6142 21.2087 14.8317 21.0638C15.0517 20.9172 15.3611 20.8963 15.6272 20.9666C15.8933 21.0369 16.1212 21.188 16.3168 21.3583M15.3208 21.2221C15.0999 21.2026 14.9038 21.3768 14.8659 21.5647C14.828 21.7527 14.9114 21.9435 15.0193 22.1102C15.2533 22.4717 15.6707 22.7929 16.1516 22.7729C16.3987 22.7626 16.6697 22.6155 16.6653 22.4028C16.6634 22.3109 16.6106 22.226 16.5579 22.146C16.4178 21.9334 16.2666 21.723 16.0645 21.5511C15.8625 21.3792 15.6035 21.2471 15.3208 21.2221Z" fill="#FFB61D"/>
<path fill-rule="evenodd" clip-rule="evenodd" d="M30.6537 42.6442C30.7892 42.5557 30.9578 42.4984 31.1277 42.5078C31.2976 42.5173 31.4657 42.601 31.5368 42.734C31.613 42.8766 31.5655 43.0539 31.4465 43.173C31.3275 43.2922 31.1482 43.358 30.9673 43.3797C30.8438 43.3945 30.6966 43.3812 30.629 43.2912C30.5963 43.2477 30.589 43.1942 30.5824 43.1428C30.5706 43.0506 30.5588 42.9583 30.5471 42.866C30.5421 42.827 30.5373 42.7864 30.5519 42.7491C30.5691 42.7053 30.6108 42.6722 30.6537 42.6442M31.1914 42.9068C31.2111 42.8938 31.2318 42.8797 31.2404 42.8597C31.2679 42.7955 31.16 42.7528 31.0803 42.7543C30.9648 42.7566 30.8166 42.8235 30.852 42.918C30.8725 42.9727 30.9509 42.9981 31.0167 42.988C31.0826 42.9779 31.1384 42.9418 31.1914 42.9068H31.1914Z" fill="#00160A"/>
<path fill-rule="evenodd" clip-rule="evenodd" d="M52.0657 13.2064C53.4469 14.4352 54.5372 15.9046 55.2508 17.4992C55.2998 17.6087 55.3474 17.7304 55.3006 17.8406C54.9406 18.6895 54.2458 19.3972 53.5645 20.0853L53.4846 20.166C53.7228 20.0256 54.0548 20.0034 54.3545 20.0097C54.4411 20.0115 54.5303 20.0151 54.6092 20.046C54.8287 20.1319 54.8752 20.3784 54.8827 20.5855C54.8894 20.774 54.8882 20.9649 54.8349 21.1479C54.7815 21.3308 54.6713 21.507 54.495 21.6193C54.4157 21.6698 54.3238 21.7065 54.2265 21.7205C54.0762 21.7422 53.9224 21.709 53.7795 21.6633C53.5891 21.6024 53.4086 21.5188 53.2448 21.4156C53.1647 21.3652 53.082 21.2992 53.0795 21.214C53.0735 21.0174 53.0991 20.8201 53.1553 20.6295C53.1777 20.5536 53.2055 20.4779 53.2453 20.4077L52.2584 21.4045C51.8428 21.8242 51.4271 22.2441 50.9975 22.6533C48.81 24.7368 46.2252 26.5586 43.2316 27.6796C43.1187 27.7219 42.9975 27.7641 42.8758 27.7472C42.7542 27.7303 42.6401 27.6288 42.672 27.5265C43.0421 26.3375 43.4146 25.0944 43.1176 23.8904C43.046 23.6 42.9661 23.2343 43.2453 23.0596C45.5063 21.6447 47.1341 19.6224 48.6941 17.6275C49.0864 17.1258 49.4776 16.6228 49.8247 16.0972C50.441 15.164 50.9157 14.1618 51.2329 13.124C51.2764 12.9816 51.4856 12.9175 51.6514 12.9548C51.8171 12.9921 51.9466 13.1005 52.0657 13.2064ZM51.0993 14.7324C50.9589 14.6825 50.8294 14.8174 50.7579 14.9326L50.5258 15.3071C49.0946 17.6172 47.6416 19.9628 45.4607 21.7824C45.2546 21.9543 45.0243 22.162 45.0623 22.4066C45.184 23.1908 44.6968 24.0189 43.8899 24.3996C43.5235 24.5725 43.5278 25.0185 43.5815 25.3747C43.603 25.5173 43.6657 25.696 43.8324 25.7081C44.3215 25.7435 44.7908 25.9504 45.1096 26.2711C45.2102 26.3723 45.4008 26.309 45.5319 26.2382C48.8312 24.4558 51.3662 21.8229 53.8413 19.2361C53.9267 19.1468 54.0176 19.0344 53.9731 18.9254C53.5985 18.0085 53.6585 16.9664 54.1366 16.0858C53.8545 15.6034 53.5183 15.1444 53.1342 14.7172C52.495 14.9556 51.7432 14.9613 51.0993 14.7324ZM43.2733 27.2085C43.4034 27.267 43.561 27.2113 43.6912 27.1529C44.0334 26.9994 44.363 26.8252 44.6768 26.632C44.7597 26.5809 44.7844 26.4789 44.7551 26.3949C44.7258 26.311 44.6524 26.2433 44.5711 26.1903C44.3175 26.0248 43.9628 25.9813 43.6654 26.0791C43.6104 26.0972 43.5558 26.1208 43.5179 26.1595C43.4736 26.2048 43.4574 26.2651 43.4432 26.3231C43.3713 26.6158 43.3146 26.9114 43.2733 27.2085ZM52.5385 14.1211C52.3143 13.7444 51.9685 13.4219 51.5501 13.1989C51.4045 13.3092 51.3762 13.4768 51.3474 13.6476C51.3276 13.7648 51.3075 13.8836 51.2491 13.9864C51.2301 14.0199 51.2069 14.0519 51.1837 14.0839C51.1395 14.1447 51.0955 14.2053 51.0813 14.2752C51.0597 14.3818 51.1647 14.5155 51.2837 14.4803C51.3805 14.4516 51.482 14.47 51.5843 14.4886C51.6383 14.4984 51.6925 14.5082 51.7464 14.5112C52.0606 14.5287 52.3214 14.3171 52.5385 14.1211ZM54.3155 16.3799C54.0754 16.7904 54.1134 17.2752 54.157 17.7332L54.2197 18.3899C54.2265 18.4621 54.2722 18.5596 54.3533 18.5396C54.4036 18.4186 54.4994 18.3188 54.5955 18.2187C54.6795 18.1312 54.7637 18.0435 54.8178 17.9412C55.0012 17.5948 54.7977 17.1957 54.5971 16.8564L54.3155 16.3799ZM43.5656 23.6682C43.5756 23.7967 43.7309 23.8928 43.8806 23.8892C44.0304 23.8856 44.1652 23.8023 44.2527 23.6978C44.3402 23.5933 44.3882 23.4688 44.435 23.3465L44.5894 22.9426C44.6324 22.83 44.6351 22.6578 44.498 22.6446C44.4486 22.6398 44.4013 22.6623 44.3608 22.6871C44.2071 22.7809 44.0953 22.9157 43.9864 23.0479L43.6897 23.4081C43.6254 23.4862 43.5581 23.5727 43.5656 23.6682ZM17.9013 21.6163C16.8592 19.9765 16.1939 18.1607 15.9548 16.3036C15.9401 16.1894 15.7936 16.1155 15.66 16.1194C15.5264 16.1234 15.4051 16.1841 15.2915 16.2446C13.6783 17.1041 12.3051 18.2938 11.318 19.6871C11.2181 19.8281 11.1196 19.9779 11.107 20.1426C11.0946 20.3043 11.1664 20.4612 11.2405 20.6102C12.3293 22.8024 14.145 24.6618 15.9882 26.443C17.4078 27.8149 18.9275 29.2036 20.9069 29.8941C21.2268 30.0057 21.6915 30.0512 21.8272 29.7783C21.8666 29.6989 21.8645 29.6096 21.8625 29.5232L21.8624 29.5199C21.844 28.7391 21.9283 27.9565 22.1127 27.1918C22.3502 28.5363 22.3348 29.8812 21.8685 31.1872C21.7739 31.452 21.6614 31.7123 21.5489 31.9724C21.3755 32.3734 21.2022 32.7741 21.095 33.1913C20.9183 33.879 20.9449 34.649 21.4185 35.2238C22.1043 36.0561 22.6493 37.0025 22.7736 38.0168C22.8915 38.9793 22.6279 39.9338 22.3647 40.8873C22.0896 41.8835 21.8148 42.8786 21.9759 43.8803C22.0032 44.0497 22.0524 44.232 22.2068 44.34L22.8149 40.478C22.8623 40.1769 22.9288 39.8455 23.204 39.6549C23.4236 39.5028 23.7249 39.4785 24.0068 39.4739C24.9302 39.4586 25.8566 39.5875 26.7273 39.8523C27.0027 39.9361 27.291 40.0464 27.4416 40.2616C27.6046 40.4945 27.5648 40.7883 27.5198 41.0574L26.8205 45.2322C27.3027 44.0232 27.6488 42.7741 27.8526 41.5081C27.9477 40.9175 27.9808 40.2397 27.5012 39.8089C26.7523 39.1364 26.7728 38.1785 26.7935 37.2044C26.8115 36.3638 26.8296 35.5112 26.3538 34.8198C26.1986 34.5942 26.5447 34.3612 26.8326 34.2746C28.1014 33.8928 29.4541 33.7176 30.7975 33.7611C31.0438 35.4331 31.1104 37.1247 30.9963 38.8072C30.9707 39.1846 31.5934 39.282 32.0306 39.2403L47.1962 37.7951C47.272 37.7879 47.3542 37.7782 47.408 37.7317C47.4708 37.6773 47.4739 37.5919 47.473 37.5154C47.4372 34.4618 47.3349 31.4087 47.1663 28.3584C47.1597 28.2394 47.1421 28.1027 47.0274 28.0356C46.9414 27.9854 46.8283 27.992 46.7248 28.0007L35.9001 28.9024C36.6112 26.0202 37.3264 23.0839 37.0021 20.1508C34.6357 21.5066 31.5823 21.4964 28.7432 21.3529C28.6252 21.3469 28.5069 21.3408 28.3884 21.3347C25.6562 21.1944 22.8069 21.0481 20.3506 22.0638C20.9227 23.3673 21.4977 24.7239 21.8657 26.092C21.1357 25.7302 20.6093 25.1121 20.1142 24.5168C19.3314 23.5756 18.5466 22.6316 17.9013 21.6163ZM22.2688 26.5236C22.272 26.4343 22.2573 26.3489 22.2105 26.2837C21.8806 24.9633 21.4091 23.6645 20.9396 22.3737C20.8368 22.0911 21.2808 21.9079 21.6216 21.8649C23.8584 21.5831 26.1222 21.622 28.3871 21.661C29.4137 21.6786 30.4405 21.6963 31.4651 21.684C33.2857 21.6623 35.2121 21.5143 36.6889 20.599C37.0209 22.5007 36.5697 24.4193 36.1243 26.3138C36.064 26.57 36.0039 26.8259 35.9458 27.0811C35.4582 29.2236 35.1263 31.5073 36.0592 33.5378C36.0985 33.6233 35.9645 33.6879 35.8597 33.7066C35.0924 33.8442 34.2991 33.8738 33.5208 33.794C33.1869 33.7597 32.8566 33.7056 32.5262 33.6515C32.2774 33.6107 32.0285 33.5699 31.7781 33.5377C29.893 33.2946 27.9253 33.5469 26.2048 34.2523C26.1358 34.2806 26.0538 34.2673 25.9816 34.2459C25.6332 34.1422 25.3846 33.8656 25.2606 33.5671C25.1366 33.2687 25.1188 32.9466 25.1023 32.6301L25.0329 31.3024C25.0304 31.2547 25.0449 31.19 25.1005 31.1885C28.1143 31.1076 31.1247 30.9329 34.1239 30.6651C33.9971 30.0553 33.9845 29.428 34.0868 28.8148C34.1514 28.4277 33.7278 28.0748 33.2767 28.023C32.8257 27.9712 32.3796 28.1467 32.0051 28.3689C31.865 28.452 31.7304 28.5423 31.596 28.6325C31.371 28.7834 31.1463 28.9342 30.896 29.051C30.7322 29.1275 30.5353 29.1892 30.3633 29.1275C30.1528 29.0519 30.0822 28.8367 30.0192 28.6446C30.0153 28.6325 30.0113 28.6205 30.0074 28.6086C29.9253 28.3612 29.7898 28.115 29.5514 27.9594C29.3129 27.8039 28.9532 27.7651 28.7179 27.9241C28.5167 28.0601 28.4531 28.2955 28.4194 28.5136C28.4164 28.533 28.4135 28.5525 28.4106 28.572C28.3807 28.7725 28.3498 28.9797 28.2106 29.1404C28.0578 29.3169 27.7168 29.3925 27.5492 29.2263C27.2178 28.8975 26.6362 28.8286 26.1481 28.9439C25.6601 29.0593 25.2425 29.3258 24.8376 29.5868C24.5933 29.2583 24.5731 28.816 24.7867 28.472L24.7902 28.4663C24.8304 28.4017 24.8765 28.3276 24.841 28.2618C24.819 28.2211 24.7705 28.1961 24.7225 28.1784C24.4354 28.0726 24.0684 28.163 23.8902 28.3835C24.177 28.3923 24.291 28.7017 24.3277 28.9463L24.618 30.8831C24.0511 30.6305 23.2535 31.0593 23.2698 31.6079C22.7921 30.8154 22.7195 29.9073 22.6476 29.0083C22.632 28.8127 22.6164 28.6176 22.5967 28.4242C22.5315 27.7847 22.4171 27.1516 22.2688 26.5236ZM19.7407 28.7837C19.6236 28.8106 19.5067 28.7471 19.4089 28.6856C17.6074 27.5512 16.2113 26.016 14.8396 24.5014L12.4189 21.8285C12.8275 21.6049 12.8794 21.119 12.8883 20.7028C12.8999 20.1617 12.9083 19.6047 12.6809 19.1001C12.6304 18.9879 12.6962 18.8636 12.7666 18.7597C13.0689 18.314 13.488 17.9273 13.9839 17.6366C14.0319 17.6084 14.0827 17.5805 14.1403 17.5735C14.2921 17.555 14.4086 17.682 14.4898 17.7938C14.8103 18.2354 15.2507 18.7349 15.8549 18.6986C16.085 18.6847 16.2125 18.9176 16.2797 19.1072C17.1142 21.4651 18.6812 23.5919 20.5188 25.484C20.7576 25.7299 20.8176 26.0618 20.8769 26.3906C20.9431 26.7573 21.0087 27.1203 21.3208 27.3561C21.5873 27.5574 21.5379 27.9189 21.4659 28.2175C21.4512 28.2786 21.4337 28.3441 21.3797 28.3858C21.3396 28.4167 21.2854 28.4296 21.2333 28.4416L19.7407 28.7837ZM15.4701 18.1526C15.1396 17.9542 14.8542 17.7006 14.6343 17.4102C14.5868 17.3474 14.5406 17.277 14.5489 17.2024C14.558 17.1213 14.629 17.0564 14.6997 17.002C14.8742 16.8678 15.0714 16.7555 15.2831 16.6696C15.3607 16.6382 15.4608 16.6126 15.5252 16.6613C15.5632 16.6899 15.5752 16.7356 15.5851 16.7782L15.8903 18.0901C15.9083 18.1677 15.8137 18.2375 15.7217 18.2398C15.6297 18.242 15.5456 18.1979 15.4701 18.1526ZM12.4493 20.6905C12.4429 20.9373 12.4209 21.2142 12.2057 21.3777C12.1607 21.3823 12.1308 21.3398 12.1131 21.3039C11.9581 20.9885 11.8009 20.6655 11.7765 20.3237C11.7521 19.982 11.8853 19.6119 12.2103 19.4138C12.2543 19.387 12.3188 19.3648 12.3576 19.397C12.3732 19.4099 12.3799 19.4287 12.3856 19.4466C12.4739 19.7256 12.4669 20.0194 12.4593 20.3084L12.4493 20.6905ZM21.219 28.8991C21.2712 28.9358 21.2768 29.0015 21.2782 29.0594L21.2937 29.6937C20.9909 29.5495 20.7009 29.3855 20.4268 29.2038C20.3748 29.1693 20.3177 29.1135 20.3496 29.0642C20.3653 29.0397 20.3981 29.0279 20.4287 29.0182C20.6246 28.9562 20.8272 28.9096 21.033 28.8793C21.0966 28.87 21.1691 28.864 21.219 28.8991ZM21.2364 26.4006C21.2336 26.372 21.2336 26.3408 21.2534 26.3176C21.3057 26.2566 21.4192 26.3119 21.4671 26.3755C21.5827 26.5288 21.6082 26.7296 21.5338 26.9007C21.3642 26.7757 21.2549 26.592 21.2364 26.4006ZM53.9297 21.5284C54.226 21.6015 54.5411 21.4046 54.6533 21.1579C54.7656 20.9112 54.7241 20.6342 54.6623 20.3747C54.6386 20.275 54.5148 20.2194 54.4006 20.1927C54.2238 20.1515 54.0358 20.146 53.8562 20.1769C53.7669 20.1922 53.6757 20.2185 53.6131 20.2753C53.579 20.3062 53.5553 20.3444 53.5321 20.3821L53.3586 20.664C53.3281 20.7135 53.2973 20.7636 53.2794 20.8175C53.2257 20.9788 53.2967 21.1579 53.4277 21.2822C53.5588 21.4065 53.7421 21.4822 53.9297 21.5284ZM49.9668 24.3896C50.2385 24.4711 50.4847 24.6143 50.6736 24.8009C50.836 24.9612 50.9596 25.1693 50.9255 25.3798C50.913 25.4571 50.8798 25.5308 50.842 25.6017C50.6987 25.8703 50.4522 26.1277 50.1137 26.1797C49.9362 26.207 49.7531 26.1743 49.5824 26.1244C49.3849 26.0667 49.1966 25.9857 49.0244 25.8844C48.9331 25.8307 48.8424 25.767 48.8024 25.6783C48.7748 25.6172 48.7739 25.5499 48.775 25.4844C48.7775 25.3223 48.79 25.1575 48.8558 25.0056C48.939 24.8133 49.1018 24.6547 49.2744 24.5131C49.3438 24.4561 49.4174 24.4 49.5066 24.3695C49.6524 24.3195 49.8186 24.3451 49.9668 24.3896ZM50.2422 25.799C50.4386 25.632 50.5528 25.39 50.5217 25.1542C50.4906 24.9183 50.3049 24.697 50.045 24.6165C49.9371 24.583 49.8173 24.5737 49.7067 24.6C49.6471 24.6142 49.5911 24.6383 49.5389 24.6669C49.3152 24.7891 49.1582 24.9976 49.1201 25.223C49.082 25.4484 49.1634 25.6867 49.3373 25.8586C49.4487 25.9686 49.6304 26.0158 49.7987 25.9975C49.9671 25.9792 50.1216 25.9016 50.2422 25.799ZM25.4514 22.9948C25.4423 22.8836 25.2693 22.8544 25.1396 22.8577C24.4589 22.8749 23.779 22.9187 23.1029 22.989C22.9918 23.0006 22.9829 23.1544 23.072 23.2126C23.1611 23.2707 23.2853 23.2599 23.396 23.2463L25.4514 22.9948ZM23.2765 23.7493C23.2824 23.6921 23.3661 23.6714 23.4326 23.6649L27.4423 23.2747C27.5148 23.2676 27.592 23.2612 27.6573 23.2893C27.7226 23.3173 27.7646 23.3941 27.722 23.445C27.6906 23.4826 27.6303 23.4902 27.5768 23.4947L23.4757 23.8367C23.3904 23.8438 23.269 23.8227 23.2765 23.7493ZM32.2627 24.3326C32.0384 24.375 31.8081 24.3054 31.593 24.2363C30.8973 24.0129 30.2044 23.7833 29.5142 23.5476C29.2356 23.4524 28.9299 23.5949 28.6794 23.7364C27.9542 24.1457 27.2561 24.5904 26.5894 25.0675C26.4182 25.19 26.1547 25.104 25.982 24.983C25.9454 24.9574 25.9095 24.9301 25.8734 24.9027C25.7389 24.8005 25.6027 24.6971 25.4287 24.6759C25.1612 24.6432 24.9259 24.8175 24.7321 24.9792L23.4823 26.0223C23.3142 26.1626 23.1373 26.3872 23.2869 26.5422C23.3856 26.6445 23.5668 26.6393 23.7204 26.624C24.5222 26.5441 25.32 26.4321 26.1176 26.3201L26.1176 26.3201C27.4358 26.1351 28.7532 25.9502 30.0864 25.9105C30.3818 25.9017 30.6775 25.9001 30.9731 25.8985C31.1582 25.8975 31.3434 25.8965 31.5284 25.8937C32.3633 25.8812 33.1973 25.8329 34.0266 25.7489C34.0667 25.7449 34.1123 25.7378 34.1331 25.708C34.1488 25.6856 34.1449 25.6572 34.1405 25.6313L33.7892 23.5775C33.7714 23.4732 33.7402 23.3526 33.6292 23.3075C33.5171 23.262 33.3851 23.3207 33.293 23.3921C33.149 23.5039 33.0381 23.6524 32.9287 23.7988C32.7491 24.039 32.5737 24.2739 32.2627 24.3326ZM26.5587 25.4556C27.3088 24.9255 28.091 24.429 28.901 23.9686C29.0673 23.874 29.2695 23.7772 29.4554 23.8393L31.4195 24.4952C31.7473 24.6047 32.1058 24.7156 32.4423 24.6278C32.8335 24.5258 33.0674 24.1913 33.2644 23.8834C33.3027 23.8235 33.4142 23.8304 33.4694 23.8796C33.5246 23.9288 33.5385 24.0012 33.5499 24.0688L33.6936 24.9253C33.7157 25.0568 33.7374 25.1933 33.6932 25.3206C33.649 25.4479 33.519 25.5636 33.3645 25.561C30.8362 25.5191 28.3031 25.6982 25.8168 26.0948C25.7399 26.1071 25.663 26.1196 25.586 26.1321L25.5859 26.1321L25.5857 26.1321C24.9917 26.2285 24.3956 26.3252 23.792 26.3269C24.0835 25.9721 24.4528 25.6708 24.8196 25.372C25.0209 25.208 25.2727 25.031 25.5431 25.0847C25.689 25.1137 25.801 25.2038 25.9124 25.2935C25.9482 25.3223 25.9838 25.351 26.0205 25.3776C26.1717 25.4873 26.4058 25.5636 26.5587 25.4556ZM58.9943 31.4255C58.9272 31.4469 58.8524 31.4322 58.7841 31.4138C58.3218 31.2889 57.9463 31.0096 57.5773 30.7351L57.5773 30.7351C57.5273 30.6979 57.4775 30.6608 57.4276 30.6242C56.8161 30.176 56.1526 29.7803 55.45 29.445C55.3786 29.4109 55.3036 29.375 55.2598 29.3156C55.216 29.2563 55.2173 29.166 55.2849 29.1263C55.5999 28.9415 55.8042 28.6243 55.8192 28.2967C55.8232 28.2094 55.938 28.1512 56.0393 28.1582C56.1407 28.1652 56.229 28.2175 56.3119 28.2681L59.5222 30.2265C59.5847 30.2646 59.652 30.3088 59.6673 30.3733C59.6798 30.426 59.6541 30.4793 59.6283 30.5282C59.4898 30.7908 59.3306 31.0452 59.152 31.2893C59.1116 31.3445 59.0654 31.4027 58.9943 31.4255ZM55.7834 29.0955C55.7457 29.1527 55.713 29.2354 55.7741 29.275L58.3938 30.9701C58.5373 31.0629 58.7603 31.1499 58.8732 31.03C59.003 30.8922 59.1241 30.7485 59.236 30.5996C59.2666 30.5589 59.2979 30.5124 59.2868 30.4648C59.2768 30.4214 59.2343 30.3899 59.1943 30.362C58.2328 29.6921 57.2149 29.0821 56.1511 28.5383L55.7834 29.0955ZM54.4764 30.1406C54.5187 30.0783 54.57 30.01 54.6521 29.9947C54.7149 29.983 54.7788 30.0061 54.8366 30.0302C55.1521 30.1619 55.441 30.3403 55.6867 30.5553C55.7459 30.607 55.7532 30.6903 55.7269 30.7591C55.7006 30.828 55.6463 30.886 55.5931 30.9423C55.5077 31.0328 55.4166 31.1269 55.2905 31.1699C55.1544 31.2162 54.9961 31.1938 54.8672 31.1342C54.7383 31.0746 54.6349 30.9813 54.5437 30.8829C54.4248 30.7545 54.3183 30.6005 54.3368 30.4372C54.3489 30.3302 54.4134 30.2335 54.4764 30.1406ZM55.0292 30.8562C55.2276 30.9225 55.3545 30.8699 55.3597 30.7581C55.363 30.6876 55.2914 30.6332 55.2262 30.5902L55.0292 30.4599C54.9641 30.4169 54.8922 30.3718 54.8101 30.3722C54.7279 30.3727 54.6443 30.4455 54.6779 30.5099C54.6729 30.541 54.8308 30.7899 55.0292 30.8562ZM54.2468 32.2365C54.2951 32.2593 54.3464 32.2816 54.4016 32.2826C54.4567 32.2836 54.5165 32.2567 54.53 32.2108C54.5618 32.1029 54.6449 32.0135 54.7262 31.926L54.7527 31.8973C54.8417 31.8005 54.9276 31.6908 54.93 31.5674C54.9324 31.444 54.8135 31.3125 54.6712 31.3294C54.5591 31.3426 54.4548 31.2795 54.3734 31.2119C54.3605 31.2012 54.3476 31.1901 54.3346 31.1791L54.3346 31.179C54.2665 31.1206 54.1973 31.0613 54.1068 31.036C53.9992 31.0059 53.8527 31.0538 53.8442 31.1507C53.827 31.346 53.6382 31.4931 53.463 31.6183C53.4105 31.6558 53.4579 31.7277 53.5069 31.7685C53.7278 31.9519 53.9773 32.1098 54.2468 32.2365ZM54.2812 31.8618L53.9361 31.6612C53.8484 31.6102 53.8555 31.4852 53.9337 31.4238C54.0119 31.3624 54.1335 31.3578 54.2332 31.3885C54.3329 31.4192 54.4159 31.4795 54.4964 31.5386C54.5497 31.5777 54.5571 31.6489 54.5327 31.7054C54.5083 31.7619 54.4586 31.8071 54.4102 31.8507C54.3936 31.8656 54.3751 31.8814 54.3513 31.8841C54.326 31.8869 54.3023 31.874 54.2812 31.8618ZM57.0194 31.8797L57.1881 31.5717C57.2398 31.4773 57.2899 31.3606 57.2201 31.2753C57.1959 31.2457 57.1602 31.2248 57.1253 31.2046L56.5115 30.8491C56.4453 30.8108 56.3735 30.7709 56.2937 30.772C56.1991 30.7733 56.1198 30.8313 56.0527 30.8885C55.9521 30.9743 55.858 31.0656 55.7713 31.1619C55.7053 31.2352 55.6511 31.3558 55.7413 31.4066L56.6805 31.9362C56.7547 31.978 56.8487 32.021 56.9266 31.9846C56.9723 31.9632 56.9973 31.9202 57.0194 31.8797ZM56.811 31.6632C56.7715 31.671 56.7304 31.6624 56.6916 31.6524C56.4545 31.591 56.2374 31.4734 56.0707 31.316C56.0153 31.2636 56.0466 31.1712 56.1171 31.1345C56.1875 31.0978 56.2791 31.1062 56.3551 31.1336C56.4041 31.1513 56.449 31.176 56.494 31.2007C56.5186 31.2142 56.5432 31.2277 56.5686 31.2402C56.5958 31.2535 56.6242 31.2657 56.6526 31.278L56.6527 31.278L56.6527 31.278L56.6528 31.278C56.7335 31.3128 56.8143 31.3476 56.8693 31.4077C56.9438 31.4891 56.9284 31.64 56.811 31.6632ZM57.13 32.002C57.2383 31.9799 57.2713 31.885 57.3057 31.7864C57.3341 31.7049 57.3634 31.6209 57.4368 31.5733C57.5631 31.4912 57.7419 31.5598 57.878 31.6294L58.3106 31.8506C58.3796 31.8858 58.4502 31.9223 58.4997 31.9766C58.5491 32.0309 58.5734 32.1078 58.5388 32.17C58.5157 32.2115 58.4721 32.2391 58.4281 32.2668C58.392 32.2895 58.3558 32.3124 58.3304 32.3432C58.2979 32.3829 58.2858 32.4325 58.2739 32.4816C58.2588 32.5431 58.2441 32.6037 58.1894 32.6424C58.0898 32.713 57.9417 32.6565 57.8316 32.5986L57.222 32.2785C57.1605 32.2462 57.0956 32.2108 57.0655 32.1545C57.0353 32.0983 57.0599 32.0163 57.13 32.002ZM57.9304 32.3189C58.0177 32.2933 58.0878 32.2376 58.1552 32.1835C58.204 32.1442 58.1387 32.0796 58.0804 32.0514L57.707 31.8707C57.668 31.8519 57.6138 31.8347 57.5836 31.863C57.4863 31.9542 57.4722 32.1031 57.551 32.2067C57.6298 32.3103 57.7941 32.3589 57.9304 32.3189ZM53.6432 32.3107C53.5596 32.2904 53.4745 32.2698 53.4062 32.2298C53.3002 32.1676 53.1525 32.1827 53.0412 32.2376C52.93 32.2926 52.847 32.3806 52.7667 32.4666C52.7221 32.5144 52.6763 32.5642 52.6593 32.6236C52.6422 32.683 52.6626 32.7551 52.7248 32.7849L53.3761 33.0968C53.4254 33.1205 53.4804 33.1449 53.5355 33.1344C53.5904 33.1239 53.6283 33.082 53.6614 33.0429L53.8289 32.8448C53.9222 32.7345 54.0197 32.5939 53.9514 32.4708C53.8968 32.3721 53.7718 32.3418 53.6432 32.3107ZM53.4356 32.8223C53.4016 32.83 53.3665 32.8159 53.3351 32.8022L52.8914 32.6081C52.9768 32.5044 53.139 32.4646 53.2861 32.4771C53.4332 32.4897 53.5698 32.5459 53.7029 32.6012L53.4989 32.7832C53.4807 32.7995 53.4611 32.8165 53.4356 32.8223ZM50.3622 25.0632C50.4309 25.1532 50.4093 25.2735 50.3638 25.3738C50.3037 25.5059 50.2022 25.6284 50.0588 25.6987C49.9154 25.769 49.7271 25.7792 49.5873 25.7037C49.4476 25.6281 49.3775 25.4601 49.4523 25.3336C49.4696 25.3044 49.4933 25.2785 49.5169 25.2526C49.5395 25.2278 49.5621 25.203 49.5792 25.1752C49.5905 25.157 49.5993 25.1376 49.608 25.1183C49.6206 25.0904 49.6332 25.0625 49.6533 25.0382C49.7244 24.9516 49.8645 24.9346 49.9878 24.9361C50.1276 24.9378 50.2855 24.9627 50.3622 25.0632ZM50.0487 25.1217C49.8573 25.1196 49.6779 25.2575 49.659 25.4211C49.6512 25.488 49.6842 25.5711 49.7617 25.5803C49.8197 25.5872 49.8707 25.5487 49.9097 25.5111C49.9922 25.4317 50.0631 25.3433 50.1201 25.2487C50.1392 25.2169 50.1561 25.1762 50.131 25.1478C50.1126 25.127 50.079 25.122 50.0487 25.1217ZM54.6246 20.8266C54.6098 20.6761 54.4926 20.528 54.3224 20.4903C54.1061 20.4424 53.8965 20.5732 53.7249 20.696C53.6741 20.7323 53.6211 20.7713 53.5996 20.825C53.5631 20.9161 53.6287 21.0121 53.6934 21.0907C53.7674 21.1809 53.8465 21.2714 53.9546 21.331C54.0626 21.3906 54.2067 21.4137 54.3201 21.3619C54.3778 21.3355 54.4228 21.2924 54.4619 21.2473C54.5668 21.1261 54.6393 20.9772 54.6246 20.8266ZM54.1459 21.2134C54.0727 21.2229 53.9966 21.1974 53.9427 21.1538C53.8619 21.0884 53.8298 20.9832 53.858 20.891C53.8878 20.7938 53.9827 20.7136 54.0962 20.6896C54.2097 20.6656 54.3371 20.699 54.4158 20.7732C54.4128 20.7935 54.4104 20.8138 54.4079 20.8342V20.8342C54.3995 20.9034 54.3912 20.9728 54.3633 21.0378C54.3272 21.122 54.2492 21.2001 54.1459 21.2134ZM48.3229 44.7101C48.7216 43.498 49.4744 42.3979 50.2194 41.3131C50.3454 41.1297 50.5014 40.9277 50.7459 40.893C50.8422 40.8792 50.8931 40.7893 50.9259 40.7102C51.3299 39.7362 51.3689 38.653 51.0355 37.6594C50.9404 37.3758 51.0575 37.0751 51.1735 36.7973L52.0707 34.6461C51.9774 34.5074 51.801 34.4465 51.6222 34.3848C51.4727 34.3331 51.3215 34.2809 51.2161 34.1822C50.9182 33.9032 51.1429 33.4596 51.3762 33.1384L55.4661 27.5096C55.6332 27.2797 55.9997 27.2077 56.3069 27.2689C56.6141 27.3302 56.8764 27.4963 57.1291 27.6585L60.112 29.5732C60.6456 29.9157 61.2347 30.3532 61.204 30.925C61.187 31.2414 60.9763 31.5227 60.7725 31.7866L58.4085 34.8479C58.1028 35.2437 58.0658 35.725 58.0285 36.2084C58.0117 36.4271 57.9948 36.6462 57.953 36.8581C57.7491 37.8916 56.9482 38.7476 56.1808 39.5677L56.0892 39.6657C55.295 40.5157 54.5003 41.465 54.4556 42.5544C54.4024 43.853 53.6846 45.1212 52.5287 45.9588L53.5346 43.8618C53.7738 43.3631 53.9953 42.7426 53.595 42.3272C53.4138 42.1392 53.1401 42.0398 52.8773 41.9471L51.3152 41.3963C51.2075 41.3583 51.0964 41.3198 50.98 41.3191C50.6171 41.3173 50.4012 41.6555 50.254 41.9406C49.745 42.9268 49.0948 43.8592 48.3229 44.7101ZM53.4595 41.8609C53.7273 41.9461 54.1044 41.9978 54.2314 41.778C54.8457 40.7138 55.4768 39.6291 56.4546 38.7895C57.0182 38.3055 57.3638 37.6597 57.5592 36.9959C57.7547 36.3322 57.81 35.6447 57.8646 34.9616C57.6273 35.0359 57.6066 35.311 57.6076 35.5281C57.6099 36.0065 57.5125 36.4851 57.3217 36.9345C57.2817 37.0285 57.2281 37.1302 57.1211 37.1698C57.0141 37.2095 56.8565 37.1298 56.8925 37.0346C57.1684 36.3036 57.2713 35.5247 57.1929 34.7591C57.1686 34.5218 57.1172 34.2679 56.9208 34.0996C56.9421 34.4744 56.9634 34.8509 56.9192 35.2242C56.8428 35.87 56.5733 36.4858 56.3062 37.0931C56.2715 37.1719 56.2296 37.2579 56.1415 37.2949C56.0534 37.332 55.9167 37.2732 55.9397 37.1913L56.3397 35.7704C56.5596 34.9892 56.7758 34.1488 56.4354 33.4002C56.264 33.3903 56.2236 33.601 56.2389 33.7481C56.3438 34.7556 56.0197 35.7556 55.6988 36.7288C55.6613 36.8424 55.5287 36.9845 55.4257 36.9063C55.3813 36.8726 55.3792 36.8146 55.3828 36.7637C55.4031 36.4775 55.4944 36.2005 55.5856 35.9237L55.5856 35.9235C55.6139 35.8377 55.6422 35.7519 55.6683 35.6658C55.9094 34.8721 55.9709 34.0384 55.8484 33.2249C55.6371 33.4576 55.5475 33.7528 55.4629 34.0389L54.9608 35.7371C54.7339 36.5047 54.4439 37.3487 53.6571 37.7611C53.5944 37.7939 53.5217 37.8245 53.4502 37.8099C53.3615 37.7918 53.3112 37.713 53.2742 37.6413C52.7719 36.6692 52.7092 35.5351 53.1018 34.5264C53.1257 34.4652 53.0532 34.4012 52.9783 34.3961C52.9035 34.3911 52.8334 34.4261 52.772 34.4633C52.1277 34.854 51.8809 35.5618 51.6759 36.2161L51.4034 37.0862C51.3636 37.2133 51.3236 37.3415 51.3153 37.473C51.3026 37.6727 51.3634 37.8681 51.4237 38.0625L51.4238 38.0629C51.4378 38.1078 51.4517 38.1527 51.4647 38.1975C51.7268 39.1015 51.6084 40.0833 51.1362 40.9218C51.0666 41.0454 51.2504 41.1579 51.4002 41.2056L53.4595 41.8609ZM54.4806 33.558C54.3731 33.4944 54.2581 33.4218 54.2248 33.3134C54.1739 33.1472 54.3581 32.9802 54.5565 32.9578C54.7548 32.9354 54.9489 33.0177 55.1133 33.1157C55.3448 33.2537 55.6379 33.0433 55.8112 32.8523C55.5773 32.7321 55.3542 32.5455 55.345 32.3114C55.3358 32.0774 55.667 31.8544 55.8873 31.9922C55.9729 32.0456 56.0763 32.0783 56.1786 32.1107C56.3319 32.1591 56.4826 32.2068 56.5667 32.3221C56.6623 32.4534 56.6283 32.6307 56.531 32.761C56.4336 32.8913 56.2838 32.9848 56.1375 33.0751C56.3475 33.093 56.5519 33.1574 56.7257 33.2603L56.915 32.7861C56.9297 32.7493 56.9457 32.7108 56.9793 32.6849C57.0442 32.6348 57.1452 32.6503 57.2283 32.673C57.4464 32.7324 57.6602 32.8253 57.8041 32.9781C57.948 33.1309 58.008 33.3529 57.9075 33.5295C57.8069 33.706 57.5231 33.8002 57.3308 33.6937C57.2909 33.6716 57.2508 33.6421 57.2107 33.6126L57.2107 33.6126C57.1035 33.5337 56.9963 33.4547 56.8929 33.5179C57.2088 33.7293 57.4258 34.047 57.4867 34.3871C58.4814 33.0851 59.4653 31.777 60.4386 30.4631C60.5315 30.3377 60.6064 30.14 60.4551 30.0678C59.8088 29.7597 59.2375 29.3471 58.6677 28.9354L58.6676 28.9354C57.9483 28.4157 57.2311 27.8976 56.3679 27.5934C56.3131 27.5741 56.2532 27.5554 56.1959 27.5684C56.1359 27.582 56.0937 27.6269 56.056 27.6692C54.4485 29.4721 53.0059 31.3836 51.7458 33.3801C51.57 33.6586 51.8053 33.9907 52.0304 34.2416C52.1428 34.367 52.3599 34.4995 52.4826 34.3814C52.6372 34.2325 52.8906 34.1473 53.1095 34.2138C53.3284 34.2803 53.4647 34.525 53.3456 34.6963C53.2595 34.8202 53.4281 34.9579 53.5754 35.0273C53.8696 35.1658 54.1715 35.2924 54.4796 35.4066C54.5225 35.4225 54.5723 35.438 54.614 35.4201C54.6538 35.403 54.6699 35.3623 54.6823 35.3257L55.0236 34.3163C55.0798 34.1503 55.1173 33.9349 54.9517 33.8368L54.4806 33.558ZM60.5856 30.7227C60.5403 30.7093 60.4989 30.7483 60.4723 30.7825L57.9165 34.0704C57.8477 34.1588 57.7773 34.2508 57.7572 34.3558C57.7372 34.4607 57.782 34.5828 57.8932 34.6295C58.0773 34.7069 58.2698 34.5443 58.388 34.4004L60.7626 31.5081C60.9389 31.2933 60.7897 30.9997 60.6388 30.7711C60.6258 30.7514 60.6106 30.7301 60.5856 30.7227ZM53.3879 35.1159C53.343 35.0877 53.2757 35.1045 53.238 35.1397C53.2003 35.175 53.1849 35.2232 53.1708 35.2694C53.1358 35.3833 53.1007 35.4983 53.0955 35.6159C53.0904 35.7336 53.1152 35.8505 53.14 35.9663L53.3848 37.1096C53.395 37.1575 53.407 37.2085 53.4466 37.2434C53.4862 37.2783 53.5632 37.2859 53.5952 37.2457C53.9575 36.7904 54.3249 36.3262 54.5144 35.7992C54.5379 35.7337 54.5447 35.6416 54.4701 35.6175C54.0853 35.4931 53.7202 35.3238 53.3879 35.1159ZM56.2135 32.2971C56.0909 32.1967 55.9287 32.1326 55.7602 32.1178C55.6065 32.1043 55.5178 32.2898 55.588 32.4081C55.6581 32.5263 55.8131 32.5849 55.9564 32.6343C56.0576 32.6692 56.1804 32.702 56.2686 32.647C56.3954 32.5679 56.327 32.39 56.2135 32.2971ZM55.2078 33.6202C55.2578 33.5896 55.2643 33.5271 55.2503 33.4758C55.1975 33.2822 54.9506 33.1834 54.7289 33.1267C54.6432 33.1047 54.5365 33.0895 54.476 33.1462C54.4256 33.1935 54.4363 33.2719 54.4799 33.324C54.5234 33.3762 54.5915 33.4084 54.6573 33.4388L54.9997 33.5973C55.0647 33.6274 55.1475 33.657 55.2078 33.6202ZM57.1557 32.926C57.0832 33.0094 57.0906 33.1307 57.1511 33.2209C57.2116 33.3111 57.3163 33.3738 57.4268 33.4164C57.4647 33.4311 57.5063 33.4439 57.547 33.437C57.5821 33.431 57.6121 33.4107 57.6335 33.3861C57.7126 33.2953 57.6742 33.1584 57.5836 33.0759C57.4929 32.9934 57.364 32.9521 57.2399 32.9134C57.2185 32.9067 57.1935 32.9003 57.174 32.9104C57.1666 32.9142 57.1609 32.92 57.1557 32.926ZM32.5182 33.9354C32.6788 33.9629 32.8761 34.0244 32.8861 34.1649C32.9807 35.5043 34.2194 36.7079 35.7423 37.0044C37.2652 37.3009 38.953 36.7014 39.841 35.5976C40.7289 34.4938 40.7985 32.9604 40.0703 31.7733C39.2895 30.5002 37.3918 29.8242 35.7918 30.249C35.7176 29.9677 35.726 29.6706 35.8159 29.3927C35.8326 29.3411 35.8544 29.2871 35.9029 29.2534C35.9503 29.2205 36.0142 29.213 36.0747 29.2068L40.5817 28.7403C40.978 28.6992 41.3752 28.6582 41.7743 28.6553C43.4905 28.6432 45.2054 28.4961 46.8905 28.2166C47.1524 31.2382 47.2756 34.2687 47.2598 37.2986C47.259 37.4424 47.2081 37.6334 47.0409 37.6376C44.2044 37.7086 41.3903 38.0292 38.575 38.35C36.6835 38.5655 34.7916 38.7811 32.892 38.921C32.4686 38.9522 32.0424 38.9797 31.6193 38.945C31.5427 38.9387 31.4562 38.9253 31.4145 38.8696C31.3894 38.836 31.3865 38.794 31.3844 38.7541L31.1315 33.9078C31.1283 33.8452 31.1327 33.7697 31.1958 33.7382C31.2376 33.7174 31.2899 33.7249 31.3373 33.733L32.5182 33.9354ZM24.7562 32.8121C24.7114 33.0638 24.661 33.347 24.8529 33.5375C25.5686 34.2478 26.3121 35.0068 26.5024 35.9321C26.5912 36.3642 26.5531 36.8089 26.5151 37.2518C26.4672 37.8097 26.4196 38.3647 26.6263 38.8881C26.6317 38.9017 26.6373 38.9154 26.6428 38.9291C26.6808 39.0224 26.7196 39.1175 26.7072 39.2149C26.6931 39.3267 26.5803 39.4391 26.4514 39.42L24.9551 39.1982C24.4596 39.1248 23.9361 39.0533 23.4654 39.2053C23.3744 39.2347 23.2697 39.1831 23.2209 39.1108C23.1721 39.0386 23.1657 38.9516 23.1615 38.8681C23.1564 38.7673 23.1525 38.6659 23.1487 38.5641C23.1245 37.9239 23.0999 37.2718 22.7551 36.7109L21.6551 34.9214C21.4927 34.6572 21.3265 34.3813 21.3153 34.0826C21.3078 33.8832 21.3705 33.6873 21.4326 33.4951L21.9813 31.7963C22.0969 31.4386 22.2191 31.0696 22.4927 30.7824C23.1574 31.7515 23.223 33.0053 22.6622 34.0217C22.6103 34.1158 22.7688 34.2126 22.8818 34.1751C22.9947 34.1376 23.0521 34.0313 23.0919 33.933C23.2515 33.5394 23.3074 33.1244 23.3634 32.7088C23.4087 32.3725 23.4541 32.0359 23.5544 31.7098C23.6159 31.5101 23.7046 31.3062 23.8841 31.1687C24.0635 31.0313 24.3562 30.9842 24.5443 31.1129C24.6882 31.2114 24.735 31.3797 24.7624 31.5361C24.8346 31.9486 24.8343 32.3704 24.7614 32.7829C24.7597 32.7926 24.758 32.8023 24.7562 32.8121ZM27.3412 29.4585C27.5618 29.6036 27.7778 29.7456 28.0424 29.7193C28.3788 29.6859 28.5884 29.3883 28.6861 29.1097C28.7075 29.0487 28.7265 28.9863 28.7456 28.9238C28.8136 28.7005 28.8822 28.4755 29.0604 28.3076C29.1122 28.2588 29.1868 28.2133 29.2604 28.2325C29.3199 28.248 29.3547 28.2999 29.3823 28.3478C29.4216 28.4157 29.4587 28.4848 29.4958 28.5539C29.6005 28.7487 29.7052 28.9437 29.8573 29.113C30.0632 29.3424 30.3836 29.5228 30.7187 29.4912C31.0183 29.463 31.2524 29.2807 31.4806 29.1029C31.5274 29.0665 31.574 29.0302 31.6208 28.9956C32.1704 28.5882 32.8862 28.3499 33.6117 28.3328C33.5139 28.5429 33.5791 28.7722 33.6431 28.9972C33.6586 29.0513 33.6739 29.1052 33.6869 29.1586C33.7893 29.5793 33.7375 30.0268 33.5407 30.4221L28.695 30.7426C27.5638 30.8175 26.4298 30.8924 25.2959 30.8581C25.2243 30.8559 25.1508 30.853 25.0849 30.8288C24.9605 30.783 24.8866 30.6689 24.8598 30.5548C24.7997 30.2991 24.9369 30.0329 25.1446 29.8427C25.3524 29.6525 25.6237 29.5245 25.8902 29.3996C26.1675 29.2696 26.4754 29.1354 26.7846 29.1908C26.9904 29.2277 27.1672 29.344 27.3412 29.4585ZM36.5142 35.5264C35.7801 35.5134 35.1441 34.9987 34.9261 34.3962C34.8816 34.2732 34.9742 34.1382 35.1018 34.0707C35.2295 34.0031 35.3839 33.9872 35.5329 33.9728L36.6085 33.8689C36.2814 33.3226 36.0484 32.7346 35.9195 32.1303C35.9078 32.0754 35.8972 32.0179 35.9173 31.9649C35.9527 31.8719 36.0694 31.8229 36.1773 31.7917C37.0512 31.5394 38.1006 31.8458 38.6145 32.5036C39.1284 33.1614 39.061 34.1122 38.4578 34.7114C38.1967 34.9708 37.8545 35.1623 37.494 35.3096C37.1867 35.4353 36.8545 35.5324 36.5142 35.5264ZM39.9985 32.2789C40.1291 32.6496 40.1668 33.0395 40.1848 33.4265C39.8915 33.3883 39.5952 33.3666 39.2986 33.3617C39.2406 32.7107 38.7365 32.1226 38.0737 31.8036C37.411 31.4846 36.611 31.4156 35.8621 31.5249C35.8558 31.4331 35.8363 31.3374 35.8168 31.2416C35.7654 30.989 35.7141 30.7363 35.9042 30.557C36.019 30.4486 36.1939 30.4053 36.3616 30.3785C37.1251 30.2562 37.9392 30.3843 38.6029 30.7311C39.2665 31.0778 39.7735 31.6401 39.9985 32.2789ZM34.6128 34.329C34.6116 34.3411 34.6104 34.3529 34.6098 34.3642C34.6048 34.4541 34.6536 34.5366 34.7019 34.6183C34.7149 34.6402 34.7278 34.662 34.7396 34.6839C34.7955 34.7875 34.8227 34.9239 34.7291 35.0051C34.5029 35.2013 34.3029 35.42 34.1345 35.6554C34.0928 35.7136 33.9903 35.7183 33.9218 35.6836C33.8533 35.6489 33.8108 35.587 33.7712 35.5277C33.5209 35.1526 33.2643 34.7602 33.233 34.3286C33.2292 34.2749 33.236 34.2099 33.2914 34.1849C33.3158 34.1739 33.3446 34.1736 33.3722 34.1735L34.4919 34.1706C34.5186 34.1705 34.5468 34.1707 34.57 34.1821C34.625 34.2089 34.6187 34.2712 34.6128 34.329Z" fill="#00160A"/>
</svg>
