<svg width="106" height="108" viewBox="0 0 106 108" fill="none" xmlns="http://www.w3.org/2000/svg">
<path fill-rule="evenodd" clip-rule="evenodd" d="M64.3393 79.5893C73.6102 79.5893 81.746 72.6931 77.177 63.3262C72.6079 53.9594 89.5848 54.262 94.5718 47.7882C100.654 39.8932 98.8923 6.38022 59.8497 26.8114C53.5955 30.0842 37.5334 23.4444 32.2056 26.739C25.9341 30.617 17.1106 38.5579 25.9341 46.6922C30.2804 50.6991 14.6979 61.0989 21.5228 70.4145C28.1821 79.5042 32.8501 70.8391 42.9889 72.6931C53.1276 74.5471 57.4539 79.5893 64.3393 79.5893Z" fill="#FDF0D5"/>
<path d="M53.5796 63.2935C53.5796 63.2935 55.7142 62.2893 56.5112 61.5907C57.3081 60.8921 58.2989 59.1565 58.2989 59.1565C58.2989 59.1565 69.1818 67.0161 76.2779 65.895C77.9129 65.6367 81.0986 64.5499 81.3018 62.6351C81.8566 57.4064 74.1811 56.0703 75.8577 53.4188C76.8811 51.8003 80.0603 54.2091 80.0603 54.2091L93.2466 60.6951C93.2466 60.6951 88.6911 71.9245 77.636 72.3745C64.0367 72.9281 53.5796 63.2935 53.5796 63.2935Z" fill="white"/>
<path fill-rule="evenodd" clip-rule="evenodd" d="M43.1243 19.3172C43.0006 19.2686 42.3359 18.4548 41.4921 18.3067C41.1087 18.2394 41.4567 18.7276 41.0347 18.732C39.7779 18.7451 37.7354 18.509 37.357 18.732C37.0758 18.8972 37.6951 19.4745 37.357 19.501C34.167 19.751 29.3005 22.9361 28.2447 24.4813C27.9087 24.9731 30.6263 24.1388 30.1933 24.3819C29.7073 24.6547 29.1683 26.4414 28.8461 27.8214C28.623 28.7716 28.4825 29.9945 28.4329 31.3249C28.3916 32.4735 28.4081 32.6635 28.5734 33.2915C28.7634 33.9939 28.9122 34.2004 29.1683 34.1013C29.2592 34.0682 29.3005 33.9443 29.3005 33.7129C29.3005 33.5311 29.3997 32.9858 29.5236 32.4982L29.7385 31.6224L29.8294 31.9859C29.945 32.4074 30.6226 33.7129 31.2341 34.6632C31.2671 34.7136 31.4089 34.6495 31.5369 34.3402C31.6535 34.0584 31.6062 33.6082 31.8042 33.1256C32.2554 32.0265 33.1413 30.5975 34.167 29.4536C35.683 27.763 36.186 25.8065 37.6071 24.236C40.2591 21.305 43.5876 19.4991 43.1243 19.3172Z" fill="white"/>
<path fill-rule="evenodd" clip-rule="evenodd" d="M30.2318 24.7805C29.8064 25.1226 29.1749 27.8975 29.1641 27.9438C28.941 28.8941 28.7259 32.194 28.9457 32.8187C29.1656 33.4435 29.7811 31.1914 29.7811 31.1914C29.7811 31.1914 30.7115 33.6073 31.5336 34.2697C31.5687 34.298 30.5564 31.2807 30.2318 29.5192C29.8033 27.194 30.4739 24.5858 30.2318 24.7805Z" fill="#E7EAEE"/>
<path fill-rule="evenodd" clip-rule="evenodd" d="M46.0861 73.377C46.8794 73.2034 48.2178 72.5992 48.7303 72.3925C49.2428 72.1859 50.8043 69.9808 51.3662 67.4937C51.7711 65.6593 51.9777 63.0481 51.7463 62.6102C51.7122 62.5481 51.5872 61.3607 51.9199 61.7484C52.6595 62.6102 53.5374 63.9632 56.3075 61.5388C57.0619 60.8785 58.0619 60.0263 57.7986 59.2729C57.0619 57.165 53.8684 52.9205 53.3816 52.599C52.7995 52.2146 49.8574 52.5412 45.4789 51.2489C40.5133 49.7833 38.4457 45.4676 36.5025 46.0294C34.931 46.4837 31.1659 49.2757 30.221 51.0437C25.7601 59.3908 31.1659 65.2396 32.3971 66.9196L33.5924 67.4358L33.6337 68.5018L33.6916 69.1711C33.799 70.4518 33.8403 70.5675 34.4187 70.9972C35.8647 72.0962 38.7155 73.1208 41.2936 73.4844C42.4917 73.6496 45.0946 73.5918 46.0861 73.377Z" fill="white"/>
<path fill-rule="evenodd" clip-rule="evenodd" d="M34.0632 68.1116L34.121 68.7809C34.2284 70.0617 34.2697 70.1774 34.8481 70.607C35.7012 71.2554 37.0431 71.8778 38.5296 72.3539C39.5628 72.6849 40.6658 72.9451 41.723 73.0942C42.9212 73.2595 45.524 73.2017 46.5156 72.9868C47.0057 72.8806 42.9742 69.7134 40.5992 70.607C38.7753 71.2934 34.4765 66.0582 36.2244 64.6906C38.1851 63.1563 34.5922 57.1049 34.4765 55.7912C34.3608 54.4774 33.9052 54.1635 33.892 54.2096C33.8787 54.2557 33.8787 54.4128 33.9144 54.7916C34.0686 56.424 34.0632 68.1116 34.0632 68.1116Z" fill="#E7EAEE"/>
<path fill-rule="evenodd" clip-rule="evenodd" d="M33.6325 55.4159C33.8059 55.3821 33.9739 55.4954 34.0077 55.6688C34.6313 58.8728 37.2693 61.0419 41.9862 62.1761C46.7313 63.3171 49.9633 63.2556 51.6663 62.0377C51.8101 61.9349 51.7029 62.8153 51.5976 62.8828C50.4869 63.5951 46.7105 64.6579 42.2039 63.6973C36.4417 62.4691 33.7362 57.624 33.3795 55.7911C33.3457 55.6176 33.459 55.4496 33.6325 55.4159Z" fill="#EB5E55"/>
<path fill-rule="evenodd" clip-rule="evenodd" d="M31.229 49.6356C31.3824 49.5479 37.1055 56.107 44.9595 57.5917C52.8136 59.0764 54.7152 58.1322 55.0209 56.107C55.0472 55.9323 55.2103 55.812 55.385 55.8384C55.5598 55.8648 55.6801 56.0278 55.6537 56.2026C55.2663 58.7691 51.6321 59.3796 44.8519 58.2226C38.1569 57.0801 33.5668 54.3658 31.1102 50.0723C31.0224 49.9189 31.0756 49.7234 31.229 49.6356Z" fill="#EB5E55"/>
<path fill-rule="evenodd" clip-rule="evenodd" d="M64.1937 49.2721C63.9788 49.1977 63.7475 49.0324 63.5987 48.8424L63.3509 48.5367L64.2267 47.669C65.5736 46.3469 66.6065 44.9918 67.4989 43.3805C67.7964 42.8434 68.5483 41.0503 68.5483 40.8768C68.5483 40.819 68.6392 40.5876 68.7466 40.348C68.9119 40.0009 69.0358 39.8687 69.3912 39.6704C69.8126 39.4225 70.2918 39.3399 70.4984 39.4803C70.895 39.7448 70.895 40.5793 70.4984 42.0171C70.0605 43.5953 69.4738 44.7274 68.2591 46.3552C68.0691 46.6031 67.7138 47.0906 67.4576 47.4294C66.7718 48.3383 66.3256 48.7763 65.7224 49.1151C65.1274 49.4456 64.7804 49.4869 64.1937 49.2721ZM70.128 48.5282L70.7229 48.7926C70.8463 48.8495 72.2072 49.5034 73.8419 50.2889C76.4775 51.5553 79.8249 53.1637 79.8453 53.1637C79.8784 53.1637 80.0334 52.8052 80.0684 52.387C80.1511 51.4863 80.4568 50.2634 80.8121 49.4123C80.9774 49.0322 81.1096 48.5572 81.1096 48.5159C81.1096 48.497 80.9752 48.4428 80.7553 48.3541C80.4935 48.2485 80.1104 48.094 79.6883 47.8919C77.606 46.8921 73.5323 44.8511 73.0283 44.5454C72.5325 44.2562 72.4334 44.2314 72.4334 44.4214C72.4334 44.6693 71.9293 45.8179 71.541 46.4376C71.3344 46.7764 70.9295 47.3879 70.6403 47.7928L70.128 48.5282ZM79.7032 51.6763C79.9401 51.8136 79.5297 52.0151 79.4305 52.0481C78.8467 52.0977 78.1593 51.9879 77.5961 51.6597C77.3016 51.4509 74.983 50.1628 73.4449 49.3083C72.7418 48.9177 72.2018 48.6177 72.0929 48.5528C71.7459 48.3463 71.4153 48.1232 71.3575 48.0571C71.184 47.834 71.3492 47.7348 71.8368 47.7761C72.1299 47.801 79.1914 51.3796 79.7032 51.6763ZM46.1138 73.3088C46.7512 73.1693 47.7407 72.7518 48.3708 72.4859C48.5248 72.4209 48.6573 72.3649 48.758 72.3243C49.2705 72.1177 50.832 69.9127 51.3939 67.4255C51.7988 65.5911 52.0054 62.9799 51.774 62.542C51.6345 62.2884 52.4633 63.1393 53.0805 63.7729C53.2676 63.965 53.4352 64.1371 53.5506 64.2525C57.1533 67.8304 62.516 70.7059 68.0853 72.0528C70.8617 72.7304 72.8365 72.97 75.489 72.97C79.9428 72.97 83.4546 72.0941 86.6441 70.1688C86.7956 70.0774 86.9376 69.9933 87.0729 69.9132C88.1848 69.2549 88.8471 68.8628 90.66 66.8223C92.6934 64.5334 94.5023 59.2203 95.1055 57.3859C95.3699 56.5596 96.0144 53.273 96.0144 52.4528C96.0144 51.4818 95.6756 51.0233 95.2129 50.5523C94.3949 49.7508 93.2876 49.4616 92.3704 49.8086L91.9407 49.9739L91.8085 49.536C91.6185 48.8749 91.2218 48.3461 90.6104 47.9495C89.7014 47.3463 89.5692 47.3049 88.7512 47.3049C88.1149 47.3049 87.9414 47.338 87.5365 47.528L87.0655 47.7429L86.9664 47.4454C86.7763 46.8339 86.1389 45.9815 85.6443 45.735C85.2057 45.5163 84.4464 45.4962 83.9173 45.5945C82.7605 45.8093 81.9342 46.3464 81.5954 47.0984C81.4962 47.3297 81.3723 47.5115 81.3227 47.5115C81.2814 47.5115 79.6536 47.0569 77.7118 46.1975C77.3842 46.0521 77.0765 45.9157 76.7876 45.7877C73.3006 44.2421 72.5448 43.9071 72.6134 43.4874C72.6713 43.1321 72.6548 42.9338 72.5556 42.6281C72.3821 42.1157 72.1838 41.9753 71.6219 41.9753C71.1757 41.9753 71.1757 41.9753 71.2253 41.7522C71.4897 40.4879 71.4814 39.7608 71.2005 39.298C71.0104 38.9923 70.7873 38.8684 70.275 38.794C69.9775 38.7527 69.8371 38.7775 69.5065 38.9593C69.2834 39.0749 69.0934 39.1576 69.0769 39.141C69.0603 39.1245 69.1182 38.6701 69.2091 38.133C69.8866 34.1584 69.3632 30.734 67.6362 27.0982C67.6196 27.0634 67.6005 27.0223 67.5786 26.9752C67.0536 25.8481 64.9425 21.3157 58.905 19.0288C58.6318 18.9253 58.3732 18.8252 58.1247 18.729C56.0681 17.9329 54.7009 17.4037 51.4022 17.4092C47.7049 17.4154 46.4526 17.9381 44.015 19.0536C43.6762 19.2106 43.3788 19.3015 43.354 19.2684C43.3292 19.2271 43.1722 19.1279 43.0152 19.0453C42.8582 18.9627 42.5194 18.7561 42.2715 18.5908C41.5609 18.1116 41.1229 17.9133 40.8998 17.9628C40.6437 18.029 40.6437 18.2438 40.8998 18.3429C41.0073 18.3843 41.1312 18.5247 41.1808 18.6652C41.2882 18.9627 41.4121 18.9957 41.4865 18.7478C41.5196 18.6569 41.5691 18.5908 41.5939 18.6074C41.6033 18.6121 41.6348 18.6268 41.6827 18.6492L41.6828 18.6493L41.6828 18.6493L41.683 18.6493C41.8038 18.7059 42.0292 18.8114 42.2715 18.9296C42.6103 19.0949 42.9821 19.2684 43.0813 19.3097C43.2631 19.3758 43.2052 19.4254 42.4202 19.8881C39.3546 21.6895 36.8592 24.4907 35.4627 27.6802C35.2479 28.1595 35.0579 28.4569 34.8595 28.6222C34.3555 29.0436 33.3639 30.2417 33.1326 30.7127C33.0086 30.9689 32.7442 31.3655 32.5376 31.5969C32.3393 31.8282 32.1245 32.1257 32.0501 32.2497C31.984 32.3819 31.9179 32.4728 31.8931 32.4562C31.8766 32.4314 31.9014 32.0266 31.9592 31.5556C32.0832 30.4566 32.0832 30.1674 31.984 30.1426C31.8353 30.1013 31.6204 30.6797 31.5295 31.3986C31.4634 31.8365 31.4469 32.4976 31.4882 33.1751L31.5378 34.2493L30.9511 33.2991C30.749 32.9808 30.55 32.6625 30.4089 32.4368C30.3192 32.2933 30.2529 32.1872 30.224 32.1422C30.0091 31.8282 29.8852 31.3573 29.9761 31.2003C30.0257 31.1094 30.0174 31.068 29.9348 31.068C29.7612 31.068 29.4225 31.6217 29.1994 32.2579C29.0919 32.5554 28.9845 32.8033 28.9515 32.8033C28.8275 32.8033 28.8854 29.8451 29.0176 28.8949C29.2902 27.0192 30.0091 24.7055 30.3314 24.7055C30.3975 24.7055 30.4553 24.6724 30.4553 24.6229C30.4553 24.4741 30.2405 24.532 30.067 24.722C29.6786 25.1434 29.1663 26.4407 28.844 27.8207C28.6209 28.7709 28.4805 29.9938 28.4309 31.3242C28.3896 32.4728 28.4061 32.6628 28.5714 33.2908C28.7614 33.9932 28.9101 34.1997 29.1663 34.1006C29.2572 34.0675 29.2985 33.9436 29.2985 33.7122C29.2985 33.5304 29.3977 32.9851 29.5216 32.4976L29.7364 31.6217L29.8273 31.9852C29.943 32.4067 30.6206 33.7122 31.2321 34.6625C31.6535 35.307 31.6617 35.3483 31.8022 36.3564C31.8766 36.9265 32.1079 38.3133 32.645 40.4466C33.1196 42.3315 35.7875 44.2013 36.4536 44.6681C36.5414 44.7297 36.5944 44.7668 36.603 44.7764C36.6857 44.8673 36.8014 44.9169 36.8675 44.8921C36.9418 44.8673 36.9831 44.9004 36.9831 44.9913C36.9831 45.0739 37.041 45.1813 37.1071 45.2309C37.1897 45.2888 37.2476 45.5119 37.2641 45.9002C37.3054 46.677 37.8838 48.1643 38.33 48.6518C38.6192 48.9658 39.2224 49.098 39.8917 48.9823C40.3297 48.9162 40.4536 48.8667 40.4123 48.7675C40.3875 48.7014 40.5445 48.784 40.7594 48.9493C43.2713 50.8663 45.8164 52.0149 48.6754 52.5107C49.7826 52.7007 51.617 52.8081 52.6168 52.7338C53.2579 52.6918 53.4342 52.6803 53.4669 52.7433C53.4793 52.7672 53.471 52.8017 53.4597 52.8494C53.4018 53.0808 53.4762 53.2213 54.6909 55.2788C55.6577 56.9066 55.7403 57.014 56.8145 58.113C59.0951 60.468 61.5823 62.2941 64.4 63.7071C67.0524 65.0292 71.2872 66.1282 75.1585 66.4752C79.0297 66.8223 81.8102 63.2692 81.802 62.3602C81.7854 61.1125 81.6119 60.2945 81.1905 59.5012C80.7773 58.7327 80.5047 58.4683 79.2652 57.642C77.8853 56.7248 77.0342 55.9729 76.4723 55.1714C76.117 54.6673 75.9848 54.0972 75.9848 53.7914C75.9848 53.5931 76.2409 53.1469 76.621 53.056C76.9681 52.9651 77.0342 52.9734 77.4225 53.1634C77.6539 53.2709 78.2571 53.5518 78.7529 53.7914C79.2569 54.0228 79.7445 54.2542 79.8436 54.3037C80.1359 54.385 80.2595 54.9572 80.3265 55.2673C80.3415 55.3366 80.3536 55.3928 80.3642 55.4275C80.4799 55.8572 81.0273 56.412 81.3805 56.6009C82.0008 56.9326 83.5291 56.9769 83.9505 56.5225C84.0579 56.4068 84.4141 56.2645 84.4875 56.3076C84.5608 56.3507 84.8262 56.7083 84.8262 56.9975C84.8345 57.4933 85.0907 57.9478 85.636 58.4022C86.6689 59.2616 87.4704 59.4682 88.2802 59.0881C88.7016 58.8897 89.047 58.8123 89.047 58.8123C89.047 58.8123 89.3915 59.2518 89.4122 59.4021C89.5745 60.5761 91.3127 61.0682 91.7754 61.1178C91.8815 61.1284 92.0878 61.0831 92.2974 61.037L92.2975 61.037C92.5778 60.9754 92.8639 60.9125 92.924 60.9803C93.0421 61.1135 90.9492 64.5747 90.66 65.0127C87.9084 69.1442 82.5539 71.6727 76.0013 71.9371C71.7458 72.1106 66.5153 70.9207 61.9789 68.7558C59.0786 67.3594 56.5087 65.6489 53.7572 63.2526C53.2779 62.8395 52.7243 62.3685 52.526 62.2032C52.3276 62.0462 51.8566 61.5091 51.4931 61.0133C50.8816 60.187 50.5346 59.8896 50.5346 60.1705C50.5346 60.2945 50.9312 61.0547 51.3857 61.8066C51.5674 62.1041 51.6831 62.3106 51.6418 62.2776C51.6005 62.2445 51.4683 62.8395 51.3443 63.5997C50.9394 66.0373 50.2701 68.4418 49.5926 69.9374C49.2207 70.7472 48.5078 71.3519 48.2929 71.5172C47.4997 72.1204 46.3121 72.3916 44.6678 72.5568C42.5855 72.7634 39.5199 72.3007 37.1815 71.4248C36.5617 71.1934 34.967 70.5241 34.8595 70.4497C34.8531 70.4433 34.8165 70.2056 34.7654 69.8739L34.7191 69.5739C34.4216 67.5329 34.0084 59.6747 34.0084 56.039C34.0084 54.5351 33.9919 54.2046 33.8928 54.2046C33.6862 54.2046 33.6036 54.4029 33.5127 55.1135C33.3061 56.7331 33.3474 65.1862 33.5705 66.9627L33.6201 67.3676L33.3391 67.2106C32.9095 66.9627 31.2734 65.3019 30.7032 64.5334C30.2205 63.8764 29.9337 63.035 29.719 62.4055C29.6691 62.2591 29.6231 62.1242 29.5795 62.0057C28.3813 58.6839 28.8027 54.9565 30.4553 51.6017C31.8601 48.7427 33.587 47.1562 36.1155 46.3877C36.5287 46.2638 36.8923 46.1316 36.9336 46.0985C37.0906 45.9498 36.0825 46.0242 35.5289 46.1977C33.7275 46.7513 31.8435 48.2635 30.5628 50.197C28.7614 52.9073 27.9516 56.9066 28.5218 60.3192C28.654 61.129 29.1911 62.8808 29.3398 63.0047C29.353 63.0179 29.421 63.1605 29.5237 63.3761C29.8079 63.9723 30.3584 65.127 30.7528 65.6489C31.2321 66.3017 32.6781 67.7229 33.2813 68.1609L33.6614 68.4336L33.7192 69.1029C33.8267 70.3836 33.868 70.4993 34.4464 70.929C35.8924 72.028 38.7432 73.0526 41.3213 73.4162C42.5194 73.5814 45.1223 73.5236 46.1138 73.3088ZM74.0441 65.5496C69.2433 65.1282 63.4426 62.8392 59.245 59.3026C57.4767 57.807 55.1796 54.8986 54.2706 53.2873C54.0806 52.9567 53.9401 52.7997 53.7748 52.7584C53.6013 52.7088 53.7501 52.6593 54.4607 52.5436C57.4602 52.0313 60.377 50.7836 62.732 49.007L63.079 48.7508L63.1782 48.9905C63.4013 49.5276 64.2607 50.0729 64.8969 50.0729C65.1531 50.0729 66.0124 49.6846 66.533 49.3293L66.8883 49.0896L67.1775 49.3788C67.4419 49.6432 67.4915 49.6598 67.9873 49.6598C68.5575 49.6598 69.2433 49.4036 69.6234 49.04L69.83 48.85L70.4166 49.2384C70.7306 49.4615 71.6065 49.949 72.3585 50.3373C73.4822 50.9158 74.6721 51.5851 75.8042 52.2792L75.9859 52.3948L75.8124 52.6262C75.6306 52.8741 75.292 53.3451 75.292 54.064C75.292 54.8738 76.134 56.3287 77.746 57.3279C79.0123 58.1129 81.1917 59.657 81.109 61.9139C81.0991 62.1865 80.795 62.8641 80.3902 63.4756C80.1257 63.864 79.3903 64.4424 78.721 64.7812C77.5807 65.3513 75.5728 65.6819 74.0441 65.5496ZM29.9862 28.4572C30.2093 28.5068 30.3581 28.5811 30.325 28.6142C30.2176 28.7216 29.6474 28.672 29.5152 28.5398C29.3087 28.3415 29.3582 28.201 29.6474 28.1432C29.7962 28.1184 30.0193 27.9945 30.1432 27.8705C30.2672 27.7466 30.3746 27.6887 30.3746 27.7301C30.3746 27.8375 29.9614 28.2176 29.7549 28.3002C29.6227 28.358 29.664 28.3828 29.9862 28.4572ZM33.2724 28.589C33.512 28.4568 33.4624 28.3659 33.1815 28.4072C32.9005 28.4485 32.884 28.4155 33.0658 28.1345C33.1402 28.0271 33.1815 27.8701 33.165 27.7875C33.1402 27.68 33.0823 27.7296 32.9501 27.9941C32.851 28.1841 32.7105 28.3411 32.6444 28.3411C32.4378 28.3411 32.4213 28.5064 32.6196 28.5807C32.8758 28.6882 33.0741 28.6882 33.2724 28.589ZM30.4149 24.0778C30.2166 24.1109 29.5968 24.3588 29.0515 24.6315C28.4978 24.8959 28.0268 25.119 27.9938 25.1107C27.151 25.0198 28.3243 23.6151 30.4562 22.1773C32.4972 20.7974 33.8771 20.0703 35.1579 19.6984C35.9594 19.4671 36.86 19.434 37.1162 19.6241C37.2567 19.7315 37.2071 19.7397 36.5956 19.748C35.2735 19.748 33.7449 20.4256 31.2577 22.0864C29.9687 22.9458 28.4731 24.177 28.4731 24.3753C28.4731 24.4166 28.7127 24.334 29.0101 24.2018C29.6464 23.9126 30.2992 23.7638 30.5884 23.8299C30.8941 23.9126 30.828 24.02 30.4149 24.0778ZM33.6118 24.7885C34.3886 24.6315 34.4216 24.6233 34.4216 24.5406C34.4216 24.4993 34.1242 24.458 33.7523 24.4415L33.083 24.4167L33.7027 23.7143C34.0415 23.326 34.4382 22.9376 34.5786 22.8467C34.8844 22.6484 34.9009 22.5079 34.653 22.4253L34.4629 22.3674L34.6695 22.2931C34.7852 22.2518 35 22.2352 35.1488 22.26C35.3719 22.2931 35.4215 22.2765 35.3967 22.1609C35.3719 22.0452 35.281 22.0204 34.8761 22.0287C33.6945 22.0452 33.1904 22.3592 34.1159 22.5079C34.372 22.5492 34.5869 22.6153 34.5869 22.6566C34.5869 22.6897 34.5456 22.7227 34.496 22.7227C34.339 22.7227 33.0086 24.0696 32.8434 24.4002C32.5872 24.8877 32.7277 24.962 33.6118 24.7885ZM39.0662 21.5825C38.8266 21.599 38.7687 21.6403 38.7852 21.756L38.7878 21.7728L38.7878 21.7728C38.7971 21.834 38.8024 21.8691 38.7887 21.8797C38.7702 21.8941 38.717 21.864 38.5921 21.7931L38.5704 21.7808C38.4134 21.6982 38.3969 21.6569 38.4878 21.5907C38.5456 21.5412 38.7026 21.4668 38.8266 21.442L39.0579 21.3842L38.8844 21.2024C38.7935 21.095 38.7439 20.9958 38.7687 20.9628C38.8348 20.8966 39.6446 20.9875 39.7603 21.0784C39.8099 21.1198 39.8842 21.1115 39.9338 21.0619C40.0495 20.9462 40.2065 21.0371 40.2065 21.2189C40.2065 21.3181 40.1817 21.3263 40.1073 21.252C40.0412 21.1859 39.9834 21.1859 39.909 21.2437C39.8429 21.3015 39.7933 21.3015 39.752 21.2354C39.7272 21.1941 39.5702 21.1528 39.405 21.1528C39.2525 21.1528 39.1804 21.1528 39.1657 21.1819C39.1525 21.2079 39.1855 21.2574 39.248 21.3511C39.3798 21.5571 39.372 21.5577 39.069 21.5823L39.0662 21.5825ZM37.8103 19.3847C37.8103 19.2773 37.7112 19.0872 37.5872 18.9633L37.3558 18.7319L38.5953 18.7815C39.2811 18.8146 40.0579 18.8889 40.3305 18.9633C40.6032 19.0294 40.9172 19.079 41.0329 19.079C41.2064 19.079 41.1734 19.0459 40.8511 18.8724C40.2892 18.5832 39.5703 18.4427 38.1904 18.3436C36.5378 18.2279 35.7032 18.3849 35.8602 18.798C35.885 18.8807 36.0172 18.922 36.2155 18.922C36.6204 18.922 37.2815 19.1616 37.5046 19.3847C37.7442 19.6243 37.8103 19.6243 37.8103 19.3847ZM33.7784 41.2646C34.4477 42.1239 35.3319 43.099 35.745 43.4295C35.9929 43.6278 36.2077 43.7931 36.2243 43.7931C36.2325 43.7931 36.0508 43.413 35.8194 42.9502C34.8857 41.0911 34.3403 39.2401 34.0841 37.1083C34.0263 36.6373 33.9354 36.2406 33.8363 36.0754C33.6379 35.7449 33.6379 35.3152 33.8445 34.9103C33.9519 34.6954 34.0098 34.4228 34.0098 34.1253V33.6708L33.6131 34.084C33.2248 34.4889 32.8529 34.6541 32.8529 34.4062C32.8529 34.2245 33.4644 33.3486 33.7867 33.0759C34.0428 32.861 34.0759 32.7867 34.1585 32.1422C34.2164 31.7538 34.3486 31.068 34.456 30.6135C34.5717 30.159 34.6378 29.7707 34.6212 29.7541C34.5634 29.6963 32.6216 31.9265 32.3572 32.6379C32.2991 32.7942 32.1423 33.0676 32.0184 33.2329L31.8035 33.5087C31.8035 33.5087 31.8703 33.895 31.944 34.3804C32.0185 34.8709 32.0535 35.208 32.0846 35.5083C32.1262 35.91 32.1611 36.2458 32.2745 36.7943C32.4067 37.4718 32.539 38.0585 32.572 38.0998C32.5968 38.1494 32.7042 38.5295 32.8116 38.9509C33.043 39.8846 33.4314 40.8101 33.7784 41.2646ZM67.3087 49.0815L67.1352 48.908C67.1352 48.908 70.0152 45.2489 70.5313 43.9006C70.9251 42.8717 71.1569 42.5799 71.4696 42.5799C71.6445 42.5799 71.7873 42.6198 71.8534 42.719C71.9691 42.8925 72.0805 43.1073 71.9318 43.8427C71.6839 45.0326 71.3038 45.8176 70.1635 47.5116C69.8991 47.8999 69.5603 48.3296 69.4116 48.4783C69.0645 48.8006 68.2838 49.1311 67.8293 49.2055C67.5401 49.2468 67.4575 49.2303 67.3087 49.0815Z" fill="#2C1320"/>
<path d="M90.1892 57.1654C91.2172 54.3645 91.0616 53.7677 90.8833 53.7093C90.8833 53.7093 90.4908 53.9324 90.3172 54.4034C89.995 55.2876 88.8919 57.6012 88.4788 58.0144C87.9913 58.5019 87.9913 58.5019 87.4955 58.5019C86.9997 58.5019 85.5698 57.7553 85.3751 57.0193C85.0637 55.8418 86.4048 51.751 86.4378 51.5196L86.2147 51.3626C86.066 51.5031 84.1313 57.3699 81.5874 55.8412C81.2961 55.6662 80.6785 54.8414 80.6289 54.4034C80.3536 53.1309 81.6169 48.6813 81.8317 47.7673C82.024 46.9492 83.0252 46.1899 84.2564 46.1899C86.1486 46.1899 85.8944 47.844 86.742 48.4268C87.1176 48.6851 87.7349 48.2169 87.9252 48.1813C88.9911 47.983 89.3995 48.2139 90.181 48.8341C90.7842 49.3128 91.2305 50.2603 91.7217 50.5942C91.9946 50.7796 92.2841 50.5261 92.3789 50.4785C92.7677 50.2833 93.6019 50.4289 93.8332 50.5942C94.1724 50.742 95.0036 51.541 95.1349 52.0057C95.73 54.1118 93.8508 58.781 93.1414 59.6569C91.967 61.1067 89.1612 59.9663 90.1892 57.1654Z" fill="white"/>
<path fill-rule="evenodd" clip-rule="evenodd" d="M42.6841 49.4903C44.9481 50.9198 47.2827 51.8535 49.9434 52.1097C52.0422 52.308 54.872 52.0353 56.9048 51.3743C58.6152 50.8207 60.9289 49.287 62.4741 47.9897C65.4735 45.4777 67.3658 41.554 68.1921 37.3895C68.3078 36.8028 68.4842 35.328 68.4759 33.8655C68.4759 32.1633 67.7268 27.5117 65.457 24.8296C60.7756 19.2978 53.0803 16.8059 46.6129 18.9351C44.28 19.7031 41.796 21.0947 39.9203 22.9126C37.5571 25.218 35.8136 28.3579 35.1195 31.564C34.3923 34.9518 35.3382 39.0007 36.9825 42.3225C38.2964 44.9667 40.4613 48.0773 42.6841 49.4903ZM64.7447 39.5046C63.1913 44.1733 59.1424 47.6603 54.0523 48.7179C53.2756 48.8749 52.7385 48.9328 51.6478 48.9493C50.8793 48.9741 50.1108 48.9658 49.9538 48.9493C46.3925 48.5196 43.6822 47.2058 41.1867 44.7104C40.096 43.6114 39.6333 43.0164 38.9557 41.8431C37.8898 39.9839 37.3196 38.0834 37.1461 35.7945C36.5512 27.9529 42.1618 21.4168 50.0613 20.7392C53.1599 20.4748 56.5974 21.4251 59.2085 23.276C60.1753 23.9618 61.927 25.6971 62.4724 26.5068C62.6955 26.8291 64.8604 29.9938 65.2405 31.8117C65.728 34.175 65.538 37.1331 64.7447 39.5046Z" fill="white"/>
<path fill-rule="evenodd" clip-rule="evenodd" d="M68.4794 33.8659C68.4794 39.4122 65.8559 45.4757 62.47 48.0652C60.8546 49.3007 58.7436 50.7967 56.9052 51.3747C54.2111 52.2217 49.9438 52.1101 49.9438 52.1101C49.9438 52.1101 54.2974 51.5281 55.9107 50.8789C60.537 49.017 63.0625 46.159 64.6219 43.4168C67.7002 38.0038 68.4794 33.7312 68.4794 33.8659Z" fill="#E7EAEE"/>
<path fill-rule="evenodd" clip-rule="evenodd" d="M50.0399 47.9576C47.8337 47.6767 45.644 46.8917 43.8757 45.7266C42.8263 45.0408 41.2398 43.4295 40.4713 42.2809C39.3723 40.6283 38.6452 38.86 38.2898 36.9595C38.0337 35.5796 38.0419 33.456 38.2981 32.2248C38.5625 30.9688 38.9013 30.0103 39.5045 28.7956C40.2069 27.3909 40.9505 26.358 42.0661 25.2425C43.9666 23.342 46.1728 22.1356 48.8004 21.5572C49.6515 21.3754 52.7337 21.2267 52.8411 21.3671C52.8659 21.4084 53.0311 21.5159 53.2046 21.6068C53.3782 21.7059 53.8409 22.053 54.221 22.3917C54.7912 22.8875 55.0473 23.2015 55.5431 23.9783C55.8819 24.5071 56.1546 24.9863 56.1546 25.0277C56.1546 25.1186 56.419 25.2838 56.5677 25.2838C56.7743 25.2838 56.9148 24.6641 56.9561 23.5734C56.9809 22.9702 57.0304 22.4744 57.0635 22.4744C57.1792 22.4744 58.4517 23.1767 59.0466 23.5734C60.2117 24.3501 61.3768 25.4408 62.2362 26.5811C62.6245 27.0934 62.6824 27.2256 62.6824 27.5396C62.6824 27.8288 62.765 28.0519 63.0212 28.4981C63.6657 29.6219 64.1697 31.0349 64.4755 32.5966C64.6738 33.646 64.6738 35.6292 64.4672 36.7281C63.9053 39.7524 62.2362 42.7602 60.063 44.6689C58.2203 46.2802 56.262 47.2718 53.9483 47.7593C53.1551 47.9328 50.7753 48.0485 50.0399 47.9576ZM44.1315 42.3058C44.2058 42.2232 44.2554 42.0992 44.2306 42.0414C44.2232 42.024 44.1197 41.9754 43.9683 41.9042C43.6152 41.7382 43.0015 41.4497 42.7355 41.149C41.6778 39.9426 41.2894 39.0419 41.0498 37.1827C40.8184 35.3731 41.0128 34.1497 41.4299 32.1836C41.6334 31.2244 42.1742 30.4322 42.5106 29.9393L42.5106 29.9393C42.7394 29.6041 42.8737 29.4074 42.7433 29.3907C42.421 29.3411 42.3714 29.3659 42.0327 29.6881C41.3055 30.3822 40.975 30.9359 40.6279 32.0018C40.0908 33.6709 39.987 38.1817 41.0498 40.2153C42.1126 42.2488 43.9414 42.5206 44.1315 42.3058ZM55.8834 35.3652C55.743 36.6488 55.148 38.5051 54.4539 39.3149C54.1316 39.695 52.9487 40.3478 51.9502 40.2156C50.9857 40.0879 50.2315 39.6372 49.5869 38.6704C49.0333 37.8358 48.7474 36.8228 48.5541 35.5469C48.2202 33.3438 49.6778 30.7792 50.3058 30.1429C50.9421 29.4901 51.3965 29.2588 51.975 29.2505C52.5368 29.2505 52.9004 29.3744 53.4706 29.7793C54.5117 30.5065 56.1561 32.8708 55.8834 35.3652ZM44.745 28.5308C44.9102 28.3407 44.935 28.2498 44.8855 27.8945C44.8524 27.564 44.7863 27.4318 44.6128 27.2913C44.307 27.0434 43.9269 27.0434 43.646 27.3078C43.4477 27.4979 43.4229 27.564 43.4477 28.0185C43.4725 28.506 43.489 28.539 43.7617 28.6878C44.1253 28.8861 44.4806 28.8282 44.745 28.5308ZM49.9003 23.4332C48.4129 24.4991 47.7684 24.937 47.0991 25.3502C46.5703 25.6807 46.405 25.689 46.405 25.3915C46.405 25.2345 46.5207 25.061 46.8181 24.7883L47.2313 24.4082L46.4298 24.3008C45.5291 24.1851 44.6532 23.9372 44.4632 23.7472C44.1492 23.4249 44.4219 23.3505 45.3143 23.5158C45.7109 23.5819 46.4794 23.6645 47.0247 23.681L48.0163 23.7224L48.7352 23.2018C50.3134 22.0615 51.9495 21.417 52.7345 21.6153C53.222 21.731 53.1642 21.8632 52.6105 21.9293C51.9743 22.0036 51.5859 22.2185 49.9003 23.4332Z" fill="white"/>
<path d="M52.0212 39.0836C52.0212 39.0423 52.0708 39.001 52.1369 39.001C52.203 39.001 52.2857 39.0423 52.3105 39.0836C52.3352 39.1332 52.2857 39.1662 52.1948 39.1662C52.0956 39.1662 52.0212 39.1332 52.0212 39.0836Z" fill="white"/>
<path d="M52.5188 39.0092C52.5188 38.9183 52.7254 38.8357 52.9567 38.8357C53.1385 38.844 53.1385 38.844 52.9815 38.9596C52.7997 39.1001 52.5188 39.1249 52.5188 39.0092Z" fill="white"/>
<path d="M51.239 38.7942C51.2142 38.7281 51.1812 38.6124 51.1564 38.5463C51.1316 38.4637 51.1729 38.4224 51.2803 38.4224C51.3712 38.4224 51.4456 38.4719 51.4456 38.538C51.4456 38.6042 51.4704 38.7116 51.4952 38.7859C51.5282 38.8768 51.5034 38.9182 51.4125 38.9182C51.3382 38.9182 51.2555 38.8603 51.239 38.7942Z" fill="white"/>
<path d="M51.6745 38.5876C51.6331 38.3397 51.724 38.2571 52.0215 38.2571C52.1124 38.2571 52.1868 38.3397 52.2198 38.4802C52.2859 38.7198 52.1785 38.8355 51.8893 38.8355C51.7571 38.8355 51.6992 38.7777 51.6745 38.5876Z" fill="white"/>
<path d="M50.8338 38.6291C50.6768 38.5051 50.6768 38.5051 50.8503 38.5051C50.9577 38.5051 51.0321 38.5547 51.0321 38.6291C51.0321 38.7778 51.0321 38.7778 50.8338 38.6291Z" fill="white"/>
<path d="M52.4953 38.6208C52.3879 38.5134 52.4375 38.1911 52.5697 38.1415C52.8093 38.0506 52.9167 38.0919 52.9663 38.3068C52.9993 38.4307 53.0159 38.5381 52.9993 38.5464C52.9332 38.6208 52.5449 38.6704 52.4953 38.6208Z" fill="white"/>
<path d="M53.2298 38.4472C53.205 38.4224 53.1802 38.315 53.1802 38.2159C53.1802 38.0754 53.2463 38.0176 53.4446 37.9762C53.6181 37.9432 53.7255 37.9597 53.7751 38.0258C53.8577 38.158 53.8577 38.3233 53.7834 38.3646C53.6346 38.4472 53.2876 38.4968 53.2298 38.4472Z" fill="white"/>
<path d="M50.4514 38.1909C50.4514 38.0917 50.5258 38.0091 50.6332 37.9843C50.8481 37.9265 50.8398 37.9182 50.8811 38.1331C50.8976 38.257 50.8563 38.3066 50.6828 38.3231C50.501 38.3479 50.4514 38.3148 50.4514 38.1909Z" fill="white"/>
<path d="M51.0805 38.1991C50.9648 38.0751 51.0392 37.8438 51.1962 37.8438C51.3036 37.8438 51.3614 37.9016 51.3614 38.0008C51.3614 38.1578 51.1714 38.29 51.0805 38.1991Z" fill="white"/>
<path d="M51.5758 37.9512C51.5096 37.7942 51.6501 37.6785 51.9228 37.6785C52.0467 37.6785 52.1046 37.728 52.1046 37.8355C52.1046 37.9264 52.0302 38.009 51.9228 38.0421C51.6501 38.1082 51.6336 38.1082 51.5758 37.9512Z" fill="white"/>
<path d="M53.9637 37.9264C53.9884 37.8851 54.0298 37.8438 54.0545 37.8438C54.0793 37.8438 54.0711 37.8851 54.0463 37.9264C54.0215 37.976 53.9802 38.009 53.9554 38.009C53.9306 38.009 53.9389 37.976 53.9637 37.9264Z" fill="white"/>
<path d="M52.3205 37.7866C52.2544 37.6213 52.337 37.5387 52.6015 37.4974C52.7502 37.4809 52.8163 37.5139 52.8328 37.6296C52.8907 37.9023 52.4197 38.051 52.3205 37.7866Z" fill="white"/>
<path d="M50.337 37.6461C50.2626 37.3734 50.2791 37.3486 50.494 37.3486C50.6097 37.3486 50.7006 37.3817 50.7006 37.423C50.7006 37.4643 50.7253 37.5552 50.7501 37.6213C50.7749 37.704 50.7253 37.7535 50.5849 37.7783C50.4279 37.8114 50.37 37.7783 50.337 37.6461Z" fill="white"/>
<path d="M53.0967 37.5549C53.0967 37.4062 53.1545 37.3401 53.3115 37.2988C53.5429 37.2409 53.6751 37.3566 53.6751 37.621C53.6751 37.7284 53.609 37.7615 53.3859 37.7615C53.1297 37.7615 53.0967 37.7367 53.0967 37.5549Z" fill="white"/>
<path d="M50.0898 37.5551C50.065 37.489 50.0815 37.4312 50.1228 37.4312C50.1724 37.4312 50.2055 37.489 50.2055 37.5551C50.2055 37.6212 50.1889 37.679 50.1724 37.679C50.1559 37.679 50.1228 37.6212 50.0898 37.5551Z" fill="white"/>
<path d="M50.9229 37.6211C50.8072 37.5137 50.8733 37.2824 51.0221 37.241C51.113 37.2163 51.2039 37.2245 51.2287 37.2493C51.3278 37.3402 51.27 37.5798 51.146 37.6294C50.989 37.6872 50.989 37.6872 50.9229 37.6211Z" fill="white"/>
<path d="M53.8721 37.5627C53.7812 37.3231 53.8803 37.1413 54.1117 37.1165C54.2852 37.0917 54.3348 37.1248 54.3348 37.257C54.3348 37.5296 54.2439 37.6784 54.0786 37.6784C53.9877 37.6784 53.8969 37.6288 53.8721 37.5627Z" fill="white"/>
<path d="M51.5025 37.4557C51.4033 37.3648 51.4364 37.1995 51.5768 37.1499C51.7338 37.0921 52.0644 37.2574 51.9735 37.3483C51.8578 37.4474 51.5603 37.5218 51.5025 37.4557Z" fill="white"/>
<path d="M52.2196 37.2493C52.1452 37.1336 52.4097 36.9353 52.6245 36.9353C52.7237 36.9353 52.765 36.9849 52.7484 37.0758C52.7154 37.241 52.294 37.3732 52.2196 37.2493Z" fill="white"/>
<path d="M49.9562 37.1913C49.9562 37.15 49.9314 37.0591 49.9066 36.9847C49.8818 36.9104 49.8901 36.8525 49.9397 36.8525C50.0471 36.8525 50.1297 37.1665 50.0306 37.2326C49.9892 37.2574 49.9562 37.2409 49.9562 37.1913Z" fill="white"/>
<path d="M50.1797 37.0012C50.1301 36.8195 50.2292 36.6873 50.4193 36.6873C50.5267 36.6873 50.6341 37.0095 50.568 37.1169C50.4771 37.2574 50.221 37.1748 50.1797 37.0012Z" fill="white"/>
<path d="M50.7594 37.0427C50.6354 36.9188 50.7098 36.6213 50.8751 36.58C50.999 36.547 51.0651 36.5883 51.1312 36.737C51.1808 36.8444 51.2056 36.9518 51.1891 36.9684C51.1064 37.0427 50.809 37.1006 50.7594 37.0427Z" fill="white"/>
<path d="M52.9894 37.043C52.8819 36.9356 52.9315 36.8695 53.1794 36.7786C53.386 36.7125 53.4438 36.7207 53.4851 36.8199C53.5595 37.0182 53.1464 37.2082 52.9894 37.043Z" fill="white"/>
<path d="M53.716 36.8524C53.6334 36.7202 53.7491 36.6045 53.9639 36.6045C54.2201 36.6045 54.2944 36.8193 54.0631 36.8854C53.8152 36.9516 53.7738 36.9433 53.716 36.8524Z" fill="white"/>
<path d="M54.4194 36.6542C54.4194 36.5303 54.5682 36.3981 54.6343 36.4642C54.6921 36.522 54.5764 36.7699 54.4938 36.7699C54.4525 36.7699 54.4194 36.7203 54.4194 36.6542Z" fill="white"/>
<path d="M49.849 36.5466C49.816 36.5219 49.7912 36.4144 49.7995 36.3236C49.7995 36.1666 49.8077 36.1666 49.8821 36.3483C49.9647 36.5466 49.9482 36.6458 49.849 36.5466Z" fill="white"/>
<path d="M50.0077 36.4226C49.9334 36.1334 49.9416 36.1086 50.1565 36.1086C50.3961 36.1086 50.5449 36.4144 50.3631 36.5301C50.173 36.6458 50.0656 36.6127 50.0077 36.4226Z" fill="white"/>
<path d="M52.8496 36.5886C52.8496 36.5638 52.8909 36.4316 52.9405 36.2828C53.0562 35.9523 53.3123 35.9358 53.3702 36.258C53.395 36.382 53.4032 36.4894 53.395 36.4977C53.3536 36.5472 52.8496 36.6216 52.8496 36.5886Z" fill="white"/>
<path d="M50.5928 36.3817C50.5597 36.3569 50.5349 36.2577 50.5349 36.1668C50.5349 36.0346 50.5597 36.0264 50.6589 36.109C50.725 36.1668 50.7828 36.266 50.7828 36.3238C50.7828 36.4478 50.6837 36.4808 50.5928 36.3817Z" fill="white"/>
<path d="M53.5691 36.2159C53.5196 35.9597 53.627 35.844 53.8831 35.8771C54.0071 35.8936 54.0484 35.968 54.0484 36.1498C54.0484 36.3564 54.0154 36.4059 53.8336 36.4225C53.6518 36.4473 53.6105 36.4059 53.5691 36.2159Z" fill="white"/>
<path d="M54.3789 36.2496C54.2715 35.9191 54.3045 35.8199 54.5276 35.7952C54.726 35.7704 54.7507 35.7952 54.7507 36.01C54.7507 36.1918 54.7012 36.2661 54.5772 36.2992C54.4863 36.324 54.3954 36.2992 54.3789 36.2496Z" fill="white"/>
<path d="M49.7266 35.7788C49.7266 35.6218 49.7431 35.5557 49.7679 35.6383C49.7844 35.7127 49.7844 35.8449 49.7679 35.9275C49.7431 36.0019 49.7266 35.9358 49.7266 35.7788Z" fill="white"/>
<path d="M49.9335 35.8853C49.8261 35.7862 49.8757 35.4639 50.0079 35.4143C50.1979 35.34 50.2888 35.4308 50.2888 35.7035C50.2888 35.877 50.2475 35.9432 50.1401 35.9432C50.0575 35.9432 49.9583 35.9184 49.9335 35.8853Z" fill="white"/>
<path d="M50.4276 35.6628C50.3946 35.5388 50.378 35.4066 50.4111 35.3818C50.4937 35.2992 50.5433 35.4314 50.5185 35.671L50.4937 35.9024L50.4276 35.6628Z" fill="white"/>
<path d="M53.0967 35.6047C53.0967 35.5138 53.138 35.4642 53.1793 35.489C53.2289 35.5138 53.2619 35.5964 53.2619 35.6625C53.2619 35.7287 53.2289 35.7782 53.1793 35.7782C53.138 35.7782 53.0967 35.7039 53.0967 35.6047Z" fill="white"/>
<path d="M53.4692 35.7122C53.3535 35.5882 53.4444 35.3651 53.6345 35.3155C53.8741 35.2577 53.8824 35.2577 53.9567 35.4973C54.0063 35.646 53.9733 35.6791 53.7584 35.7122C53.6262 35.7369 53.494 35.7287 53.4692 35.7122Z" fill="white"/>
<path d="M54.2288 35.5548C54.1379 35.4721 54.1627 35.1995 54.2536 35.1995C54.3031 35.1995 54.3362 35.1664 54.3362 35.1168C54.3362 35.0755 54.2866 35.0342 54.2205 35.0342C54.08 35.0342 53.9643 34.6293 54.08 34.5136C54.2288 34.3649 54.394 34.5219 54.4932 34.9268C54.551 35.1416 54.6089 35.3895 54.6337 35.4721C54.6667 35.5796 54.6337 35.6126 54.4767 35.6126C54.3692 35.6126 54.2536 35.5878 54.2288 35.5548Z" fill="white"/>
<path d="M54.6749 35.1173C54.617 34.8694 54.4683 34.3736 54.3609 34.0101C54.1956 33.4812 54.1791 33.349 54.27 33.2912C54.3278 33.2498 54.4022 33.2168 54.427 33.2168C54.5179 33.2168 54.8484 34.9107 54.8153 35.2413L54.7905 35.5718L54.6749 35.1173Z" fill="white"/>
<path d="M49.6431 35.0761C49.6431 34.9439 49.6596 34.8943 49.6844 34.9769C49.7009 35.0513 49.7009 35.167 49.6844 35.2248C49.6596 35.2744 49.6431 35.2166 49.6431 35.0761Z" fill="white"/>
<path d="M49.8092 35.0594C49.8422 34.7702 50.0819 34.7041 50.148 34.9685C50.2058 35.1834 50.2223 35.1586 49.9744 35.2412C49.8009 35.2908 49.7844 35.2743 49.8092 35.0594Z" fill="white"/>
<path d="M53.2958 34.9849C53.2297 34.7453 53.3701 34.6048 53.6346 34.6378C53.8329 34.6626 53.9072 35.018 53.742 35.1254C53.5354 35.2576 53.3453 35.1998 53.2958 34.9849Z" fill="white"/>
<path d="M50.2876 34.9189C50.2876 34.7785 50.3289 34.7041 50.4198 34.7041C50.5024 34.7041 50.5355 34.7619 50.5189 34.8859C50.4776 35.1503 50.2876 35.1751 50.2876 34.9189Z" fill="white"/>
<path d="M49.5522 34.5718C49.5522 34.4809 49.5769 34.4561 49.6017 34.5222C49.6265 34.5801 49.6183 34.6544 49.5935 34.6792C49.5687 34.7123 49.5439 34.6627 49.5522 34.5718Z" fill="white"/>
<path d="M49.71 34.5468C49.71 34.4229 49.7595 34.3733 49.8835 34.3733C49.9992 34.3733 50.0405 34.4146 50.0239 34.5138C49.9826 34.7286 49.71 34.7534 49.71 34.5468Z" fill="white"/>
<path d="M50.1639 34.4727C50.106 34.3239 50.106 34.3239 50.3539 34.2578C50.5027 34.2082 50.5357 34.233 50.5357 34.357C50.5357 34.5553 50.2382 34.6544 50.1639 34.4727Z" fill="white"/>
<path d="M53.1562 34.3567C53.0984 34.1501 53.2058 34.0427 53.495 34.0427C53.6355 34.0427 53.6768 34.0923 53.6768 34.2493C53.6768 34.3733 53.6272 34.4559 53.5611 34.4559C53.495 34.4559 53.3876 34.4807 53.3215 34.5055C53.2471 34.5303 53.1893 34.4807 53.1562 34.3567Z" fill="white"/>
<path d="M53.8752 34.1666C53.8091 34.0014 53.9083 33.8774 54.0983 33.8774C54.214 33.8774 54.2553 33.9353 54.2553 34.084C54.2553 34.2328 54.214 34.2906 54.09 34.2906C53.9992 34.2906 53.9 34.2328 53.8752 34.1666Z" fill="white"/>
<path d="M49.6265 34.0518C49.6265 33.8783 49.8165 33.68 49.8991 33.7709C49.9322 33.7957 49.957 33.9114 49.957 34.0188C49.957 34.151 49.9074 34.2088 49.7917 34.2088C49.6843 34.2088 49.6265 34.151 49.6265 34.0518Z" fill="white"/>
<path d="M50.0804 33.9524C50.0143 33.7458 50.0887 33.6549 50.3696 33.6136C50.6257 33.5805 50.7084 33.8532 50.4853 34.0185C50.2704 34.1755 50.1382 34.1507 50.0804 33.9524Z" fill="white"/>
<path d="M53.0723 33.9026C53.0145 33.8531 52.9897 33.5473 53.0393 33.5473C53.0475 33.5473 53.1715 33.5143 53.3202 33.473C53.5681 33.3986 53.5846 33.4069 53.5764 33.63C53.5681 33.7952 53.5185 33.8778 53.3946 33.9109C53.1715 33.9687 53.1384 33.9687 53.0723 33.9026Z" fill="white"/>
<path d="M52.7661 33.7127C52.7661 33.6548 52.7909 33.63 52.824 33.6548C52.8487 33.6879 52.8487 33.7375 52.824 33.7705C52.7909 33.7953 52.7661 33.7705 52.7661 33.7127Z" fill="white"/>
<path d="M53.6919 33.58C53.7167 33.4396 53.9729 33.233 54.0307 33.2991C54.0555 33.3239 54.0968 33.423 54.1216 33.5304C54.1794 33.6957 54.1547 33.7122 53.9233 33.7122C53.725 33.7122 53.6671 33.6792 53.6919 33.58Z" fill="white"/>
<path d="M49.71 33.572C49.71 33.5307 49.7513 33.448 49.7926 33.3819C49.8587 33.2828 49.8752 33.291 49.8752 33.448C49.8752 33.5472 49.8422 33.6298 49.7926 33.6298C49.7513 33.6298 49.71 33.605 49.71 33.572Z" fill="white"/>
<path d="M49.957 33.3905C49.957 33.1591 50.1306 33.0847 50.2628 33.2583C50.3454 33.3822 50.3454 33.4235 50.2628 33.4814C50.0892 33.5888 49.957 33.5557 49.957 33.3905Z" fill="white"/>
<path d="M52.4681 33.2831C52.3193 33.1179 52.3193 33.1096 52.4598 33.1592C52.5424 33.1922 52.6499 33.217 52.6912 33.217C52.7325 33.217 52.7656 33.2749 52.7656 33.341C52.7656 33.5145 52.6499 33.498 52.4681 33.2831Z" fill="white"/>
<path d="M50.692 33.2743C50.3367 33.0016 50.2871 32.3901 50.6176 32.3901C50.8407 32.3901 51.0473 32.7372 51.0142 33.0594C50.9894 33.3569 50.8903 33.423 50.692 33.2743Z" fill="white"/>
<path d="M52.9559 33.324C52.9889 33.2992 53.0385 33.2992 53.0716 33.324C53.0964 33.3571 53.0716 33.3818 53.0137 33.3818C52.9559 33.3818 52.9311 33.3571 52.9559 33.324Z" fill="white"/>
<path d="M54.2059 33.0018C54.2307 32.9274 54.2554 32.853 54.2554 32.8365C54.2554 32.82 54.2968 32.8035 54.3381 32.8035C54.3876 32.8035 54.4207 32.8778 54.4207 32.9687C54.4207 33.0679 54.3629 33.134 54.2885 33.134C54.1976 33.134 54.1728 33.0927 54.2059 33.0018Z" fill="white"/>
<path d="M49.8735 32.977C49.8735 32.7869 50.047 32.4729 50.1462 32.4729C50.3197 32.4729 50.1958 33.0017 50.014 33.0348C49.9396 33.0513 49.8735 33.0265 49.8735 32.977Z" fill="white"/>
<path d="M51.7347 32.8863L51.4868 32.8285L51.7099 32.7706C51.9413 32.7045 52.1065 32.7541 52.1065 32.8946C52.1065 32.9772 52.0983 32.9772 51.7347 32.8863Z" fill="white"/>
<path d="M51.4434 32.4901C51.4434 32.1513 51.6334 32.1017 51.8069 32.3992C51.9226 32.5975 51.9309 32.6388 51.8234 32.6388C51.7573 32.6388 51.6499 32.6636 51.5756 32.6884C51.4764 32.7297 51.4434 32.6801 51.4434 32.4901Z" fill="white"/>
<path d="M52.8832 32.605C52.5114 32.4397 52.2717 32.0018 52.2717 31.4812C52.2717 31.1094 52.3048 31.0185 52.5279 30.8119C52.6684 30.6797 52.8088 30.5723 52.8501 30.5723C53.0319 30.5723 53.7012 31.2085 53.9243 31.6051L54.1805 32.0596L53.9078 32.3488C53.5938 32.6793 53.2468 32.7702 52.8832 32.605Z" fill="white"/>
<path d="M51.1552 32.3903C51.1304 32.3489 51.1469 32.3076 51.1883 32.3076C51.2378 32.3076 51.2791 32.3489 51.2791 32.3903C51.2791 32.4398 51.2626 32.4729 51.2461 32.4729C51.2213 32.4729 51.18 32.4398 51.1552 32.3903Z" fill="white"/>
<path d="M50.0742 32.2579C50.099 32.1835 50.1238 32.1091 50.1238 32.0926C50.1238 32.0761 50.1981 32.0596 50.289 32.0596C50.4956 32.0596 50.5039 32.1918 50.2973 32.3075C50.0742 32.4231 50.0164 32.4149 50.0742 32.2579Z" fill="white"/>
<path d="M50.7256 32.1588C50.5355 32.134 50.4777 32.0266 50.6016 31.9522C50.6347 31.9274 50.7834 31.8861 50.9322 31.853C51.1553 31.8035 51.1966 31.82 51.1966 31.9605C51.1966 32.134 51.023 32.2084 50.7256 32.1588Z" fill="white"/>
<path d="M51.3633 31.8781C51.3633 31.779 51.3715 31.7211 51.3881 31.7377C51.3963 31.7542 51.4624 31.8368 51.5203 31.9195C51.6194 32.0351 51.6112 32.0599 51.4955 32.0599C51.4129 32.0599 51.3633 31.9938 51.3633 31.8781Z" fill="white"/>
<path d="M50.2041 31.8204C50.2041 31.7708 50.2454 31.7129 50.2867 31.6882C50.3363 31.6634 50.3694 31.6964 50.3694 31.7625C50.3694 31.8369 50.3363 31.8947 50.2867 31.8947C50.2454 31.8947 50.2041 31.8617 50.2041 31.8204Z" fill="white"/>
<path d="M50.5103 31.6964C50.4442 31.5311 51.0309 31.3494 51.13 31.5064C51.2044 31.6386 51.13 31.6964 50.816 31.7625C50.626 31.8038 50.5434 31.7873 50.5103 31.6964Z" fill="white"/>
<path d="M51.289 31.4321C51.289 31.3412 51.3138 31.3165 51.3385 31.3826C51.3633 31.4404 51.3551 31.5148 51.3303 31.5395C51.3055 31.5726 51.2807 31.523 51.289 31.4321Z" fill="white"/>
<path d="M50.5858 31.2996C50.6849 31.1178 50.9742 30.8203 51.0485 30.8203C51.1312 30.8203 51.1394 31.2087 51.0568 31.2582C51.0155 31.2748 50.8833 31.3161 50.7593 31.3491C50.5775 31.3904 50.5362 31.3822 50.5858 31.2996Z" fill="white"/>
<path d="M51.2471 31.1098C51.1562 30.8619 51.1975 30.7545 51.3958 30.7215C51.6024 30.6801 51.6024 30.6801 51.4702 30.9363C51.3049 31.2668 51.3132 31.2668 51.2471 31.1098Z" fill="white"/>
<path d="M51.1963 30.6136C51.1963 30.5971 51.3616 30.4814 51.5681 30.3657C51.816 30.217 51.9895 30.1674 52.1135 30.2005C52.2622 30.25 52.2209 30.2831 51.8573 30.4566C51.4524 30.6384 51.1963 30.7045 51.1963 30.6136Z" fill="white"/>
<path d="M55.7837 23.2926C55.5606 22.9704 55.0896 22.4498 54.7508 22.1358C54.412 21.8218 54.1889 21.5657 54.255 21.5657C54.4368 21.5657 55.825 21.9458 56.172 22.0945C56.4613 22.2185 56.4695 22.235 56.3951 22.4911C56.3538 22.6399 56.3208 23.0117 56.3208 23.3174C56.3208 23.6314 56.296 23.8793 56.2629 23.8793C56.2216 23.8793 56.015 23.6149 55.7837 23.2926Z" fill="white"/>
<path d="M38.9656 48.3213C38.6268 48.1478 38.5525 48.0487 38.1228 47.1976C37.5031 45.9912 37.4865 45.7102 38.0732 46.3961C38.3046 46.6687 38.8417 47.2306 39.2631 47.6438C39.982 48.3379 40.015 48.3875 39.7754 48.3544C39.6019 48.3296 39.5358 48.3461 39.5771 48.4122C39.6762 48.561 39.3622 48.5197 38.9656 48.3213Z" fill="white"/>
<path fill-rule="evenodd" clip-rule="evenodd" d="M52.8176 63.3762C52.749 63.2133 52.8255 63.0257 52.9883 62.9571L53.1664 62.8815C54.8972 62.1409 55.8907 61.6961 56.5658 60.9896C57.2408 60.2832 57.3216 59.2456 57.4484 58.6142C57.4832 58.441 57.8756 58.7453 58.0489 58.7801C58.2221 58.8149 58.3344 58.9836 58.2996 59.1568C58.1471 59.9159 57.7365 60.6397 57.0754 61.3266C56.4165 62.0113 55.141 62.7452 53.2367 63.5469C53.0738 63.6155 52.8862 63.5391 52.8176 63.3762Z" fill="#2C1320"/>
<path fill-rule="evenodd" clip-rule="evenodd" d="M60.6419 30.4067C60.7938 30.3163 60.9902 30.3661 61.0806 30.5179C61.9857 32.0385 62.4706 33.7766 62.4706 35.585C62.4706 41.0637 58.0293 45.505 52.5506 45.505C51.0948 45.505 49.6828 45.191 48.3898 44.5928C48.2294 44.5186 47.6235 43.9277 48.2337 44.168C48.844 44.4083 51.2051 44.9478 52.5676 44.9478C57.6928 44.9478 61.3186 40.7102 61.3186 35.585C61.3186 33.8927 60.6419 32.3905 60.5306 30.8453C60.5177 30.6662 60.49 30.4971 60.6419 30.4067Z" fill="#2C1320"/>
<path fill-rule="evenodd" clip-rule="evenodd" d="M28.9508 54.626C29.0639 54.4902 29.2657 54.2158 29.4015 54.3289C29.9586 54.793 30.5531 55.3306 31.189 55.4343C31.8507 55.5423 32.6357 55.5423 33.543 55.4325C33.7184 55.4112 33.8779 55.5362 33.8991 55.7117C33.9204 55.8871 33.7953 56.0466 33.6199 56.0678C32.6564 56.1845 31.8121 56.1845 31.0859 56.066C30.3339 55.9433 29.6346 55.612 28.9919 55.0767C28.8561 54.9636 28.8377 54.7618 28.9508 54.626Z" fill="#2C1320"/>
<path d="M35.7452 43.4294C35.332 43.0989 34.4479 42.1238 33.7786 41.2645C33.4315 40.81 33.0432 39.8845 32.8118 38.9508C32.7044 38.5294 32.597 38.1493 32.5722 38.0997C32.5391 38.0584 32.4069 37.4717 32.2747 36.7942C32.0764 35.8356 32.1183 35.5268 31.9442 34.3803C31.8704 33.8949 31.8037 33.5086 31.8037 33.5086L32.0186 33.2328C32.1425 33.0675 32.2993 32.794 32.3573 32.6378C32.6218 31.9264 34.5636 29.6962 34.6214 29.754C34.6379 29.7706 34.5718 30.1589 34.4562 30.6134C34.3487 31.0679 34.2165 31.7537 34.1587 32.1421C34.0761 32.7866 34.043 32.8609 33.7868 33.0758C33.4646 33.3485 32.8531 34.2243 32.8531 34.4061C32.8531 34.654 33.225 34.4888 33.6133 34.0839L34.0099 33.6707V34.1252C34.0099 34.4227 33.9521 34.6953 33.8447 34.9102C33.6381 35.3151 33.6381 35.7448 33.8364 36.0753C33.9356 36.2405 34.0265 36.6372 34.0843 37.1082C34.3405 39.24 34.8858 41.0909 35.8196 42.9501C36.0509 43.4129 36.2327 43.793 36.2244 43.793C36.2079 43.793 35.9931 43.6277 35.7452 43.4294Z" fill="white"/>
<path fill-rule="evenodd" clip-rule="evenodd" d="M70.1279 48.5282L70.7229 48.7926C70.8462 48.8495 72.2071 49.5034 73.8418 50.2889C76.4775 51.5553 79.8249 53.1637 79.8453 53.1637C79.8783 53.1637 80.0334 52.8052 80.0684 52.387C80.151 51.4863 80.4568 50.2634 80.8121 49.4123C80.9773 49.0322 81.1095 48.5571 81.1095 48.5158C81.1095 48.497 80.9752 48.4428 80.7553 48.3541C80.4935 48.2485 80.1104 48.094 79.6883 47.8919C77.606 46.8921 73.5323 44.8511 73.0283 44.5454C72.5325 44.2562 72.4333 44.2314 72.4333 44.4214C72.4333 44.6693 71.9293 45.8179 71.5409 46.4376C71.3343 46.7764 70.9294 47.3879 70.6402 47.7927L70.1279 48.5282ZM79.7032 51.6763C79.9401 51.8136 79.5296 52.015 79.4305 52.0481C78.8466 52.0977 78.1593 51.9879 77.5961 51.6597C77.3016 51.4509 74.983 50.1628 73.4449 49.3083C72.7418 48.9176 72.2018 48.6176 72.0929 48.5528C71.7458 48.3463 71.4153 48.1232 71.3575 48.057C71.1839 47.8339 71.3492 47.7348 71.8367 47.7761C72.1298 47.8009 79.1914 51.3796 79.7032 51.6763Z" fill="white"/>
<path d="M64.1937 49.2721C63.9788 49.1977 63.7475 49.0325 63.5987 48.8424L63.3508 48.5367L64.2267 47.6691C65.5736 46.347 66.5652 44.9021 67.4576 43.2908C67.755 42.7537 68.6392 40.5876 68.7466 40.348C68.9119 40.0009 69.0358 39.8687 69.3911 39.6704C69.8126 39.4225 70.2918 39.3399 70.4984 39.4804C70.895 39.7448 70.895 40.5794 70.4984 42.0171C70.0604 43.5954 69.4738 44.7274 68.2591 46.3552C68.069 46.6031 67.7137 47.0906 67.4576 47.4294C66.7717 48.3384 66.3255 48.7763 65.7223 49.1151C65.1274 49.4456 64.7803 49.4869 64.1937 49.2721Z" fill="white"/>
<path d="M67.3088 49.0815L67.1353 48.908C67.1353 48.908 70.0153 45.2488 70.5314 43.9005C70.9252 42.8716 71.157 42.5798 71.4697 42.5798C71.6446 42.5798 71.7873 42.6198 71.8534 42.7189C71.9691 42.8924 72.0806 43.1073 71.9319 43.8427C71.684 45.0326 71.3039 45.8176 70.1636 47.5115C69.8992 47.8999 69.5604 48.3295 69.4116 48.4783C69.0646 48.8005 68.2838 49.1311 67.8293 49.2054C67.5401 49.2468 67.4575 49.2302 67.3088 49.0815Z" fill="white"/>
<path fill-rule="evenodd" clip-rule="evenodd" d="M72.1478 45.2555C72.3144 44.8743 72.4332 44.5417 72.4332 44.4214C72.4332 44.2314 72.5323 44.2562 73.0281 44.5454C73.5322 44.8511 77.6059 46.8921 79.6881 47.8919C80.4649 48.2638 81.1094 48.4745 81.1094 48.5159C81.1094 48.5572 71.9711 45.6597 72.1478 45.2555Z" fill="#E7EAEE"/>
<path fill-rule="evenodd" clip-rule="evenodd" d="M43.8757 45.7269C42.8262 45.041 41.2397 43.4297 40.4713 42.2812C39.3723 40.6286 38.6452 38.8603 38.2898 36.9598C38.0337 35.5798 38.0419 33.4562 38.2981 32.225C38.5625 30.9691 38.9013 30.0105 39.5045 28.7959C40.2069 27.3912 40.9505 26.3583 42.066 25.2428C43.16 24.1488 38.2981 28.6726 39.5045 36.7666C40.4713 43.5494 44.6261 46.2213 43.8757 45.7269Z" fill="#E7EAEE"/>
<g filter="url(#filter0_d)">
<path d="M11.1201 74.9612H17.3936V77.1018H13.292V79.1799H17.3936V81.2815H13.292V84.3049H17.3936V86.4534H11.1201V74.9612ZM19.5029 81.2268H23.4717V83.2112H19.5029V81.2268ZM32.1826 76.5237L30.5654 77.9534C29.9977 77.1617 29.4196 76.7659 28.8311 76.7659C28.5446 76.7659 28.3102 76.844 28.1279 77.0002C27.9456 77.1513 27.8545 77.3232 27.8545 77.5159C27.8545 77.7086 27.9196 77.8909 28.0498 78.0627C28.2269 78.2919 28.7607 78.7841 29.6514 79.5393C30.4847 80.2372 30.9899 80.6773 31.167 80.8596C31.6097 81.3075 31.9222 81.7372 32.1045 82.1487C32.292 82.5549 32.3857 83.0002 32.3857 83.4846C32.3857 84.4273 32.0602 85.206 31.4092 85.8206C30.7581 86.4351 29.9092 86.7424 28.8623 86.7424C28.0446 86.7424 27.3311 86.5419 26.7217 86.1409C26.1175 85.7398 25.5993 85.1096 25.167 84.2502L27.0029 83.1409C27.555 84.1565 28.1904 84.6643 28.9092 84.6643C29.2842 84.6643 29.5993 84.5549 29.8545 84.3362C30.1097 84.1174 30.2373 83.8648 30.2373 83.5784C30.2373 83.318 30.141 83.0575 29.9482 82.7971C29.7555 82.5367 29.3311 82.1383 28.6748 81.6018C27.4248 80.581 26.6175 79.7945 26.2529 79.2424C25.8883 78.6851 25.7061 78.1305 25.7061 77.5784C25.7061 76.7815 26.0081 76.0992 26.6123 75.5315C27.2217 74.9586 27.9717 74.6721 28.8623 74.6721C29.4352 74.6721 29.9795 74.8049 30.4951 75.0706C31.016 75.3362 31.5785 75.8206 32.1826 76.5237ZM45.0498 76.9846L43.5186 78.4456C42.4769 77.3466 41.305 76.7971 40.0029 76.7971C38.904 76.7971 37.9769 77.1721 37.2217 77.9221C36.4717 78.6721 36.0967 79.5966 36.0967 80.6956C36.0967 81.4612 36.2633 82.1409 36.5967 82.7346C36.93 83.3284 37.4014 83.7945 38.0107 84.1331C38.6201 84.4716 39.2972 84.6409 40.042 84.6409C40.6774 84.6409 41.2581 84.5237 41.7842 84.2893C42.3102 84.0497 42.8883 83.6174 43.5186 82.9924L45.0029 84.5393C44.154 85.3674 43.3519 85.943 42.5967 86.2659C41.8415 86.5836 40.9795 86.7424 40.0107 86.7424C38.2243 86.7424 36.7607 86.1773 35.6201 85.0471C34.4847 83.9117 33.917 82.4586 33.917 80.6877C33.917 79.5419 34.1748 78.5237 34.6904 77.6331C35.2113 76.7424 35.9535 76.0263 36.917 75.4846C37.8857 74.943 38.9274 74.6721 40.042 74.6721C40.9899 74.6721 41.9014 74.8726 42.7764 75.2737C43.6566 75.6747 44.4144 76.245 45.0498 76.9846ZM46.9639 74.9612H49.1826V79.2971H53.0264V74.9612H55.2373V86.4534H53.0264V81.4143H49.1826V86.4534H46.9639V74.9612ZM63.292 74.6721C64.917 74.6721 66.3128 75.2607 67.4795 76.4377C68.6514 77.6148 69.2373 79.0497 69.2373 80.7424C69.2373 82.4195 68.6592 83.8388 67.5029 85.0002C66.3519 86.1617 64.9535 86.7424 63.3076 86.7424C61.5837 86.7424 60.1514 86.1461 59.0107 84.9534C57.8701 83.7607 57.2998 82.344 57.2998 80.7034C57.2998 79.6044 57.5654 78.594 58.0967 77.6721C58.6279 76.7502 59.3571 76.0211 60.2842 75.4846C61.2165 74.943 62.2191 74.6721 63.292 74.6721ZM63.2686 76.8127C62.2061 76.8127 61.3128 77.1825 60.5889 77.9221C59.8649 78.6617 59.5029 79.6018 59.5029 80.7424C59.5029 82.0133 59.9587 83.0185 60.8701 83.7581C61.5785 84.3362 62.391 84.6252 63.3076 84.6252C64.3441 84.6252 65.2269 84.2502 65.9561 83.5002C66.6852 82.7502 67.0498 81.8258 67.0498 80.7268C67.0498 79.6331 66.6826 78.7086 65.9482 77.9534C65.2139 77.193 64.3206 76.8127 63.2686 76.8127ZM76.7295 74.6721C78.3545 74.6721 79.7503 75.2607 80.917 76.4377C82.0889 77.6148 82.6748 79.0497 82.6748 80.7424C82.6748 82.4195 82.0967 83.8388 80.9404 85.0002C79.7894 86.1617 78.391 86.7424 76.7451 86.7424C75.0212 86.7424 73.5889 86.1461 72.4482 84.9534C71.3076 83.7607 70.7373 82.344 70.7373 80.7034C70.7373 79.6044 71.0029 78.594 71.5342 77.6721C72.0654 76.7502 72.7946 76.0211 73.7217 75.4846C74.654 74.943 75.6566 74.6721 76.7295 74.6721ZM76.7061 76.8127C75.6436 76.8127 74.7503 77.1825 74.0264 77.9221C73.3024 78.6617 72.9404 79.6018 72.9404 80.7424C72.9404 82.0133 73.3962 83.0185 74.3076 83.7581C75.016 84.3362 75.8285 84.6252 76.7451 84.6252C77.7816 84.6252 78.6644 84.2502 79.3936 83.5002C80.1227 82.7502 80.4873 81.8258 80.4873 80.7268C80.4873 79.6331 80.1201 78.7086 79.3857 77.9534C78.6514 77.193 77.7581 76.8127 76.7061 76.8127ZM84.7373 74.9612H86.9248V84.3674H90.1123V86.4534H84.7373V74.9612Z" fill="#FDF0D5"/>
<path d="M11.1201 74.9612V73.9612H10.1201V74.9612H11.1201ZM17.3936 74.9612H18.3936V73.9612H17.3936V74.9612ZM17.3936 77.1018V78.1018H18.3936V77.1018H17.3936ZM13.292 77.1018V76.1018H12.292V77.1018H13.292ZM13.292 79.1799H12.292V80.1799H13.292V79.1799ZM17.3936 79.1799H18.3936V78.1799H17.3936V79.1799ZM17.3936 81.2815V82.2815H18.3936V81.2815H17.3936ZM13.292 81.2815V80.2815H12.292V81.2815H13.292ZM13.292 84.3049H12.292V85.3049H13.292V84.3049ZM17.3936 84.3049H18.3936V83.3049H17.3936V84.3049ZM17.3936 86.4534V87.4534H18.3936V86.4534H17.3936ZM11.1201 86.4534H10.1201V87.4534H11.1201V86.4534ZM11.1201 75.9612H17.3936V73.9612H11.1201V75.9612ZM16.3936 74.9612V77.1018H18.3936V74.9612H16.3936ZM17.3936 76.1018H13.292V78.1018H17.3936V76.1018ZM12.292 77.1018V79.1799H14.292V77.1018H12.292ZM13.292 80.1799H17.3936V78.1799H13.292V80.1799ZM16.3936 79.1799V81.2815H18.3936V79.1799H16.3936ZM17.3936 80.2815H13.292V82.2815H17.3936V80.2815ZM12.292 81.2815V84.3049H14.292V81.2815H12.292ZM13.292 85.3049H17.3936V83.3049H13.292V85.3049ZM16.3936 84.3049V86.4534H18.3936V84.3049H16.3936ZM17.3936 85.4534H11.1201V87.4534H17.3936V85.4534ZM12.1201 86.4534V74.9612H10.1201V86.4534H12.1201ZM19.5029 81.2268V80.2268H18.5029V81.2268H19.5029ZM23.4717 81.2268H24.4717V80.2268H23.4717V81.2268ZM23.4717 83.2112V84.2112H24.4717V83.2112H23.4717ZM19.5029 83.2112H18.5029V84.2112H19.5029V83.2112ZM19.5029 82.2268H23.4717V80.2268H19.5029V82.2268ZM22.4717 81.2268V83.2112H24.4717V81.2268H22.4717ZM23.4717 82.2112H19.5029V84.2112H23.4717V82.2112ZM20.5029 83.2112V81.2268H18.5029V83.2112H20.5029ZM32.1826 76.5237L32.845 77.2729L33.5837 76.6198L32.9411 75.872L32.1826 76.5237ZM30.5654 77.9534L29.7528 78.5361L30.3981 79.436L31.2278 78.7026L30.5654 77.9534ZM28.1279 77.0002L28.7659 77.7703L28.7724 77.7649L28.7787 77.7595L28.1279 77.0002ZM28.0498 78.0627L27.2527 78.6666L27.2585 78.6742L28.0498 78.0627ZM29.6514 79.5393L29.0046 80.302L29.0093 80.306L29.6514 79.5393ZM31.167 80.8596L30.4497 81.5564L30.4558 81.5626L31.167 80.8596ZM32.1045 82.1487L31.1902 82.5537L31.1933 82.5608L31.1965 82.5677L32.1045 82.1487ZM26.7217 86.1409L26.1686 86.974L26.1719 86.9762L26.7217 86.1409ZM25.167 84.2502L24.6498 83.3944L23.8578 83.8729L24.2737 84.6996L25.167 84.2502ZM27.0029 83.1409L27.8815 82.6633L27.3816 81.7437L26.4858 82.285L27.0029 83.1409ZM28.6748 81.6018L29.3077 80.8276L29.3073 80.8273L28.6748 81.6018ZM26.2529 79.2424L25.4161 79.7899L25.4185 79.7935L26.2529 79.2424ZM26.6123 75.5315L27.2971 76.2602L27.2973 76.2601L26.6123 75.5315ZM30.4951 75.0706L30.0372 75.9595L30.0408 75.9614L30.4951 75.0706ZM31.5203 75.7745L29.9031 77.2042L31.2278 78.7026L32.845 77.2729L31.5203 75.7745ZM31.3781 77.3706C30.7458 76.489 29.9071 75.7659 28.8311 75.7659V77.7659C28.9321 77.7659 29.2496 77.8345 29.7528 78.5361L31.3781 77.3706ZM28.8311 75.7659C28.3542 75.7659 27.8743 75.9006 27.4771 76.241L28.7787 77.7595C28.7748 77.7629 28.7699 77.7663 28.7647 77.7693C28.7595 77.7722 28.7564 77.7732 28.7567 77.7731C28.7571 77.773 28.7785 77.7659 28.8311 77.7659V75.7659ZM27.4899 76.2302C27.1357 76.5237 26.8545 76.9581 26.8545 77.5159H28.8545C28.8545 77.5845 28.8365 77.654 28.8063 77.7109C28.7788 77.7627 28.7543 77.7799 28.7659 77.7703L27.4899 76.2302ZM26.8545 77.5159C26.8545 77.9524 27.0073 78.3427 27.2527 78.6666L28.8469 77.4589C28.8364 77.4451 28.8397 77.4456 28.8451 77.4608C28.8477 77.468 28.8502 77.4771 28.852 77.4874C28.8538 77.4977 28.8545 77.5074 28.8545 77.5159H26.8545ZM27.2585 78.6742C27.4046 78.8632 27.6403 79.0947 27.9052 79.339C28.1865 79.5983 28.5543 79.9201 29.0046 80.302L30.2981 78.7766C29.8579 78.4033 29.5134 78.1014 29.2608 77.8685C28.9919 77.6206 28.8721 77.4914 28.8411 77.4513L27.2585 78.6742ZM29.0093 80.306C29.8592 81.0177 30.317 81.4197 30.4497 81.5564L31.8843 80.1628C31.6629 79.9349 31.1102 79.4567 30.2934 78.7727L29.0093 80.306ZM30.4558 81.5626C30.8448 81.9562 31.0723 82.2877 31.1902 82.5537L33.0188 81.7436C32.7721 81.1867 32.3746 80.6589 31.8782 80.1567L30.4558 81.5626ZM31.1965 82.5677C31.3185 82.832 31.3857 83.1328 31.3857 83.4846H33.3857C33.3857 82.8677 33.2655 82.2778 33.0125 81.7296L31.1965 82.5677ZM31.3857 83.4846C31.3857 84.1685 31.1621 84.6787 30.7227 85.0934L32.0956 86.5477C32.9584 85.7333 33.3857 84.6862 33.3857 83.4846H31.3857ZM30.7227 85.0934C30.2884 85.5034 29.7001 85.7424 28.8623 85.7424V87.7424C30.1182 87.7424 31.2279 87.3669 32.0956 86.5477L30.7227 85.0934ZM28.8623 85.7424C28.2156 85.7424 27.6983 85.5865 27.2714 85.3055L26.1719 86.9762C26.9638 87.4974 27.8736 87.7424 28.8623 87.7424V85.7424ZM27.2747 85.3077C26.8552 85.0292 26.4392 84.554 26.0603 83.8009L24.2737 84.6996C24.7594 85.6652 25.3798 86.4504 26.1686 86.974L27.2747 85.3077ZM25.6842 85.1061L27.5201 83.9968L26.4858 82.285L24.6498 83.3944L25.6842 85.1061ZM26.1243 83.6185C26.7379 84.7471 27.6356 85.6643 28.9092 85.6643V83.6643C28.7452 83.6643 28.3722 83.5659 27.8815 82.6633L26.1243 83.6185ZM28.9092 85.6643C29.4934 85.6643 30.0476 85.4877 30.5053 85.0954L29.2037 83.5769C29.151 83.6221 29.075 83.6643 28.9092 83.6643V85.6643ZM30.5053 85.0954C30.9396 84.7231 31.2373 84.2084 31.2373 83.5784H29.2373C29.2373 83.5751 29.2378 83.5672 29.2403 83.5565C29.2428 83.5458 29.2463 83.5372 29.249 83.5318C29.2547 83.5204 29.2496 83.5376 29.2037 83.5769L30.5053 85.0954ZM31.2373 83.5784C31.2373 83.0562 31.0406 82.5922 30.7521 82.2023L29.1444 83.392C29.1937 83.4586 29.2167 83.5064 29.2272 83.5348C29.237 83.5613 29.2373 83.5743 29.2373 83.5784H31.2373ZM30.7521 82.2023C30.4755 81.8285 29.9572 81.3585 29.3077 80.8276L28.0419 82.376C28.7049 82.918 29.0356 83.2449 29.1444 83.392L30.7521 82.2023ZM29.3073 80.8273C28.0552 79.8047 27.3589 79.1026 27.0874 78.6914L25.4185 79.7935C25.8761 80.4865 26.7944 81.3573 28.0423 82.3763L29.3073 80.8273ZM27.0898 78.695C26.8094 78.2665 26.7061 77.899 26.7061 77.5784H24.7061C24.7061 78.3619 24.9673 79.1038 25.4161 79.7899L27.0898 78.695ZM26.7061 77.5784C26.7061 77.0698 26.8849 76.6475 27.2971 76.2602L25.9275 74.8027C25.1314 75.5509 24.7061 76.4932 24.7061 77.5784H26.7061ZM27.2973 76.2601C27.7084 75.8735 28.2081 75.6721 28.8623 75.6721V73.6721C27.7353 73.6721 26.735 74.0436 25.9273 74.8029L27.2973 76.2601ZM28.8623 75.6721C29.2739 75.6721 29.6613 75.7659 30.0372 75.9595L30.9531 74.1816C30.2976 73.8439 29.5966 73.6721 28.8623 73.6721V75.6721ZM30.0408 75.9614C30.3978 76.1434 30.8609 76.5198 31.4242 77.1754L32.9411 75.872C32.296 75.1213 31.6341 74.5289 30.9494 74.1797L30.0408 75.9614ZM45.0498 76.9846L45.7401 77.7081L46.4269 77.0529L45.8083 76.3329L45.0498 76.9846ZM43.5186 78.4456L42.7928 79.1335L43.483 79.8616L44.2089 79.1691L43.5186 78.4456ZM37.2217 77.9221L36.517 77.2126L36.5146 77.215L37.2217 77.9221ZM41.7842 84.2893L42.1912 85.2028L42.1987 85.1994L41.7842 84.2893ZM43.5186 82.9924L44.2401 82.3001L43.5362 81.5665L42.8144 82.2824L43.5186 82.9924ZM45.0029 84.5393L45.7012 85.2551L46.4112 84.5626L45.7245 83.8469L45.0029 84.5393ZM42.5967 86.2659L42.9845 87.1876L42.9898 87.1853L42.5967 86.2659ZM35.6201 85.0471L34.913 85.7542L34.9163 85.7575L35.6201 85.0471ZM34.6904 77.6331L33.8272 77.1282L33.825 77.132L34.6904 77.6331ZM36.917 75.4846L36.429 74.6118L36.427 74.6129L36.917 75.4846ZM42.7764 75.2737L42.3597 76.1827L42.3618 76.1837L42.7764 75.2737ZM44.3595 76.2611L42.8283 77.722L44.2089 79.1691L45.7401 77.7081L44.3595 76.2611ZM44.2443 77.7576C43.0474 76.4948 41.6247 75.7971 40.0029 75.7971V77.7971C40.9853 77.7971 41.9064 78.1984 42.7928 79.1335L44.2443 77.7576ZM40.0029 75.7971C38.6495 75.7971 37.4663 76.2699 36.517 77.2126L37.9263 78.6317C38.4875 78.0744 39.1584 77.7971 40.0029 77.7971V75.7971ZM36.5146 77.215C35.5696 78.16 35.0967 79.3421 35.0967 80.6956H37.0967C37.0967 79.8511 37.3738 79.1843 37.9288 78.6292L36.5146 77.215ZM35.0967 80.6956C35.0967 81.6109 35.2974 82.463 35.7247 83.2242L37.4687 82.2451C37.2293 81.8187 37.0967 81.3114 37.0967 80.6956H35.0967ZM35.7247 83.2242C36.1509 83.9834 36.7579 84.581 37.5251 85.0072L38.4964 83.2589C38.0449 83.0081 37.7091 82.6733 37.4687 82.2451L35.7247 83.2242ZM37.5251 85.0072C38.2932 85.4339 39.1393 85.6409 40.042 85.6409V83.6409C39.4551 83.6409 38.9471 83.5093 38.4964 83.2589L37.5251 85.0072ZM40.042 85.6409C40.803 85.6409 41.5243 85.4998 42.1912 85.2027L41.3772 83.3759C40.9919 83.5475 40.5518 83.6409 40.042 83.6409V85.6409ZM42.1987 85.1994C42.8739 84.8918 43.5487 84.371 44.2227 83.7025L42.8144 82.2824C42.228 82.8639 41.7465 83.2076 41.3697 83.3792L42.1987 85.1994ZM42.797 83.6848L44.2814 85.2317L45.7245 83.8469L44.2401 82.3001L42.797 83.6848ZM44.3047 83.8235C43.5081 84.6005 42.8069 85.0884 42.2035 85.3464L42.9898 87.1853C43.8968 86.7975 44.7998 86.1344 45.7012 85.2551L44.3047 83.8235ZM42.2089 85.3441C41.5967 85.6017 40.8702 85.7424 40.0107 85.7424V87.7424C41.0888 87.7424 42.0862 87.5655 42.9845 87.1876L42.2089 85.3441ZM40.0107 85.7424C38.4555 85.7424 37.2555 85.2598 36.324 84.3368L34.9163 85.7575C36.266 87.0949 37.9931 87.7424 40.0107 87.7424V85.7424ZM36.3272 84.34C35.3995 83.4123 34.917 82.2233 34.917 80.6877H32.917C32.917 82.6939 33.5699 84.4111 34.913 85.7542L36.3272 84.34ZM34.917 80.6877C34.917 79.6974 35.1381 78.8557 35.5559 78.1341L33.825 77.132C33.2115 78.1917 32.917 79.3864 32.917 80.6877H34.917ZM35.5537 78.1379C35.9785 77.4114 36.5868 76.8174 37.407 76.3563L36.427 74.6129C35.3201 75.2352 34.4441 76.0734 33.8272 77.1282L35.5537 78.1379ZM37.405 76.3574C38.224 75.8995 39.0975 75.6721 40.042 75.6721V73.6721C38.7573 73.6721 37.5475 73.9864 36.429 74.6118L37.405 76.3574ZM40.042 75.6721C40.8438 75.6721 41.6134 75.8407 42.3597 76.1827L43.193 74.3646C42.1894 73.9046 41.136 73.6721 40.042 73.6721V75.6721ZM42.3618 76.1837C43.1089 76.5241 43.7496 77.0058 44.2913 77.6363L45.8083 76.3329C45.0791 75.4842 44.2043 74.8254 43.191 74.3637L42.3618 76.1837ZM46.9639 74.9612V73.9612H45.9639V74.9612H46.9639ZM49.1826 74.9612H50.1826V73.9612H49.1826V74.9612ZM49.1826 79.2971H48.1826V80.2971H49.1826V79.2971ZM53.0264 79.2971V80.2971H54.0264V79.2971H53.0264ZM53.0264 74.9612V73.9612H52.0264V74.9612H53.0264ZM55.2373 74.9612H56.2373V73.9612H55.2373V74.9612ZM55.2373 86.4534V87.4534H56.2373V86.4534H55.2373ZM53.0264 86.4534H52.0264V87.4534H53.0264V86.4534ZM53.0264 81.4143H54.0264V80.4143H53.0264V81.4143ZM49.1826 81.4143V80.4143H48.1826V81.4143H49.1826ZM49.1826 86.4534V87.4534H50.1826V86.4534H49.1826ZM46.9639 86.4534H45.9639V87.4534H46.9639V86.4534ZM46.9639 75.9612H49.1826V73.9612H46.9639V75.9612ZM48.1826 74.9612V79.2971H50.1826V74.9612H48.1826ZM49.1826 80.2971H53.0264V78.2971H49.1826V80.2971ZM54.0264 79.2971V74.9612H52.0264V79.2971H54.0264ZM53.0264 75.9612H55.2373V73.9612H53.0264V75.9612ZM54.2373 74.9612V86.4534H56.2373V74.9612H54.2373ZM55.2373 85.4534H53.0264V87.4534H55.2373V85.4534ZM54.0264 86.4534V81.4143H52.0264V86.4534H54.0264ZM53.0264 80.4143H49.1826V82.4143H53.0264V80.4143ZM48.1826 81.4143V86.4534H50.1826V81.4143H48.1826ZM49.1826 85.4534H46.9639V87.4534H49.1826V85.4534ZM47.9639 86.4534V74.9612H45.9639V86.4534H47.9639ZM67.4795 76.4377L66.7692 77.1417L66.7708 77.1433L67.4795 76.4377ZM67.5029 85.0002L66.7942 84.2947L66.7926 84.2963L67.5029 85.0002ZM60.2842 75.4846L60.785 76.3502L60.7865 76.3493L60.2842 75.4846ZM60.8701 83.7581L61.5024 82.9833L61.5002 82.9815L60.8701 83.7581ZM65.9482 77.9534L65.2289 78.6481L65.2313 78.6505L65.9482 77.9534ZM63.292 75.6721C64.6443 75.6721 65.7862 76.1499 66.7692 77.1417L68.1897 75.7338C66.8395 74.3715 65.1896 73.6721 63.292 73.6721V75.6721ZM66.7708 77.1433C67.7522 78.129 68.2373 79.3085 68.2373 80.7424H70.2373C70.2373 78.7909 69.5506 77.1007 68.1882 75.7322L66.7708 77.1433ZM68.2373 80.7424C68.2373 82.162 67.7591 83.3255 66.7942 84.2947L68.2116 85.7058C69.5593 84.3521 70.2373 82.677 70.2373 80.7424H68.2373ZM66.7926 84.2963C65.8308 85.2669 64.6886 85.7424 63.3076 85.7424V87.7424C65.2183 87.7424 66.873 87.0565 68.2132 85.7042L66.7926 84.2963ZM63.3076 85.7424C61.8429 85.7424 60.6762 85.248 59.7335 84.2622L58.288 85.6445C59.6266 87.0442 61.3244 87.7424 63.3076 87.7424V85.7424ZM59.7335 84.2622C58.7696 83.2544 58.2998 82.0848 58.2998 80.7034H56.2998C56.2998 82.6032 56.9706 84.2669 58.288 85.6445L59.7335 84.2622ZM58.2998 80.7034C58.2998 79.7737 58.5223 78.9363 58.9631 78.1714L57.2303 77.1728C56.6085 78.2517 56.2998 79.4352 56.2998 80.7034H58.2998ZM58.9631 78.1714C59.4061 77.4026 60.0088 76.7993 60.785 76.3502L59.7833 74.6191C58.7054 75.2428 57.8497 76.0978 57.2303 77.1728L58.9631 78.1714ZM60.7865 76.3493C61.5671 75.8958 62.3965 75.6721 63.292 75.6721V73.6721C62.0417 73.6721 60.8659 73.9901 59.7818 74.62L60.7865 76.3493ZM63.2686 75.8127C61.9452 75.8127 60.7919 76.2852 59.8743 77.2226L61.3035 78.6216C61.8338 78.0799 62.4669 77.8127 63.2686 77.8127V75.8127ZM59.8743 77.2226C58.9479 78.169 58.5029 79.3695 58.5029 80.7424H60.5029C60.5029 79.8341 60.7819 79.1544 61.3035 78.6216L59.8743 77.2226ZM58.5029 80.7424C58.5029 82.2861 59.0733 83.5879 60.24 84.5346L61.5002 82.9815C60.844 82.4491 60.5029 81.7404 60.5029 80.7424H58.5029ZM60.2378 84.5328C61.1252 85.257 62.1612 85.6252 63.3076 85.6252V83.6252C62.6207 83.6252 62.0317 83.4154 61.5024 82.9833L60.2378 84.5328ZM63.3076 85.6252C64.617 85.6252 65.7576 85.139 66.673 84.1973L65.2391 82.8032C64.6962 83.3615 64.0712 83.6252 63.3076 83.6252V85.6252ZM66.673 84.1973C67.5936 83.2505 68.0498 82.0715 68.0498 80.7268H66.0498C66.0498 81.58 65.7768 82.25 65.2391 82.8032L66.673 84.1973ZM68.0498 80.7268C68.0498 79.3838 67.5886 78.2059 66.6652 77.2562L65.2313 78.6505C65.7766 79.2113 66.0498 79.8823 66.0498 80.7268H68.0498ZM66.6676 77.2587C65.7458 76.3042 64.5934 75.8127 63.2686 75.8127V77.8127C64.0479 77.8127 64.682 78.0817 65.2289 78.6481L66.6676 77.2587ZM80.917 76.4377L80.2067 77.1417L80.2083 77.1433L80.917 76.4377ZM80.9404 85.0002L80.2317 84.2947L80.2301 84.2963L80.9404 85.0002ZM73.7217 75.4846L74.2225 76.3502L74.224 76.3493L73.7217 75.4846ZM74.3076 83.7581L74.9399 82.9833L74.9377 82.9815L74.3076 83.7581ZM79.3857 77.9534L78.6664 78.6481L78.6688 78.6505L79.3857 77.9534ZM76.7295 75.6721C78.0818 75.6721 79.2237 76.1499 80.2067 77.1417L81.6272 75.7338C80.277 74.3715 78.6271 73.6721 76.7295 73.6721V75.6721ZM80.2083 77.1433C81.1897 78.129 81.6748 79.3085 81.6748 80.7424H83.6748C83.6748 78.7909 82.9881 77.1007 81.6257 75.7322L80.2083 77.1433ZM81.6748 80.7424C81.6748 82.162 81.1966 83.3255 80.2317 84.2947L81.6491 85.7058C82.9967 84.3521 83.6748 82.677 83.6748 80.7424H81.6748ZM80.2301 84.2963C79.2683 85.2669 78.1261 85.7424 76.7451 85.7424V87.7424C78.6558 87.7424 80.3105 87.0565 81.6507 85.7042L80.2301 84.2963ZM76.7451 85.7424C75.2804 85.7424 74.1137 85.248 73.171 84.2622L71.7255 85.6445C73.0641 87.0442 74.7619 87.7424 76.7451 87.7424V85.7424ZM73.171 84.2622C72.2071 83.2544 71.7373 82.0848 71.7373 80.7034H69.7373C69.7373 82.6032 70.4081 84.2669 71.7255 85.6445L73.171 84.2622ZM71.7373 80.7034C71.7373 79.7737 71.9598 78.9363 72.4006 78.1714L70.6678 77.1728C70.046 78.2517 69.7373 79.4352 69.7373 80.7034H71.7373ZM72.4006 78.1714C72.8436 77.4026 73.4463 76.7993 74.2225 76.3502L73.2208 74.6191C72.1429 75.2428 71.2872 76.0978 70.6678 77.1728L72.4006 78.1714ZM74.224 76.3493C75.0046 75.8958 75.834 75.6721 76.7295 75.6721V73.6721C75.4792 73.6721 74.3034 73.9901 73.2193 74.62L74.224 76.3493ZM76.7061 75.8127C75.3827 75.8127 74.2294 76.2852 73.3118 77.2226L74.741 78.6216C75.2713 78.0799 75.9044 77.8127 76.7061 77.8127V75.8127ZM73.3118 77.2226C72.3854 78.169 71.9404 79.3695 71.9404 80.7424H73.9404C73.9404 79.8341 74.2194 79.1544 74.741 78.6216L73.3118 77.2226ZM71.9404 80.7424C71.9404 82.2861 72.5108 83.5879 73.6775 84.5346L74.9377 82.9815C74.2815 82.4491 73.9404 81.7404 73.9404 80.7424H71.9404ZM73.6753 84.5328C74.5627 85.257 75.5987 85.6252 76.7451 85.6252V83.6252C76.0582 83.6252 75.4692 83.4154 74.9399 82.9833L73.6753 84.5328ZM76.7451 85.6252C78.0545 85.6252 79.1951 85.139 80.1105 84.1973L78.6766 82.8032C78.1337 83.3615 77.5087 83.6252 76.7451 83.6252V85.6252ZM80.1105 84.1973C81.0311 83.2505 81.4873 82.0715 81.4873 80.7268H79.4873C79.4873 81.58 79.2143 82.25 78.6766 82.8032L80.1105 84.1973ZM81.4873 80.7268C81.4873 79.3838 81.0261 78.2059 80.1027 77.2562L78.6688 78.6505C79.2141 79.2113 79.4873 79.8823 79.4873 80.7268H81.4873ZM80.1051 77.2587C79.1833 76.3042 78.0309 75.8127 76.7061 75.8127V77.8127C77.4854 77.8127 78.1195 78.0817 78.6664 78.6481L80.1051 77.2587ZM84.7373 74.9612V73.9612H83.7373V74.9612H84.7373ZM86.9248 74.9612H87.9248V73.9612H86.9248V74.9612ZM86.9248 84.3674H85.9248V85.3674H86.9248V84.3674ZM90.1123 84.3674H91.1123V83.3674H90.1123V84.3674ZM90.1123 86.4534V87.4534H91.1123V86.4534H90.1123ZM84.7373 86.4534H83.7373V87.4534H84.7373V86.4534ZM84.7373 75.9612H86.9248V73.9612H84.7373V75.9612ZM85.9248 74.9612V84.3674H87.9248V74.9612H85.9248ZM86.9248 85.3674H90.1123V83.3674H86.9248V85.3674ZM89.1123 84.3674V86.4534H91.1123V84.3674H89.1123ZM90.1123 85.4534H84.7373V87.4534H90.1123V85.4534ZM85.7373 86.4534V74.9612H83.7373V86.4534H85.7373Z" fill="#2C1320"/>
</g>
<defs>
<filter id="filter0_d" x="0.120117" y="73.6721" width="100.992" height="34.0703" filterUnits="userSpaceOnUse" color-interpolation-filters="sRGB">
<feFlood flood-opacity="0" result="BackgroundImageFix"/>
<feColorMatrix in="SourceAlpha" type="matrix" values="0 0 0 0 0 0 0 0 0 0 0 0 0 0 0 0 0 0 127 0" result="hardAlpha"/>
<feOffset dy="10"/>
<feGaussianBlur stdDeviation="5"/>
<feColorMatrix type="matrix" values="0 0 0 0 0 0 0 0 0 0 0 0 0 0 0 0 0 0 0.25 0"/>
<feBlend mode="normal" in2="BackgroundImageFix" result="effect1_dropShadow"/>
<feBlend mode="normal" in="SourceGraphic" in2="effect1_dropShadow" result="shape"/>
</filter>
</defs>
</svg>
