<svg width="106" height="109" viewBox="0 0 106 109" fill="none" xmlns="http://www.w3.org/2000/svg">
<path fill-rule="evenodd" clip-rule="evenodd" d="M64.3392 80.0893C73.6102 80.0893 81.7459 73.1931 77.1769 63.8262C72.6079 54.4594 89.5848 54.762 94.5717 48.2882C100.653 40.3932 98.8922 6.88022 59.8496 27.3114C53.5954 30.5842 37.5334 23.9444 32.2055 27.239C25.9341 31.117 17.1105 39.0579 25.9341 47.1922C30.2804 51.1991 14.6979 61.5989 21.5227 70.9145C28.182 80.0042 32.8501 71.3391 42.9888 73.1931C53.1275 75.0471 57.4539 80.0893 64.3392 80.0893Z" fill="#FDF0D5"/>
<path d="M53.5797 63.7932C53.5797 63.7932 55.7143 62.7891 56.5112 62.0905C57.3082 61.3919 58.2989 59.6563 58.2989 59.6563C58.2989 59.6563 69.1819 67.5159 76.278 66.3947C77.9129 66.1364 81.0987 65.0497 81.3019 63.1348C81.8566 57.9062 74.1812 56.57 75.8578 53.9185C76.8812 52.3 80.0604 54.7088 80.0604 54.7088L93.2467 61.1948C93.2467 61.1948 88.6912 72.4243 77.636 72.8743C64.0368 73.4279 53.5797 63.7932 53.5797 63.7932Z" fill="white"/>
<path fill-rule="evenodd" clip-rule="evenodd" d="M43.1242 19.8172C43.0005 19.7686 42.3358 18.9548 41.492 18.8067C41.1085 18.7394 41.4566 19.2276 41.0346 19.232C39.7777 19.2451 37.7353 19.009 37.3569 19.232C37.0757 19.3972 37.695 19.9745 37.3569 20.001C34.1669 20.251 29.3004 23.4361 28.2446 24.9813C27.9085 25.4731 30.6262 24.6388 30.1932 24.8819C29.7072 25.1547 29.1682 26.9414 28.8459 28.3214C28.6228 29.2716 28.4824 30.4945 28.4328 31.8249C28.3915 32.9735 28.408 33.1635 28.5733 33.7915C28.7633 34.4939 28.912 34.7004 29.1682 34.6013C29.2591 34.5682 29.3004 34.4443 29.3004 34.2129C29.3004 34.0311 29.3996 33.4858 29.5235 32.9982L29.7383 32.1224L29.8292 32.4859C29.9449 32.9074 30.6225 34.2129 31.234 35.1632C31.2669 35.2136 31.4088 35.1495 31.5368 34.8402C31.6534 34.5584 31.606 34.1082 31.8041 33.6256C32.2553 32.5265 33.1412 31.0975 34.1669 29.9536C35.6829 28.263 36.1859 26.3065 37.607 24.736C40.259 21.805 43.5875 19.9991 43.1242 19.8172Z" fill="white"/>
<path fill-rule="evenodd" clip-rule="evenodd" d="M30.2317 25.2803C29.8063 25.6224 29.1748 28.3972 29.1639 28.4436C28.9408 29.3938 28.7258 32.6937 28.9456 33.3185C29.1654 33.9432 29.781 31.6911 29.781 31.6911C29.781 31.6911 30.7114 34.1071 31.5335 34.7694C31.5686 34.7977 30.5563 31.7804 30.2317 30.019C29.8032 27.6938 30.4738 25.0856 30.2317 25.2803Z" fill="#E7EAEE"/>
<path fill-rule="evenodd" clip-rule="evenodd" d="M46.086 73.8767C46.8793 73.7032 48.2177 73.0989 48.7302 72.8923C49.2427 72.6856 50.8042 70.4806 51.3661 67.9934C51.771 66.159 51.9776 63.5479 51.7462 63.11C51.712 63.0478 51.5871 61.8604 51.9198 62.2482C52.6594 63.11 53.5373 64.4629 56.3073 62.0386C57.0618 61.3782 58.0618 60.5261 57.7985 59.7727C57.0618 57.6648 53.8683 53.4203 53.3815 53.0988C52.7994 52.7143 49.8572 53.041 45.4788 51.7487C40.5132 50.2831 38.4455 45.9673 36.5024 46.5291C34.9309 46.9834 31.1658 49.7754 30.2209 51.5435C25.7599 59.8905 31.1658 65.7394 32.3969 67.4193L33.5923 67.9356L33.6336 69.0015L33.6914 69.6708C33.7989 70.9516 33.8402 71.0673 34.4186 71.497C35.8646 72.5959 38.7154 73.6206 41.2935 73.9841C42.4916 74.1494 45.0945 74.0916 46.086 73.8767Z" fill="white"/>
<path fill-rule="evenodd" clip-rule="evenodd" d="M34.063 68.6119L34.1208 69.2812C34.2282 70.5619 34.2695 70.6776 34.848 71.1073C35.701 71.7556 37.043 72.3781 38.5294 72.8542C39.5626 73.1851 40.6656 73.4454 41.7228 73.5945C42.921 73.7597 45.5238 73.7019 46.5154 73.4871C47.0055 73.3809 42.974 70.2136 40.599 71.1073C38.7752 71.7936 34.4763 66.5585 36.2242 65.1908C38.1849 63.6566 34.592 57.6052 34.4763 56.2914C34.3606 54.9776 33.9051 54.6638 33.8918 54.7098C33.8785 54.7559 33.8785 54.9131 33.9142 55.2918C34.0684 56.9243 34.063 68.6119 34.063 68.6119Z" fill="#E7EAEE"/>
<path fill-rule="evenodd" clip-rule="evenodd" d="M33.6325 55.9161C33.806 55.8823 33.974 55.9956 34.0078 56.1691C34.6314 59.373 37.2693 61.5421 41.9863 62.6764C46.7313 63.8174 49.9634 63.7558 51.6664 62.5379C51.8102 62.4351 51.703 63.3155 51.5977 63.383C50.4869 64.0953 46.7105 65.1581 42.2039 64.1975C36.4418 62.9693 33.7363 58.1242 33.3796 56.2914C33.3458 56.1179 33.459 55.9499 33.6325 55.9161Z" fill="#EB5E55"/>
<path fill-rule="evenodd" clip-rule="evenodd" d="M31.229 50.1356C31.3824 50.0479 37.1055 56.607 44.9595 58.0917C52.8136 59.5764 54.7152 58.6322 55.0209 56.607C55.0472 56.4323 55.2103 56.312 55.385 56.3384C55.5598 56.3648 55.6801 56.5278 55.6537 56.7026C55.2663 59.2691 51.6321 59.8796 44.8519 58.7226C38.1569 57.5801 33.5668 54.8658 31.1102 50.5723C31.0224 50.4189 31.0756 50.2234 31.229 50.1356Z" fill="#EB5E55"/>
<path fill-rule="evenodd" clip-rule="evenodd" d="M64.1937 49.7721C63.9788 49.6977 63.7475 49.5324 63.5987 49.3424L63.3509 49.0367L64.2267 48.169C65.5736 46.8469 66.6065 45.4918 67.4989 43.8805C67.7964 43.3434 68.5483 41.5503 68.5483 41.3768C68.5483 41.319 68.6392 41.0876 68.7466 40.848C68.9119 40.5009 69.0358 40.3687 69.3912 40.1704C69.8126 39.9225 70.2918 39.8399 70.4984 39.9803C70.895 40.2448 70.895 41.0793 70.4984 42.5171C70.0605 44.0953 69.4738 45.2274 68.2591 46.8552C68.0691 47.1031 67.7138 47.5906 67.4576 47.9294C66.7718 48.8383 66.3256 49.2763 65.7224 49.6151C65.1274 49.9456 64.7804 49.9869 64.1937 49.7721ZM70.128 49.0282L70.7229 49.2926C70.8463 49.3495 72.2072 50.0034 73.8419 50.7889C76.4775 52.0553 79.8249 53.6637 79.8453 53.6637C79.8784 53.6637 80.0334 53.3052 80.0684 52.887C80.1511 51.9863 80.4568 50.7634 80.8121 49.9123C80.9774 49.5322 81.1096 49.0572 81.1096 49.0159C81.1096 48.997 80.9752 48.9428 80.7553 48.8541C80.4935 48.7485 80.1104 48.594 79.6883 48.3919C77.606 47.3921 73.5323 45.3511 73.0283 45.0454C72.5325 44.7562 72.4334 44.7314 72.4334 44.9214C72.4334 45.1693 71.9293 46.3179 71.541 46.9376C71.3344 47.2764 70.9295 47.8879 70.6403 48.2928L70.128 49.0282ZM79.7032 52.1763C79.9401 52.3136 79.5297 52.5151 79.4305 52.5481C78.8467 52.5977 78.1593 52.4879 77.5961 52.1597C77.3016 51.9509 74.983 50.6628 73.4449 49.8083C72.7418 49.4177 72.2018 49.1177 72.0929 49.0528C71.7459 48.8463 71.4153 48.6232 71.3575 48.5571C71.184 48.334 71.3492 48.2348 71.8368 48.2761C72.1299 48.301 79.1914 51.8796 79.7032 52.1763ZM46.1138 73.8088C46.7512 73.6693 47.7407 73.2518 48.3708 72.9859C48.5248 72.9209 48.6573 72.8649 48.758 72.8243C49.2705 72.6177 50.832 70.4127 51.3939 67.9255C51.7988 66.0911 52.0054 63.4799 51.774 63.042C51.6345 62.7884 52.4633 63.6393 53.0805 64.2729C53.2676 64.465 53.4352 64.6371 53.5506 64.7525C57.1533 68.3304 62.516 71.2059 68.0853 72.5528C70.8617 73.2304 72.8365 73.47 75.489 73.47C79.9428 73.47 83.4546 72.5941 86.6441 70.6688C86.7956 70.5774 86.9376 70.4933 87.0729 70.4132C88.1848 69.7549 88.8471 69.3628 90.66 67.3223C92.6934 65.0334 94.5023 59.7203 95.1055 57.8859C95.3699 57.0596 96.0144 53.773 96.0144 52.9528C96.0144 51.9818 95.6756 51.5233 95.2129 51.0523C94.3949 50.2508 93.2876 49.9616 92.3704 50.3086L91.9407 50.4739L91.8085 50.036C91.6185 49.3749 91.2218 48.8461 90.6104 48.4495C89.7014 47.8463 89.5692 47.8049 88.7512 47.8049C88.1149 47.8049 87.9414 47.838 87.5365 48.028L87.0655 48.2429L86.9664 47.9454C86.7763 47.3339 86.1389 46.4815 85.6443 46.235C85.2057 46.0163 84.4464 45.9962 83.9173 46.0945C82.7605 46.3093 81.9342 46.8464 81.5954 47.5984C81.4962 47.8297 81.3723 48.0115 81.3227 48.0115C81.2814 48.0115 79.6536 47.5569 77.7118 46.6975C77.3842 46.5521 77.0765 46.4157 76.7876 46.2877C73.3006 44.7421 72.5448 44.4071 72.6134 43.9874C72.6713 43.6321 72.6548 43.4338 72.5556 43.1281C72.3821 42.6157 72.1838 42.4753 71.6219 42.4753C71.1757 42.4753 71.1757 42.4753 71.2253 42.2522C71.4897 40.9879 71.4814 40.2608 71.2005 39.798C71.0104 39.4923 70.7873 39.3684 70.275 39.294C69.9775 39.2527 69.8371 39.2775 69.5065 39.4593C69.2834 39.5749 69.0934 39.6576 69.0769 39.641C69.0603 39.6245 69.1182 39.1701 69.2091 38.633C69.8866 34.6584 69.3632 31.234 67.6362 27.5982C67.6196 27.5634 67.6005 27.5223 67.5786 27.4752C67.0536 26.3481 64.9425 21.8157 58.905 19.5288C58.6318 19.4253 58.3732 19.3252 58.1247 19.229C56.0681 18.4329 54.7009 17.9037 51.4022 17.9092C47.7049 17.9154 46.4526 18.4381 44.015 19.5536C43.6762 19.7106 43.3788 19.8015 43.354 19.7684C43.3292 19.7271 43.1722 19.6279 43.0152 19.5453C42.8582 19.4627 42.5194 19.2561 42.2715 19.0908C41.5609 18.6116 41.1229 18.4133 40.8998 18.4628C40.6437 18.529 40.6437 18.7438 40.8998 18.8429C41.0073 18.8843 41.1312 19.0247 41.1808 19.1652C41.2882 19.4627 41.4121 19.4957 41.4865 19.2478C41.5196 19.1569 41.5691 19.0908 41.5939 19.1074C41.6033 19.1121 41.6348 19.1268 41.6827 19.1492L41.6828 19.1493L41.6828 19.1493L41.683 19.1493C41.8038 19.2059 42.0292 19.3114 42.2715 19.4296C42.6103 19.5949 42.9821 19.7684 43.0813 19.8097C43.2631 19.8758 43.2052 19.9254 42.4202 20.3881C39.3546 22.1895 36.8592 24.9907 35.4627 28.1802C35.2479 28.6595 35.0579 28.9569 34.8595 29.1222C34.3555 29.5436 33.3639 30.7417 33.1326 31.2127C33.0086 31.4689 32.7442 31.8655 32.5376 32.0969C32.3393 32.3282 32.1245 32.6257 32.0501 32.7497C31.984 32.8819 31.9179 32.9728 31.8931 32.9562C31.8766 32.9314 31.9014 32.5266 31.9592 32.0556C32.0832 30.9566 32.0832 30.6674 31.984 30.6426C31.8353 30.6013 31.6204 31.1797 31.5295 31.8986C31.4634 32.3365 31.4469 32.9976 31.4882 33.6751L31.5378 34.7493L30.9511 33.7991C30.749 33.4808 30.55 33.1625 30.4089 32.9368C30.3192 32.7933 30.2529 32.6872 30.224 32.6422C30.0091 32.3282 29.8852 31.8573 29.9761 31.7003C30.0257 31.6094 30.0174 31.568 29.9348 31.568C29.7612 31.568 29.4225 32.1217 29.1994 32.7579C29.0919 33.0554 28.9845 33.3033 28.9515 33.3033C28.8275 33.3033 28.8854 30.3451 29.0176 29.3949C29.2902 27.5192 30.0091 25.2055 30.3314 25.2055C30.3975 25.2055 30.4553 25.1724 30.4553 25.1229C30.4553 24.9741 30.2405 25.032 30.067 25.222C29.6786 25.6434 29.1663 26.9407 28.844 28.3207C28.6209 29.2709 28.4805 30.4938 28.4309 31.8242C28.3896 32.9728 28.4061 33.1628 28.5714 33.7908C28.7614 34.4932 28.9101 34.6997 29.1663 34.6006C29.2572 34.5675 29.2985 34.4436 29.2985 34.2122C29.2985 34.0304 29.3977 33.4851 29.5216 32.9976L29.7364 32.1217L29.8273 32.4852C29.943 32.9067 30.6206 34.2122 31.2321 35.1625C31.6535 35.807 31.6617 35.8483 31.8022 36.8564C31.8766 37.4265 32.1079 38.8133 32.645 40.9466C33.1196 42.8315 35.7875 44.7013 36.4536 45.1681C36.5414 45.2297 36.5944 45.2668 36.603 45.2764C36.6857 45.3673 36.8014 45.4169 36.8675 45.3921C36.9418 45.3673 36.9831 45.4004 36.9831 45.4913C36.9831 45.5739 37.041 45.6813 37.1071 45.7309C37.1897 45.7888 37.2476 46.0119 37.2641 46.4002C37.3054 47.177 37.8838 48.6643 38.33 49.1518C38.6192 49.4658 39.2224 49.598 39.8917 49.4823C40.3297 49.4162 40.4536 49.3667 40.4123 49.2675C40.3875 49.2014 40.5445 49.284 40.7594 49.4493C43.2713 51.3663 45.8164 52.5149 48.6754 53.0107C49.7826 53.2007 51.617 53.3081 52.6168 53.2338C53.2579 53.1918 53.4342 53.1803 53.4669 53.2433C53.4793 53.2672 53.471 53.3017 53.4597 53.3494C53.4018 53.5808 53.4762 53.7213 54.6909 55.7788C55.6577 57.4066 55.7403 57.514 56.8145 58.613C59.0951 60.968 61.5823 62.7941 64.4 64.2071C67.0524 65.5292 71.2872 66.6282 75.1585 66.9752C79.0297 67.3223 81.8102 63.7692 81.802 62.8602C81.7854 61.6125 81.6119 60.7945 81.1905 60.0012C80.7773 59.2327 80.5047 58.9683 79.2652 58.142C77.8853 57.2248 77.0342 56.4729 76.4723 55.6714C76.117 55.1673 75.9848 54.5972 75.9848 54.2914C75.9848 54.0931 76.2409 53.6469 76.621 53.556C76.9681 53.4651 77.0342 53.4734 77.4225 53.6634C77.6539 53.7709 78.2571 54.0518 78.7529 54.2914C79.2569 54.5228 79.7445 54.7542 79.8436 54.8037C80.1359 54.885 80.2595 55.4572 80.3265 55.7673C80.3415 55.8366 80.3536 55.8928 80.3642 55.9275C80.4799 56.3572 81.0273 56.912 81.3805 57.1009C82.0008 57.4326 83.5291 57.4769 83.9505 57.0225C84.0579 56.9068 84.4141 56.7645 84.4875 56.8076C84.5608 56.8507 84.8262 57.2083 84.8262 57.4975C84.8345 57.9933 85.0907 58.4478 85.636 58.9022C86.6689 59.7616 87.4704 59.9682 88.2802 59.5881C88.7016 59.3897 89.047 59.3123 89.047 59.3123C89.047 59.3123 89.3915 59.7518 89.4122 59.9021C89.5745 61.0761 91.3127 61.5682 91.7754 61.6178C91.8815 61.6284 92.0878 61.5831 92.2974 61.537L92.2975 61.537C92.5778 61.4754 92.8639 61.4125 92.924 61.4803C93.0421 61.6135 90.9492 65.0747 90.66 65.5127C87.9084 69.6442 82.5539 72.1727 76.0013 72.4371C71.7458 72.6106 66.5153 71.4207 61.9789 69.2558C59.0786 67.8594 56.5087 66.1489 53.7572 63.7526C53.2779 63.3395 52.7243 62.8685 52.526 62.7032C52.3276 62.5462 51.8566 62.0091 51.4931 61.5133C50.8816 60.687 50.5346 60.3896 50.5346 60.6705C50.5346 60.7945 50.9312 61.5547 51.3857 62.3066C51.5674 62.6041 51.6831 62.8106 51.6418 62.7776C51.6005 62.7445 51.4683 63.3395 51.3443 64.0997C50.9394 66.5373 50.2701 68.9418 49.5926 70.4374C49.2207 71.2472 48.5078 71.8519 48.2929 72.0172C47.4997 72.6204 46.3121 72.8916 44.6678 73.0568C42.5855 73.2634 39.5199 72.8007 37.1815 71.9248C36.5617 71.6934 34.967 71.0241 34.8595 70.9497C34.8531 70.9433 34.8165 70.7056 34.7654 70.3739L34.7191 70.0739C34.4216 68.0329 34.0084 60.1747 34.0084 56.539C34.0084 55.0351 33.9919 54.7046 33.8928 54.7046C33.6862 54.7046 33.6036 54.9029 33.5127 55.6135C33.3061 57.2331 33.3474 65.6862 33.5705 67.4627L33.6201 67.8676L33.3391 67.7106C32.9095 67.4627 31.2734 65.8019 30.7032 65.0334C30.2205 64.3764 29.9337 63.535 29.719 62.9055C29.6691 62.7591 29.6231 62.6242 29.5795 62.5057C28.3813 59.1839 28.8027 55.4565 30.4553 52.1017C31.8601 49.2427 33.587 47.6562 36.1155 46.8877C36.5287 46.7638 36.8923 46.6316 36.9336 46.5985C37.0906 46.4498 36.0825 46.5242 35.5289 46.6977C33.7275 47.2513 31.8435 48.7635 30.5628 50.697C28.7614 53.4073 27.9516 57.4066 28.5218 60.8192C28.654 61.629 29.1911 63.3808 29.3398 63.5047C29.353 63.5179 29.421 63.6605 29.5237 63.8761C29.8079 64.4723 30.3584 65.627 30.7528 66.1489C31.2321 66.8017 32.6781 68.2229 33.2813 68.6609L33.6614 68.9336L33.7192 69.6029C33.8267 70.8836 33.868 70.9993 34.4464 71.429C35.8924 72.528 38.7432 73.5526 41.3213 73.9162C42.5194 74.0814 45.1223 74.0236 46.1138 73.8088ZM74.0441 66.0496C69.2433 65.6282 63.4426 63.3392 59.245 59.8026C57.4767 58.307 55.1796 55.3986 54.2706 53.7873C54.0806 53.4567 53.9401 53.2997 53.7748 53.2584C53.6013 53.2088 53.7501 53.1593 54.4607 53.0436C57.4602 52.5313 60.377 51.2836 62.732 49.507L63.079 49.2508L63.1782 49.4905C63.4013 50.0276 64.2607 50.5729 64.8969 50.5729C65.1531 50.5729 66.0124 50.1846 66.533 49.8293L66.8883 49.5896L67.1775 49.8788C67.4419 50.1432 67.4915 50.1598 67.9873 50.1598C68.5575 50.1598 69.2433 49.9036 69.6234 49.54L69.83 49.35L70.4166 49.7384C70.7306 49.9615 71.6065 50.449 72.3585 50.8373C73.4822 51.4158 74.6721 52.0851 75.8042 52.7792L75.9859 52.8948L75.8124 53.1262C75.6306 53.3741 75.292 53.8451 75.292 54.564C75.292 55.3738 76.134 56.8287 77.746 57.8279C79.0123 58.6129 81.1917 60.157 81.109 62.4139C81.0991 62.6865 80.795 63.3641 80.3902 63.9756C80.1257 64.364 79.3903 64.9424 78.721 65.2812C77.5807 65.8513 75.5728 66.1819 74.0441 66.0496ZM29.9862 28.9572C30.2093 29.0068 30.3581 29.0811 30.325 29.1142C30.2176 29.2216 29.6474 29.172 29.5152 29.0398C29.3087 28.8415 29.3582 28.701 29.6474 28.6432C29.7962 28.6184 30.0193 28.4945 30.1432 28.3705C30.2672 28.2466 30.3746 28.1887 30.3746 28.2301C30.3746 28.3375 29.9614 28.7176 29.7549 28.8002C29.6227 28.858 29.664 28.8828 29.9862 28.9572ZM33.2724 29.089C33.512 28.9568 33.4624 28.8659 33.1815 28.9072C32.9005 28.9485 32.884 28.9155 33.0658 28.6345C33.1402 28.5271 33.1815 28.3701 33.165 28.2875C33.1402 28.18 33.0823 28.2296 32.9501 28.4941C32.851 28.6841 32.7105 28.8411 32.6444 28.8411C32.4378 28.8411 32.4213 29.0064 32.6196 29.0807C32.8758 29.1882 33.0741 29.1882 33.2724 29.089ZM30.4149 24.5778C30.2166 24.6109 29.5968 24.8588 29.0515 25.1315C28.4978 25.3959 28.0268 25.619 27.9938 25.6107C27.151 25.5198 28.3243 24.1151 30.4562 22.6773C32.4972 21.2974 33.8771 20.5703 35.1579 20.1984C35.9594 19.9671 36.86 19.934 37.1162 20.1241C37.2567 20.2315 37.2071 20.2397 36.5956 20.248C35.2735 20.248 33.7449 20.9256 31.2577 22.5864C29.9687 23.4458 28.4731 24.677 28.4731 24.8753C28.4731 24.9166 28.7127 24.834 29.0101 24.7018C29.6464 24.4126 30.2992 24.2638 30.5884 24.3299C30.8941 24.4126 30.828 24.52 30.4149 24.5778ZM33.6118 25.2885C34.3886 25.1315 34.4216 25.1233 34.4216 25.0406C34.4216 24.9993 34.1242 24.958 33.7523 24.9415L33.083 24.9167L33.7027 24.2143C34.0415 23.826 34.4382 23.4376 34.5786 23.3467C34.8844 23.1484 34.9009 23.0079 34.653 22.9253L34.4629 22.8674L34.6695 22.7931C34.7852 22.7518 35 22.7352 35.1488 22.76C35.3719 22.7931 35.4215 22.7765 35.3967 22.6609C35.3719 22.5452 35.281 22.5204 34.8761 22.5287C33.6945 22.5452 33.1904 22.8592 34.1159 23.0079C34.372 23.0492 34.5869 23.1153 34.5869 23.1566C34.5869 23.1897 34.5456 23.2227 34.496 23.2227C34.339 23.2227 33.0086 24.5696 32.8434 24.9002C32.5872 25.3877 32.7277 25.462 33.6118 25.2885ZM39.0662 22.0825C38.8266 22.099 38.7687 22.1403 38.7852 22.256L38.7878 22.2728L38.7878 22.2728C38.7971 22.334 38.8024 22.3691 38.7887 22.3797C38.7702 22.3941 38.717 22.364 38.5921 22.2931L38.5704 22.2808C38.4134 22.1982 38.3969 22.1569 38.4878 22.0907C38.5456 22.0412 38.7026 21.9668 38.8266 21.942L39.0579 21.8842L38.8844 21.7024C38.7935 21.595 38.7439 21.4958 38.7687 21.4628C38.8348 21.3966 39.6446 21.4875 39.7603 21.5784C39.8099 21.6198 39.8842 21.6115 39.9338 21.5619C40.0495 21.4462 40.2065 21.5371 40.2065 21.7189C40.2065 21.8181 40.1817 21.8263 40.1073 21.752C40.0412 21.6859 39.9834 21.6859 39.909 21.7437C39.8429 21.8015 39.7933 21.8015 39.752 21.7354C39.7272 21.6941 39.5702 21.6528 39.405 21.6528C39.2525 21.6528 39.1804 21.6528 39.1657 21.6819C39.1525 21.7079 39.1855 21.7574 39.248 21.8511C39.3798 22.0571 39.372 22.0577 39.069 22.0823L39.0662 22.0825ZM37.8103 19.8847C37.8103 19.7773 37.7112 19.5872 37.5872 19.4633L37.3558 19.2319L38.5953 19.2815C39.2811 19.3146 40.0579 19.3889 40.3305 19.4633C40.6032 19.5294 40.9172 19.579 41.0329 19.579C41.2064 19.579 41.1734 19.5459 40.8511 19.3724C40.2892 19.0832 39.5703 18.9427 38.1904 18.8436C36.5378 18.7279 35.7032 18.8849 35.8602 19.298C35.885 19.3807 36.0172 19.422 36.2155 19.422C36.6204 19.422 37.2815 19.6616 37.5046 19.8847C37.7442 20.1243 37.8103 20.1243 37.8103 19.8847ZM33.7784 41.7646C34.4477 42.6239 35.3319 43.599 35.745 43.9295C35.9929 44.1278 36.2077 44.2931 36.2243 44.2931C36.2325 44.2931 36.0508 43.913 35.8194 43.4502C34.8857 41.5911 34.3403 39.7401 34.0841 37.6083C34.0263 37.1373 33.9354 36.7406 33.8363 36.5754C33.6379 36.2449 33.6379 35.8152 33.8445 35.4103C33.9519 35.1954 34.0098 34.9228 34.0098 34.6253V34.1708L33.6131 34.584C33.2248 34.9889 32.8529 35.1541 32.8529 34.9062C32.8529 34.7245 33.4644 33.8486 33.7867 33.5759C34.0428 33.361 34.0759 33.2867 34.1585 32.6422C34.2164 32.2538 34.3486 31.568 34.456 31.1135C34.5717 30.659 34.6378 30.2707 34.6212 30.2541C34.5634 30.1963 32.6216 32.4265 32.3572 33.1379C32.2991 33.2942 32.1423 33.5676 32.0184 33.7329L31.8035 34.0087C31.8035 34.0087 31.8703 34.395 31.944 34.8804C32.0185 35.3709 32.0535 35.708 32.0846 36.0083C32.1262 36.41 32.1611 36.7458 32.2745 37.2943C32.4067 37.9718 32.539 38.5585 32.572 38.5998C32.5968 38.6494 32.7042 39.0295 32.8116 39.4509C33.043 40.3846 33.4314 41.3101 33.7784 41.7646ZM67.3087 49.5815L67.1352 49.408C67.1352 49.408 70.0152 45.7489 70.5313 44.4006C70.9251 43.3717 71.1569 43.0799 71.4696 43.0799C71.6445 43.0799 71.7873 43.1198 71.8534 43.219C71.9691 43.3925 72.0805 43.6073 71.9318 44.3427C71.6839 45.5326 71.3038 46.3176 70.1635 48.0116C69.8991 48.3999 69.5603 48.8296 69.4116 48.9783C69.0645 49.3006 68.2838 49.6311 67.8293 49.7055C67.5401 49.7468 67.4575 49.7303 67.3087 49.5815Z" fill="#2C1320"/>
<path d="M90.1893 57.6654C91.2173 54.8645 91.0617 54.2677 90.8834 54.2093C90.8834 54.2093 90.4908 54.4324 90.3173 54.9034C89.995 55.7876 88.892 58.1012 88.4788 58.5144C87.9913 59.0019 87.9913 59.0019 87.4955 59.0019C86.9997 59.0019 85.5699 58.2553 85.3752 57.5193C85.0637 56.3418 86.4048 52.251 86.4378 52.0196L86.2147 51.8626C86.066 52.0031 84.1313 57.8699 81.5874 56.3412C81.2961 56.1662 80.6785 55.3414 80.6289 54.9034C80.3536 53.6309 81.6169 49.1813 81.8318 48.2673C82.0241 47.4492 83.0252 46.6899 84.2564 46.6899C86.1486 46.6899 85.8945 48.344 86.742 48.9268C87.1177 49.1851 87.7349 48.7169 87.9252 48.6813C88.9911 48.483 89.3996 48.7139 90.181 49.3341C90.7842 49.8128 91.2305 50.7603 91.7217 51.0942C91.9946 51.2796 92.2841 51.0261 92.379 50.9785C92.7677 50.7833 93.6019 50.9289 93.8333 51.0942C94.1725 51.242 95.0036 52.041 95.1349 52.5057C95.73 54.6118 93.8508 59.281 93.1414 60.1569C91.9671 61.6067 89.1613 60.4663 90.1893 57.6654Z" fill="white"/>
<path fill-rule="evenodd" clip-rule="evenodd" d="M42.6841 49.9903C44.9482 51.4198 47.2827 52.3535 49.9434 52.6097C52.0422 52.808 54.8721 52.5353 56.9048 51.8743C58.6153 51.3207 60.9289 49.787 62.4741 48.4897C65.4736 45.9777 67.3658 42.054 68.1921 37.8895C68.3078 37.3028 68.4843 35.828 68.476 34.3655C68.476 32.6633 67.7269 28.0117 65.4571 25.3296C60.7756 19.7978 53.0803 17.3059 46.613 19.4351C44.28 20.2031 41.7961 21.5947 39.9204 23.4126C37.5571 25.718 35.8136 28.8579 35.1195 32.064C34.3924 35.4518 35.3383 39.5007 36.9826 42.8225C38.2964 45.4667 40.4614 48.5773 42.6841 49.9903ZM64.7448 40.0046C63.1913 44.6733 59.1424 48.1603 54.0524 49.2179C53.2757 49.3749 52.7386 49.4328 51.6478 49.4493C50.8794 49.4741 50.1109 49.4658 49.9539 49.4493C46.3925 49.0196 43.6822 47.7058 41.1868 45.2104C40.0961 44.1114 39.6333 43.5164 38.9558 42.3431C37.8898 40.4839 37.3197 38.5834 37.1462 36.2945C36.5512 28.4529 42.1618 21.9168 50.0613 21.2392C53.16 20.9748 56.5974 21.9251 59.2085 23.776C60.1753 24.4618 61.9271 26.1971 62.4724 27.0068C62.6955 27.3291 64.8605 30.4938 65.2406 32.3117C65.7281 34.675 65.538 37.6331 64.7448 40.0046Z" fill="white"/>
<path fill-rule="evenodd" clip-rule="evenodd" d="M68.4793 34.3659C68.4793 39.9122 65.8558 45.9757 62.47 48.5652C60.8546 49.8007 58.7435 51.2967 56.9052 51.8747C54.2111 52.7217 49.9438 52.6101 49.9438 52.6101C49.9438 52.6101 54.2973 52.0281 55.9106 51.3789C60.537 49.517 63.0624 46.659 64.6219 43.9168C67.7001 38.5038 68.4793 34.2312 68.4793 34.3659Z" fill="#E7EAEE"/>
<path fill-rule="evenodd" clip-rule="evenodd" d="M50.0398 48.4576C47.8336 48.1767 45.6439 47.3917 43.8756 46.2266C42.8262 45.5408 41.2397 43.9295 40.4712 42.7809C39.3722 41.1283 38.6451 39.36 38.2898 37.4595C38.0336 36.0796 38.0419 33.956 38.298 32.7248C38.5625 31.4688 38.9012 30.5103 39.5044 29.2956C40.2068 27.8909 40.9505 26.858 42.066 25.7425C43.9665 23.842 46.1727 22.6356 48.8004 22.0572C49.6515 21.8754 52.7336 21.7267 52.841 21.8671C52.8658 21.9084 53.0311 22.0159 53.2046 22.1068C53.3781 22.2059 53.8408 22.553 54.2209 22.8917C54.7911 23.3875 55.0472 23.7015 55.543 24.4783C55.8818 25.0071 56.1545 25.4863 56.1545 25.5277C56.1545 25.6186 56.4189 25.7838 56.5676 25.7838C56.7742 25.7838 56.9147 25.1641 56.956 24.0734C56.9808 23.4702 57.0304 22.9744 57.0634 22.9744C57.1791 22.9744 58.4516 23.6767 59.0466 24.0734C60.2117 24.8501 61.3767 25.9408 62.2361 27.0811C62.6245 27.5934 62.6823 27.7256 62.6823 28.0396C62.6823 28.3288 62.7649 28.5519 63.0211 28.9981C63.6656 30.1219 64.1697 31.5349 64.4754 33.0966C64.6737 34.146 64.6737 36.1292 64.4671 37.2281C63.9052 40.2524 62.2361 43.2602 60.0629 45.1689C58.2203 46.7802 56.2619 47.7718 53.9483 48.2593C53.155 48.4328 50.7752 48.5485 50.0398 48.4576ZM44.1314 42.8058C44.2058 42.7232 44.2554 42.5992 44.2306 42.5414C44.2231 42.524 44.1197 42.4754 43.9682 42.4042C43.6152 42.2382 43.0014 41.9497 42.7354 41.649C41.6777 40.4426 41.2894 39.5419 41.0497 37.6827C40.8184 35.8731 41.0128 34.6497 41.4299 32.6836C41.6333 31.7244 42.1741 30.9322 42.5106 30.4393L42.5106 30.4393C42.7393 30.1041 42.8736 29.9074 42.7432 29.8907C42.421 29.8411 42.3714 29.8659 42.0326 30.1881C41.3054 30.8822 40.9749 31.4359 40.6279 32.5018C40.0908 34.1709 39.987 38.6817 41.0497 40.7153C42.1125 42.7488 43.9414 43.0206 44.1314 42.8058ZM55.8833 35.8652C55.743 37.1488 55.1479 39.0051 54.4538 39.8149C54.1315 40.195 52.9486 40.8478 51.9501 40.7156C50.9856 40.5879 50.2314 40.1372 49.5869 39.1704C49.0333 38.3358 48.7473 37.3228 48.554 36.0469C48.2202 33.8438 49.6778 31.2792 50.3058 30.6429C50.942 29.9901 51.3965 29.7588 51.9749 29.7505C52.5368 29.7505 52.9004 29.8744 53.4705 30.2793C54.5117 31.0065 56.156 33.3708 55.8833 35.8652ZM44.7449 29.0308C44.9102 28.8407 44.935 28.7498 44.8854 28.3945C44.8523 28.064 44.7862 27.9318 44.6127 27.7913C44.307 27.5434 43.9269 27.5434 43.6459 27.8078C43.4476 27.9979 43.4228 28.064 43.4476 28.5185C43.4724 29.006 43.4889 29.039 43.7616 29.1878C44.1252 29.3861 44.4805 29.3282 44.7449 29.0308ZM49.9002 23.9332C48.4129 24.9991 47.7683 25.437 47.099 25.8502C46.5702 26.1807 46.4049 26.189 46.4049 25.8915C46.4049 25.7345 46.5206 25.561 46.8181 25.2883L47.2312 24.9082L46.4297 24.8008C45.5291 24.6851 44.6532 24.4372 44.4631 24.2472C44.1491 23.9249 44.4218 23.8505 45.3142 24.0158C45.7108 24.0819 46.4793 24.1645 47.0247 24.181L48.0162 24.2224L48.7351 23.7018C50.3134 22.5615 51.9494 21.917 52.7344 22.1153C53.2219 22.231 53.1641 22.3632 52.6105 22.4293C51.9742 22.5036 51.5859 22.7185 49.9002 23.9332Z" fill="white"/>
<path d="M52.0212 39.5836C52.0212 39.5423 52.0708 39.501 52.1369 39.501C52.203 39.501 52.2856 39.5423 52.3104 39.5836C52.3352 39.6332 52.2856 39.6662 52.1947 39.6662C52.0955 39.6662 52.0212 39.6332 52.0212 39.5836Z" fill="white"/>
<path d="M52.5189 39.5095C52.5189 39.4186 52.7255 39.3359 52.9569 39.3359C53.1387 39.3442 53.1387 39.3442 52.9817 39.4599C52.7999 39.6003 52.5189 39.6251 52.5189 39.5095Z" fill="white"/>
<path d="M51.239 39.2942C51.2142 39.2281 51.1811 39.1124 51.1563 39.0463C51.1315 38.9637 51.1728 38.9224 51.2803 38.9224C51.3712 38.9224 51.4455 38.9719 51.4455 39.038C51.4455 39.1042 51.4703 39.2116 51.4951 39.2859C51.5281 39.3768 51.5034 39.4182 51.4125 39.4182C51.3381 39.4182 51.2555 39.3603 51.239 39.2942Z" fill="white"/>
<path d="M51.6744 39.0878C51.6331 38.84 51.724 38.7573 52.0214 38.7573C52.1123 38.7573 52.1867 38.84 52.2198 38.9804C52.2859 39.2201 52.1784 39.3357 51.8892 39.3357C51.757 39.3357 51.6992 39.2779 51.6744 39.0878Z" fill="white"/>
<path d="M50.8338 39.1288C50.6768 39.0049 50.6768 39.0049 50.8503 39.0049C50.9577 39.0049 51.0321 39.0545 51.0321 39.1288C51.0321 39.2776 51.0321 39.2776 50.8338 39.1288Z" fill="white"/>
<path d="M52.4953 39.1208C52.3879 39.0134 52.4375 38.6911 52.5697 38.6415C52.8093 38.5506 52.9167 38.5919 52.9663 38.8068C52.9993 38.9307 53.0159 39.0381 52.9993 39.0464C52.9332 39.1208 52.5449 39.1704 52.4953 39.1208Z" fill="white"/>
<path d="M53.2298 38.9475C53.205 38.9227 53.1802 38.8153 53.1802 38.7161C53.1802 38.5756 53.2463 38.5178 53.4446 38.4765C53.6182 38.4434 53.7256 38.46 53.7752 38.5261C53.8578 38.6583 53.8578 38.8235 53.7834 38.8649C53.6347 38.9475 53.2877 38.9971 53.2298 38.9475Z" fill="white"/>
<path d="M50.4514 38.6909C50.4514 38.5917 50.5257 38.5091 50.6331 38.4843C50.848 38.4265 50.8397 38.4182 50.881 38.6331C50.8976 38.757 50.8563 38.8066 50.6827 38.8231C50.5009 38.8479 50.4514 38.8148 50.4514 38.6909Z" fill="white"/>
<path d="M51.0805 38.6991C50.9649 38.5751 51.0392 38.3438 51.1962 38.3438C51.3037 38.3438 51.3615 38.4016 51.3615 38.5008C51.3615 38.6578 51.1714 38.79 51.0805 38.6991Z" fill="white"/>
<path d="M51.5758 38.4509C51.5096 38.2939 51.6501 38.1782 51.9228 38.1782C52.0467 38.1782 52.1046 38.2278 52.1046 38.3352C52.1046 38.4261 52.0302 38.5088 51.9228 38.5418C51.6501 38.6079 51.6336 38.6079 51.5758 38.4509Z" fill="white"/>
<path d="M53.9636 38.4264C53.9884 38.3851 54.0297 38.3438 54.0545 38.3438C54.0793 38.3438 54.071 38.3851 54.0462 38.4264C54.0214 38.476 53.9801 38.509 53.9553 38.509C53.9305 38.509 53.9388 38.476 53.9636 38.4264Z" fill="white"/>
<path d="M52.3206 38.2864C52.2545 38.1211 52.3371 38.0385 52.6015 37.9972C52.7503 37.9806 52.8164 38.0137 52.8329 38.1294C52.8907 38.402 52.4197 38.5508 52.3206 38.2864Z" fill="white"/>
<path d="M50.337 38.1461C50.2627 37.8734 50.2792 37.8486 50.494 37.8486C50.6097 37.8486 50.7006 37.8817 50.7006 37.923C50.7006 37.9643 50.7254 38.0552 50.7502 38.1213C50.775 38.204 50.7254 38.2535 50.5849 38.2783C50.4279 38.3114 50.3701 38.2783 50.337 38.1461Z" fill="white"/>
<path d="M53.0967 38.0549C53.0967 37.9062 53.1546 37.8401 53.3116 37.7988C53.5429 37.7409 53.6752 37.8566 53.6752 38.121C53.6752 38.2284 53.609 38.2615 53.3859 38.2615C53.1298 38.2615 53.0967 38.2367 53.0967 38.0549Z" fill="white"/>
<path d="M50.0897 38.0551C50.0649 37.989 50.0814 37.9312 50.1227 37.9312C50.1723 37.9312 50.2053 37.989 50.2053 38.0551C50.2053 38.1212 50.1888 38.179 50.1723 38.179C50.1558 38.179 50.1227 38.1212 50.0897 38.0551Z" fill="white"/>
<path d="M50.9229 38.1211C50.8072 38.0137 50.8733 37.7824 51.022 37.741C51.1129 37.7163 51.2038 37.7245 51.2286 37.7493C51.3278 37.8402 51.2699 38.0798 51.146 38.1294C50.989 38.1872 50.989 38.1872 50.9229 38.1211Z" fill="white"/>
<path d="M53.872 38.0627C53.7811 37.8231 53.8803 37.6413 54.1116 37.6165C54.2852 37.5917 54.3347 37.6248 54.3347 37.757C54.3347 38.0296 54.2438 38.1784 54.0786 38.1784C53.9877 38.1784 53.8968 38.1288 53.872 38.0627Z" fill="white"/>
<path d="M51.5025 37.9554C51.4033 37.8645 51.4364 37.6993 51.5768 37.6497C51.7338 37.5918 52.0644 37.7571 51.9735 37.848C51.8578 37.9472 51.5603 38.0216 51.5025 37.9554Z" fill="white"/>
<path d="M52.2195 37.749C52.1451 37.6334 52.4095 37.4351 52.6244 37.4351C52.7235 37.4351 52.7649 37.4846 52.7483 37.5755C52.7153 37.7408 52.2938 37.873 52.2195 37.749Z" fill="white"/>
<path d="M49.9562 37.6913C49.9562 37.65 49.9315 37.5591 49.9067 37.4847C49.8819 37.4104 49.8901 37.3525 49.9397 37.3525C50.0471 37.3525 50.1298 37.6665 50.0306 37.7326C49.9893 37.7574 49.9562 37.7409 49.9562 37.6913Z" fill="white"/>
<path d="M50.1796 37.501C50.13 37.3192 50.2292 37.187 50.4192 37.187C50.5267 37.187 50.6341 37.5093 50.568 37.6167C50.4771 37.7572 50.2209 37.6745 50.1796 37.501Z" fill="white"/>
<path d="M50.7595 37.5427C50.6355 37.4188 50.7099 37.1213 50.8751 37.08C50.9991 37.047 51.0652 37.0883 51.1313 37.237C51.1809 37.3444 51.2057 37.4518 51.1891 37.4684C51.1065 37.5427 50.809 37.6006 50.7595 37.5427Z" fill="white"/>
<path d="M52.9894 37.543C52.8819 37.4356 52.9315 37.3695 53.1794 37.2786C53.386 37.2125 53.4438 37.2207 53.4851 37.3199C53.5595 37.5182 53.1464 37.7082 52.9894 37.543Z" fill="white"/>
<path d="M53.716 37.3524C53.6334 37.2202 53.7491 37.1045 53.9639 37.1045C54.2201 37.1045 54.2944 37.3193 54.0631 37.3854C53.8152 37.4516 53.7738 37.4433 53.716 37.3524Z" fill="white"/>
<path d="M54.4194 37.1545C54.4194 37.0305 54.5682 36.8983 54.6343 36.9644C54.6921 37.0223 54.5764 37.2701 54.4938 37.2701C54.4525 37.2701 54.4194 37.2206 54.4194 37.1545Z" fill="white"/>
<path d="M49.8489 37.0464C49.8159 37.0216 49.7911 36.9142 49.7993 36.8233C49.7993 36.6663 49.8076 36.6663 49.882 36.8481C49.9646 37.0464 49.9481 37.1456 49.8489 37.0464Z" fill="white"/>
<path d="M50.0077 36.9224C49.9333 36.6332 49.9416 36.6084 50.1564 36.6084C50.3961 36.6084 50.5448 36.9141 50.363 37.0298C50.173 37.1455 50.0655 37.1125 50.0077 36.9224Z" fill="white"/>
<path d="M52.8496 37.0886C52.8496 37.0638 52.8909 36.9316 52.9405 36.7828C53.0562 36.4523 53.3123 36.4358 53.3702 36.758C53.395 36.882 53.4032 36.9894 53.395 36.9977C53.3536 37.0472 52.8496 37.1216 52.8496 37.0886Z" fill="white"/>
<path d="M50.5927 36.8814C50.5596 36.8566 50.5349 36.7575 50.5349 36.6666C50.5349 36.5344 50.5596 36.5261 50.6588 36.6087C50.7249 36.6666 50.7827 36.7657 50.7827 36.8236C50.7827 36.9475 50.6836 36.9806 50.5927 36.8814Z" fill="white"/>
<path d="M53.5692 36.7159C53.5196 36.4597 53.6271 36.344 53.8832 36.3771C54.0072 36.3936 54.0485 36.468 54.0485 36.6498C54.0485 36.8564 54.0154 36.9059 53.8336 36.9225C53.6518 36.9473 53.6105 36.9059 53.5692 36.7159Z" fill="white"/>
<path d="M54.3788 36.7494C54.2714 36.4189 54.3044 36.3197 54.5275 36.2949C54.7258 36.2701 54.7506 36.2949 54.7506 36.5097C54.7506 36.6915 54.701 36.7659 54.5771 36.7989C54.4862 36.8237 54.3953 36.7989 54.3788 36.7494Z" fill="white"/>
<path d="M49.7266 36.2788C49.7266 36.1218 49.7431 36.0557 49.7679 36.1383C49.7844 36.2127 49.7844 36.3449 49.7679 36.4275C49.7431 36.5019 49.7266 36.4358 49.7266 36.2788Z" fill="white"/>
<path d="M49.9334 36.3856C49.826 36.2864 49.8756 35.9641 50.0078 35.9146C50.1978 35.8402 50.2887 35.9311 50.2887 36.2038C50.2887 36.3773 50.2474 36.4434 50.14 36.4434C50.0574 36.4434 49.9582 36.4186 49.9334 36.3856Z" fill="white"/>
<path d="M50.4277 36.163C50.3946 36.0391 50.3781 35.9069 50.4111 35.8821C50.4938 35.7995 50.5433 35.9317 50.5186 36.1713L50.4938 36.4026L50.4277 36.163Z" fill="white"/>
<path d="M53.0967 36.105C53.0967 36.0141 53.1381 35.9645 53.1794 35.9893C53.2289 36.0141 53.262 36.0967 53.262 36.1628C53.262 36.2289 53.2289 36.2785 53.1794 36.2785C53.1381 36.2785 53.0967 36.2041 53.0967 36.105Z" fill="white"/>
<path d="M53.4692 36.2122C53.3535 36.0882 53.4444 35.8651 53.6344 35.8155C53.8741 35.7577 53.8823 35.7577 53.9567 35.9973C54.0063 36.146 53.9732 36.1791 53.7584 36.2122C53.6262 36.2369 53.4939 36.2287 53.4692 36.2122Z" fill="white"/>
<path d="M54.2287 36.0548C54.1378 35.9721 54.1626 35.6995 54.2535 35.6995C54.3031 35.6995 54.3361 35.6664 54.3361 35.6168C54.3361 35.5755 54.2865 35.5342 54.2204 35.5342C54.08 35.5342 53.9643 35.1293 54.08 35.0136C54.2287 34.8649 54.394 35.0219 54.4931 35.4268C54.551 35.6416 54.6088 35.8895 54.6336 35.9721C54.6667 36.0796 54.6336 36.1126 54.4766 36.1126C54.3692 36.1126 54.2535 36.0878 54.2287 36.0548Z" fill="white"/>
<path d="M54.6747 35.6173C54.6169 35.3694 54.4682 34.8736 54.3607 34.5101C54.1955 33.9812 54.179 33.849 54.2698 33.7912C54.3277 33.7498 54.4021 33.7168 54.4268 33.7168C54.5177 33.7168 54.8483 35.4107 54.8152 35.7413L54.7904 36.0718L54.6747 35.6173Z" fill="white"/>
<path d="M49.6431 35.5761C49.6431 35.4439 49.6596 35.3943 49.6844 35.4769C49.7009 35.5513 49.7009 35.667 49.6844 35.7248C49.6596 35.7744 49.6431 35.7166 49.6431 35.5761Z" fill="white"/>
<path d="M49.8091 35.5594C49.8422 35.2702 50.0818 35.2041 50.1479 35.4685C50.2057 35.6834 50.2223 35.6586 49.9744 35.7412C49.8009 35.7908 49.7843 35.7743 49.8091 35.5594Z" fill="white"/>
<path d="M53.2956 35.4847C53.2295 35.245 53.37 35.1045 53.6344 35.1376C53.8327 35.1624 53.9071 35.5177 53.7419 35.6251C53.5353 35.7573 53.3452 35.6995 53.2956 35.4847Z" fill="white"/>
<path d="M50.2877 35.4189C50.2877 35.2785 50.329 35.2041 50.4199 35.2041C50.5025 35.2041 50.5356 35.2619 50.5191 35.3859C50.4778 35.6503 50.2877 35.6751 50.2877 35.4189Z" fill="white"/>
<path d="M49.552 35.0718C49.552 34.9809 49.5768 34.9561 49.6016 35.0222C49.6264 35.0801 49.6181 35.1544 49.5933 35.1792C49.5686 35.2123 49.5438 35.1627 49.552 35.0718Z" fill="white"/>
<path d="M49.7099 35.0471C49.7099 34.9231 49.7595 34.8735 49.8834 34.8735C49.9991 34.8735 50.0404 34.9149 50.0239 35.014C49.9826 35.2289 49.7099 35.2537 49.7099 35.0471Z" fill="white"/>
<path d="M50.1638 34.9727C50.106 34.8239 50.106 34.8239 50.3539 34.7578C50.5026 34.7082 50.5357 34.733 50.5357 34.857C50.5357 35.0553 50.2382 35.1544 50.1638 34.9727Z" fill="white"/>
<path d="M53.1562 34.8565C53.0984 34.6499 53.2058 34.5425 53.495 34.5425C53.6355 34.5425 53.6768 34.5921 53.6768 34.7491C53.6768 34.873 53.6272 34.9556 53.5611 34.9556C53.495 34.9556 53.3876 34.9804 53.3215 35.0052C53.2471 35.03 53.1893 34.9804 53.1562 34.8565Z" fill="white"/>
<path d="M53.8752 34.6666C53.8091 34.5014 53.9083 34.3774 54.0983 34.3774C54.214 34.3774 54.2553 34.4353 54.2553 34.584C54.2553 34.7328 54.214 34.7906 54.09 34.7906C53.9992 34.7906 53.9 34.7328 53.8752 34.6666Z" fill="white"/>
<path d="M49.6263 34.5518C49.6263 34.3783 49.8164 34.18 49.899 34.2709C49.9321 34.2957 49.9569 34.4114 49.9569 34.5188C49.9569 34.651 49.9073 34.7088 49.7916 34.7088C49.6842 34.7088 49.6263 34.651 49.6263 34.5518Z" fill="white"/>
<path d="M50.0804 34.4524C50.0143 34.2458 50.0887 34.1549 50.3696 34.1136C50.6257 34.0805 50.7084 34.3532 50.4853 34.5185C50.2704 34.6755 50.1382 34.6507 50.0804 34.4524Z" fill="white"/>
<path d="M53.0725 34.4024C53.0146 34.3528 52.9898 34.0471 53.0394 34.0471C53.0477 34.0471 53.1716 34.014 53.3203 33.9727C53.5682 33.8983 53.5848 33.9066 53.5765 34.1297C53.5682 34.295 53.5187 34.3776 53.3947 34.4106C53.1716 34.4685 53.1386 34.4685 53.0725 34.4024Z" fill="white"/>
<path d="M52.7661 34.2124C52.7661 34.1546 52.7908 34.1298 52.8239 34.1546C52.8487 34.1876 52.8487 34.2372 52.8239 34.2703C52.7908 34.2951 52.7661 34.2703 52.7661 34.2124Z" fill="white"/>
<path d="M53.692 34.0798C53.7168 33.9393 53.9729 33.7327 54.0308 33.7988C54.0556 33.8236 54.0969 33.9228 54.1217 34.0302C54.1795 34.1955 54.1547 34.212 53.9234 34.212C53.725 34.212 53.6672 34.1789 53.692 34.0798Z" fill="white"/>
<path d="M49.7099 34.072C49.7099 34.0307 49.7512 33.948 49.7925 33.8819C49.8586 33.7828 49.8752 33.791 49.8752 33.948C49.8752 34.0472 49.8421 34.1298 49.7925 34.1298C49.7512 34.1298 49.7099 34.105 49.7099 34.072Z" fill="white"/>
<path d="M49.957 33.8902C49.957 33.6589 50.1306 33.5845 50.2628 33.758C50.3454 33.882 50.3454 33.9233 50.2628 33.9811C50.0892 34.0886 49.957 34.0555 49.957 33.8902Z" fill="white"/>
<path d="M52.4681 33.7834C52.3193 33.6181 52.3193 33.6099 52.4598 33.6594C52.5424 33.6925 52.6499 33.7173 52.6912 33.7173C52.7325 33.7173 52.7656 33.7751 52.7656 33.8412C52.7656 34.0147 52.6499 33.9982 52.4681 33.7834Z" fill="white"/>
<path d="M50.6921 33.7743C50.3368 33.5016 50.2872 32.8901 50.6177 32.8901C50.8408 32.8901 51.0474 33.2372 51.0143 33.5594C50.9895 33.8569 50.8904 33.923 50.6921 33.7743Z" fill="white"/>
<path d="M52.956 33.8238C52.989 33.799 53.0386 33.799 53.0717 33.8238C53.0965 33.8568 53.0717 33.8816 53.0138 33.8816C52.956 33.8816 52.9312 33.8568 52.956 33.8238Z" fill="white"/>
<path d="M54.2058 33.502C54.2306 33.4277 54.2554 33.3533 54.2554 33.3368C54.2554 33.3202 54.2967 33.3037 54.338 33.3037C54.3876 33.3037 54.4206 33.3781 54.4206 33.469C54.4206 33.5681 54.3628 33.6343 54.2884 33.6343C54.1975 33.6343 54.1728 33.5929 54.2058 33.502Z" fill="white"/>
<path d="M49.8735 33.4767C49.8735 33.2867 50.047 32.9727 50.1462 32.9727C50.3197 32.9727 50.1958 33.5015 50.014 33.5346C49.9396 33.5511 49.8735 33.5263 49.8735 33.4767Z" fill="white"/>
<path d="M51.7347 33.3863L51.4868 33.3285L51.7099 33.2706C51.9413 33.2045 52.1065 33.2541 52.1065 33.3946C52.1065 33.4772 52.0983 33.4772 51.7347 33.3863Z" fill="white"/>
<path d="M51.4434 32.9901C51.4434 32.6513 51.6334 32.6017 51.8069 32.8992C51.9226 33.0975 51.9309 33.1388 51.8234 33.1388C51.7573 33.1388 51.6499 33.1636 51.5756 33.1884C51.4764 33.2297 51.4434 33.1801 51.4434 32.9901Z" fill="white"/>
<path d="M52.8832 33.105C52.5114 32.9397 52.2717 32.5018 52.2717 31.9812C52.2717 31.6094 52.3048 31.5185 52.5279 31.3119C52.6684 31.1797 52.8088 31.0723 52.8501 31.0723C53.0319 31.0723 53.7012 31.7085 53.9243 32.1051L54.1805 32.5596L53.9078 32.8488C53.5938 33.1793 53.2468 33.2702 52.8832 33.105Z" fill="white"/>
<path d="M51.1551 32.8903C51.1304 32.8489 51.1469 32.8076 51.1882 32.8076C51.2378 32.8076 51.2791 32.8489 51.2791 32.8903C51.2791 32.9398 51.2626 32.9729 51.246 32.9729C51.2212 32.9729 51.1799 32.9398 51.1551 32.8903Z" fill="white"/>
<path d="M50.0741 32.7579C50.0989 32.6835 50.1237 32.6091 50.1237 32.5926C50.1237 32.5761 50.1981 32.5596 50.289 32.5596C50.4956 32.5596 50.5038 32.6918 50.2972 32.8075C50.0741 32.9231 50.0163 32.9149 50.0741 32.7579Z" fill="white"/>
<path d="M50.7256 32.6588C50.5356 32.634 50.4777 32.5266 50.6017 32.4522C50.6347 32.4274 50.7835 32.3861 50.9322 32.353C51.1553 32.3035 51.1966 32.32 51.1966 32.4605C51.1966 32.634 51.0231 32.7084 50.7256 32.6588Z" fill="white"/>
<path d="M51.3632 32.3781C51.3632 32.279 51.3715 32.2211 51.388 32.2377C51.3963 32.2542 51.4624 32.3368 51.5202 32.4195C51.6194 32.5351 51.6111 32.5599 51.4954 32.5599C51.4128 32.5599 51.3632 32.4938 51.3632 32.3781Z" fill="white"/>
<path d="M50.2042 32.3201C50.2042 32.2705 50.2455 32.2127 50.2869 32.1879C50.3364 32.1631 50.3695 32.1962 50.3695 32.2623C50.3695 32.3366 50.3364 32.3945 50.2869 32.3945C50.2455 32.3945 50.2042 32.3614 50.2042 32.3201Z" fill="white"/>
<path d="M50.5103 32.1964C50.4442 32.0311 51.0309 31.8494 51.13 32.0064C51.2044 32.1386 51.13 32.1964 50.816 32.2625C50.626 32.3038 50.5434 32.2873 50.5103 32.1964Z" fill="white"/>
<path d="M51.289 31.9321C51.289 31.8412 51.3138 31.8165 51.3385 31.8826C51.3633 31.9404 51.3551 32.0148 51.3303 32.0395C51.3055 32.0726 51.2807 32.023 51.289 31.9321Z" fill="white"/>
<path d="M50.5858 31.7996C50.685 31.6178 50.9742 31.3203 51.0486 31.3203C51.1312 31.3203 51.1395 31.7087 51.0568 31.7582C51.0155 31.7748 50.8833 31.8161 50.7594 31.8491C50.5776 31.8904 50.5363 31.8822 50.5858 31.7996Z" fill="white"/>
<path d="M51.247 31.6098C51.1561 31.3619 51.1974 31.2545 51.3957 31.2215C51.6023 31.1801 51.6023 31.1801 51.4701 31.4363C51.3048 31.7668 51.3131 31.7668 51.247 31.6098Z" fill="white"/>
<path d="M51.1962 31.1138C51.1962 31.0973 51.3615 30.9816 51.5681 30.866C51.816 30.7172 51.9895 30.6677 52.1134 30.7007C52.2622 30.7503 52.2209 30.7833 51.8573 30.9569C51.4524 31.1386 51.1962 31.2047 51.1962 31.1138Z" fill="white"/>
<path d="M55.7837 23.7929C55.5606 23.4706 55.0896 22.9501 54.7509 22.6361C54.4121 22.3221 54.189 22.0659 54.2551 22.0659C54.4369 22.0659 55.8251 22.446 56.1721 22.5948C56.4613 22.7187 56.4696 22.7352 56.3952 22.9914C56.3539 23.1401 56.3208 23.512 56.3208 23.8177C56.3208 24.1317 56.2961 24.3796 56.263 24.3796C56.2217 24.3796 56.0151 24.1152 55.7837 23.7929Z" fill="white"/>
<path d="M38.9656 48.8213C38.6268 48.6478 38.5525 48.5487 38.1228 47.6976C37.5031 46.4912 37.4865 46.2102 38.0732 46.8961C38.3046 47.1687 38.8417 47.7306 39.2631 48.1438C39.982 48.8379 40.015 48.8875 39.7754 48.8544C39.6019 48.8296 39.5358 48.8461 39.5771 48.9122C39.6762 49.061 39.3622 49.0197 38.9656 48.8213Z" fill="white"/>
<path fill-rule="evenodd" clip-rule="evenodd" d="M52.8174 63.8762C52.7488 63.7133 52.8253 63.5257 52.9882 63.4571L53.1662 63.3815C54.8971 62.6409 55.8905 62.1961 56.5656 61.4896C57.2407 60.7832 57.3214 59.7456 57.4483 59.1142C57.4831 58.941 57.8754 59.2453 58.0487 59.2801C58.222 59.3149 58.3342 59.4836 58.2994 59.6568C58.1469 60.4159 57.7363 61.1397 57.0752 61.8266C56.4164 62.5113 55.1408 63.2452 53.2365 64.0469C53.0736 64.1155 52.886 64.0391 52.8174 63.8762Z" fill="#2C1320"/>
<path fill-rule="evenodd" clip-rule="evenodd" d="M60.6419 30.9069C60.7938 30.8165 60.9902 30.8663 61.0806 31.0182C61.9857 32.5387 62.4706 34.2769 62.4706 36.0853C62.4706 41.5639 58.0293 46.0053 52.5506 46.0053C51.0948 46.0053 49.6828 45.6913 48.3898 45.093C48.2294 45.0188 47.6235 44.4279 48.2337 44.6682C48.844 44.9086 51.2051 45.448 52.5676 45.448C57.6928 45.448 61.3186 41.2105 61.3186 36.0853C61.3186 34.3929 60.6419 32.8908 60.5306 31.3455C60.5177 31.1664 60.49 30.9973 60.6419 30.9069Z" fill="#2C1320"/>
<path fill-rule="evenodd" clip-rule="evenodd" d="M28.9508 55.126C29.0639 54.9902 29.2657 54.7158 29.4015 54.8289C29.9586 55.293 30.5531 55.8306 31.189 55.9343C31.8507 56.0423 32.6357 56.0423 33.543 55.9325C33.7184 55.9112 33.8779 56.0362 33.8991 56.2117C33.9204 56.3871 33.7953 56.5466 33.6199 56.5678C32.6564 56.6845 31.8121 56.6845 31.0859 56.566C30.3339 56.4433 29.6346 56.112 28.9919 55.5767C28.8561 55.4636 28.8377 55.2618 28.9508 55.126Z" fill="#2C1320"/>
<path d="M35.745 43.9294C35.3319 43.5989 34.4477 42.6238 33.7784 41.7645C33.4314 41.31 33.043 40.3845 32.8116 39.4508C32.7042 39.0294 32.5968 38.6493 32.572 38.5997C32.5389 38.5584 32.4067 37.9717 32.2745 37.2942C32.0762 36.3356 32.1182 36.0268 31.944 34.8803C31.8703 34.3949 31.8035 34.0086 31.8035 34.0086L32.0184 33.7328C32.1423 33.5675 32.2991 33.294 32.3572 33.1378C32.6216 32.4264 34.5634 30.1962 34.6212 30.254C34.6378 30.2706 34.5717 30.6589 34.456 31.1134C34.3485 31.5679 34.2163 32.2537 34.1585 32.6421C34.0759 33.2866 34.0428 33.3609 33.7867 33.5758C33.4644 33.8485 32.8529 34.7243 32.8529 34.9061C32.8529 35.154 33.2248 34.9888 33.6131 34.5839L34.0098 34.1707V34.6252C34.0098 34.9227 33.9519 35.1953 33.8445 35.4102C33.6379 35.8151 33.6379 36.2448 33.8362 36.5753C33.9354 36.7405 34.0263 37.1372 34.0841 37.6082C34.3403 39.74 34.8856 41.5909 35.8194 43.4501C36.0507 43.9129 36.2325 44.293 36.2243 44.293C36.2077 44.293 35.9929 44.1277 35.745 43.9294Z" fill="white"/>
<path fill-rule="evenodd" clip-rule="evenodd" d="M70.128 49.0282L70.7229 49.2926C70.8463 49.3495 72.2072 50.0034 73.8419 50.7889C76.4775 52.0553 79.8249 53.6637 79.8453 53.6637C79.8784 53.6637 80.0334 53.3052 80.0684 52.887C80.151 51.9863 80.4568 50.7634 80.8121 49.9123C80.9774 49.5322 81.1096 49.0571 81.1096 49.0158C81.1096 48.997 80.9752 48.9428 80.7553 48.8541C80.4935 48.7485 80.1104 48.594 79.6883 48.3919C77.606 47.3921 73.5323 45.3511 73.0283 45.0454C72.5325 44.7562 72.4334 44.7314 72.4334 44.9214C72.4334 45.1693 71.9293 46.3179 71.5409 46.9376C71.3344 47.2764 70.9295 47.8879 70.6403 48.2927L70.128 49.0282ZM79.7032 52.1763C79.9401 52.3136 79.5297 52.515 79.4305 52.5481C78.8467 52.5977 78.1593 52.4879 77.5961 52.1597C77.3016 51.9509 74.983 50.6628 73.4449 49.8083C72.7418 49.4176 72.2018 49.1176 72.0929 49.0528C71.7459 48.8463 71.4153 48.6232 71.3575 48.557C71.184 48.3339 71.3492 48.2348 71.8368 48.2761C72.1298 48.3009 79.1914 51.8796 79.7032 52.1763Z" fill="white"/>
<path d="M64.1937 49.7721C63.9788 49.6977 63.7475 49.5325 63.5987 49.3424L63.3508 49.0367L64.2267 48.1691C65.5736 46.847 66.5652 45.4021 67.4576 43.7908C67.755 43.2537 68.6392 41.0876 68.7466 40.848C68.9119 40.5009 69.0358 40.3687 69.3911 40.1704C69.8126 39.9225 70.2918 39.8399 70.4984 39.9804C70.895 40.2448 70.895 41.0794 70.4984 42.5171C70.0604 44.0954 69.4738 45.2274 68.2591 46.8552C68.069 47.1031 67.7137 47.5906 67.4576 47.9294C66.7717 48.8384 66.3255 49.2763 65.7223 49.6151C65.1274 49.9456 64.7803 49.9869 64.1937 49.7721Z" fill="white"/>
<path d="M67.3087 49.5817L67.1352 49.4082C67.1352 49.4082 70.0152 45.7491 70.5313 44.4008C70.9251 43.3718 71.1569 43.0801 71.4696 43.0801C71.6445 43.0801 71.7873 43.12 71.8534 43.2192C71.9691 43.3927 72.0805 43.6075 71.9318 44.3429C71.6839 45.5328 71.3038 46.3178 70.1635 48.0117C69.8991 48.4001 69.5603 48.8298 69.4116 48.9785C69.0645 49.3008 68.2838 49.6313 67.8293 49.7057C67.5401 49.747 67.4575 49.7305 67.3087 49.5817Z" fill="white"/>
<path fill-rule="evenodd" clip-rule="evenodd" d="M72.1477 45.7555C72.3144 45.3743 72.4331 45.0417 72.4331 44.9214C72.4331 44.7314 72.5323 44.7562 73.0281 45.0454C73.5321 45.3511 77.6058 47.3921 79.6881 48.3919C80.4648 48.7638 81.1093 48.9745 81.1093 49.0159C81.1093 49.0572 71.9711 46.1597 72.1477 45.7555Z" fill="#E7EAEE"/>
<path fill-rule="evenodd" clip-rule="evenodd" d="M43.8756 46.2269C42.8262 45.541 41.2397 43.9297 40.4712 42.7812C39.3722 41.1286 38.6451 39.3603 38.2898 37.4598C38.0336 36.0798 38.0419 33.9562 38.298 32.725C38.5625 31.4691 38.9012 30.5105 39.5044 29.2959C40.2068 27.8912 40.9505 26.8583 42.066 25.7428C43.1599 24.6488 38.298 29.1726 39.5044 37.2666C40.4712 44.0494 44.6261 46.7213 43.8756 46.2269Z" fill="#E7EAEE"/>
<g filter="url(#filter0_d)">
<text fill="#FDF0D5" xml:space="preserve" style="white-space: pre" font-family="Century Gothic" font-size="16" font-weight="bold" letter-spacing="0em"><tspan x="9.79962" y="87.2383">E-SCHOOL</tspan></text>
<text stroke="#2C1320" xml:space="preserve" style="white-space: pre" font-family="Century Gothic" font-size="16" font-weight="bold" letter-spacing="0em"><tspan x="9.79962" y="87.2383">E-SCHOOL</tspan></text>
</g>
<defs>
<filter id="filter0_d" x="0.119934" y="74.1719" width="100.992" height="34.0703" filterUnits="userSpaceOnUse" color-interpolation-filters="sRGB">
<feFlood flood-opacity="0" result="BackgroundImageFix"/>
<feColorMatrix in="SourceAlpha" type="matrix" values="0 0 0 0 0 0 0 0 0 0 0 0 0 0 0 0 0 0 127 0" result="hardAlpha"/>
<feOffset dy="10"/>
<feGaussianBlur stdDeviation="5"/>
<feColorMatrix type="matrix" values="0 0 0 0 0 0 0 0 0 0 0 0 0 0 0 0 0 0 0.25 0"/>
<feBlend mode="normal" in2="BackgroundImageFix" result="effect1_dropShadow"/>
<feBlend mode="normal" in="SourceGraphic" in2="effect1_dropShadow" result="shape"/>
</filter>
</defs>
</svg>
