<svg width="50" height="38" viewBox="0 0 50 38" fill="none" xmlns="http://www.w3.org/2000/svg">
<path fill-rule="evenodd" clip-rule="evenodd" d="M3.49408 35.2618C7.62829 39.8064 23.6155 37.1959 34.1423 37.1959C38.6837 37.1959 53.9237 39.4944 47.6304 23.7091C26.9958 -28.0484 -9.6052 20.8624 3.49408 35.2618Z" fill="#FDF0D5"/>
<path fill-rule="evenodd" clip-rule="evenodd" d="M38.8967 10.1711C39.6204 10.1057 40.4005 10.148 40.9903 10.6433C41.58 11.1387 41.8479 12.2263 41.3637 12.8592C41.9112 12.6087 42.5546 13.0336 42.8289 13.6422C43.1031 14.2509 43.0888 14.9801 43.0063 15.6613C42.8019 17.3485 42.2143 18.9701 41.32 20.3147C41.2789 20.4564 41.2378 20.5982 41.1967 20.7399C42.2538 21.0589 46.3816 22.9354 45.2663 27.5613C44.151 32.1872 39.2801 33.9479 38.7815 34.5015C37.9125 35.4665 36.5861 35.5325 35.3888 35.488C32.4451 35.3787 29.5103 34.9408 26.6372 34.1822C26.393 34.1177 26.0836 34.0784 25.9428 34.3208C24.9236 36.0747 22.7924 36.2315 20.9849 36.0789C18.6632 35.8827 16.3548 35.4706 14.0888 34.8475C12.8034 34.4941 11.4384 34.002 10.6377 32.7732C9.70418 31.3406 9.81198 29.3543 9.96346 27.5613C9.34989 27.9606 8.33225 28.1769 6.91054 28.2101C6.07347 28.0103 5.55133 27.6551 5.34411 27.1446C4.39654 24.8101 4.07159 21.8018 5.25159 19.5007C5.39334 19.2243 5.55689 18.9519 5.7877 18.776C6.0324 18.5895 6.33073 18.5282 6.62159 18.498C7.76882 18.3791 8.94589 18.6925 9.93625 19.3807C9.92741 15.613 9.91856 11.8452 9.90972 8.07749C9.90921 7.86172 9.91178 7.63277 10.0101 7.45022C10.1522 7.1862 10.4434 7.10436 10.7054 7.04709C13.0895 6.52615 15.5006 6.17481 17.9211 5.99566C18.7119 5.93712 19.7942 6.19476 19.7978 7.12232C19.8116 10.6745 19.8254 14.2267 19.8392 17.7789C19.8425 18.6244 19.8889 18.5537 20.2273 18.3087C20.0146 18.3345 20.062 17.9122 20.2232 17.7477C20.8251 17.1335 21.702 17.111 22.5004 17.1205C24.2861 17.1419 26.0719 17.1633 27.8576 17.1847C29.5878 17.2054 31.6627 17.4623 32.4461 19.2682C32.4233 18.7315 32.8389 18.225 33.298 18.2299C33.7987 18.2353 34.2174 17.7269 34.3635 17.1664C34.5096 16.6059 34.4452 16.0036 34.3794 15.4226C33.5722 14.5076 33.3608 12.9522 33.8858 11.7893C34.4107 10.6263 35.6274 9.95407 36.7281 10.219C37.4391 10.3901 38.173 10.2366 38.8967 10.1711ZM18.1759 27.5956C18.1521 28.3435 18.1269 29.1014 17.9389 29.8167L18.1759 27.5956ZM17.436 18.4172C17.6022 18.4741 17.8078 18.6466 17.7206 18.8217C18.4426 18.9061 18.227 18.867 18.2595 17.8711C18.2925 16.8605 18.2952 15.7431 17.73 14.9782C17.2299 14.3014 16.4142 14.0897 15.6525 14.0136C14.7634 13.9248 13.8647 13.9675 12.9847 14.1404C12.5553 14.2247 12.0902 14.3701 11.841 14.788C11.7016 15.0219 11.6503 15.3108 11.6093 15.5919C11.4481 16.6979 11.3978 17.826 11.4597 18.9456C13.3107 17.9375 15.4766 17.746 17.436 18.4172ZM33.5006 25.8421C33.5458 25.7886 33.6144 25.7756 33.6781 25.7653C33.9325 25.7244 34.1869 25.6834 34.4413 25.6424C33.8575 25.3338 33.5036 24.6007 33.3979 23.8611C33.2922 23.1216 33.3954 22.3655 33.4997 21.6257C33.1263 22.1121 33.1532 22.846 33.2021 23.4975C33.3092 24.9234 33.4554 25.8956 33.5006 25.8421ZM28.6977 32.8655C28.7477 32.675 28.918 32.5727 29.0427 32.437C29.2672 32.1929 29.3506 31.8237 29.4238 31.4754C29.6768 30.2717 29.9314 29.0534 29.9282 27.8138C29.9275 27.5512 29.9162 27.2814 29.9904 27.0336C30.0647 26.7858 30.2509 26.5618 30.4752 26.5605C30.7118 26.5591 30.7683 26.175 30.7471 25.8992C30.6742 24.9482 30.6013 23.9973 30.5283 23.0463C30.5051 22.7425 30.4813 22.436 30.4025 22.1453C30.1114 21.0705 28.9895 20.4207 28.0829 20.8017C27.9719 20.8484 27.9423 21.0125 27.9297 21.1497C27.7901 22.6708 27.6506 24.192 27.5111 25.7131C27.4863 25.9834 27.7844 26.1558 28.0095 26.0889C28.2346 26.022 28.4064 25.8161 28.601 25.6678C28.7956 25.5195 29.0699 25.4341 29.2486 25.6077C29.4506 25.8039 29.7495 25.586 29.925 25.3575C30.1004 25.129 30.3289 24.8536 30.5784 24.9489C30.2857 25.2766 29.993 25.6043 29.7004 25.932C29.6033 26.0407 29.5177 26.2577 29.6404 26.3219C29.9767 26.1823 30.2807 25.9376 30.5124 25.6201C30.6196 25.6161 30.6246 25.8131 30.5648 25.9173C30.3395 26.3098 29.8092 26.3972 29.6726 26.8422C29.3539 27.8811 28.3599 28.5711 27.4283 28.4003C27.2372 28.3652 27.1419 28.6594 27.1189 28.8842C27.0272 29.7806 26.9355 30.677 26.8438 31.5734C26.8227 31.7796 26.803 31.9977 26.8756 32.1872C26.9966 32.5035 27.3203 32.6231 27.6073 32.7082C27.9866 32.8207 28.3703 32.9338 28.758 32.9829C28.9213 33.0036 28.9206 32.9336 28.6977 32.8655ZM13.585 31.222C14.1271 31.4345 14.7007 31.5065 15.2692 31.5772C15.5102 31.6072 15.7669 31.634 15.9831 31.5058C16.2377 31.3549 16.3733 31.0278 16.4828 30.7194C17.0933 28.9993 17.4419 27.1524 17.5072 25.2914C17.5165 25.027 17.2273 24.9102 17.0017 24.8925C15.2006 24.751 13.4782 25.6777 11.8471 26.5827C11.769 26.6261 11.6853 26.6755 11.6467 26.7661C11.6179 26.8337 11.6194 26.9128 11.6215 26.9883C11.6507 28.0164 11.6876 29.0813 12.0804 30.0015C12.1865 30.2501 12.3214 30.4892 12.5125 30.6541C12.6282 30.7539 12.7607 30.8232 12.892 30.8917C13.12 31.0105 13.3484 31.1292 13.585 31.222ZM25.2359 27.417C25.476 25.9058 25.6452 24.3791 25.7425 22.8463C25.7758 22.3219 25.8001 21.7887 25.7033 21.2753C25.6065 20.7618 25.3728 20.2626 24.9908 19.9859C24.7554 19.8153 24.4799 19.7388 24.2074 19.6819C23.7101 19.5781 23.2042 19.531 22.6991 19.5415C22.2534 19.5507 21.7856 19.6143 21.4218 19.9158C21.3014 20.0154 21.1922 20.1459 21.1482 20.3106C21.1043 20.4753 21.1413 20.6777 21.2633 20.7744C21.5718 21.019 21.6976 21.4765 21.7554 21.9073C21.8132 22.3381 21.8271 22.7893 21.9948 23.1787C22.0813 23.3795 22.2053 23.5547 22.3354 23.7202C23.0406 24.6177 23.9604 25.2817 24.9622 25.6163C25.1383 25.6751 25.3623 25.8025 25.3251 26.0124C25.8791 26.4214 25.2267 27.4749 25.2359 27.417ZM23.7091 31.8742C23.9131 31.7291 24.0514 31.4876 24.1731 31.2474C24.6898 30.2278 25.0285 29.0853 25.1626 27.9103C23.3044 27.9005 21.4573 27.0798 20.0615 25.6439C20.0137 25.8684 20.0229 26.1032 20.0294 26.3344C20.0701 27.7775 19.997 29.225 19.8111 30.6524C19.7668 30.9926 19.9405 31.3329 20.1793 31.5338C20.418 31.7348 20.7121 31.8211 21.0008 31.8862C21.6518 32.033 22.3169 32.0931 22.9794 32.0652C23.2313 32.0546 23.4937 32.0274 23.7091 31.8742ZM35.4349 19.4264C35.3266 19.1209 35.2453 18.7764 35.0206 18.5758C34.7959 18.3752 34.3728 18.4734 34.3596 18.8038C34.582 18.7559 34.752 19.0772 34.7141 19.3382C34.6762 19.5991 34.5141 19.8066 34.3854 20.0242C34.2074 20.3248 34.0857 20.6652 33.9654 21.0027C33.679 21.8057 33.5675 22.6932 33.6443 23.5588C33.6895 24.0683 33.8088 24.5918 34.1032 24.9709C34.3976 25.3501 34.9021 25.5397 35.29 25.3023C35.6232 25.0985 35.7894 24.6492 35.8658 24.2183C35.9422 23.7875 35.9558 23.3365 36.1001 22.9302C36.3664 22.1807 37.0231 21.7279 37.6727 21.4436C36.6962 21.2883 35.8126 20.4919 35.4349 19.4264ZM32.7346 20.2372C32.778 20.4337 32.8382 20.6251 32.9138 20.8078C32.9592 20.5504 33.0321 20.2998 33.1303 20.0635C33.031 20.0502 32.931 20.0439 32.8311 20.0446C32.8068 20.0447 32.7811 20.0458 32.7607 20.061C32.7145 20.0953 32.7209 20.1753 32.7346 20.2372ZM20.9642 20.035C20.9027 20.0929 20.8666 20.2176 20.9316 20.2701C21.031 20.1536 21.1304 20.0371 21.2298 19.9206C21.2092 19.8908 21.1794 19.87 21.1472 19.8631C21.1077 19.9431 21.0257 19.9771 20.9642 20.035Z" fill="white"/>
<path d="M38.1773 19.2004C38.3897 19.2004 38.5618 18.9989 38.5618 18.7504C38.5618 18.5018 38.3897 18.3003 38.1773 18.3003C37.965 18.3003 37.7928 18.5018 37.7928 18.7504C37.7928 18.9989 37.965 19.2004 38.1773 19.2004Z" fill="#EB5E55"/>
<path d="M35.9749 18.7512C36.0907 18.7512 36.1846 18.6413 36.1846 18.5057C36.1846 18.3702 36.0907 18.2603 35.9749 18.2603C35.859 18.2603 35.7651 18.3702 35.7651 18.5057C35.7651 18.6413 35.859 18.7512 35.9749 18.7512Z" fill="#EB5E55"/>
<path fill-rule="evenodd" clip-rule="evenodd" d="M16.1158 12.2923C16.7449 12.297 17.3741 12.3017 18.0033 12.3063C18.0327 12.3066 18.0644 12.3076 18.0881 12.328C18.1367 12.3697 18.1173 12.4674 18.0673 12.5067C18.0173 12.546 17.9526 12.5443 17.8924 12.5419C17.3387 12.5194 16.7834 12.553 16.2346 12.6423C16.1512 12.6559 16.0631 12.6702 15.9851 12.6331C15.907 12.5959 15.8473 12.4865 15.8832 12.3973C15.9208 12.3041 16.0277 12.2917 16.1158 12.2923ZM14.0118 12.22C14.0516 12.2665 14.0325 12.3519 13.9882 12.3926C13.9439 12.4333 13.8846 12.4414 13.8286 12.448C13.2708 12.5141 12.713 12.5802 12.1552 12.6464C12.0893 12.6542 12.0211 12.6617 11.958 12.638C11.8948 12.6142 11.8377 12.5503 11.8362 12.4727C11.8347 12.3927 11.8928 12.3247 11.9576 12.2992C12.0224 12.2736 12.0929 12.2808 12.1611 12.287C12.7326 12.3397 13.3097 12.3093 13.8749 12.1969C13.9222 12.1875 13.9778 12.1803 14.0118 12.22ZM13.9336 10.9667C13.9753 11.0061 13.9605 11.0905 13.9187 11.1296C13.8768 11.1688 13.8199 11.1753 13.7665 11.1802L11.9752 11.3456C11.9082 11.3518 11.8387 11.3577 11.7754 11.3309C11.7122 11.3041 11.6567 11.2351 11.6603 11.1565C11.664 11.0768 11.7268 11.0151 11.7931 10.9963C11.8593 10.9774 11.9286 10.9915 11.996 11.0032C12.604 11.1083 13.2222 11.0124 13.8343 10.9473C13.8686 10.9436 13.9068 10.9414 13.9336 10.9667ZM16.4354 10.5513C16.8091 10.6072 17.1881 10.6157 17.5634 10.5766C17.7126 10.561 17.893 10.5538 17.9778 10.6983C17.8771 10.7935 17.7388 10.8071 17.6097 10.8166C17.1817 10.8482 16.7537 10.8797 16.3257 10.9113C16.228 10.9185 16.1064 10.9099 16.0661 10.8055C16.0301 10.7118 16.0936 10.5991 16.1752 10.5612C16.2567 10.5233 16.3483 10.5383 16.4354 10.5513ZM13.2063 10.0156C13.2068 10.0913 13.1258 10.124 13.0618 10.1349L12.1211 10.2963C12.054 10.3078 11.9846 10.3192 11.919 10.2987C11.8535 10.2782 11.7922 10.2172 11.7861 10.1381C11.7785 10.0412 11.8562 9.9595 11.9373 9.93841C12.0184 9.91731 12.1024 9.93938 12.1848 9.9518C12.469 9.99465 12.7556 9.92156 13.0419 9.91004C13.112 9.90723 13.2058 9.93358 13.2063 10.0156ZM17.7452 9.75207C17.818 9.76159 17.8927 9.81242 17.9122 9.89506C17.7829 10.0095 17.6121 10.0303 17.4507 10.0471C17.1743 10.0757 16.898 10.1044 16.6217 10.1331C16.5243 10.1432 16.427 10.1533 16.3297 10.1634C16.2585 10.1707 16.1845 10.1777 16.1176 10.1481C16.0508 10.1186 15.9937 10.0409 16.0036 9.95812C16.0193 9.8276 16.1657 9.79372 16.2782 9.79655C16.6959 9.80706 17.1189 9.88084 17.5281 9.78242C17.5998 9.76516 17.6725 9.74254 17.7452 9.75207ZM18.1121 8.51744C16.0647 8.84059 13.9655 8.67326 11.9463 9.18449C11.8265 9.21481 11.6594 9.2163 11.6284 9.07754C11.6312 8.91403 11.8119 8.85502 11.9512 8.84339C13.9156 8.67941 15.8799 8.51542 17.8442 8.35144C17.9595 8.34182 18.1212 8.38262 18.1121 8.51744Z" fill="#FDF0D5"/>
<path fill-rule="evenodd" clip-rule="evenodd" d="M10.9097 33.3594C10.9311 33.6493 10.5896 33.7476 10.341 33.7487C9.04884 33.7547 7.75798 34.0352 6.55012 34.5726C6.36578 34.6546 6.16849 34.7579 6.07878 34.9634C5.95998 35.2356 6.08964 35.584 6.29981 35.7654C6.50998 35.9468 6.77824 36.002 7.03597 36.0512C13.7352 37.328 20.534 37.8878 27.32 37.7211L27.4291 37.7183C28.2117 37.6971 29.0105 37.6479 29.7275 37.2851C29.1339 36.7982 28.5404 36.3112 27.9468 35.8242C28.9743 35.584 30.0345 35.7551 31.0772 35.8756C33.4637 36.1514 35.8729 36.157 38.2604 35.8924C38.0923 36.2068 37.7228 36.2504 37.406 36.2584C34.4029 36.3341 31.3961 36.2092 28.4051 35.8846C28.7953 36.1852 29.1856 36.4858 29.5758 36.7864C29.7172 36.8953 29.8737 37.0336 29.8818 37.2315C29.8941 37.5289 29.5819 37.6773 29.3309 37.7259C28.498 37.887 27.6507 37.9126 26.8066 37.9271C20.2143 38.0399 13.6137 37.4877 7.10206 36.2787C6.78432 36.2198 6.4551 36.1539 6.19017 35.9403C5.92524 35.7266 5.74462 35.3204 5.85595 34.9671C5.96669 34.6157 6.30359 34.4507 6.60778 34.3344C7.99978 33.8022 9.44856 33.4739 10.9097 33.3594ZM19.797 7.12232C19.8108 10.6745 19.8245 14.2267 19.8383 17.7789C19.8416 18.6244 19.9839 19.6943 20.6824 19.9095C21.6476 19.388 22.7355 19.1819 23.792 19.3206C24.3968 19.4 25.0248 19.614 25.4342 20.1411C25.9958 20.864 25.9967 21.9528 25.9364 22.9274C25.8142 24.9029 25.5734 26.8684 25.2165 28.8045C25.5001 28.7836 25.7893 28.9167 25.9846 29.1582C25.6838 29.3193 25.3253 29.326 25.0202 29.1763C25.2298 30.5061 24.3043 31.8181 23.1958 32.199C22.0874 32.5799 20.8846 32.2208 19.8423 31.6377C19.7446 32.0833 20.2538 32.3451 20.6426 32.4124C21.6296 32.5831 22.6165 32.7538 23.6035 32.9246C22.3846 32.9675 21.1617 32.8507 19.9649 32.5771C19.7445 32.9424 20.2436 33.3113 20.6208 33.3827C21.6211 33.5722 22.6215 33.7617 23.6219 33.9513C22.492 33.9424 21.3625 33.8542 20.2416 33.6873C20.9545 34.44 21.9276 34.8447 22.8864 34.7873C22.3455 34.9955 21.7446 34.983 21.2105 34.7523C21.8787 35.7999 23.2459 35.9939 24.2444 35.408C25.2428 34.8221 25.8947 33.6234 26.2136 32.3705C26.5325 31.1176 26.5635 29.7934 26.62 28.4877C26.7243 26.0776 26.9237 23.6707 27.2843 21.2947C27.5272 19.6947 28.1239 17.7869 29.4987 17.5608C27.0494 17.4287 24.5977 17.3574 22.1458 17.3471C21.4007 17.344 20.4752 17.4866 20.2264 18.3087C20.0137 18.3345 20.0612 17.9122 20.2224 17.7477C20.8242 17.1335 21.7012 17.111 22.4995 17.1205L27.8567 17.1847C29.5869 17.2054 31.6619 17.4623 32.4452 19.2682C32.4225 18.7315 32.8381 18.225 33.2971 18.2299C33.7978 18.2353 34.2165 17.7269 34.3626 17.1664C34.5088 16.6059 34.4443 16.0036 34.3785 15.4226C33.5713 14.5076 33.36 12.9522 33.8849 11.7893C34.0334 11.4603 34.2528 10.676 35.4779 10.1711C36.2947 9.83457 37.1021 9.87158 37.9001 10.2822C39.3986 9.94296 40.4284 10.0634 40.9894 10.6433C41.8309 11.5133 41.847 12.2263 41.3628 12.8592C41.9103 12.6087 42.5537 13.0336 42.828 13.6422C43.1022 14.2509 43.0879 14.9801 43.0054 15.6613C42.8011 17.3485 42.2134 18.9701 41.3191 20.3147L41.1958 20.7399C43.3593 21.3928 45.1094 23.6311 45.4739 26.2113C44.7546 24.3136 43.7809 22.3038 42.1032 21.6301C41.7247 22.0949 41.3354 22.5799 41.1577 23.1874C40.9799 23.7949 41.0759 24.5626 41.5267 24.9285C41.2436 25.0053 40.9605 25.0821 40.6773 25.159C40.7716 25.3546 40.8658 25.5503 40.9601 25.746C39.8902 26.698 39.7671 28.4987 39.7736 30.0717C39.7801 31.6448 39.7556 33.4189 38.7806 34.5015C37.9116 35.4665 36.5852 35.5325 35.388 35.4881C32.4442 35.3787 29.5094 34.9408 26.6364 34.1822C26.3921 34.1177 26.0827 34.0784 25.9419 34.3208C24.9228 36.0747 22.7915 36.2315 20.9841 36.0789C18.6623 35.8827 16.354 35.4706 14.0879 34.8475C12.8025 34.4941 11.4376 34.002 10.6368 32.7732C9.70331 31.3406 9.81112 29.3543 9.96259 27.5613C9.04224 28.1603 7.95116 28.3921 6.90967 28.2101C8.00751 27.3699 8.53989 25.7627 8.54989 24.2274C8.5599 22.6922 8.12209 21.204 7.63501 19.7785C6.56183 20.5071 5.99718 22.0429 6.08115 23.4918C6.16511 24.9407 6.82185 26.2855 7.70301 27.3078C6.61678 26.5054 5.89803 25.0598 5.83854 23.5579C5.77905 22.0561 6.38044 20.5388 7.39857 19.6222C7.23588 18.971 6.39653 18.8914 5.95661 19.3332C5.5167 19.7751 5.37864 20.4923 5.26548 21.1577C5.05639 22.3874 4.84644 23.6457 4.99836 24.8867C5.15028 26.1278 5.73595 27.3701 6.71737 27.8722C6.25872 28.2592 5.64784 27.7021 5.34325 27.1446C4.10803 24.8836 4.07073 21.8018 5.25072 19.5007C5.39247 19.2243 5.55602 18.9519 5.78683 18.776C6.03154 18.5895 6.32986 18.5282 6.62073 18.498C7.76795 18.3791 8.94502 18.6925 9.93539 19.3807C9.92654 15.613 9.9177 11.8452 9.90885 8.07749C9.90835 7.86172 9.91091 7.63277 10.0092 7.45022C10.1513 7.1862 10.4425 7.10436 10.7046 7.04709C13.0887 6.52615 15.4998 6.17481 17.9202 5.99566C18.7111 5.93712 19.7934 6.19476 19.797 7.12232ZM18.1804 6.22267C15.6142 6.36406 13.0573 6.73539 10.5394 7.33232C10.4322 7.35773 10.3187 7.3874 10.2408 7.47721C10.1347 7.59955 10.1265 7.7934 10.1251 7.96772C10.0951 11.7194 10.1078 15.4715 10.1633 19.2227C10.4714 19.1328 10.7795 19.0429 11.0877 18.953C10.9672 18.1832 10.8463 17.403 10.8978 16.6228C10.9493 15.8426 11.1939 15.0491 11.697 14.5337C12.2415 13.976 13.0014 13.8184 13.7232 13.7591C14.4173 13.702 15.1156 13.7152 15.8078 13.7985C16.5144 13.8835 17.2587 14.0672 17.7684 14.6462C18.5048 15.4825 18.5167 16.8375 18.4786 18.0377C18.3774 21.2236 18.2762 24.4096 18.175 27.5956C18.1512 28.3435 18.1261 29.1014 17.938 29.8167C17.75 30.532 17.3768 31.2118 16.8121 31.5628C16.258 31.9073 15.595 31.8975 14.9716 31.8146C14.3765 31.7354 13.787 31.5973 13.2117 31.4022C12.8622 31.2837 12.5125 31.141 12.2155 30.895C11.2327 30.0809 11.1165 28.4564 11.0927 27.0473C10.7153 26.9676 10.3464 27.3038 10.1905 27.7139C10.0347 28.1241 10.0416 28.5901 10.0513 29.0388C10.0755 30.1581 10.1127 31.3333 10.6009 32.2963C11.3541 33.7819 12.9361 34.3308 14.3805 34.6856C16.9443 35.3152 19.5473 35.7259 22.1621 35.9132C20.9952 35.2175 19.9606 34.0268 19.7144 32.5212C19.6476 32.1123 19.6404 31.6936 19.6334 31.2772C19.4972 23.1368 19.361 14.9964 19.2247 6.85595C19.2161 6.34115 18.6198 6.19846 18.1804 6.22267ZM28.1284 19.5877C28.0634 19.773 28.0163 19.9786 28.0595 20.1724C28.1027 20.3661 28.2636 20.5353 28.4323 20.5024C29.1882 20.3551 30.0031 20.7909 30.4027 21.5563C30.7324 22.1878 30.7782 22.9605 30.8153 23.6994L31.1534 30.4296C31.1895 31.1488 31.2074 31.9402 30.8255 32.5052C30.33 33.2383 29.3997 33.2627 28.6049 33.1717C27.9491 33.0966 27.2592 32.969 26.7501 32.4794C26.7681 32.7643 26.6972 33.0559 26.5535 33.2869C26.3762 33.5721 26.6624 33.9474 26.9409 34.0822C27.2809 34.2469 27.6507 34.3043 28.0157 34.3598C29.6873 34.6137 31.36 34.8586 33.0336 35.0945C34.3217 35.276 35.6305 35.4518 36.9112 35.2081C36.101 34.942 35.3257 34.5307 34.6207 33.993C34.269 33.7247 33.9288 33.4182 33.6889 33.0149C33.2973 32.3566 33.2148 31.5201 33.1497 30.7216C32.9559 28.347 32.8117 25.9669 32.7172 23.5841C32.6475 21.8266 32.166 20.0938 31.3392 18.6245C31.1913 18.3618 31.0104 18.0892 30.749 18.016C29.7097 17.7252 28.5339 18.4304 28.1284 19.5877ZM23.3626 34.7967C23.4508 34.8143 23.5412 34.8374 23.6139 34.8984C23.6866 34.9594 23.7373 35.0678 23.7149 35.1691C23.6925 35.2705 23.5782 35.3372 23.5061 35.2754C23.4264 35.2072 23.3204 35.2048 23.2255 35.1734C23.1305 35.142 23.031 35.0497 23.048 34.9359C23.0697 34.7917 23.2393 34.7722 23.3626 34.7967ZM19.7023 34.8396C19.8117 34.8662 19.9397 34.9575 19.9173 35.0856C19.8975 35.1985 19.7781 35.2362 19.6805 35.2515C19.571 35.2686 19.4542 35.2844 19.3548 35.2281C19.2554 35.1717 19.191 35.0129 19.2562 34.9085C19.3001 34.8382 19.3824 34.8195 19.4568 34.8159C19.5391 34.812 19.6217 34.82 19.7023 34.8396ZM26.2464 33.4156C26.1426 33.5033 26.0712 33.6325 25.998 33.7553C25.664 34.3154 25.2408 34.8022 24.7565 35.1832C24.7686 35.2433 24.8456 35.2281 24.8912 35.1972C25.4519 34.8169 25.8521 34.1887 26.2361 33.5777C26.2675 33.5278 26.2934 33.4441 26.2464 33.4156ZM31.2601 18.2855C31.5592 18.699 31.8607 19.1164 32.0795 19.5938C32.3168 20.1115 32.4501 20.685 32.5574 21.2589C33.1577 24.4689 32.9975 27.8062 33.3865 31.0605C33.4567 31.6477 33.5495 32.2475 33.8106 32.7556C34.1163 33.3509 34.6238 33.7636 35.1408 34.1046C35.559 34.3804 35.9955 34.6226 36.4547 34.7859C37.1849 35.0457 38.0622 35.0638 38.622 34.4566C38.9363 34.1155 39.1017 33.629 39.2308 33.1506C39.7844 31.1003 39.8453 28.871 39.4047 26.7834C39.4158 28.032 39.5543 29.2775 39.5226 30.5256C39.4909 31.7736 39.272 33.0588 38.6453 34.0691C38.5211 34.2692 38.3772 34.4613 38.1896 34.5751C37.9425 34.7249 37.6489 34.722 37.3727 34.6825C36.8902 34.6135 36.4184 34.4429 35.9868 34.1812C35.6589 33.9824 35.3556 33.7327 35.0617 33.4711C34.7201 33.167 34.3847 32.8394 34.1453 32.4224C33.9081 32.0091 33.7758 31.5263 33.6709 31.0438C32.9051 27.5204 33.4527 23.7197 32.5439 20.2432C32.3297 19.4238 31.9578 18.5447 31.2601 18.2855ZM12.9895 33.786C14.7574 34.1055 16.5254 34.4249 18.2934 34.7443C18.2486 34.8812 18.087 34.886 17.9628 34.8666C16.4508 34.6302 14.9388 34.3937 13.4268 34.1573C13.2559 34.1306 13.0849 34.1039 12.914 34.0771C12.8329 34.0644 12.7321 34.0301 12.7219 33.935C12.7074 33.801 12.8754 33.7654 12.9895 33.786ZM33.4988 21.6257C33.1254 22.1121 33.1523 22.846 33.2012 23.4975C33.3083 24.9234 33.4154 26.3493 33.5224 27.7752C33.5274 27.8419 33.5335 27.9122 33.5669 27.9666C33.6216 28.0555 33.7274 28.0709 33.8207 28.0786C35.0918 28.1835 36.3629 28.2883 37.634 28.3932C37.539 28.569 37.3247 28.5716 37.1475 28.5556C35.9508 28.4475 34.7493 28.4125 33.5495 28.4507C33.5289 29.1709 33.6195 29.8953 33.8159 30.5783C33.901 30.8743 34.2286 30.9373 34.4952 30.95C35.512 30.9982 36.5287 31.0463 37.5454 31.0945C37.5921 31.2178 37.4279 31.2948 37.3126 31.2933C36.2676 31.2792 35.2225 31.2651 34.1774 31.2511C34.0343 31.2491 33.9825 31.4865 34.0364 31.6417C34.1774 32.0474 34.6263 32.1347 34.9997 32.1621L37.3362 32.3333C37.3895 32.3373 37.4006 32.4354 37.3617 32.4782C37.3227 32.521 37.2634 32.5222 37.2099 32.5209L34.4743 32.453C35.1816 33.4384 36.1737 34.1386 37.2484 34.4109C37.4799 34.4696 37.7254 34.5081 37.9504 34.4212C38.2196 34.3171 38.4181 34.0496 38.5735 33.772C39.3978 32.3001 39.343 30.4061 39.2588 28.6489L39.1633 26.6572C39.1966 26.6035 39.2651 26.5849 39.3152 26.616C39.3346 26.5183 39.2261 26.4604 39.1419 26.4423C37.2824 26.0425 35.3743 25.6421 33.5134 26.0325C33.4539 26.0039 33.4545 25.8956 33.4997 25.8421C33.545 25.7886 33.6136 25.7756 33.6773 25.7653C33.9316 25.7244 34.186 25.6834 34.4404 25.6425C33.8566 25.3338 33.5028 24.6007 33.3971 23.8611C33.2913 23.1216 33.3946 22.3655 33.4988 21.6257ZM24.3598 33.7337C24.5254 33.7698 24.7167 33.8291 24.7813 34.0112C24.5969 34.1583 24.3548 34.1432 24.1323 34.1224C24.0711 34.1167 24.0043 34.108 23.9613 34.0567C23.8852 33.9659 23.9419 33.7986 24.0398 33.7435C24.1377 33.6884 24.253 33.7105 24.3598 33.7337ZM11.746 32.4032C13.6507 33.1038 15.6246 33.5468 17.6157 33.7204C17.7702 33.7339 17.9778 33.82 17.9481 33.998C15.8423 33.7192 13.7494 33.3072 11.6816 32.7644C11.5496 32.7297 11.3803 32.6197 11.4295 32.4723C11.4726 32.3427 11.6326 32.3615 11.746 32.4032ZM18.7227 33.4846C18.82 33.4843 18.9139 33.5233 19.0048 33.5638C19.051 33.5844 19.1019 33.6109 19.1198 33.6649C19.158 33.78 19.0225 33.8622 18.9188 33.8842C18.8489 33.8991 18.7791 33.9139 18.7093 33.9287C18.6504 33.9412 18.587 33.9531 18.5327 33.9234C18.4447 33.8751 18.4218 33.7263 18.4723 33.629C18.5228 33.5317 18.6255 33.4849 18.7227 33.4846ZM27.6923 33.2388C28.5349 33.4264 29.3979 33.437 30.2555 33.447C30.3219 33.4478 30.3398 33.57 30.2924 33.6244C30.245 33.6788 30.171 33.6812 30.1046 33.6797C29.304 33.6612 28.5024 33.5625 27.7041 33.6361C27.6172 33.6441 27.527 33.6537 27.4454 33.6179C27.3638 33.5821 27.2942 33.4856 27.3097 33.3852C27.323 33.2986 27.3951 33.238 27.4689 33.2213C27.5426 33.2045 27.6185 33.2223 27.6923 33.2388ZM29.5958 17.7778C28.6418 17.9446 27.8403 18.9385 27.7531 20.0629C27.6716 21.1131 27.424 22.1343 27.2477 23.1684C26.6816 26.4893 26.8533 29.9309 26.3529 33.2661C26.5357 32.8765 26.585 32.423 26.631 31.9817L27.8446 20.3479C27.8769 20.0384 27.9099 19.7252 28.0049 19.4339C28.2646 18.6376 28.9356 18.1374 29.5958 17.7778ZM25.2582 32.8455C25.3102 32.8649 25.3634 32.8902 25.3981 32.9395C25.4327 32.9888 25.4414 33.0684 25.4035 33.1144C25.375 33.149 25.3302 33.1553 25.2893 33.1595C25.1552 33.1734 25.0211 33.1872 24.887 33.2011C24.8146 33.2086 24.7398 33.2158 24.6708 33.189C24.6019 33.1623 24.5396 33.0923 24.5377 33.0073C24.5343 32.8633 24.6861 32.7909 24.8089 32.7815C24.9603 32.7699 25.1136 32.7917 25.2582 32.8455ZM28.082 20.8017C27.9711 20.8484 27.9414 21.0125 27.9288 21.1497L27.5102 25.7131C27.4854 25.9834 27.7836 26.1558 28.0086 26.0889C28.2337 26.022 28.4055 25.8161 28.6001 25.6678C28.7947 25.5195 29.0691 25.4341 29.2477 25.6077C29.4497 25.8039 29.7487 25.586 29.9241 25.3575C30.0996 25.129 30.328 24.8536 30.5775 24.9489C30.2849 25.2766 29.9922 25.6043 29.6995 25.932C29.6024 26.0407 29.5168 26.2577 29.6395 26.3219C29.9758 26.1823 30.2798 25.9376 30.5116 25.6201C30.6187 25.6161 30.6238 25.8131 30.564 25.9173C30.3387 26.3098 29.8083 26.3972 29.6718 26.8422C29.353 27.8811 28.3591 28.5711 27.4274 28.4003C27.2363 28.3652 27.1411 28.6594 27.1181 28.8842C27.0264 29.7806 26.9346 30.677 26.8429 31.5734C26.8218 31.7796 26.8022 31.9977 26.8747 32.1872C26.9957 32.5035 27.3194 32.6231 27.6064 32.7082C28.1455 32.8681 28.6934 33.0291 29.2491 33.0061C29.8048 32.9831 30.3795 32.7506 30.7314 32.2466C30.6339 32.0984 30.4169 32.2884 30.2749 32.2026C30.1361 32.1188 30.2098 31.8396 30.3589 31.7848C30.5079 31.7299 30.6653 31.8171 30.8038 31.9019C30.8907 31.7033 30.9802 31.4907 30.9623 31.2685C30.9444 31.0463 30.7701 30.8266 30.5843 30.8765C30.4622 30.9094 30.4124 30.6616 30.5109 30.5709C30.6094 30.4802 30.7508 30.5096 30.8727 30.5435C30.8795 30.0073 30.8862 29.471 30.893 28.9348C30.8944 28.8253 30.8947 28.7104 30.8504 28.614C30.806 28.5177 30.7009 28.4502 30.6167 28.4977C30.5019 28.5624 30.4024 28.3336 30.4792 28.2146C30.556 28.0956 30.7011 28.0802 30.8284 28.075C30.8383 27.5987 30.812 27.1214 30.7499 26.6506C30.2704 26.9318 30.1865 27.674 30.1382 28.2993C30.0454 29.4984 29.8588 30.6876 29.5815 31.847C29.5193 32.1068 29.4494 32.3724 29.3042 32.5818C29.159 32.7913 28.9198 32.9336 28.6968 32.8655C28.7468 32.675 28.9171 32.5727 29.0418 32.4371C29.2663 32.1929 29.3497 31.8237 29.4229 31.4754C29.6759 30.2717 29.9305 29.0534 29.9273 27.8139L29.9269 27.7307C29.9252 27.4947 29.9231 27.2554 29.9896 27.0336C30.0639 26.7858 30.25 26.5618 30.4743 26.5605C30.7109 26.5591 30.7674 26.175 30.7463 25.8992C30.6733 24.9482 30.6004 23.9973 30.5275 23.0463C30.5042 22.7425 30.4804 22.436 30.4017 22.1453C30.1105 21.0705 28.9886 20.4207 28.082 20.8017ZM31.6518 32.4C31.763 32.435 31.8709 32.5688 31.8247 32.6922C31.7805 32.8101 31.642 32.8166 31.5325 32.8045C31.4789 32.7985 31.4219 32.791 31.3801 32.7514C31.3067 32.682 31.3171 32.5348 31.3858 32.4592C31.4545 32.3836 31.5607 32.3714 31.6518 32.4ZM18.2899 32.2682C18.3631 32.2867 18.4393 32.3117 18.4919 32.374C18.5445 32.4364 18.5619 32.5475 18.5096 32.6102C18.4669 32.6614 18.398 32.6623 18.3369 32.6598C18.249 32.6562 18.1611 32.6526 18.0733 32.649C18.0224 32.6469 17.968 32.6434 17.9271 32.6079C17.8398 32.5319 17.8781 32.3538 17.9719 32.2892C18.0656 32.2246 18.1836 32.2412 18.2899 32.2682ZM11.5193 31.335C12.0112 31.6028 12.5516 31.7196 13.0861 31.8286C14.168 32.0492 15.2532 32.2479 16.341 32.4246C16.4932 32.4493 16.6618 32.4843 16.7546 32.6278C16.3333 32.6615 15.9123 32.5793 15.4959 32.4975C14.1233 32.2277 12.7506 31.9579 11.378 31.6881C11.2341 31.6598 11.0483 31.5662 11.0763 31.3986C11.1095 31.2 11.3625 31.2497 11.5193 31.335ZM20.0606 25.6439C20.0128 25.8684 20.022 26.1032 20.0285 26.3344C20.0693 27.7775 19.9961 29.225 19.8103 30.6524C19.766 30.9926 19.9397 31.3329 20.1784 31.5338C20.4171 31.7348 20.7112 31.8211 21 31.8862C21.6509 32.033 22.3161 32.0931 22.9785 32.0652C23.2304 32.0546 23.4928 32.0274 23.7082 31.8742C23.9122 31.7291 24.0505 31.4876 24.1723 31.2474C24.6889 30.2278 25.0276 29.0853 25.1617 27.9103C23.3035 27.9005 21.4564 27.0798 20.0606 25.6439ZM24.9207 31.3655C25.0476 31.4145 25.1744 31.4635 25.3013 31.5125C25.3436 31.5289 25.389 31.5478 25.4141 31.5909C25.4565 31.6637 25.4153 31.7703 25.3497 31.8135C25.2841 31.8567 25.2044 31.8544 25.1292 31.8509C24.9922 31.8445 24.8409 31.831 24.7453 31.716C24.6497 31.6011 24.6825 31.353 24.8193 31.3426C24.8538 31.3399 24.8878 31.3528 24.9207 31.3655ZM31.5711 31.3871C31.6466 31.4012 31.7262 31.4174 31.7843 31.4755C31.8425 31.5335 31.8663 31.6484 31.8127 31.7122C31.7911 31.7379 31.7612 31.7511 31.7321 31.7629C31.6198 31.8087 31.4951 31.8452 31.384 31.7954C31.273 31.7456 31.1972 31.5737 31.2671 31.461C31.3312 31.3575 31.4632 31.3669 31.5711 31.3871ZM11.8463 26.5827C11.7681 26.6261 11.6844 26.6755 11.6458 26.7662C11.617 26.8337 11.6185 26.9128 11.6207 26.9883C11.6499 28.0164 11.6867 29.0813 12.0795 30.0015C12.1856 30.2501 12.3206 30.4892 12.5116 30.6541C12.6274 30.7539 12.7598 30.8232 12.8912 30.8917C13.1191 31.0105 13.3476 31.1293 13.5842 31.222C14.1262 31.4345 14.6999 31.5065 15.2683 31.5772C15.5093 31.6072 15.766 31.634 15.9823 31.5058C16.2368 31.3549 16.3724 31.0278 16.4819 30.7194C17.0925 28.9993 17.441 27.1524 17.5063 25.2914C17.5156 25.027 17.2264 24.9102 17.0008 24.8925C15.1998 24.751 13.4774 25.6777 11.8463 26.5827ZM17.786 25.2168C17.7398 25.2879 17.7341 25.3831 17.7295 25.4723C17.6217 27.577 17.1742 29.6571 16.4176 31.5704C17.1385 31.1434 17.6756 30.3141 17.8322 29.3863C17.8861 29.0673 17.8971 28.7409 17.9079 28.416C17.9422 27.3915 17.9765 26.367 18.0107 25.3425C18.0125 25.2885 18.0129 25.2291 17.9835 25.1874C17.935 25.1184 17.8322 25.1457 17.786 25.2168ZM18.0846 30.343C18.1761 30.3488 18.262 30.3933 18.3509 30.4192C18.4306 30.4423 18.4546 30.575 18.4102 30.6558C18.3657 30.7365 18.28 30.7716 18.1987 30.785C18.1139 30.7989 18.0227 30.7936 17.9498 30.7411C17.8768 30.6885 17.8295 30.5788 17.8586 30.4845C17.8898 30.3837 17.9931 30.3372 18.0846 30.343ZM31.6235 30.0648C31.7091 30.0855 31.7824 30.1475 31.8528 30.2079C31.891 30.2408 31.9317 30.2776 31.9442 30.3311C31.9602 30.3994 31.9217 30.473 31.8686 30.507C31.8156 30.5411 31.752 30.5435 31.6917 30.5379C31.606 30.5299 31.5174 30.505 31.4528 30.4387C31.3881 30.3724 31.3552 30.2559 31.3955 30.167C31.4365 30.0767 31.538 30.0441 31.6235 30.0648ZM11.2762 26.882C11.2529 26.9308 11.2576 26.9907 11.263 27.0463L11.39 28.3561C11.459 29.0668 11.5493 29.8328 11.9737 30.3474C12.0445 30.3082 12.0046 30.1836 11.96 30.1083C11.6162 29.5276 11.55 28.7892 11.4942 28.0857C11.4615 27.6733 11.4288 27.2609 11.3962 26.8486C11.3633 26.8079 11.2996 26.8332 11.2762 26.882ZM33.9077 29.5649C35.0737 29.5986 36.2397 29.6323 37.4058 29.666C37.5842 29.6712 37.7632 29.6764 37.9398 29.7074C37.9029 29.8566 37.7353 29.8847 37.6026 29.8832C36.4333 29.8703 35.2601 29.7856 34.0971 29.9279C33.9977 29.9401 33.8904 29.9521 33.8041 29.893C33.7178 29.8339 33.6791 29.6717 33.7585 29.6005C33.7996 29.5636 33.8559 29.5634 33.9077 29.5649ZM30.7041 29.2967C30.7298 29.3066 30.756 29.317 30.777 29.337C30.8467 29.4034 30.8207 29.5453 30.7495 29.6093C30.6782 29.6734 30.5821 29.6808 30.4922 29.6834C30.3987 29.6861 30.2896 29.6774 30.2364 29.5874C30.1695 29.4744 30.249 29.3073 30.3597 29.2614C30.4704 29.2156 30.5925 29.254 30.7041 29.2967ZM31.5566 29.0209C31.6654 29.0347 31.7712 29.0793 31.8624 29.1499C31.9322 29.2038 31.9182 29.3393 31.8548 29.403C31.7913 29.4667 31.7008 29.4756 31.6172 29.472C31.5328 29.4685 31.4446 29.4534 31.3763 29.3952C31.308 29.337 31.2673 29.2245 31.3039 29.1353C31.3457 29.0336 31.4607 29.0088 31.5566 29.0209ZM19.8103 25.9062C19.7468 26.9774 19.7183 28.0515 19.725 29.1252C19.7253 29.1706 19.7516 29.2351 19.7848 29.2115C19.855 28.3089 19.8894 27.4025 19.888 26.4962C19.8877 26.2955 19.8842 26.0873 19.8103 25.9062ZM18.5638 28.6542C18.6638 28.663 18.7521 28.7312 18.8336 28.7996C18.8587 28.8206 18.8846 28.8431 18.8986 28.8753C18.9277 28.942 18.8928 29.0279 18.8382 29.067C18.7836 29.106 18.716 29.1091 18.652 29.1056C18.5066 29.0976 18.3238 29.005 18.3401 28.8357C18.3513 28.719 18.4637 28.6454 18.5638 28.6542ZM31.7988 27.9327C31.8962 27.9794 31.9964 28.1016 31.9461 28.2098C31.9121 28.2831 31.8291 28.2989 31.7578 28.2997C31.6751 28.3007 31.5923 28.2928 31.5108 28.2762C31.3962 28.2528 31.3786 28.0417 31.4676 27.954C31.5566 27.8662 31.6912 27.8809 31.7988 27.9327ZM43.1452 25.8366C43.1853 25.9152 43.186 26.012 43.1855 26.1036C43.1821 26.7518 43.1787 27.4001 43.1753 28.0483C43.1749 28.127 43.1659 28.2224 43.1048 28.2554C43.0521 28.284 42.9871 28.2439 42.9577 28.1852C42.9284 28.1265 42.9257 28.0552 42.9247 27.9872C42.9162 27.4084 42.9713 26.8159 42.8313 26.2608C42.7897 26.0959 42.7398 25.8899 42.8487 25.7743C42.9337 25.684 43.0863 25.7213 43.1452 25.8366ZM28.9078 25.7615C28.488 26.0664 28.0464 26.3799 27.5537 26.4214C27.464 26.429 27.4237 26.5543 27.406 26.6575C27.3264 27.1215 27.2825 27.5939 27.275 28.0671C27.2745 28.096 27.2747 28.1271 27.289 28.1507C27.3117 28.1883 27.358 28.1899 27.3973 28.1875C27.7817 28.1639 28.1714 28.1169 28.5284 27.9484C28.8854 27.78 29.2102 27.4748 29.3556 27.0577C29.5011 26.6405 29.4312 26.1085 29.1341 25.822C29.0702 25.7604 28.9781 25.7104 28.9078 25.7615ZM25.6941 27.5861C25.829 27.6276 25.9638 27.6691 26.0987 27.7105C26.1491 27.726 26.2051 27.7466 26.2292 27.8007C26.2576 27.8644 26.2246 27.9465 26.1732 27.9858C26.1219 28.0252 26.058 28.0326 25.9968 28.039C25.8999 28.0491 25.8001 28.0589 25.707 28.0253C25.614 27.9918 25.5284 27.904 25.5177 27.7907C25.5071 27.6775 25.6 27.5572 25.6941 27.5861ZM6.98531 18.948C7.49008 19.1873 7.87001 19.7049 8.10566 20.2796C8.34131 20.8543 8.44861 21.488 8.54212 22.1159C8.69689 23.1553 8.82015 24.2163 8.70729 25.263C8.59444 26.3098 8.22062 27.3535 7.52762 28.0282C8.03242 28.0597 8.63516 28.0363 8.90922 27.5391C9.0322 27.316 9.2969 27.2172 9.50752 27.3159C9.37511 27.1819 9.47506 26.9324 9.57333 26.7628C9.97599 26.0681 10.2523 25.2697 10.351 24.4382C10.5424 22.826 10.0611 21.192 9.347 19.7952C8.88366 18.889 7.80288 18.5013 6.98531 18.948ZM18.9536 27.2998C19.0578 27.3478 19.0335 27.5493 18.9361 27.614C18.8388 27.6787 18.7175 27.6496 18.609 27.6173C18.5584 27.6022 18.5047 27.5846 18.4703 27.5386C18.3901 27.4312 18.4822 27.2496 18.6009 27.2176C18.7197 27.1855 18.8402 27.2476 18.9536 27.2998ZM22.6982 19.5415C22.2525 19.5507 21.7847 19.6143 21.4209 19.9158C21.3006 20.0154 21.1913 20.1459 21.1473 20.3106C21.1034 20.4753 21.1404 20.6777 21.2625 20.7744C21.5709 21.019 21.6967 21.4765 21.7545 21.9073C21.8123 22.3381 21.8262 22.7893 21.9939 23.1787C22.0804 23.3795 22.2044 23.5547 22.3345 23.7202C23.0397 24.6178 23.9596 25.2817 24.9613 25.6163C25.1374 25.6751 25.3615 25.8025 25.3243 26.0124C23.8831 25.6586 22.5688 24.6405 21.7273 23.2261C21.4716 24.1454 20.9672 24.9675 20.3046 25.5448C21.597 26.8321 23.2694 27.5863 24.9656 27.6468C25.0424 27.6495 25.1294 27.6461 25.1812 27.5796C25.2152 27.5361 25.2258 27.4749 25.2351 27.417C25.4751 25.9058 25.6443 24.3791 25.7416 22.8463C25.7749 22.3219 25.7993 21.7887 25.7024 21.2753C25.6056 20.7618 25.3719 20.2626 24.9899 19.9859C24.7546 19.8153 24.479 19.7388 24.2065 19.6819C23.7092 19.5781 23.2033 19.531 22.6982 19.5415ZM31.5536 26.896C31.6705 26.8961 31.8179 26.9361 31.8384 27.0707C31.8588 27.2049 31.7282 27.3049 31.6127 27.3222C31.5282 27.3348 31.4364 27.3228 31.3693 27.2613C31.3023 27.1997 31.2711 27.0792 31.3177 26.9957C31.3654 26.9101 31.4663 26.896 31.5536 26.896ZM40.1878 24.2012C39.9733 25.1737 39.8481 26.1697 39.7233 27.1635C39.7171 27.2129 39.7135 27.2714 39.7454 27.3047C40.0797 26.8185 40.3864 26.3062 40.6628 25.7725C40.69 25.7198 40.7169 25.6509 40.6863 25.6008C40.617 25.4875 40.5478 25.3742 40.4785 25.2608C40.4271 25.1767 40.3741 25.0659 40.4193 24.977C40.4561 24.9048 40.5383 24.8896 40.6099 24.8819L41.1973 24.8185C41.1909 24.776 41.1688 24.7392 41.1472 24.7041C40.9899 24.448 40.8184 24.1786 40.5666 24.0662C40.427 24.0039 40.2251 24.0319 40.1878 24.2012ZM12.9838 14.1404C12.5544 14.2247 12.0893 14.3701 11.8402 14.788C11.7007 15.0219 11.6494 15.3108 11.6084 15.5919C11.4473 16.6979 11.3969 17.826 11.4588 18.9456C13.3099 17.9375 15.4757 17.746 17.4351 18.4172C17.6013 18.4741 17.807 18.6466 17.7197 18.8217C16.2499 18.1853 14.6127 18.0904 13.0963 18.5537C12.6057 18.7036 12.1288 18.9097 11.641 19.0717C10.9159 19.3123 10.1671 19.4546 9.41426 19.4947C10.7854 21.6738 10.9628 24.7941 9.8505 27.1666C10.5426 27.0133 11.1928 26.6729 11.8309 26.3239C12.7836 25.8028 13.7322 25.2532 14.7442 24.9186C15.7562 24.5841 16.8504 24.4747 17.8543 24.8415C17.9717 24.8844 18.0364 24.686 18.0411 24.5421L18.2586 17.8711C18.2916 16.8605 18.2943 15.7431 17.7291 14.9782C17.229 14.3014 16.4133 14.0897 15.6516 14.0136C14.7625 13.9248 13.8639 13.9675 12.9838 14.1404ZM26.2456 26.5221C26.2737 26.5436 26.3027 26.5706 26.3093 26.6091C26.3226 26.6873 26.2414 26.7371 26.1758 26.7589C26.0807 26.7905 25.9826 26.8221 25.8842 26.81C25.7858 26.7979 25.6858 26.7317 25.6534 26.6223C25.6211 26.5129 25.6861 26.3692 25.785 26.3671C25.9471 26.3636 26.1098 26.4184 26.2456 26.5221ZM40.2079 22.3243C39.8498 22.5593 39.422 22.6452 39.0175 22.5633C39.0693 22.7322 39.2961 22.7911 39.2972 22.9705C39.2979 23.0797 39.21 23.1566 39.16 23.2489C39.1216 23.3199 39.1049 23.4037 39.0896 23.4858C38.9455 24.2583 38.8627 25.0464 38.8428 25.8367C38.8394 25.9729 38.8683 26.1527 38.984 26.1676C39.2236 26.1983 39.4493 26.3556 39.5866 26.5875C39.6991 25.7589 39.8116 24.9303 39.9241 24.1016C39.9502 23.9094 39.9722 23.6946 39.8759 23.5358C39.7435 23.3174 39.8587 23.0181 39.9749 22.7873L40.2079 22.3243ZM18.8878 25.906C19.01 25.9345 19.1491 26.0581 19.1028 26.1935C19.0743 26.2769 18.9881 26.3106 18.9114 26.3154C18.8348 26.3202 18.755 26.3069 18.6832 26.3388C18.5987 26.3763 18.4992 26.2887 18.4889 26.1836C18.4786 26.0785 18.541 25.9765 18.6223 25.9303C18.7036 25.8842 18.7992 25.8853 18.8878 25.906ZM31.5521 25.778C31.6292 25.7905 31.7104 25.8103 31.7665 25.8734C31.8226 25.9365 31.838 26.0566 31.7783 26.115C31.7586 26.1343 31.7337 26.1444 31.7094 26.1542C31.6035 26.1965 31.4903 26.2379 31.3817 26.2065C31.2731 26.1751 31.1787 26.0402 31.2163 25.9169C31.2596 25.7747 31.4244 25.7573 31.5521 25.778ZM38.5656 24.0745C38.4841 24.0975 38.4246 24.1772 38.3708 24.2526L38.0468 24.7068C37.9835 24.7955 38.0949 24.9192 38.1933 24.9289C38.2918 24.9385 38.4068 24.9114 38.4768 24.993C38.5502 25.0784 38.5199 25.2273 38.4598 25.3259C38.3997 25.4246 38.3145 25.5051 38.2782 25.6185C38.2239 25.7881 38.3138 26.0006 38.4619 26.0529C38.5424 26.0812 38.6553 26.0376 38.656 25.9392C38.6601 25.3643 38.6888 24.7896 38.742 24.218C38.751 24.1204 38.6472 24.0515 38.5656 24.0745ZM22.1254 24.36C22.1875 24.4083 22.2276 24.4855 22.269 24.5581C22.6245 25.1811 23.219 25.6093 23.8543 25.6998C24.0013 25.7208 24.1747 25.7417 24.2484 25.892C24.1099 26.0524 23.8844 26.0329 23.6946 25.9812C23.0219 25.798 22.4056 25.3431 21.9744 24.7117C21.9056 24.6109 21.8429 24.4577 21.9195 24.3652C21.9714 24.3026 22.0634 24.3117 22.1254 24.36ZM38.2163 21.607C37.7412 21.7436 37.2669 21.9364 36.8819 22.2896C36.4969 22.6428 36.2105 23.1795 36.2135 23.7521C36.2174 24.4782 35.9126 25.1977 35.4165 25.6337L36.2517 25.7488C36.3495 25.7623 36.4592 25.772 36.5357 25.6995C36.6477 25.5935 36.6191 25.39 36.5908 25.2247C36.5625 25.0594 36.5687 24.8409 36.7031 24.7801C36.8699 24.7046 37.008 24.9755 36.9827 25.1828C36.9575 25.3901 36.8547 25.5896 36.8869 25.7956C37.2824 25.8612 37.6792 25.9166 38.0769 25.9615C37.9977 25.8856 37.9891 25.7415 38.0291 25.6312C38.0692 25.521 38.1469 25.4366 38.2224 25.3557C38.3029 25.2696 38.1869 25.1178 38.0785 25.1042C37.9701 25.0905 37.8425 25.121 37.7661 25.03C37.6711 24.9168 37.7424 24.7271 37.8235 24.5998C37.9808 24.353 38.1758 24.0554 38.0745 23.7711C37.8276 23.078 37.8819 22.248 38.2163 21.607ZM19.9992 19.713C19.9329 21.6106 19.942 23.5118 20.0263 25.4084C20.6456 25.0151 21.0981 24.323 21.3787 23.5665C21.5499 23.105 21.6645 22.5963 21.596 22.0996C21.545 21.7291 21.3952 21.3869 21.221 21.072C20.9119 20.5132 20.5085 20.0089 19.9992 19.713ZM34.3587 18.8038C34.5811 18.7559 34.7511 19.0772 34.7132 19.3382C34.6753 19.5991 34.5133 19.8066 34.3845 20.0242C34.2066 20.3248 34.0849 20.6652 33.9645 21.0027C33.6781 21.8057 33.5666 22.6932 33.6434 23.5588C33.6887 24.0683 33.808 24.5918 34.1023 24.9709C34.3967 25.3501 34.9013 25.5397 35.2892 25.3023C35.6223 25.0985 35.7885 24.6492 35.8649 24.2183C35.9413 23.7875 35.9549 23.3365 36.0993 22.9302C36.3655 22.1807 37.0222 21.7279 37.6718 21.4436C36.6953 21.2883 35.8118 20.4919 35.4341 19.4264C35.3258 19.1209 35.2445 18.7764 35.0198 18.5758C34.795 18.3752 34.3719 18.4734 34.3587 18.8038ZM26.1046 24.9167C26.1733 24.9321 26.2406 24.9554 26.3054 24.9863C26.4123 25.0372 26.5271 25.1779 26.4584 25.2864C26.4208 25.3457 26.3487 25.3528 26.2856 25.3547C26.1707 25.3581 26.0468 25.3586 25.9529 25.2809C25.859 25.2032 25.8266 25.0152 25.9212 24.9389C25.9732 24.897 26.0426 24.9027 26.1046 24.9167ZM31.2815 24.5963C31.3745 24.6056 31.4671 24.6207 31.5587 24.6416C31.604 24.6519 31.6529 24.6663 31.6814 24.7088C31.7246 24.7733 31.6974 24.8744 31.6427 24.9256C31.5881 24.9768 31.5155 24.9912 31.4464 25.0039C31.3408 25.0232 31.2281 25.0416 31.1306 24.9901C31.0332 24.9386 30.9667 24.7879 31.0262 24.684C31.0782 24.5933 31.1886 24.5871 31.2815 24.5963ZM4.70424 24.011C4.6255 24.01 4.59826 24.133 4.60065 24.2252C4.60751 24.49 4.6533 24.7533 4.73539 25.0001C4.75824 25.0274 4.78478 24.9705 4.78159 24.9324L4.70424 24.011ZM19.8355 24.6927C19.7863 24.7239 19.7676 24.8065 19.7971 24.8621L19.7983 24.8642L19.7972 24.8655C19.7959 24.8674 19.7945 24.8696 19.793 24.8722C19.7732 24.9072 19.8009 24.9628 19.8367 24.9598C19.8609 24.8738 19.8605 24.7784 19.8355 24.6927ZM18.812 24.3179C18.9185 24.3455 19.0342 24.449 19.0077 24.573C18.9901 24.6551 18.9163 24.7032 18.8457 24.7216C18.7752 24.74 18.7005 24.7387 18.6331 24.7694C18.5474 24.8084 18.4442 24.7274 18.4265 24.6218C18.4088 24.5161 18.4641 24.4058 18.5439 24.3523C18.6237 24.2987 18.7222 24.2947 18.812 24.3179ZM19.4286 6.83888C19.4348 12.5513 19.5469 18.2636 19.7649 23.9703L19.7878 24.5603L19.7913 24.3705C19.7975 23.927 19.792 23.4832 19.7864 23.0396C19.7214 17.8399 19.6563 12.6401 19.5913 7.4404C19.5885 7.22269 19.5739 6.97489 19.4286 6.83888ZM26.4088 23.4826C26.4686 23.5036 26.5286 23.5353 26.5674 23.5926C26.6061 23.6498 26.6172 23.7377 26.5789 23.7953C26.5417 23.8511 26.4745 23.8617 26.4143 23.8679L26.1576 23.8946C26.1155 23.899 26.0705 23.9026 26.034 23.8779C26.0045 23.8579 25.985 23.8216 25.976 23.7831C25.9491 23.6674 26.0159 23.5418 26.1084 23.4902C26.201 23.4386 26.3107 23.4482 26.4088 23.4826ZM5.72716 19.011C5.46022 19.3181 5.32137 19.7425 5.19308 20.154C4.83561 21.3007 4.49591 22.5178 4.67229 23.7209C4.72683 23.7326 4.75283 23.6457 4.75687 23.581C4.82938 22.4204 5.02752 21.2705 5.34506 20.1677C5.46622 19.747 5.61195 19.3197 5.88109 19.0067C5.87741 18.9305 5.77368 18.9575 5.72716 19.011ZM38.5447 21.5195C38.4981 21.5329 38.468 21.5843 38.4436 21.6327C38.2139 22.0889 38.1058 22.6277 38.1379 23.156C38.1511 23.3741 38.2111 23.6253 38.3851 23.7049C38.5266 23.5459 38.6681 23.3868 38.8096 23.2278C38.832 23.2026 38.855 23.1764 38.8674 23.143C38.8985 23.0593 38.8541 22.966 38.8133 22.8883C38.6117 22.5042 38.4603 22.0175 38.6282 21.6118C38.6491 21.5613 38.5912 21.5061 38.5447 21.5195ZM41.4846 21.0272C41.4621 21.041 41.4446 21.0638 41.4278 21.0862C41.0101 21.6391 40.6067 22.2068 40.2183 22.7882C40.1372 22.9097 40.0526 23.0466 40.0606 23.2005C40.0677 23.3373 40.1498 23.4564 40.2495 23.5283C40.3491 23.6003 40.4652 23.6331 40.579 23.6648C40.6095 23.6733 40.6426 23.6816 40.6712 23.6667C40.6976 23.6531 40.7143 23.6228 40.7295 23.5941C40.9673 23.1454 41.2084 22.6877 41.3207 22.1763C41.3447 22.0673 41.4255 21.9911 41.49 21.9076C41.6169 21.7436 41.6912 21.5252 41.6954 21.3041C41.6969 21.2292 41.6894 21.1502 41.6524 21.0891C41.6153 21.028 41.5414 20.9926 41.4846 21.0272ZM31.3124 23.216C31.37 23.2327 31.4334 23.2582 31.4592 23.3207C31.5047 23.4308 31.398 23.5456 31.2982 23.5817C31.2208 23.6098 31.1345 23.6195 31.0603 23.5815C30.9861 23.5435 30.9298 23.4477 30.9466 23.355C30.9765 23.1903 31.1729 23.1754 31.3124 23.216ZM18.9073 22.9756C18.9344 23.0041 18.9596 23.0376 18.9699 23.0785C18.9906 23.1609 18.9415 23.2518 18.874 23.2857C18.8066 23.3196 18.7278 23.3065 18.6599 23.274C18.5883 23.2399 18.5186 23.1746 18.5095 23.0847C18.4991 22.982 18.5786 22.8875 18.6661 22.8726C18.7536 22.8577 18.8414 22.9065 18.9073 22.9756ZM26.648 22.0723C26.7178 22.1056 26.7251 22.2292 26.677 22.2971C26.6288 22.365 26.5485 22.3876 26.4734 22.395C26.3983 22.4024 26.3207 22.3991 26.2505 22.4313C26.1427 22.4807 26.0254 22.3282 26.0511 22.1961C26.0767 22.0639 26.198 21.9818 26.3137 21.9754C26.4293 21.9691 26.5408 22.0212 26.648 22.0723ZM31.1928 21.8735C31.2917 21.8792 31.3896 21.9096 31.4779 21.9622C31.5162 21.985 31.5558 22.0165 31.5667 22.0651C31.5892 22.1653 31.4818 22.2341 31.3949 22.2537C31.3178 22.271 31.2396 22.2813 31.1612 22.2845C31.0644 22.2884 30.9476 22.2666 30.9091 22.1626C30.8791 22.0818 30.9156 21.9828 30.9769 21.9317C31.0383 21.8807 31.1176 21.8692 31.1928 21.8735ZM37.5726 14.4753C36.9952 14.5843 36.4153 14.6747 35.8337 14.7463C35.4124 14.7981 35.0156 15.0779 34.7795 15.4896C34.731 15.5742 34.6976 15.7091 34.7725 15.761C34.9845 15.4747 35.2722 15.2665 35.5858 15.1723C35.6978 15.1387 35.8205 15.1203 35.9261 15.1755C36.0318 15.2306 36.1073 15.3823 36.0595 15.5056C35.9861 15.6949 35.7519 15.642 35.5746 15.6293C35.0815 15.5941 34.6551 16.2547 34.8187 16.8003C34.9335 16.2794 35.5687 16.0533 35.9248 16.3933C36.2809 16.7334 36.2373 17.4801 35.8565 17.7812C35.7307 17.8806 35.5691 17.95 35.5116 18.1145C35.4624 18.2556 35.5098 18.4149 35.557 18.557C35.6312 18.7798 35.7053 19.0027 35.7794 19.2256C35.9349 19.6929 36.1 20.1772 36.4146 20.5176C36.6565 20.7794 36.9702 20.9351 37.2903 21.0264C38.4442 21.3556 39.7433 20.8317 40.4791 19.7403C40.5381 19.6528 40.6726 19.7358 40.6831 19.8465C40.6936 19.9573 40.629 20.0568 40.565 20.1393C40.2355 20.5638 39.8203 20.8964 39.3629 21.1021C39.1468 21.1993 38.8899 21.3045 38.8234 21.5641C38.7684 21.7792 38.8841 22.0168 39.0504 22.1287C39.2166 22.2406 39.4193 22.2501 39.61 22.2257C39.9901 22.177 40.358 22.0028 40.6602 21.7284C40.7518 21.6452 40.8405 21.548 40.8812 21.4209C40.9197 21.3006 40.9109 21.1675 40.9016 21.0394L40.8935 20.9294C40.8578 20.452 40.8116 19.9689 40.6454 19.5323C40.5654 19.3223 40.4584 19.1255 40.3995 18.9062C40.3268 18.6356 40.3312 18.3454 40.2824 18.0676C40.2336 17.7899 40.11 17.5014 39.8841 17.399C39.9437 17.2215 40.0926 17.1098 40.1891 16.9561C40.2855 16.8023 40.2996 16.5337 40.1479 16.4643C40.0753 16.4311 39.9926 16.4597 39.9235 16.5017C39.632 16.6789 39.4748 17.1125 39.5683 17.481C39.6294 17.7215 39.3048 17.8829 39.13 17.7376C38.9553 17.5923 38.9122 17.3157 38.8778 17.0681C38.7442 16.1082 38.4761 15.0733 37.7757 14.55C37.7145 14.5043 37.6443 14.4618 37.5726 14.4753ZM18.846 21.2845C18.9381 21.3194 19.0299 21.4163 19.0108 21.5273C18.9927 21.6323 18.8894 21.6815 18.7992 21.6996C18.6713 21.7252 18.5044 21.6958 18.4684 21.5498C18.4342 21.4109 18.5585 21.2777 18.6813 21.2625C18.7367 21.2557 18.7931 21.2644 18.846 21.2845ZM33.6135 19.2851C33.5277 19.3803 33.4858 19.5163 33.4468 19.647C33.3588 19.9418 33.2696 20.2453 33.2798 20.5574C33.2863 20.7583 33.1867 20.9393 33.1156 21.1224C33.0446 21.3054 33.006 21.5398 33.1174 21.6929C33.3836 21.4309 33.4474 20.9899 33.506 20.5887C33.5759 20.1091 33.6711 19.6118 33.9361 19.2369C33.8434 19.151 33.6993 19.1898 33.6135 19.2851ZM26.6003 20.6219C26.6688 20.6477 26.7463 20.6992 26.7472 20.7834C26.7482 20.8859 26.6405 20.933 26.5544 20.9515C26.5112 20.9607 26.468 20.9699 26.4249 20.9792C26.3149 21.0027 26.197 21.0253 26.0948 20.9723C25.9925 20.9194 25.9244 20.7578 25.9912 20.6528C26.0343 20.5849 26.1138 20.5664 26.1859 20.5611C26.3257 20.551 26.467 20.5717 26.6003 20.6219ZM16.5985 19.1423C16.7188 19.2097 16.8534 19.3424 16.8089 19.4896C15.569 19.1732 14.2444 19.3297 13.0836 19.9297C12.5612 20.1997 12.0709 20.5567 11.5303 20.7719C11.3454 20.8456 11.1435 20.9021 10.9566 20.8353C10.7698 20.7685 10.614 20.5365 10.6686 20.317C10.7199 20.1109 10.916 20.013 11.0897 19.9441C11.9457 19.6049 12.8167 19.3172 13.698 19.0826C14.6596 18.8266 15.7088 18.6442 16.5985 19.1423ZM34.4012 19.1249C34.3127 19.1245 34.2382 19.2005 34.18 19.2786C34.0388 19.468 33.9384 19.6951 33.8638 19.9308C33.771 20.2236 33.7162 20.5328 33.7017 20.8446C33.958 20.3284 34.2321 19.8242 34.5231 19.3338C34.5736 19.2487 34.4897 19.1253 34.4012 19.1249ZM32.8302 20.0446C32.8059 20.0447 32.7803 20.0458 32.7598 20.061C32.7136 20.0953 32.72 20.1753 32.7337 20.2373C32.7772 20.4337 32.8373 20.6252 32.913 20.8078C32.9584 20.5504 33.0313 20.2998 33.1294 20.0635C33.0301 20.0502 32.9301 20.0439 32.8302 20.0446ZM13.4019 19.3812C12.668 19.6452 11.9341 19.9092 11.2002 20.1733C11.1125 20.2048 11.0108 20.2535 10.9921 20.3586C11.0518 20.4605 11.1654 20.5038 11.2709 20.4978C11.3763 20.4918 11.4764 20.4444 11.5741 20.3977C12.3186 20.0416 13.0632 19.6855 13.8077 19.3295C13.6747 19.286 13.5338 19.3337 13.4019 19.3812ZM21.1463 19.8631C21.1069 19.9431 21.0248 19.9771 20.9633 20.035C20.9019 20.0929 20.8658 20.2176 20.9307 20.2701C21.0301 20.1536 21.1295 20.0371 21.2289 19.9206C21.2084 19.8908 21.1785 19.87 21.1463 19.8631ZM28.8896 19.8011C29.423 19.8661 29.9613 19.8994 30.4957 19.8455C30.6339 19.8315 30.7993 19.825 30.8813 19.956C30.7777 20.0795 30.6149 20.0944 30.4672 20.1018C29.9126 20.1296 29.3579 20.1574 28.8033 20.1852C28.6951 20.1906 28.5581 20.1745 28.5229 20.0546C28.4953 19.9602 28.5581 19.856 28.637 19.8181C28.7159 19.7803 28.8048 19.7908 28.8896 19.8011ZM37.1368 19.1188C37.2659 19.3026 37.313 19.5612 37.2593 19.7906C37.246 19.8472 37.2267 19.9028 37.1957 19.949C37.1146 20.0703 36.9648 20.1061 36.8368 20.0702C36.7089 20.0343 36.5992 19.939 36.5016 19.8357C36.4009 19.7293 36.3065 19.6081 36.2582 19.4597C36.2099 19.3114 36.2155 19.1309 36.3012 19.0079C36.3719 18.9065 36.486 18.8579 36.5975 18.8483C36.8002 18.8309 37.0078 18.9351 37.1368 19.1188ZM19.1538 19.5461C19.2048 19.5943 19.1962 19.6944 19.1527 19.7518C19.1092 19.8091 19.0428 19.8336 18.9792 19.8522C18.9042 19.8741 18.8252 19.8912 18.7499 19.8703C18.6747 19.8493 18.6041 19.781 18.5948 19.691C18.5814 19.5606 18.698 19.4585 18.8089 19.4381C18.93 19.4157 19.0585 19.456 19.1538 19.5461ZM36.5462 19.1621C36.4897 19.2478 36.5268 19.4023 36.6184 19.417C36.7243 19.4339 36.8066 19.564 36.7895 19.6874C36.7761 19.7843 36.8771 19.8653 36.9572 19.8362C37.0372 19.8071 37.0836 19.702 37.0818 19.6039C37.08 19.5058 37.04 19.4143 36.9947 19.3318C36.9446 19.2408 36.8835 19.1524 36.7991 19.1081C36.7148 19.0638 36.6027 19.0765 36.5462 19.1621ZM36.2644 10.3657C35.4954 10.5305 34.7335 10.9237 34.2375 11.6311C33.7415 12.3386 33.5699 13.3973 33.9577 14.1919C34.0948 14.4728 34.304 14.7176 34.567 14.8165C34.8301 14.9153 35.1482 14.8426 35.3238 14.5928C35.5229 14.3095 35.9248 14.5812 36.2244 14.4737C36.6389 14.325 37.0697 14.2386 37.5028 14.2176C37.6055 14.2126 37.7114 14.2118 37.8073 14.2553C37.9113 14.3025 37.9935 14.3972 38.0726 14.4894C38.3467 14.8091 38.6265 15.1381 38.7888 15.5493C39.0462 16.2015 38.9825 16.9967 39.3076 17.6059C39.3456 17.2239 39.3837 16.8418 39.4217 16.4598C39.4358 16.318 39.4515 16.1708 39.5169 16.0504C39.5824 15.9299 39.7133 15.8454 39.8279 15.8942C40.03 15.9801 40.2405 16.0724 40.3856 16.2583C40.5307 16.4442 40.5844 16.754 40.4449 16.9456C40.3101 17.1308 40.4631 17.3985 40.5346 17.6269C40.6587 18.0227 40.5129 18.4748 40.6103 18.8806C40.6911 19.2168 40.9244 19.4677 41.1473 19.6998C41.2124 19.7677 41.2884 19.84 41.3753 19.8308C41.448 19.823 41.5065 19.7595 41.5562 19.6969C41.8524 19.3232 42.0553 18.8493 42.1337 18.3478C42.1654 18.1455 42.1053 17.8507 41.9311 17.8783C41.9787 17.3929 42.3599 17.0622 42.5838 16.6498C42.8253 16.205 42.8823 15.6581 42.8934 15.1313C42.9045 14.6018 42.8603 14.0263 42.5588 13.6313C42.1967 13.1568 41.4929 13.1213 41.0973 13.5577C40.9987 13.6665 40.8687 13.8102 40.751 13.7315C40.8432 13.5379 40.9355 13.3442 41.0277 13.1506C41.1779 12.835 41.3314 12.508 41.362 12.1485C41.4223 11.4391 40.9609 10.7675 40.3904 10.5181C39.8199 10.2686 39.1759 10.372 38.6036 10.616C38.4602 10.6772 38.2908 10.8085 38.3297 10.9813C38.3522 11.0813 38.4388 11.1417 38.4832 11.2312C38.5109 11.287 38.5081 11.3048 38.4768 11.35C38.4579 11.3772 38.4238 11.4561 38.3932 11.4407C38.0688 11.0009 37.7179 10.5405 37.2422 10.3741C36.927 10.2639 36.5881 10.2963 36.2644 10.3657ZM32.5798 19.4364C32.5392 19.4083 32.4616 19.3898 32.4692 19.4443C32.4911 19.5775 32.5936 19.6766 32.7041 19.7173C32.8147 19.758 32.9334 19.7512 33.0491 19.7439C33.0944 19.741 33.1427 19.7369 33.1787 19.7047C33.2089 19.6777 33.2254 19.6353 33.2408 19.5946C33.2672 19.5249 33.2935 19.4552 33.3199 19.3855C33.1048 19.2217 32.8006 19.5895 32.5798 19.4364ZM26.3682 18.9813C26.4587 18.9893 26.5485 19.0078 26.6359 19.0364C26.7116 19.0612 26.7985 19.1131 26.8023 19.205C26.8072 19.326 26.6727 19.3754 26.5696 19.3859C26.4647 19.3965 26.3598 19.4071 26.2549 19.4177C26.1784 19.4254 26.0919 19.4294 26.0357 19.3682C25.9602 19.2861 25.9907 19.1268 26.0724 19.0534C26.1542 18.9799 26.2655 18.9723 26.3682 18.9813ZM28.822 18.955C29.3239 19.0337 29.8325 19.0526 30.3376 19.0115C30.3969 19.0067 30.4614 19.0026 30.5102 19.0423C30.559 19.0819 30.5711 19.1842 30.5179 19.2149C30.5017 19.2243 30.4831 19.2252 30.4651 19.226C29.8545 19.253 29.2439 19.28 28.6332 19.307C28.5775 19.3094 28.5163 19.3098 28.4734 19.268C28.3968 19.1933 28.4408 19.0336 28.5287 18.9784C28.6166 18.9232 28.7232 18.9395 28.822 18.955ZM33.6945 18.3729C33.4996 18.3851 33.3012 18.4063 33.1212 18.4948C32.9412 18.5833 32.7797 18.7498 32.726 18.9695C32.715 19.0141 32.711 19.069 32.7402 19.1003C32.763 19.1247 32.7972 19.125 32.828 19.1236C33.1519 19.1087 33.4743 19.0523 33.7878 18.9556C33.9436 18.9076 34.1314 18.7916 34.1103 18.6046C34.0992 18.5062 34.0267 18.4292 33.9465 18.3966C33.8664 18.364 33.7792 18.3675 33.6945 18.3729ZM11.2037 18.3453C11.1726 18.5379 11.165 18.7357 11.1812 18.9307C11.2214 18.9816 11.2745 18.8823 11.271 18.813C11.2633 18.6549 11.2406 18.4977 11.2037 18.3453ZM21.6315 18.1098C22.7541 18.1692 23.8766 18.2286 24.9992 18.288C25.1039 18.2935 25.2431 18.3405 25.2369 18.463C25.103 18.5637 24.9301 18.5429 24.772 18.5213C23.7713 18.3849 22.759 18.366 21.7552 18.4651C21.6685 18.4737 21.5765 18.482 21.4991 18.4354C21.4218 18.3889 21.3719 18.2649 21.4221 18.1817C21.466 18.109 21.5555 18.1058 21.6315 18.1098ZM18.9095 17.972C18.9589 17.9807 19.0103 17.9958 19.0462 18.0365C19.1282 18.1296 19.0776 18.3064 18.9789 18.3738C18.8803 18.4412 18.7581 18.4317 18.6443 18.4202C18.5195 18.4076 18.4789 18.1883 18.561 18.0774C18.643 17.9664 18.7856 17.9501 18.9095 17.972ZM22.8576 17.486C24.6871 17.5971 26.5166 17.7082 28.3461 17.8193C28.4441 17.8252 28.5737 17.8693 28.5686 17.984C28.2669 18.0476 27.9545 18.0406 27.6551 17.9633L27.9209 18.2311C27.7942 18.3246 27.6592 18.4212 27.5094 18.4251C27.3597 18.429 27.1966 18.2997 27.2008 18.1244C27.2766 18.0835 27.3524 18.0425 27.4282 18.0016C25.9503 17.8534 24.4655 17.7993 22.9826 17.8397C22.8971 17.842 22.8057 17.8429 22.7335 17.7892C22.6612 17.7355 22.6246 17.605 22.6845 17.5333C22.7272 17.4821 22.7965 17.4823 22.8576 17.486ZM34.7038 17.7724C34.6379 17.7766 34.5819 17.8278 34.5308 17.8768C34.4703 17.9348 34.4097 17.9928 34.3491 18.0508C34.2857 18.1116 34.2169 18.1841 34.2132 18.28C34.2112 18.332 34.245 18.3938 34.2884 18.382C34.3005 18.3788 34.311 18.3702 34.3211 18.3618C34.4654 18.2427 34.6097 18.1236 34.754 18.0045C34.7834 17.9802 34.8149 17.9527 34.8244 17.912C34.8419 17.8375 34.7697 17.7681 34.7038 17.7724ZM36.948 17.1484C36.9537 17.3221 36.88 17.4849 36.8538 17.656C36.8276 17.8271 36.8776 18.045 37.0221 18.0851C37.0647 18.0969 37.0771 18.1683 37.053 18.2111C37.0289 18.254 36.9834 18.2724 36.9403 18.2816C36.8064 18.3101 36.6479 18.2598 36.5864 18.1177C36.5556 18.0466 36.5532 17.9638 36.5514 17.8841C36.5467 17.6707 36.5421 17.4572 36.5374 17.2438C36.5342 17.0979 36.5481 16.9182 36.6622 16.8593C36.7981 16.7891 36.9423 16.9747 36.948 17.1484ZM34.9579 18.1166C34.9316 18.131 34.9136 18.1644 34.9138 18.1985L34.9073 18.2005C34.9219 18.2385 34.9746 18.2444 34.9952 18.2104C35.0158 18.1763 34.9935 18.1201 34.9579 18.1166ZM34.7055 17.0011C34.645 17.0029 34.5773 17.0158 34.5415 17.0729C34.5033 17.1341 34.5187 17.2237 34.5581 17.284C34.5974 17.3442 34.6553 17.3829 34.7093 17.4246C34.937 17.6004 35.1187 17.8564 35.2246 18.1505C35.2967 18.0396 35.3687 17.9286 35.4407 17.8176C35.4945 17.7347 35.5512 17.6399 35.5399 17.5367C35.5317 17.4621 35.4889 17.3994 35.4435 17.3462C35.251 17.1208 34.9777 16.993 34.7055 17.0011ZM11.5026 15.284C11.418 15.2921 11.3741 15.4033 11.3475 15.4977C11.307 15.6415 11.2664 15.7852 11.2259 15.929C11.1816 16.0861 11.137 16.245 11.1249 16.4098C11.1168 16.519 11.1232 16.6289 11.1296 16.7382C11.1495 17.0798 11.1694 17.4213 11.1893 17.7629C11.1932 17.8289 11.2361 17.9201 11.2827 17.8827C11.2634 17.0103 11.3374 16.1351 11.5026 15.284ZM35.4338 16.5399C35.357 16.5741 35.2754 16.6343 35.2643 16.7297C35.2532 16.825 35.3731 16.9134 35.4196 16.8341C35.4789 16.7329 35.6273 16.7857 35.6763 16.8943C35.7254 17.0028 35.711 17.1333 35.7103 17.2561C35.7095 17.3788 35.7336 17.5197 35.8251 17.5798C35.8404 17.4156 35.8557 17.2514 35.8711 17.0871C35.89 16.8844 35.8889 16.6329 35.7367 16.5337C35.6455 16.4743 35.5313 16.4964 35.4338 16.5399ZM37.9001 16.4471C38.0247 16.4536 38.1578 16.5045 38.226 16.6268C38.2942 16.7492 38.258 16.9495 38.1378 16.9889C37.9664 17.0451 37.8061 16.7623 37.6385 16.8326C37.5336 16.8765 37.4689 17.049 37.3596 17.0243C37.2918 17.0089 37.2543 16.9139 37.2678 16.8346C37.2813 16.7554 37.3318 16.6919 37.3859 16.6417C37.5301 16.508 37.7162 16.4375 37.9001 16.4471ZM18.8107 16.3027C18.9309 16.3254 19.0485 16.4794 18.9852 16.6011C18.9674 16.6352 18.9385 16.6595 18.9082 16.6781C18.8333 16.7243 18.7408 16.74 18.6635 16.6997C18.5861 16.6595 18.5317 16.555 18.5526 16.4589C18.5789 16.3382 18.7057 16.2828 18.8107 16.3027ZM38.0955 15.5018C38.1782 15.5939 38.2426 15.7672 38.15 15.8453C38.0521 15.9279 37.9348 15.7885 37.8411 15.6994C37.7364 15.5999 37.5945 15.5559 37.4615 15.5818C37.3764 15.5984 37.2962 15.6417 37.2108 15.6562C37.1255 15.6707 37.0261 15.6478 36.9795 15.5628C36.9307 15.4736 36.9618 15.3474 37.029 15.2765C37.0962 15.2056 37.1896 15.1797 37.2797 15.17C37.5752 15.1384 37.8804 15.2625 38.0955 15.5018ZM18.8065 15.2198C18.8803 15.2704 18.9201 15.3898 18.879 15.4776C18.8248 15.5937 18.6825 15.5921 18.5728 15.5602C18.5333 15.5487 18.4918 15.5336 18.4656 15.497C18.4032 15.4099 18.4732 15.2732 18.5603 15.2229C18.637 15.1786 18.7328 15.1691 18.8065 15.2198Z" fill="#2C1320"/>
<path fill-rule="evenodd" clip-rule="evenodd" d="M8.90345 26.891C8.91354 26.9238 8.92285 26.9605 8.91132 26.9926C8.89063 27.0502 8.82328 27.0524 8.76989 27.0519C8.3944 27.0484 8.0453 27.4259 8.01863 27.8644C8.01581 27.9107 7.96143 27.9319 7.92625 27.9104C7.89106 27.889 7.87295 27.8426 7.86078 27.7985C7.79218 27.5493 7.83638 27.27 7.94574 27.0417C8.05511 26.8134 8.22434 26.6312 8.40818 26.4822C8.4795 26.4244 8.5683 26.3688 8.64898 26.4062C8.7023 26.4308 8.73712 26.4903 8.76615 26.5482C8.82083 26.6572 8.86686 26.7721 8.90345 26.891ZM8.68535 26.8411C8.65229 26.7228 8.51816 26.6803 8.41797 26.7221C8.31777 26.7639 8.24472 26.8636 8.17654 26.9592C8.1119 27.0498 8.04427 27.1487 8.03665 27.2664C8.20943 27.0522 8.43903 26.9016 8.68535 26.8411Z" fill="#EB5E55"/>
</svg>
