<svg width="17" height="16" viewBox="0 0 17 16" fill="none" xmlns="http://www.w3.org/2000/svg">
<path d="M16.2071 14.2931L11.3851 9.47111C12.2603 8.24125 12.6415 6.72743 12.4531 5.22975C12.2646 3.73206 11.5203 2.35986 10.3677 1.38516C9.21507 0.410465 7.73829 -0.0955607 6.23011 -0.0325994C4.72193 0.0303618 3.29246 0.657713 2.22509 1.72509C1.15771 2.79246 0.530362 4.22193 0.467401 5.73011C0.404439 7.23829 0.910465 8.71507 1.88516 9.86769C2.85986 11.0203 4.23206 11.7646 5.72975 11.9531C7.22743 12.1415 8.74125 11.7603 9.97111 10.8851L14.7931 15.7071C14.9817 15.8893 15.2343 15.9901 15.4965 15.9878C15.7587 15.9855 16.0095 15.8803 16.1949 15.6949C16.3803 15.5095 16.4855 15.2587 16.4878 14.9965C16.4901 14.7343 16.3893 14.4817 16.2071 14.2931ZM6.50011 10.0001C5.70898 10.0001 4.93562 9.76551 4.27782 9.32598C3.62003 8.88646 3.10734 8.26174 2.80459 7.53084C2.50184 6.79993 2.42262 5.99567 2.57696 5.21974C2.73131 4.44382 3.11227 3.73109 3.67168 3.17168C4.23109 2.61227 4.94382 2.23131 5.71974 2.07696C6.49567 1.92262 7.29993 2.00184 8.03084 2.30459C8.76174 2.60734 9.38646 3.12003 9.82598 3.77782C10.2655 4.43562 10.5001 5.20898 10.5001 6.00011C10.5001 7.06097 10.0787 8.07839 9.32853 8.82853C8.57839 9.57868 7.56097 10.0001 6.50011 10.0001Z" fill="#2C1320" fill-opacity="0.6"/>
</svg>
