<svg width="56" height="45" viewBox="0 0 56 45" fill="none" xmlns="http://www.w3.org/2000/svg">
<path fill-rule="evenodd" clip-rule="evenodd" d="M7.30843 31.8899C7.70408 36.3405 15.4015 31.9626 17.4869 32.5061C21.6897 33.6013 28.0331 37.1896 29.9487 33.1857C32.5789 27.6882 28.3676 22.7532 24.6794 19.9428C19.8821 16.2873 6.53054 23.1398 7.30843 31.8899Z" fill="#2C1320" fill-opacity="0.8"/>
<path fill-rule="evenodd" clip-rule="evenodd" d="M23.6358 19.9013C23.646 19.789 23.7441 19.7053 23.8567 19.7129C23.9705 19.7206 24.0568 19.8186 24.05 19.9325L23.465 29.7796C23.4606 29.8539 23.4342 29.9252 23.3893 29.9846L23.3773 30.0005C23.2605 30.1548 23.0419 30.1877 22.8848 30.0746C22.7825 30.0009 22.7267 29.8786 22.7382 29.753L23.6358 19.9013Z" fill="white"/>
<ellipse cx="38.8515" cy="6.80665" rx="5.75018" ry="6.1587" fill="white"/>
<path fill-rule="evenodd" clip-rule="evenodd" d="M23.6905 13.3838C23.7355 12.9967 23.7894 12.4462 24.1785 12.4256C24.5212 12.4074 27.0069 12.7057 27.6361 12.7822C27.7328 12.7939 27.83 12.8049 27.9199 12.8424C28.1151 12.9237 28.4379 13.1488 28.3572 13.7374C28.2835 14.2727 28.0844 15.2578 27.9519 15.8912C27.8699 16.2837 27.7686 16.7931 27.3735 16.7246C26.8742 16.638 25.396 16.2266 23.8184 16.4828C23.8049 16.485 23.7912 16.487 23.7794 16.4938C23.7213 16.5271 23.5482 16.7036 23.5438 17.6249C23.5436 17.6693 23.5032 17.7033 23.4596 17.6947C23.4256 17.688 23.4015 17.6588 23.4032 17.6242C23.4233 17.1993 23.5507 14.5855 23.6905 13.3838Z" fill="white"/>
<path fill-rule="evenodd" clip-rule="evenodd" d="M-nan -nanL26.1503 9.98554C26.1811 9.95035 26.1509 9.98493 26.1503 9.98553C26.1503 9.98555 26.1503 9.98555 26.1503 9.98557C26.0244 10.1302 25.9174 10.2588 25.8484 10.3516C25.61 10.6728 25.3129 10.9818 25.0994 11.2499C24.9574 11.4283 24.9402 11.5322 24.7252 11.6079C24.2593 11.7718 23.9899 11.2434 24.3053 10.8633C24.5235 10.6003 24.783 10.3121 25.0232 10.1078C25.07 10.068 25.1212 10.0347 25.178 10.0115C25.3522 9.94035 25.769 9.8089 26.1503 9.98554L-nan -nanZM26.7627 9.31047L-nan -nanL26.7627 9.31047L26.5743 9.25189C26.4159 9.2026 26.3865 8.99341 26.5275 8.90596C26.6966 8.80109 26.8964 8.68274 27.0519 8.60695C27.082 8.59227 27.1164 8.58999 27.1486 8.59933C27.2495 8.62863 27.2836 8.75464 27.2114 8.83103C27.0989 8.95002 26.9374 9.12172 26.7628 9.31034C26.7627 9.31042 26.7626 9.31051 26.7626 9.31059C26.7616 9.31168 26.755 9.31926 26.7627 9.31047Z" fill="white"/>
<path fill-rule="evenodd" clip-rule="evenodd" d="M17.2177 25.7285C17.3301 26.0679 16.8905 26.2141 16.5977 26.0089C16.4975 25.9387 16.3915 25.8495 16.29 25.737C15.8074 25.2021 16.0116 24.4054 16.4725 23.8516C16.4917 23.8285 16.5114 23.8049 16.5317 23.7808C16.6648 23.6228 16.6386 23.6248 16.7994 23.4951C17.5577 22.8836 16.7655 21.569 16.7665 20.5947C16.7667 20.4501 16.7798 20.2899 16.8093 20.1127C16.825 20.0185 16.8578 19.9278 16.9013 19.8427C16.999 19.6515 17.0362 19.4359 17.0147 19.2223C16.978 18.8581 16.9279 18.2401 16.934 17.6328C16.9408 16.9728 16.8744 16.2798 17.0836 15.6538C17.1646 15.4114 17.3149 15.2083 17.5867 15.1651C17.5998 15.163 17.5959 15.1641 17.6089 15.1619C17.8707 15.1182 17.9189 14.8388 17.8981 14.5742C17.861 14.1008 17.9622 13.3183 18.8958 12.8597C20.281 12.1794 21.3631 13.3259 21.3503 14.5726C21.35 14.6074 21.3538 14.5939 21.3486 14.6283C21.2481 15.299 21.3064 16.2818 21.7781 16.7691C21.9664 16.9637 22.1536 17.1822 22.3141 17.4167C22.3654 17.4916 22.4191 17.5644 22.4827 17.6291C22.5258 17.6729 22.5814 17.7274 22.6442 17.7847C23.0421 18.1477 23.8678 17.854 24.1078 18.3361C24.1243 18.3694 24.1268 18.4085 24.1101 18.4542C24.0107 18.7278 23.9354 19.099 23.1857 19.2618C22.8045 19.3446 22.4095 19.3074 22.0225 19.2584C21.6573 19.2122 21.2212 19.1607 21.034 19.153C21.0234 19.1526 21.0135 19.1506 21.0035 19.1468C20.9232 19.1167 20.8374 19.2015 20.8575 19.285C20.9156 19.526 20.9608 19.9318 20.7632 20.3252C20.4545 20.9395 20.2301 21.1521 20.2633 21.2713L20.7763 23.8407C20.8894 24.4073 20.9319 25.2672 21.5018 25.1717C22.106 25.0701 21.9457 25.4651 21.8253 25.5599C21.7049 25.655 20.7094 26.5669 19.8738 25.4039C19.3555 24.6824 18.2666 24.4879 17.5559 25.0208L17.3516 25.174C17.2803 25.2275 17.2091 25.2879 17.1878 25.3745C17.1734 25.433 17.1672 25.514 17.188 25.6198C17.1992 25.6767 17.1995 25.6734 17.2177 25.7285Z" fill="white"/>
<path fill-rule="evenodd" clip-rule="evenodd" d="M32.3675 7.2947C32.0697 0.128827 38.9563 0.477548 38.9711 0.479881C40.1403 0.665127 41.1037 1.04994 41.8778 1.57482C41.4202 1.67002 40.937 1.79164 40.4414 1.94687C40.4086 1.95715 40.3808 1.97946 40.3642 2.00955C40.3009 2.12386 40.1899 2.13666 40.071 2.0713C40.069 2.07021 40.0667 2.07001 40.0646 2.07075C38.8453 2.49089 37.5731 3.12078 36.4413 4.06371C36.1501 4.30636 36.0445 4.72689 35.7573 4.97432C35.498 5.19738 35.1673 5.33687 34.9603 5.6092C34.0739 6.77553 33.3856 8.25184 33.0491 10.1202C32.6683 9.36898 32.4152 8.44101 32.3675 7.2947ZM33.0491 10.1202C34.7223 13.421 38.8607 13.3083 38.8643 13.3081C44.3303 13.0048 46.5476 4.74114 41.8778 1.57482C43.8072 1.1734 45.2792 1.24202 45.2883 1.24351C58.3154 3.36013 57.3334 19.7431 48.6357 23.7165C48.0813 23.9697 47.9827 24.8097 48.5068 25.1208C49.0432 25.4393 49.4049 25.6651 49.5493 25.7583C49.5794 25.7777 49.5705 25.81 49.5352 25.8154L49.5351 25.8154C49.4719 25.825 49.4085 25.8346 49.3613 25.8098L49.3344 25.7953L49.3344 25.7953C49.2118 25.729 48.6951 25.4498 47.8838 25.0355C47.0436 24.6064 46.0825 24.5158 45.1405 24.567C45.1343 24.5674 38.4247 24.6761 34.9127 19.9529C34.7258 19.7014 34.468 19.5071 34.1662 19.4229C33.8524 19.3354 33.5397 19.2518 33.229 19.1718C32.9883 19.1098 32.7606 19.276 32.6462 19.4967C32.6094 19.5677 32.6182 19.6619 32.6272 19.7586C32.6354 19.846 32.7321 19.9137 32.8119 19.877C32.9215 19.8265 33.0318 19.7696 33.1429 19.7063L33.1814 19.6841C33.272 19.6314 33.3868 19.6903 33.3967 19.7947L33.3978 19.8065C33.4239 20.0811 33.4745 20.2881 33.5463 20.4262C33.614 20.5565 33.7374 20.6958 33.9174 20.8412C33.9337 20.8542 33.9372 20.8776 33.9254 20.8947L33.8653 20.9824C33.815 21.0559 33.7127 21.0719 33.6461 21.0128C33.4845 20.8693 33.3654 20.7254 33.2895 20.5793C33.2257 20.4566 33.1774 20.3035 33.1437 20.1198L33.138 20.087C33.1361 20.0759 33.1239 20.0699 33.1138 20.0751C33.0376 20.1147 32.9616 20.1513 32.8858 20.1852C32.6827 20.2761 32.5381 20.4551 32.4229 20.6455C32.3137 20.8258 32.1301 20.996 31.9429 21.0718C31.8479 21.1103 31.7257 21.0742 31.6032 21.038C31.5466 21.0212 31.4898 21.0045 31.4357 20.995C31.375 20.9844 31.3138 20.9758 31.2526 20.9672L31.2525 20.9672L31.2523 20.9672L31.2522 20.9671L31.252 20.9671L31.2519 20.9671L31.2518 20.9671C31.1298 20.9499 31.0078 20.9328 30.8898 20.9C30.7865 20.8712 30.6855 20.8328 30.5845 20.7943L30.5845 20.7943C30.4668 20.7495 30.3493 20.7048 30.2282 20.6755C30.1543 20.6575 30.0755 20.6602 29.997 20.6628C29.9123 20.6656 29.8278 20.6684 29.7499 20.6455C29.6175 20.6065 29.4852 20.6033 29.3535 20.6002C29.2724 20.5982 29.1915 20.5963 29.111 20.586C28.9809 20.5693 28.8516 20.5417 28.7225 20.5141L28.7224 20.5141C28.5371 20.4745 28.352 20.435 28.1656 20.4281C27.8687 20.4172 27.5712 20.4305 27.2735 20.4437L27.2734 20.4437C27.089 20.4519 26.9046 20.4602 26.7202 20.4626C26.5447 20.465 26.3691 20.4597 26.1935 20.4544H26.1935H26.1934H26.1934H26.1934H26.1934H26.1933H26.1933H26.1933H26.1932H26.1932H26.1932H26.1932H26.1931H26.1931H26.1931H26.193H26.193H26.193C26.033 20.4496 25.873 20.4448 25.713 20.4458C25.2643 20.4484 24.8154 20.4601 24.3671 20.4801C24.3324 20.4817 24.2722 20.581 24.2738 20.6331C24.279 20.8028 24.2411 20.965 24.2031 21.128L24.2031 21.128C24.1581 21.3202 24.113 21.5136 24.138 21.722C24.1649 21.9458 24.1397 22.1769 24.1146 22.4075C24.105 22.4957 24.0954 22.5839 24.0887 22.6716C24.0737 22.8674 23.7201 23.0014 23.4574 22.8995C23.361 22.8621 23.2514 22.7953 23.2049 22.7082C23.1903 22.6808 23.2155 22.6345 23.2432 22.5833C23.2432 22.5833 23.2432 22.5833 23.2432 22.5833C23.2432 22.5833 23.2432 22.5833 23.2432 22.5833C23.2665 22.5404 23.2916 22.4941 23.2966 22.4528C23.3101 22.3414 23.3164 22.2286 23.3227 22.1159L23.3227 22.1158L23.3227 22.1158L23.3227 22.1157L23.3227 22.1157L23.3227 22.1156L23.3227 22.1155L23.3227 22.1155L23.3227 22.1154L23.3227 22.1153L23.3227 22.1153L23.3227 22.1152L23.3227 22.1152L23.3227 22.1151L23.3227 22.115L23.3227 22.115L23.3228 22.1149L23.3228 22.1148L23.3228 22.1148C23.3326 21.9384 23.3425 21.7624 23.3795 21.5926C23.4395 21.318 23.4343 21.0422 23.4292 20.7677V20.7677C23.4254 20.5642 23.4217 20.3614 23.4445 20.1604C23.4622 20.0042 23.4628 19.8468 23.4635 19.6906C23.4642 19.5008 23.2634 19.3489 23.0766 19.3824C23.066 19.3844 23.0553 19.3862 23.0446 19.3881C22.9896 19.3976 22.9333 19.4 22.8775 19.4021C22.7932 19.4054 22.7086 19.411 22.624 19.4166H22.624H22.624H22.6239H22.6239H22.6238H22.6238H22.6238H22.6237H22.6237H22.6236H22.6236H22.6236H22.6235H22.6235H22.6234H22.6234H22.6234H22.6233H22.6233H22.6232C22.4074 19.4309 22.1915 19.4451 21.9794 19.421C21.9416 19.4167 21.9023 19.4183 21.8623 19.4199C21.7654 19.4239 21.6638 19.4281 21.567 19.3494C21.5131 19.3055 21.4281 19.3064 21.342 19.3073C21.2978 19.3077 21.2533 19.3082 21.2126 19.3026C21.1982 19.3006 21.1811 19.2846 21.1668 19.2712C21.1544 19.2596 21.1442 19.25 21.1397 19.2531L21.1202 19.2663C21.0753 19.2963 21.0224 19.3318 21.0156 19.373C21.006 19.4312 21.008 19.4916 21.0101 19.552V19.552C21.0119 19.6062 21.0138 19.6605 21.0072 19.7134L21.0022 19.7556L20.9969 19.8021L20.9968 19.8021C20.9968 19.8021 20.9968 19.8021 20.9968 19.8022C20.98 19.9504 20.9629 20.1014 20.9092 20.2338C20.8515 20.3759 20.7809 20.512 20.7102 20.6481L20.7102 20.6481C20.6442 20.7751 20.5782 20.9022 20.5228 21.0342L20.517 21.0478C20.4831 21.1276 20.4372 21.2355 20.5169 21.3442C20.5386 21.3739 20.5335 21.4248 20.5283 21.4771C20.5252 21.5079 20.5221 21.5391 20.5243 21.5669C20.5275 21.6071 20.5284 21.6488 20.5294 21.6906V21.6906C20.532 21.8024 20.5346 21.915 20.5796 22.0017C20.6032 22.047 20.6017 22.0922 20.6002 22.1367C20.5984 22.1902 20.5966 22.2426 20.6383 22.2929C20.6723 22.334 20.6725 22.4086 20.6727 22.481C20.6728 22.5067 20.6729 22.5322 20.6745 22.5557C20.6771 22.5957 20.6772 22.636 20.6772 22.6763C20.6772 22.7384 20.6772 22.8003 20.687 22.8605C20.7 22.9419 20.7191 23.0221 20.7381 23.1024L20.7381 23.1024L20.7381 23.1024L20.7381 23.1025L20.7381 23.1025L20.7381 23.1026L20.7381 23.1026L20.7381 23.1026L20.7381 23.1027L20.7381 23.1027L20.7382 23.1027L20.7382 23.1028L20.7382 23.1028L20.7382 23.1028L20.7382 23.1029L20.7382 23.1029L20.7382 23.1029L20.7382 23.103L20.7382 23.103L20.7382 23.103L20.7382 23.1031C20.755 23.1737 20.7717 23.2443 20.7844 23.3158C20.7939 23.369 20.7975 23.4232 20.8011 23.4774C20.8046 23.5296 20.8081 23.5818 20.8168 23.6331C20.8228 23.6685 20.8355 23.7034 20.8481 23.7381C20.8653 23.7852 20.8823 23.8318 20.8821 23.8789C20.8818 23.9575 20.8991 24.0312 20.9165 24.1048L20.9165 24.1049C20.9297 24.161 20.943 24.2171 20.9483 24.2753C20.9544 24.3416 20.9732 24.4066 20.992 24.4718L20.9921 24.4718L20.9921 24.4718L20.9921 24.4718L20.9921 24.4719L20.9921 24.4719C21.0025 24.5081 21.013 24.5445 21.0214 24.5811L21.0284 24.6106L21.0322 24.6259C21.0465 24.6839 21.061 24.7427 21.0602 24.8009C21.0584 24.9439 21.2181 25.0996 21.3494 25.0693C21.4979 25.0348 21.6431 25.0032 21.7788 25.1221C21.7958 25.137 21.823 25.1381 21.8505 25.1391C21.8769 25.1402 21.9035 25.1412 21.9215 25.1546C22.0978 25.2872 22.0921 25.5477 21.9158 25.6881C21.8878 25.7103 21.8604 25.7373 21.8329 25.7643L21.8329 25.7643C21.7714 25.8247 21.7099 25.8851 21.6433 25.8923C21.5723 25.9 21.5128 25.9315 21.4523 25.9636C21.4523 25.9637 21.4523 25.9637 21.4523 25.9637C21.4523 25.9637 21.4523 25.9637 21.4523 25.9637C21.3873 25.9981 21.3211 26.0332 21.2381 26.0402C21.1753 26.0454 21.1105 26.0589 21.0447 26.0726C20.9399 26.0943 20.8326 26.1166 20.7265 26.1072C20.5199 26.0884 20.3157 26.0434 20.1573 25.8721C20.1011 25.8112 20.0413 25.7538 19.9816 25.6964C19.8938 25.6119 19.806 25.5275 19.7297 25.4324C19.6738 25.3626 19.6348 25.2776 19.5957 25.1924L19.5957 25.1924C19.5957 25.1924 19.5957 25.1923 19.5957 25.1923L19.5957 25.1923L19.5957 25.1923L19.5957 25.1923L19.5957 25.1923L19.5957 25.1922L19.5957 25.1922L19.5957 25.1922L19.5956 25.1922L19.5956 25.1922L19.5956 25.1922L19.5956 25.1921L19.5956 25.1921L19.5956 25.1921L19.5956 25.1921C19.5731 25.143 19.5505 25.0939 19.5247 25.0475C19.4602 24.9315 19.391 24.8179 19.3177 24.7081C19.2875 24.6628 19.2543 24.6196 19.2211 24.5764C19.1773 24.5195 19.1336 24.4627 19.0968 24.401C19.0109 24.2571 18.8602 24.2082 18.7159 24.2466C18.6018 24.2773 18.5179 24.3486 18.4338 24.4201L18.4338 24.4201L18.4338 24.4201C18.3981 24.4505 18.3623 24.4809 18.3242 24.5082C18.2691 24.5476 18.2121 24.5843 18.1551 24.621L18.1551 24.621L18.1551 24.621L18.155 24.621L18.155 24.621L18.155 24.621L18.155 24.621L18.155 24.621L18.155 24.621L18.1549 24.6211L18.1549 24.6211L18.1549 24.6211L18.1549 24.6211L18.1549 24.6211L18.1549 24.6211L18.1548 24.6211L18.1548 24.6211L18.1548 24.6212L18.1548 24.6212L18.1548 24.6212L18.1547 24.6212C18.0767 24.6714 17.9987 24.7216 17.9254 24.7788C17.8791 24.8149 17.8375 24.8586 17.796 24.9021C17.796 24.9021 17.796 24.9021 17.796 24.9021C17.796 24.9021 17.796 24.9021 17.796 24.9021C17.7428 24.9579 17.6899 25.0135 17.6275 25.0527C17.4955 25.1357 17.3702 25.2211 17.2913 25.3611C17.2612 25.4145 17.2509 25.4946 17.261 25.5572C17.2708 25.6173 17.2876 25.6767 17.3044 25.7359L17.3044 25.736L17.3044 25.736L17.3044 25.736L17.3044 25.736L17.3044 25.7361L17.3044 25.7361L17.3044 25.7361L17.3044 25.7361L17.3045 25.7362L17.3045 25.7362L17.3045 25.7362L17.3045 25.7362L17.3045 25.7362L17.3045 25.7363L17.3045 25.7363L17.3045 25.7363L17.3045 25.7363L17.3045 25.7364L17.3045 25.7364L17.3045 25.7364C17.3286 25.8215 17.3526 25.9062 17.3555 25.992C17.3639 26.2414 17.1542 26.3697 16.9429 26.2698C16.9273 26.2624 16.9071 26.2666 16.8868 26.2708C16.8665 26.275 16.8463 26.2792 16.8305 26.272C16.5951 26.1665 16.3971 26.0007 16.2159 25.8115C16.1874 25.7818 16.1632 25.7474 16.1372 25.7106C16.1072 25.6681 16.079 25.6244 16.0528 25.5795C16.0395 25.5565 16.026 25.5338 16.0126 25.5111C15.9447 25.3967 15.8788 25.2855 15.8402 25.1644L15.8339 25.1448C15.7875 25.0002 15.7428 24.8608 15.7796 24.6707C15.8278 24.4216 15.9669 24.2726 16.1075 24.1219C16.1486 24.078 16.1898 24.0339 16.2289 23.9871C16.3022 23.8992 16.3749 23.8105 16.4476 23.7217L16.4476 23.7217L16.4476 23.7217L16.4477 23.7217L16.4477 23.7216L16.4477 23.7216L16.4477 23.7216L16.4478 23.7215L16.4478 23.7215L16.4478 23.7215L16.4478 23.7215L16.4478 23.7214L16.4479 23.7214L16.4479 23.7214L16.4479 23.7213L16.4479 23.7213L16.448 23.7213L16.448 23.7213C16.6669 23.4541 16.8858 23.1868 17.1244 22.9416C17.3105 22.7505 17.3889 22.5538 17.3632 22.2906C17.3599 22.2569 17.3705 22.2218 17.3811 22.1866L17.3812 22.1866L17.3812 22.1866L17.3812 22.1866L17.3812 22.1865L17.3812 22.1865L17.3812 22.1865C17.3891 22.1604 17.4165 22.1442 17.4428 22.1514L17.5059 22.1685L17.5904 22.1915C17.6033 22.1951 17.61 22.2088 17.6037 22.2207C17.5953 22.2369 17.5868 22.2531 17.5895 22.2668C17.6325 22.4831 17.5873 22.6707 17.472 22.8573C17.3239 23.0967 17.1548 23.3074 16.9439 23.4862C16.8669 23.5515 16.8031 23.6351 16.7395 23.7183C16.7175 23.7471 16.6956 23.7758 16.6731 23.8037L16.6188 23.8713L16.6188 23.8713C16.4619 24.0663 16.305 24.2612 16.1529 24.4603C16.0762 24.5606 16.0038 24.6677 15.9488 24.7824C15.932 24.8174 15.9597 24.8826 15.9813 24.9336L15.9873 24.9478L15.9948 24.9657L15.9948 24.9657L15.9948 24.9658C16.0494 25.0963 16.1043 25.2277 16.1702 25.352C16.2623 25.5256 16.3585 25.6969 16.5334 25.7978C16.5819 25.8259 16.6279 25.8599 16.6738 25.8938C16.7393 25.9422 16.8046 25.9905 16.8767 26.0209C16.9369 26.0464 17.0076 26.043 17.0784 26.0396C17.0933 26.0389 17.1082 26.0381 17.123 26.0377C17.1491 26.0369 17.1706 26.0152 17.1703 25.9891C17.1698 25.9538 17.1694 25.9184 17.1628 25.8845C17.1519 25.8278 17.1375 25.7712 17.1231 25.7146L17.123 25.7146C17.0942 25.6014 17.0655 25.4885 17.0646 25.3751C17.0635 25.2201 17.1559 25.0983 17.3058 25.024C17.3992 24.9776 17.4828 24.9085 17.5663 24.8396C17.5982 24.8132 17.6301 24.7869 17.6625 24.7619C17.7423 24.7001 17.8203 24.6357 17.8981 24.5714L17.9133 24.559C17.9641 24.5168 18.0147 24.4742 18.0652 24.4315L18.0653 24.4314L18.0654 24.4313L18.0655 24.4313L18.0655 24.4312L18.0656 24.4311L18.0657 24.4311L18.0658 24.431L18.0658 24.431L18.0659 24.4309C18.1525 24.3578 18.2391 24.2847 18.3275 24.2141C18.4021 24.1546 18.4785 24.0975 18.555 24.0403L18.555 24.0403C18.7081 23.9257 18.8612 23.8112 18.9995 23.6787C19.1609 23.524 19.3345 23.3412 19.4056 23.1331C19.4326 23.0541 19.4677 22.9794 19.5029 22.9044C19.5494 22.8054 19.5961 22.7059 19.6249 22.5951C19.6705 22.419 19.6801 22.2426 19.6897 22.0669V22.0668C19.6956 21.9572 19.7016 21.8478 19.7163 21.7389C19.719 21.7181 19.609 21.663 19.5474 21.6536C19.4841 21.6437 19.4191 21.6456 19.3541 21.6476L19.354 21.6476C19.3223 21.6485 19.2907 21.6494 19.2591 21.649C19.25 21.649 19.2409 21.6453 19.2318 21.6416L19.2317 21.6416C19.2316 21.6415 19.2315 21.6415 19.2314 21.6414C19.2252 21.6389 19.2227 21.631 19.2264 21.6254C19.2321 21.6167 19.2378 21.6081 19.2454 21.6024C19.2765 21.5787 19.3088 21.5479 19.3412 21.517L19.3412 21.517C19.4147 21.4471 19.4884 21.3769 19.5486 21.3881C19.6607 21.4092 19.7256 21.3559 19.7893 21.3036C19.8203 21.2781 19.8511 21.2529 19.8869 21.2365C20.0701 21.1527 20.2138 21.0022 20.3368 20.8425C20.4605 20.6819 20.561 20.4997 20.6606 20.3192L20.6822 20.28C20.7049 20.2389 20.7128 20.1887 20.7208 20.1382C20.7252 20.1102 20.7296 20.0821 20.7366 20.0554L20.7431 20.0304C20.7754 19.9068 20.8077 19.783 20.8458 19.6614C20.8668 19.5945 20.7905 19.2482 20.7364 19.2022C20.736 19.2019 20.7358 19.2015 20.7355 19.201L20.7349 19.1992C20.7346 19.1976 20.7344 19.1956 20.7343 19.1937V19.1937C20.7341 19.1908 20.7339 19.1884 20.733 19.1882C20.6926 19.1779 20.6521 19.1681 20.6115 19.1583L20.6114 19.1583C20.53 19.1387 20.4486 19.1191 20.3683 19.0952C20.3238 19.0819 20.2803 19.0643 20.2369 19.0466L20.2368 19.0466C20.1901 19.0277 20.1435 19.0088 20.0955 18.9953C20.043 18.9804 19.9894 18.9699 19.9358 18.9593C19.8687 18.9461 19.8016 18.9329 19.737 18.9114C19.6054 18.8677 19.47 18.8213 19.3532 18.746C19.3027 18.7134 19.2509 18.6825 19.199 18.6516L19.1989 18.6516C19.0174 18.5434 18.8348 18.4346 18.7066 18.251C18.6894 18.2264 18.6717 18.2017 18.654 18.1768C18.5552 18.0384 18.4539 17.8963 18.4043 17.7382C18.3416 17.5381 18.3198 17.3067 18.3421 17.0965C18.3744 16.7922 18.4923 16.5113 18.7268 16.3089C18.8114 16.2359 18.8974 16.1648 18.9834 16.0937L19.0828 16.0113C19.1467 15.9581 19.1342 15.9168 19.0656 15.8853C19.0131 15.8612 18.9606 15.8375 18.908 15.8137L18.9076 15.8136C18.8068 15.768 18.7059 15.7225 18.6061 15.6746C18.5673 15.656 18.5295 15.6345 18.4918 15.613C18.4298 15.5777 18.3679 15.5424 18.3021 15.5203C18.2413 15.4999 18.1511 15.5049 18.1 15.5408C18.0153 15.6001 17.9357 15.6677 17.856 15.7353C17.7978 15.7846 17.7396 15.834 17.6795 15.8802C17.6597 15.8953 17.5786 15.8653 17.5786 15.8561C17.5785 15.8386 17.5767 15.8204 17.5749 15.8021C17.5678 15.7308 17.5605 15.658 17.6575 15.623C17.7631 15.5849 17.8126 15.4881 17.8493 15.3812C17.8565 15.3603 17.883 15.3403 17.9046 15.3327C18.0586 15.2783 18.0127 15.1742 17.9572 15.0763C17.8633 14.9109 17.8238 14.738 17.7888 14.5453C17.7603 14.388 17.7799 14.2453 17.7982 14.1121L17.7987 14.1084C17.8031 14.0764 17.8041 14.0416 17.805 14.0059C17.8109 13.7902 17.9127 13.5483 18.0384 13.3728C18.0679 13.3316 18.1006 13.2926 18.133 13.2539C18.1676 13.2127 18.2018 13.1719 18.2315 13.1292C18.3085 13.0185 18.4289 12.9344 18.5466 12.8521L18.5466 12.8521C18.5696 12.836 18.5925 12.82 18.6149 12.8039C18.7383 12.7153 18.8684 12.6472 18.9972 12.605C19.1759 12.5465 19.3728 12.5377 19.5623 12.5343C19.8028 12.53 20.0484 12.5258 20.2829 12.5725C20.3738 12.5906 20.458 12.6427 20.5428 12.6952C20.6063 12.7346 20.6701 12.7741 20.7374 12.7998C20.9043 12.8635 20.9851 13.0053 21.0655 13.1464L21.0655 13.1465L21.0655 13.1465L21.0655 13.1465C21.1001 13.2072 21.1345 13.2677 21.1757 13.3218C21.2211 13.3814 21.2404 13.4631 21.2598 13.5455C21.2702 13.5896 21.2806 13.6339 21.2951 13.675C21.307 13.7086 21.3225 13.7409 21.3381 13.7731C21.3585 13.8153 21.3788 13.8575 21.3906 13.9024C21.4235 14.0275 21.4446 14.1565 21.4647 14.285C21.4752 14.3528 21.4863 14.4308 21.4857 14.4884C21.4845 14.6056 21.4572 14.7225 21.4298 14.8394L21.4298 14.8394C21.4194 14.884 21.4089 14.9286 21.4 14.9732L21.3984 14.9812L21.3962 14.9933L21.3932 15.0118C21.3875 15.0469 21.3817 15.0822 21.3671 15.1124C21.3108 15.2289 21.2514 15.3437 21.192 15.4584L21.1316 15.5753C21.1293 15.5798 21.125 15.5836 21.121 15.5868C21.1039 15.6003 21.0821 15.614 21.0604 15.6276C21.0131 15.6572 20.966 15.6868 20.9666 15.7152C20.9692 15.8365 20.9791 15.9717 21.0994 16.0486L21.1253 16.0651L21.1254 16.0651L21.1254 16.0651L21.1254 16.0651L21.1254 16.0651L21.1254 16.0651L21.1254 16.0652L21.1255 16.0652L21.1255 16.0652L21.1255 16.0652L21.1255 16.0652L21.1255 16.0652L21.1255 16.0652L21.1256 16.0652L21.1256 16.0652L21.1256 16.0653L21.1256 16.0653L21.1256 16.0653L21.1256 16.0653L21.1257 16.0653L21.1257 16.0653C21.2164 16.1231 21.3074 16.1811 21.392 16.2481C21.5084 16.3405 21.6219 16.4383 21.7284 16.5434C21.8581 16.6714 21.9833 16.8053 22.1028 16.9442C22.1634 17.0147 22.2207 17.0885 22.278 17.1624L22.278 17.1624L22.278 17.1625L22.2781 17.1625L22.2781 17.1625L22.2781 17.1626L22.2782 17.1626L22.2782 17.1627L22.2782 17.1627L22.2783 17.1627L22.2783 17.1628L22.2784 17.1628L22.2784 17.1629L22.2784 17.1629L22.2785 17.1629L22.2785 17.163L22.2785 17.163L22.2786 17.1631L22.2786 17.1631L22.2786 17.1631L22.2787 17.1632L22.2787 17.1632C22.3338 17.2343 22.3889 17.3054 22.4471 17.3735C22.5614 17.5073 22.6795 17.6384 22.8064 17.7579C22.8373 17.787 22.8806 17.8005 22.9242 17.8142C22.9486 17.8218 22.9732 17.8295 22.9957 17.84C23.0066 17.845 23.0182 17.8498 23.03 17.8546C23.07 17.8711 23.1116 17.8882 23.1327 17.9198C23.2337 18.071 23.3581 18.0456 23.4839 18.02C23.5149 18.0136 23.546 18.0073 23.5769 18.0036C23.5771 18.0035 23.5772 18.0034 23.5772 18.0032C23.5936 17.8831 23.6109 17.7632 23.6281 17.6433C23.6592 17.4279 23.6903 17.2124 23.7158 16.9962C23.7217 16.9457 23.7087 16.8932 23.6955 16.8403L23.6955 16.8403C23.6851 16.7983 23.6746 16.7561 23.6735 16.7143C23.6651 16.4056 23.6914 16.098 23.7177 15.7908L23.7177 15.7908L23.7177 15.7907C23.7311 15.6338 23.7445 15.4771 23.7532 15.3203C23.7585 15.2272 23.7538 15.1302 23.7492 15.0331V15.0331V15.0331V15.0331V15.0331V15.0331V15.033V15.033V15.033V15.033V15.033V15.033V15.0329V15.0329V15.0329V15.0329V15.0329V15.0329V15.0328C23.7397 14.8338 23.7302 14.6347 23.8054 14.469C23.8813 14.3017 23.8647 14.1273 23.8481 13.9535C23.8279 13.7417 23.8078 13.5308 23.9556 13.3347C24.0139 13.2572 24.0076 13.1266 24.0013 12.9954V12.9953V12.9953V12.9953V12.9952V12.9952V12.9952V12.9951V12.9951V12.995V12.995V12.995V12.9949C23.9983 12.9326 23.9953 12.8701 23.9992 12.8132C24.0131 12.6125 24.2557 12.3767 24.4509 12.376C24.5827 12.3756 24.7148 12.3724 24.8469 12.3692H24.8469H24.8469H24.847H24.847H24.847H24.8471H24.8471H24.8471H24.8472H24.8472H24.8472H24.8473H24.8473H24.8473H24.8474H24.8474H24.8475H24.8475C25.171 12.3613 25.4946 12.3535 25.8144 12.3864C25.9691 12.4024 26.1254 12.4036 26.2809 12.4048H26.2809C26.512 12.4067 26.7414 12.4085 26.9615 12.4585C27.0897 12.4877 27.2136 12.4857 27.336 12.4837C27.4456 12.4819 27.5539 12.4801 27.6629 12.5008L27.8503 12.5366C28.0952 12.5835 28.3401 12.6304 28.5862 12.6694C28.6206 12.6749 28.6572 12.6626 28.6941 12.6501C28.7274 12.6389 28.7609 12.6276 28.7934 12.6292C28.8642 12.6327 28.9355 12.6348 29.0068 12.6369C29.2297 12.6436 29.4532 12.6502 29.6681 12.698C29.9001 12.7496 30.1323 12.7727 30.365 12.7958L30.3651 12.7958L30.3652 12.7958C30.4485 12.8041 30.5319 12.8124 30.6154 12.822C30.8322 12.847 31.0464 12.8955 31.2607 12.9441C31.4001 12.9757 31.5395 13.0073 31.6797 13.0325C31.7579 13.0465 31.838 13.0486 31.9181 13.0507H31.9181C31.9995 13.0528 32.0808 13.0549 32.1601 13.0696C32.3169 13.0985 32.4747 13.1461 32.6196 13.2147C32.6692 13.2381 32.7128 13.2794 32.7559 13.3201C32.7853 13.3479 32.8298 13.3264 32.8287 13.286C32.7977 12.1221 32.8779 11.0704 33.0491 10.1202ZM32.0938 20.0944C32.093 20.1087 32.0826 20.1207 32.0685 20.1235C31.2012 20.2956 30.3793 20.0421 29.5923 19.3624C29.5858 19.3568 29.5792 19.2619 29.5923 19.2209C29.6154 19.1487 29.6682 19.0045 29.8036 18.9547C29.8704 18.93 30.2296 18.8971 30.4002 18.8826C30.4586 18.8776 30.5208 18.8548 30.5352 18.798C30.5564 18.7141 29.95 18.588 29.5417 18.7515C29.4588 18.7846 29.3854 18.8362 29.305 18.9114C29.2915 18.924 29.2616 18.968 29.2247 19.0225L29.2246 19.0225L29.2246 19.0226C29.164 19.1119 29.0843 19.2294 29.0263 19.2829C28.9329 19.3689 28.7744 19.4605 28.6657 19.5192C28.6217 19.5429 28.4544 19.5826 28.2659 19.6273L28.2658 19.6273L28.2658 19.6273C27.9637 19.6989 27.6071 19.7835 27.6151 19.8363C27.6283 19.9221 27.7758 19.9091 27.8559 19.895C27.9951 19.8706 28.1153 19.8519 28.2199 19.8356L28.22 19.8356C28.4876 19.7939 28.6529 19.7682 28.7738 19.703C28.9052 19.6321 29.0187 19.5485 29.1293 19.4466C29.1469 19.4304 29.1717 19.4061 29.1996 19.3781C29.2286 19.3486 29.285 19.3732 29.2934 19.4138C29.3087 19.4872 29.3463 19.5543 29.4078 19.6075L29.4441 19.6386C30.1916 20.2715 30.9791 20.5519 31.7996 20.4792C31.8908 20.4712 31.9455 20.5624 31.8668 20.609L31.8396 20.6254C31.7742 20.6651 31.6988 20.7109 31.6407 20.6975C31.5817 20.6838 31.5263 20.6512 31.4711 20.6187L31.4711 20.6187C31.4131 20.5847 31.3554 20.5507 31.2935 20.5385C31.1847 20.5171 31.0735 20.5081 30.9624 20.4991L30.9623 20.4991L30.9623 20.4991L30.9622 20.4991L30.9622 20.4991L30.9622 20.4991L30.9621 20.4991L30.9621 20.4991L30.962 20.499L30.962 20.499L30.962 20.499L30.9619 20.499L30.9619 20.499L30.9618 20.499L30.9618 20.499L30.9618 20.499L30.9617 20.499L30.9617 20.499L30.9616 20.499L30.9616 20.499L30.9616 20.499L30.9615 20.499L30.9615 20.499L30.9615 20.499L30.9614 20.499L30.9614 20.499L30.9614 20.4989L30.9613 20.4989L30.9613 20.4989L30.9613 20.4989L30.9612 20.4989L30.9612 20.4989L30.9612 20.4989L30.9611 20.4989L30.9611 20.4989L30.9611 20.4989L30.961 20.4989C30.8335 20.4885 30.706 20.4782 30.5824 20.4492C30.4769 20.4244 30.3756 20.3799 30.2743 20.3354C30.1712 20.2902 30.0681 20.2449 29.9606 20.2205C29.8237 20.1894 29.6829 20.1786 29.5418 20.1677H29.5418C29.432 20.1593 29.3222 20.1509 29.214 20.1329C28.2877 19.9786 27.3577 20.0018 26.4277 20.025C25.8703 20.0389 25.313 20.0528 24.7564 20.0285C24.5637 20.0201 24.4018 20.009 24.3877 19.7506C24.3827 19.6578 24.3668 19.5606 24.351 19.4637C24.3184 19.2641 24.2859 19.0655 24.3486 18.9078C24.4808 18.5756 24.4651 18.2473 24.4495 17.9206C24.4415 17.7521 24.584 17.6202 24.7517 17.6384C25.9793 17.7715 28.7885 18.126 31.9821 18.8669C32.1841 18.9137 32.3181 19.1177 32.2403 19.3099C32.2338 19.3259 32.227 19.3419 32.2199 19.3578C32.2171 19.364 32.2152 19.3714 32.2145 19.3782C32.21 19.4241 32.1604 19.4507 32.1186 19.4313C32.0086 19.3801 31.8814 19.3363 31.7374 19.3099C31.477 19.2621 31.0477 19.2838 30.7418 19.2993H30.7418H30.7418H30.7417H30.7417H30.7417C30.6131 19.3058 30.5064 19.3112 30.4431 19.3099C30.4103 19.3092 30.354 19.3472 30.3486 19.3758C30.3403 19.4208 30.3516 19.4967 30.3808 19.5169C30.4297 19.5512 30.4991 19.5645 30.5599 19.5652C30.6588 19.5664 30.7577 19.5664 30.8567 19.5664C31.1778 19.5665 31.4999 19.5665 31.8258 19.6079C31.9485 19.6137 32.0545 19.6599 32.1582 19.7093C32.1662 19.713 32.17 19.7222 32.1667 19.7304C32.1642 19.7365 32.1615 19.7426 32.1586 19.7485C32.1072 19.8528 32.1005 19.9737 32.0938 20.0944ZM32.0326 13.4577C32.6514 13.5804 32.8684 14.2631 32.9509 14.8886C32.9527 14.9022 32.9545 14.9157 32.9563 14.9292C32.9764 15.0777 32.9869 15.2273 32.9884 15.3771C32.991 15.6287 32.9937 15.8806 32.9131 16.0984C32.8356 16.3075 32.7986 16.5223 32.7618 16.7364L32.7617 16.7364C32.7617 16.7364 32.7617 16.7365 32.7617 16.7365C32.7617 16.7365 32.7617 16.7365 32.7617 16.7365C32.7308 16.9161 32.6999 17.0953 32.6453 17.2703C32.6072 17.3925 32.608 17.53 32.6089 17.6665C32.6098 17.8209 32.6107 17.974 32.5553 18.102C32.4888 18.2557 32.3319 18.359 32.1675 18.3272C28.6265 17.6427 25.5632 17.5697 24.4973 17.5688C24.4647 17.5687 24.4398 17.5421 24.4409 17.5095C24.4827 16.2203 24.4937 14.9298 24.5033 13.6397L24.5036 13.5833C24.504 13.3723 24.5044 13.1766 24.6526 13.0007C24.7378 12.8996 24.8131 12.8619 24.9449 12.8719C25.0998 12.8836 25.2553 12.8858 25.4109 12.8881H25.4109C25.5872 12.8907 25.7635 12.8933 25.9386 12.9096C26.1143 12.9259 26.2889 12.9547 26.4635 12.9835L26.4635 12.9835C26.6472 13.0138 26.831 13.044 27.0158 13.0598C27.1347 13.0699 27.258 13.0608 27.3805 13.0518C27.5706 13.0377 27.7589 13.0238 27.9261 13.0822C28.2643 13.2003 28.6057 13.2089 28.9464 13.2175C29.123 13.222 29.2994 13.2264 29.4751 13.2461C29.6116 13.2614 29.7551 13.25 29.8973 13.2387C30.1112 13.2217 30.3222 13.2049 30.5016 13.2796C30.7969 13.4025 31.0917 13.4048 31.3824 13.4071C31.4977 13.408 31.6123 13.4089 31.726 13.4173C31.8316 13.4251 31.934 13.4381 32.0326 13.4577ZM33.0235 18.5031C32.9382 18.4845 32.8768 18.403 32.8684 18.3161C32.8607 18.2368 32.8534 18.1608 32.8872 18.1137C33.0384 17.9032 33.0601 17.6628 33.0818 17.4223C33.0955 17.2707 33.1091 17.1191 33.1552 16.9747C33.191 16.8627 33.3696 16.8559 33.4049 16.9681C33.5221 17.3405 33.6551 17.6947 33.8021 18.0316C33.928 18.32 33.6689 18.6485 33.3621 18.5785C33.2489 18.5527 33.136 18.5276 33.0235 18.5031ZM23.5462 18.2547C23.5471 18.2435 23.5341 18.2365 23.5254 18.2436C23.3471 18.3889 23.3372 18.3969 23.1231 18.4156C23.0496 18.4221 22.9727 18.4012 22.8982 18.381L22.8662 18.3724C22.7711 18.3474 22.6776 18.314 22.5852 18.2787C22.547 18.2641 22.5086 18.2501 22.4701 18.2361L22.47 18.2361C22.3501 18.1925 22.23 18.1488 22.1184 18.0877C22.0303 18.0396 21.952 17.9703 21.8739 17.9014L21.8739 17.9014C21.8481 17.8785 21.8223 17.8558 21.7962 17.8338C21.7714 17.8129 21.7465 17.792 21.7215 17.7712L21.7215 17.7712C21.616 17.6832 21.5105 17.5952 21.4126 17.4983C21.3496 17.4357 21.2903 17.3681 21.231 17.3005L21.231 17.3005C21.1347 17.1906 21.0385 17.0809 20.9266 16.9939L20.9037 16.9762C20.7098 16.8255 20.5141 16.6735 20.2956 16.5564C20.2305 16.5215 20.1685 16.4816 20.1063 16.4416C20.0015 16.3742 19.8962 16.3066 19.7752 16.2619C19.5994 16.1969 19.4077 16.2033 19.2626 16.2314C19.0934 16.2641 18.8859 16.3708 18.7745 16.565C18.6865 16.7184 18.4767 17.196 18.6442 17.6381C18.684 17.7433 18.7337 17.8468 18.7882 17.945L18.805 17.9755L18.8155 17.9948C18.8651 18.0861 18.9157 18.1793 18.9857 18.2483C19.0561 18.3177 19.1412 18.3702 19.2261 18.4227C19.2566 18.4415 19.2871 18.4603 19.3169 18.4799C19.3575 18.5066 19.4009 18.5303 19.4457 18.5471C19.5707 18.5941 19.6966 18.6386 19.8232 18.6803C19.8702 18.6959 19.9181 18.7086 19.966 18.7213C19.9965 18.7294 20.0271 18.7375 20.0575 18.7464C20.0926 18.7566 20.1282 18.7658 20.1638 18.7749L20.1639 18.7749C20.2536 18.798 20.3433 18.821 20.4254 18.8617C20.5005 18.899 21.5661 19.1973 22.5067 19.139C22.5691 19.1351 22.6311 19.1301 22.6929 19.1251C22.7946 19.1169 22.8959 19.1088 22.9979 19.1057C23.1701 19.1005 23.3254 19.0594 23.4894 18.9872C23.5109 18.9777 23.5254 18.9572 23.5277 18.9339C23.5401 18.8128 23.5394 18.6929 23.5387 18.5735V18.5735C23.5381 18.4669 23.5375 18.3608 23.5462 18.2547ZM18.034 14.7879C18.0331 14.7714 18.0322 14.7549 18.0304 14.7391C18.0226 14.6689 18.0156 14.5985 18.0087 14.5282L18.0087 14.528L18.0087 14.5279L18.0086 14.5277L18.0086 14.5275L18.0086 14.5273L18.0086 14.5272L18.0086 14.527L18.0086 14.5268L18.0085 14.5267L18.0085 14.5265L18.0085 14.5263L18.0085 14.5262L18.0085 14.526L18.0085 14.5258L18.0084 14.5257C18.0026 14.4673 18.0029 14.4084 18.0099 14.3502C18.0227 14.242 18.0352 14.15 18.0505 14.0586C18.054 14.038 18.0569 14.0171 18.0598 13.996L18.0598 13.9959C18.0692 13.928 18.0787 13.8594 18.1068 13.8017C18.1388 13.7358 18.1789 13.6745 18.219 13.6132C18.2574 13.5543 18.2959 13.4955 18.3272 13.4326C18.434 13.2185 18.6192 13.1126 18.8019 13.0083C18.8509 12.9802 18.8998 12.9523 18.9469 12.9224C19.0478 12.8584 19.1736 12.8373 19.2979 12.8165L19.298 12.8165L19.298 12.8165L19.2981 12.8164L19.2981 12.8164L19.2982 12.8164L19.2983 12.8164L19.2983 12.8164L19.2984 12.8164L19.2985 12.8164L19.2985 12.8164L19.2986 12.8164L19.2986 12.8163L19.2987 12.8163L19.2988 12.8163L19.2988 12.8163L19.2989 12.8163L19.299 12.8163L19.299 12.8163C19.3386 12.8097 19.3779 12.8031 19.4162 12.7951C19.5182 12.7739 19.6238 12.7609 19.7275 12.763C19.8933 12.7664 20.0532 12.8074 20.2157 12.851C20.4367 12.9103 20.6143 13.0321 20.7768 13.1871C20.8101 13.2188 20.8293 13.2672 20.8487 13.3158C20.8581 13.3394 20.8676 13.3632 20.8787 13.385C20.9017 13.4302 20.925 13.4752 20.9484 13.5202C20.9875 13.5957 21.0267 13.6712 21.0642 13.7476C21.1165 13.8541 21.0294 13.974 20.9144 13.9805C20.834 13.9851 20.2389 14.039 20.024 14.2408C19.8407 14.4128 19.7962 14.4788 19.7245 14.5853C19.712 14.6038 19.6988 14.6234 19.6839 14.645C19.6312 14.7214 19.5864 15.0722 19.6151 15.1657C19.6402 15.2477 19.6746 15.3262 19.709 15.4048C19.7365 15.4676 19.7641 15.5304 19.7869 15.595C19.8032 15.6412 19.8071 15.6924 19.811 15.7436C19.8112 15.7457 19.8113 15.7478 19.8115 15.7498C19.814 15.783 19.7874 15.8123 19.7541 15.8127H19.7541C19.706 15.8133 19.6579 15.8139 19.6118 15.8039C19.5606 15.7928 19.5111 15.772 19.4617 15.7513L19.4617 15.7513C19.4396 15.742 19.4176 15.7327 19.3953 15.7243L18.9645 15.5615C18.9336 15.5498 18.9023 15.5389 18.8709 15.5281C18.8019 15.5042 18.7329 15.4803 18.668 15.4473C18.4231 15.3227 18.1941 15.1721 18.0566 14.9087C18.0388 14.8746 18.0364 14.831 18.034 14.7879V14.7879ZM20.561 23.3265C20.5762 23.3936 20.5913 23.4607 20.6052 23.528C20.6075 23.5391 20.6006 23.5522 20.5937 23.5653C20.5916 23.5694 20.5894 23.5735 20.5876 23.5775C20.5859 23.5813 20.5854 23.5855 20.5861 23.5896C20.606 23.7095 20.6249 23.7988 20.6461 23.8875C20.6614 23.9515 20.6772 24.0154 20.693 24.0793C20.7232 24.2015 20.7535 24.3237 20.7803 24.4467C20.7952 24.5151 20.8023 24.589 20.796 24.6584C20.7792 24.8453 20.9806 25.2508 21.1413 25.2788C21.2507 25.2979 21.363 25.2962 21.4756 25.2944H21.4756H21.4757H21.4757H21.4757H21.4757H21.4757H21.4758H21.4758H21.4758H21.4758H21.4759H21.4759H21.4759H21.4759H21.4759H21.476H21.476H21.476H21.476H21.4761H21.4761C21.5457 25.2933 21.6153 25.2922 21.6844 25.2961C21.7388 25.299 21.7979 25.3264 21.8414 25.3615C21.8551 25.3726 21.8377 25.4583 21.8122 25.4879C21.7528 25.5573 21.6846 25.6208 21.6116 25.6732C21.3533 25.8595 21.0583 25.8566 20.7645 25.8458C20.5046 25.8364 20.2677 25.7725 20.11 25.5192C20.036 25.4002 19.9577 25.2843 19.8795 25.1683L19.8794 25.1682C19.8311 25.0965 19.7827 25.0249 19.7353 24.9525C19.6956 24.8917 19.657 24.8302 19.6184 24.7688L19.6183 24.7687L19.6183 24.7686L19.6183 24.7686L19.6182 24.7685L19.6182 24.7684L19.6181 24.7684L19.6181 24.7683L19.618 24.7682L19.618 24.7682L19.6179 24.7681L19.6179 24.768L19.6178 24.7679L19.6178 24.7679L19.6178 24.7678L19.6177 24.7677L19.6177 24.7677L19.6176 24.7676L19.6176 24.7675L19.6175 24.7675L19.6175 24.7674C19.5705 24.6926 19.5236 24.6178 19.4747 24.5444C19.4376 24.4888 19.3981 24.4346 19.3587 24.3803C19.2738 24.2636 19.1891 24.1469 19.1278 24.0175C19.0958 23.95 19.1601 23.7996 19.219 23.7198C19.2818 23.6348 19.3528 23.5567 19.4239 23.4787L19.4239 23.4787C19.505 23.3895 19.5861 23.3005 19.6546 23.2013C19.6875 23.1535 19.699 23.0879 19.7104 23.0228C19.7104 23.0228 19.7104 23.0228 19.7104 23.0228C19.7104 23.0227 19.7104 23.0227 19.7104 23.0227C19.7224 22.9542 19.7343 22.8862 19.771 22.8398C19.8645 22.722 19.8657 22.5907 19.867 22.4617V22.4617C19.8675 22.406 19.8681 22.3507 19.876 22.2972C19.8876 22.2194 19.8983 22.1412 19.9091 22.0629L19.9091 22.0628C19.9316 21.8989 19.9542 21.7346 19.9844 21.5729C19.9955 21.5136 20.0548 21.4634 20.1118 21.4151C20.1309 21.3989 20.1496 21.383 20.1663 21.3671C20.1738 21.3599 20.232 21.3886 20.2396 21.411C20.2652 21.4866 20.2847 21.5661 20.2952 21.6459C20.3077 21.7411 20.3181 21.8368 20.3286 21.9324C20.3423 22.0574 20.356 22.1825 20.3741 22.3067C20.3836 22.3712 20.4003 22.4345 20.417 22.4978C20.4316 22.5534 20.4463 22.6091 20.4561 22.6656C20.4658 22.7217 20.4704 22.7788 20.475 22.8359L20.475 22.8359L20.475 22.836L20.4751 22.836L20.4751 22.8361L20.4751 22.8361L20.4751 22.8362L20.4751 22.8362L20.4751 22.8363L20.4751 22.8363L20.4751 22.8364L20.4751 22.8364L20.4751 22.8365L20.4751 22.8365L20.4751 22.8365L20.4751 22.8366L20.4751 22.8366L20.4751 22.8367L20.4751 22.8367L20.4751 22.8368L20.4751 22.8368C20.48 22.8967 20.4849 22.9566 20.4955 23.0153C20.5144 23.1194 20.5377 23.2226 20.5609 23.3258L20.5609 23.3258L20.5609 23.3258L20.5609 23.3259L20.561 23.3259L20.561 23.3259L20.561 23.326L20.561 23.326L20.561 23.326L20.561 23.3261L20.561 23.3261L20.561 23.3261L20.561 23.3262L20.561 23.3262L20.561 23.3262L20.561 23.3263L20.561 23.3263L20.561 23.3263L20.561 23.3264L20.561 23.3264L20.561 23.3265ZM20.3898 15.8084C20.3328 15.8264 20.2393 15.777 20.1863 15.7283C20.1392 15.6851 20.104 15.6271 20.0687 15.5691C20.0536 15.5441 20.0384 15.5191 20.0223 15.4953C20.0079 15.4723 19.9936 15.4504 19.9799 15.4292C19.9353 15.3606 19.8958 15.2999 19.8737 15.2327C19.8602 15.1918 19.8602 15.1463 19.8602 15.1004C19.8602 15.0637 19.8601 15.0268 19.8533 14.992C19.8213 14.8302 19.9029 14.7292 19.987 14.6249L19.9943 14.6159C20.0042 14.6036 20.0141 14.5912 20.0239 14.5786C20.1214 14.4528 20.2413 14.3593 20.3736 14.2884C20.4495 14.2477 20.5415 14.2307 20.6275 14.2247C20.6829 14.2208 20.7391 14.2235 20.7952 14.2261C20.8762 14.2299 20.9568 14.2337 21.0343 14.2179C21.1208 14.2002 21.148 14.2441 21.1766 14.2935C21.2032 14.3395 21.2198 14.3992 21.2212 14.4536C21.225 14.5971 21.2205 14.7411 21.2135 14.8845C21.2129 14.8958 21.2014 14.9061 21.1896 14.9166C21.178 14.9269 21.1662 14.9375 21.1644 14.9493C21.1228 15.2239 20.9656 15.4307 20.7881 15.6071C20.6848 15.7099 20.5301 15.764 20.3898 15.8084ZM22.2191 17.8646C22.2147 17.8695 22.2071 17.8699 22.2022 17.8654L22.1459 17.8131C22.0589 17.732 21.9802 17.6588 21.8978 17.5907C21.877 17.5735 21.8516 17.5622 21.8264 17.551C21.7989 17.5388 21.7714 17.5267 21.75 17.5068C21.6776 17.4398 21.6075 17.3699 21.5375 17.3C21.4782 17.2408 21.4188 17.1816 21.3581 17.1242C21.2337 17.0066 21.106 16.8929 20.9772 16.781C20.9505 16.7579 20.924 16.7342 20.8975 16.7106L20.8973 16.7104L20.8971 16.7102L20.8969 16.7101L20.8967 16.7099L20.8965 16.7097C20.8051 16.6283 20.7135 16.5466 20.6127 16.4818C20.5172 16.4204 20.4154 16.3701 20.3136 16.3199C20.2521 16.2895 20.1905 16.2591 20.1302 16.2262C20.0634 16.1898 20.0007 16.1448 19.9383 16.1L19.9101 16.0798C19.9086 16.0787 19.9291 16.0216 19.9427 16.0199C19.9917 16.0135 20.0415 16.0041 20.0913 15.9947L20.0913 15.9946L20.0914 15.9946C20.2198 15.9703 20.3488 15.9459 20.4674 15.973C20.6351 16.0112 20.8046 16.0759 20.9634 16.193C21.2254 16.3861 21.4569 16.6071 21.6768 16.8468C21.9184 17.1101 22.1567 17.3769 22.3951 17.6437L22.3951 17.6437L22.4825 17.7416C22.5881 17.8598 22.6906 17.981 22.793 18.1024C22.8023 18.1134 22.8088 18.1417 22.8025 18.1505L22.8025 18.1506C22.7817 18.1798 22.7458 18.2305 22.7315 18.2251C22.684 18.2072 22.6409 18.1736 22.5991 18.141L22.5991 18.141L22.5915 18.1352C22.5285 18.0862 22.4659 18.0366 22.4033 17.9869C22.3463 17.9417 22.2892 17.8965 22.2318 17.8517C22.231 17.851 22.2251 17.8578 22.2191 17.8646ZM23.8133 20.0813C23.8053 20.0729 23.812 20.0598 23.8235 20.0612C23.9251 20.0741 24.0295 20.0993 24.0534 20.1596C24.0823 20.2324 24.078 20.3196 24.0738 20.4068C24.0724 20.4344 24.0711 20.4621 24.0708 20.4893C24.0706 20.5044 24.0586 20.5173 24.0437 20.5193L24.0436 20.5193C24.0229 20.5221 24.0022 20.5248 23.9931 20.5153C23.9802 20.5019 23.9711 20.4815 23.9623 20.4619C23.951 20.4368 23.9403 20.4128 23.9226 20.4061C23.7164 20.3287 23.7109 20.3146 23.8455 20.121C23.8478 20.1177 23.8305 20.0995 23.8133 20.0813C23.8133 20.0813 23.8133 20.0813 23.8133 20.0813L23.8133 20.0813ZM34.7308 28.4116C34.8144 28.4988 34.9034 28.5867 35.0095 28.6443C35.0298 28.6553 35.0499 28.6663 35.0698 28.6772C35.1063 28.6972 35.1423 28.7169 35.1785 28.7361C35.2057 28.7506 35.2342 28.7629 35.2626 28.7751C35.3095 28.7952 35.3562 28.8152 35.3965 28.8452C35.4465 28.8821 35.4884 28.9319 35.53 28.9814L35.5538 29.0094L35.5695 29.0276C35.5756 29.0348 35.5714 29.0673 35.5665 29.069C35.5546 29.0728 35.5421 29.0779 35.5295 29.0831C35.4947 29.0973 35.4589 29.112 35.4324 29.1015C35.3887 29.084 35.3437 29.0698 35.2987 29.0557C35.1649 29.0137 35.0312 28.9717 34.9316 28.8403C34.8507 28.7335 34.7388 28.6449 34.6254 28.5785C34.5743 28.5488 34.4809 28.5925 34.46 28.6834C34.4069 28.9123 33.8256 29.8206 32.9554 29.8206C32.0852 29.8206 30.7161 29.7246 30.3522 29.2567C29.8408 28.5991 30.0378 27.3433 30.0568 27.2225L30.0578 27.2158C30.0639 27.1748 30.0356 27.123 30.0116 27.0846C30.0042 27.0729 29.9524 27.0797 29.9305 27.0944C29.8633 27.1398 29.798 27.1881 29.7327 27.2365C29.7062 27.2562 29.6797 27.2758 29.653 27.2953C29.6229 27.3172 29.593 27.3396 29.5631 27.3621C29.4819 27.423 29.4006 27.484 29.3142 27.5347C29.2877 27.5502 29.244 27.535 29.2032 27.5208C29.1911 27.5166 29.1792 27.5125 29.1681 27.5093C29.145 27.5023 29.1231 27.4903 29.1013 27.4783L29.1013 27.4782L29.0907 27.4724C29.0814 27.4674 29.0795 27.4547 29.087 27.4473C29.0995 27.435 29.1117 27.4224 29.124 27.4099C29.1625 27.3705 29.201 27.3311 29.2446 27.2999C29.3037 27.2578 29.3656 27.2203 29.4276 27.1827L29.4277 27.1827C29.4728 27.1553 29.5179 27.128 29.5619 27.0989C29.6759 27.0234 29.7883 26.9445 29.8993 26.8641C29.9127 26.8544 29.9263 26.8449 29.9399 26.8353L29.94 26.8352L29.94 26.8352L29.9401 26.8351L29.9402 26.8351L29.9402 26.835L29.9403 26.835L29.9403 26.835C29.9971 26.795 30.0546 26.7547 30.0989 26.7022C30.2871 26.4795 30.4987 26.2906 30.7183 26.1027C30.8203 26.0156 30.9322 25.9558 31.0435 25.8963L31.0435 25.8963C31.1215 25.8546 31.1993 25.8131 31.2732 25.7623C31.3252 25.7268 31.3909 25.715 31.4569 25.7032L31.4569 25.7032C31.4932 25.6967 31.5296 25.6901 31.5639 25.6796C31.6302 25.6593 31.6958 25.6368 31.7614 25.6143L31.7616 25.6142C31.8104 25.5975 31.8592 25.5808 31.9081 25.565C31.9221 25.5606 31.9376 25.5611 31.9528 25.5617C31.9578 25.5619 31.9628 25.562 31.9677 25.562C32.0283 25.562 32.089 25.5603 32.1498 25.5586C32.2925 25.5545 32.4351 25.5504 32.575 25.5689C32.6627 25.5806 32.7465 25.6245 32.8304 25.6685C32.864 25.6861 32.8975 25.7037 32.9314 25.7193C32.938 25.7223 32.941 25.7305 32.9382 25.7373C32.9347 25.7461 32.9312 25.7547 32.9259 25.7565C32.724 25.8164 32.5269 25.8519 32.3202 25.75C32.2563 25.7185 32.1709 25.73 32.0911 25.7407C32.0751 25.7428 32.0594 25.745 32.0441 25.7467C31.9696 25.7552 31.8961 25.7748 31.823 25.7943L31.7737 25.8073C31.7585 25.8112 31.7432 25.8148 31.7278 25.8185C31.6712 25.832 31.6142 25.8456 31.563 25.8714C31.3781 25.9646 31.1951 26.0633 31.0151 26.1675C30.9555 26.202 30.8984 26.2414 30.8414 26.2808L30.8414 26.2808C30.7896 26.3165 30.7379 26.3523 30.6842 26.3844C30.6547 26.4021 30.6228 26.4158 30.5909 26.4296C30.5084 26.4652 30.4261 26.5007 30.3859 26.6039C30.3828 26.6118 30.3733 26.617 30.364 26.6222C30.3601 26.6244 30.3615 26.6296 30.3659 26.6299C30.3825 26.6308 30.3993 26.6326 30.4161 26.6343C30.4643 26.6393 30.5124 26.6442 30.5559 26.6309C30.6294 26.6088 30.6993 26.573 30.7692 26.5371L30.7693 26.537L30.7694 26.537L30.7695 26.5369L30.7696 26.5369L30.8068 26.5179C30.8181 26.5122 30.8295 26.5065 30.8408 26.501C30.8755 26.4841 30.9097 26.4659 30.9439 26.4478L30.9439 26.4477C31.0103 26.4125 31.0767 26.3772 31.1461 26.3518C31.1873 26.3368 31.232 26.3339 31.277 26.3309C31.309 26.3288 31.3412 26.3267 31.3724 26.3202C31.4304 26.3083 31.4877 26.2918 31.5451 26.2753C31.5741 26.2669 31.603 26.2586 31.632 26.2509C31.646 26.2473 31.6612 26.2463 31.6758 26.2463C31.7379 26.2462 31.8007 26.2496 31.8635 26.2529C32.0138 26.2609 32.1641 26.269 32.3028 26.2297C32.3589 26.2139 32.4092 26.219 32.4585 26.2241C32.4988 26.2282 32.5384 26.2323 32.5802 26.2248C32.6602 26.2105 32.7511 26.2504 32.8377 26.2884C32.858 26.2973 32.878 26.3061 32.8976 26.314C32.9925 26.3525 33.0922 26.3938 33.1704 26.4599C33.2621 26.538 33.3459 26.6264 33.4298 26.7147L33.4299 26.7148C33.4572 26.7436 33.4845 26.7723 33.5121 26.8008C33.5259 26.815 33.5268 26.8378 33.5147 26.8535C33.4982 26.875 33.4817 26.8965 33.4744 26.8934C33.4395 26.8785 31.2745 26.589 30.4288 27.0846C30.122 27.2644 30.4043 28.5701 30.4279 28.6793L30.4288 28.6834C30.5559 29.2741 32.5378 29.6147 33.2919 29.4796C34.1996 29.3171 34.2541 28.3008 34.2718 27.9712V27.9711C34.2749 27.9133 34.2768 27.8767 34.2821 27.8695C34.3307 27.8027 34.4083 27.7669 34.4773 27.8288C34.5101 27.8581 34.532 27.9151 34.5375 27.962C34.5426 28.0064 34.5556 28.0486 34.5682 28.0897L34.5682 28.0898C34.5782 28.1225 34.5881 28.1544 34.5934 28.186C34.6103 28.2858 34.6703 28.3484 34.7308 28.4116ZM12.8168 22.465C12.7884 22.4581 12.76 22.4513 12.7411 22.4626C12.6749 22.5022 9.86345 23.8494 7.90042 22.6968C7.87634 22.6827 7.84179 22.6635 7.80039 22.6406C7.55467 22.5046 7.06776 22.235 7.09693 22.0822C7.17639 21.6663 8.28735 21.0947 8.43182 21.0204C8.44017 21.016 8.44318 21.0056 8.43904 20.9971C8.43581 20.9905 8.43268 20.9836 8.42955 20.9767C8.41698 20.9489 8.4044 20.9211 8.38576 20.9152C8.33206 20.8981 8.26942 20.8959 8.21399 20.9072C8.14925 20.9204 7.44474 21.0886 7.32131 21.1724C7.19156 21.2606 6.83646 21.724 6.84297 21.8735C6.84578 21.9374 6.8259 22.0022 6.80592 22.0674C6.79544 22.1016 6.78493 22.1359 6.77765 22.1702C6.77338 22.1902 6.77255 22.2121 6.77172 22.2338C6.77041 22.2681 6.76912 22.302 6.75421 22.3272C6.73793 22.3546 6.71874 22.3987 6.69549 22.4522C6.6498 22.5572 6.58843 22.6982 6.50268 22.8201C6.43838 22.9115 6.351 22.9883 6.28456 23.0467L6.28454 23.0467L6.28453 23.0468L6.28451 23.0468L6.28449 23.0468C6.24478 23.0817 6.21256 23.11 6.19723 23.1309C6.18802 23.1435 6.17586 23.1561 6.16343 23.1689C6.12911 23.2045 6.09272 23.2422 6.11033 23.2872C6.13415 23.3482 6.21803 23.3183 6.26312 23.3022L6.2641 23.3019C6.32978 23.2788 6.39224 23.2338 6.44588 23.1853C6.52101 23.1172 6.59183 23.042 6.6552 22.9616C6.72012 22.8788 6.78352 22.7916 6.82992 22.6968C6.88116 22.5916 6.99446 22.548 7.09693 22.6235C9.97948 24.7465 12.6995 22.7228 12.8265 22.602C12.8439 22.5855 12.847 22.5518 12.8501 22.5179C12.8503 22.516 12.8505 22.5141 12.8506 22.5121C12.8526 22.4909 12.8376 22.47 12.8168 22.465ZM25.9431 10.3122C25.873 10.4607 25.7769 10.5952 25.6641 10.7145C25.5228 10.8639 25.3843 11.0103 25.2535 11.1642C25.2075 11.2183 25.1788 11.2894 25.1501 11.3604L25.1501 11.3604C25.1377 11.3911 25.1253 11.4217 25.1116 11.4509C25.0375 11.6083 24.9282 11.6674 24.7359 11.7567C24.6247 11.8084 24.5083 11.8577 24.4055 11.8361C24.3333 11.821 24.2609 11.8222 24.1894 11.8233C24.1102 11.8246 24.0323 11.8258 23.9575 11.8048C23.8665 11.7792 23.7667 11.6954 23.7209 11.6078C23.6811 11.5318 23.7256 11.4332 23.8048 11.3516C23.8923 11.2616 23.9675 11.1582 24.0429 11.0548C24.0865 10.995 24.1301 10.9352 24.1761 10.8778C24.2252 10.8166 24.2739 10.7549 24.3226 10.6932L24.3229 10.6928C24.4842 10.4885 24.6456 10.284 24.8221 10.0959C24.968 9.94046 25.1494 9.84028 25.3634 9.77583C25.5579 9.71721 25.7066 9.73166 25.8806 9.81142C25.9162 9.82771 25.9548 9.83633 25.9947 9.8415C26.0258 9.84551 26.0554 9.82877 26.0696 9.80092C26.1066 9.72878 26.1453 9.65315 26.2239 9.58555C26.5104 9.33924 26.837 9.18181 27.1626 9.02486C27.3834 8.91845 27.6037 8.81226 27.8108 8.67873C27.952 8.58768 28.12 8.51777 28.2828 8.49588C28.3706 8.48403 28.4623 8.50822 28.5546 8.53258C28.6073 8.54649 28.6603 8.56046 28.7128 8.56781C28.7444 8.57223 28.7761 8.57474 28.808 8.57727L28.808 8.57727C28.9173 8.58592 28.9677 8.69878 28.9121 8.79322C28.6382 9.25868 28.271 9.62315 27.906 9.98536C27.906 9.98536 27.906 9.98537 27.906 9.98538L27.906 9.98538C27.8062 10.0844 27.7066 10.1833 27.6091 10.284C27.5536 10.3412 27.4175 10.3215 27.298 10.3042C27.2705 10.3002 27.2438 10.2963 27.2193 10.2936C27.1282 10.2833 27.0387 10.2563 26.9495 10.2294L26.9494 10.2294L26.9494 10.2294L26.9494 10.2294C26.9215 10.221 26.8937 10.2126 26.8659 10.2047C26.7623 10.1754 26.6588 10.1453 26.5554 10.1152L26.555 10.1151C26.4742 10.0915 26.3934 10.068 26.3125 10.0448C26.3123 10.0448 26.3121 10.0448 26.3119 10.045C26.2473 10.0942 26.1268 10.1427 26.0729 10.1107C25.7766 9.93476 25.4813 9.97632 25.1912 10.0944C25.1139 10.1259 25.0499 10.198 24.987 10.2687C24.9669 10.2913 24.9469 10.3137 24.9267 10.3347C24.7715 10.4955 24.6167 10.6571 24.4694 10.8261C24.4124 10.8916 24.3636 10.9653 24.3148 11.0389C24.2968 11.0662 24.2787 11.0934 24.2603 11.1202L24.2234 11.1736C24.1613 11.2634 24.0991 11.3533 24.0413 11.4462C23.9983 11.5153 24.0039 11.5284 24.0712 11.5513C24.239 11.6086 24.4028 11.5974 24.5698 11.5323C24.7735 11.4529 24.8908 11.2865 25.0125 11.1137L25.0125 11.1136L25.0126 11.1135C25.0275 11.0924 25.0424 11.0713 25.0575 11.0501C25.1568 10.9117 25.2772 10.7906 25.3977 10.6696C25.3977 10.6696 25.3977 10.6696 25.3977 10.6696C25.3977 10.6696 25.3977 10.6696 25.3977 10.6696C25.4502 10.6168 25.5027 10.564 25.5535 10.5098C25.5624 10.5003 25.5715 10.4911 25.5807 10.4818C25.597 10.4653 25.6133 10.4489 25.6281 10.431C25.702 10.3422 25.7765 10.2567 25.9021 10.2639C25.9079 10.2642 25.9135 10.2566 25.9197 10.2483C25.9243 10.242 25.9292 10.2354 25.9346 10.2317C25.9426 10.2262 25.9522 10.2234 25.9617 10.2206C25.9675 10.2189 25.9734 10.2238 25.973 10.2297C25.973 10.23 25.973 10.2303 25.973 10.2306C25.9723 10.2408 25.9717 10.251 25.9677 10.2595C25.9596 10.2771 25.9514 10.2946 25.9431 10.3122ZM27.9074 9.06869C27.9252 9.07658 27.9451 9.07268 27.962 9.06287C28.0261 9.02548 28.1045 9.01928 28.13 9.05485C28.1685 9.10865 28.1876 9.24861 28.1561 9.27545C27.9523 9.4494 27.7399 9.6157 27.5142 9.75591C27.4277 9.80965 27.2981 9.80144 27.1899 9.79379C27.1562 9.79141 27.0914 9.68211 27.1043 9.64963L27.1207 9.60795C27.165 9.49425 27.2222 9.34716 27.2888 9.33816C27.4954 9.31011 27.6491 9.20147 27.8072 9.0898L27.8536 9.0571C27.8643 9.0496 27.8858 9.05915 27.9074 9.06869ZM28.4172 8.06595C28.4998 8.03073 28.5259 7.98331 28.4941 7.93359C28.4632 7.88524 28.3961 7.88255 28.3425 7.90286C28.3122 7.91431 28.2841 7.92494 28.2552 7.93181C28.1927 7.94671 28.1298 7.96008 28.0669 7.97344C27.9714 7.99373 27.8759 8.01402 27.7817 8.0397C27.7482 8.04882 27.6995 8.10845 27.7036 8.13738C27.7107 8.18792 27.7425 8.23572 27.7722 8.28058L27.7816 8.29471C27.7871 8.30308 27.8273 8.29045 27.8487 8.28071C27.8758 8.2684 27.9024 8.25469 27.9291 8.24099C27.9721 8.21882 28.0151 8.19667 28.06 8.18053C28.11 8.1626 28.1611 8.14809 28.2121 8.13359C28.2816 8.11388 28.3509 8.09419 28.4172 8.06595ZM28.9603 7.71629C28.8291 7.7843 28.7598 7.5715 28.9052 7.54498L28.9198 7.54233C28.9494 7.53692 28.9776 7.52376 29.006 7.51055C29.0294 7.49966 29.0528 7.48875 29.0771 7.48211C29.0894 7.47876 29.128 7.51882 29.125 7.52963L29.1193 7.55111C29.1065 7.60024 29.0903 7.66258 29.0656 7.66811C29.0382 7.67424 29.0108 7.68908 28.9833 7.70402C28.9757 7.70816 28.968 7.71231 28.9603 7.71629ZM29.5714 7.28642C29.5828 7.28505 29.5942 7.28369 29.605 7.28291C29.6893 7.26653 29.6916 7.21016 29.6938 7.15557C29.6943 7.14521 29.6947 7.13492 29.6956 7.12498C29.6972 7.10866 29.6824 7.09164 29.6662 7.09403L29.6662 7.09403L29.6662 7.09403L29.6661 7.09404L29.6661 7.09404C29.6377 7.09823 29.6093 7.10242 29.5831 7.11304L29.5656 7.11998C29.5241 7.13621 29.4732 7.15613 29.4652 7.1858C29.4336 7.30303 29.5033 7.29463 29.5714 7.28642ZM30.5528 6.87148C30.5506 6.8836 30.5421 6.89355 30.531 6.89888C30.5058 6.91119 30.4841 6.92179 30.4652 6.91757C30.4385 6.91153 30.4132 6.89843 30.3878 6.88532C30.3765 6.87948 30.3778 6.86209 30.3898 6.85807C30.3931 6.85699 30.3963 6.85591 30.3996 6.85482L30.3996 6.85481C30.4334 6.84355 30.4672 6.83229 30.5017 6.82485C30.5468 6.81514 30.5612 6.82619 30.5528 6.87148ZM37.4593 12.4685C37.3954 12.4545 37.3379 12.4401 37.2824 12.4262L37.2821 12.4261L37.282 12.4261C37.2512 12.4184 37.221 12.4109 37.1908 12.4036L37.1329 12.3896C37.054 12.3703 36.9751 12.3511 36.8952 12.3383C36.852 12.3314 36.808 12.33 36.7639 12.3286H36.7638C36.7313 12.3276 36.6988 12.3265 36.6665 12.3233C36.6179 12.3184 36.5665 12.313 36.5227 12.2927C36.4836 12.2747 36.4477 12.2493 36.4117 12.2238C36.4054 12.2194 36.3992 12.2149 36.3929 12.2106C36.3843 12.2045 36.3882 12.1905 36.3988 12.1901L36.4261 12.1894C36.4737 12.188 36.5213 12.1867 36.5683 12.1808C36.5915 12.1779 36.6144 12.1706 36.6373 12.1634C36.6676 12.1537 36.6978 12.1442 36.728 12.1449L36.7601 12.1458H36.7601C36.9647 12.1511 37.1698 12.1565 37.3732 12.1784C37.5052 12.1926 37.636 12.2227 37.7664 12.2528C37.7973 12.2599 37.8282 12.267 37.8591 12.2739C37.9736 12.2995 38.0871 12.3301 38.2005 12.3607L38.2389 12.3711C38.3401 12.3983 38.4405 12.4274 38.5411 12.4566L38.5831 12.4688C38.5976 12.4729 38.6116 12.4789 38.6256 12.4849L38.6414 12.4915C38.6434 12.4923 38.6441 12.4946 38.643 12.4963C38.6385 12.5034 38.6341 12.5118 38.6296 12.5202C38.6183 12.5415 38.6069 12.563 38.5956 12.5629C38.5415 12.5625 38.4874 12.573 38.4332 12.5835C38.3202 12.6054 38.2067 12.6274 38.092 12.551C38.0716 12.5374 38.048 12.5402 38.021 12.5433C37.9867 12.5474 37.947 12.552 37.9014 12.5244C37.8204 12.4755 37.7142 12.4745 37.6029 12.4735C37.5555 12.4731 37.5071 12.4726 37.4593 12.4685ZM13.464 17.9843L13.464 17.9843L13.4642 17.9843L13.4645 17.9842L13.4647 17.9842C15.1819 17.7531 16.6137 17.5604 16.6101 17.5104C16.6099 17.5074 16.6122 17.4991 16.6157 17.4871C16.6378 17.4093 16.705 17.1738 16.4088 17.1698C15.1374 17.1525 11.4463 17.6163 7.97752 18.4127C3.05597 19.4935 0.220543 20.9998 0.254203 21.1023C0.269501 21.1489 1.49303 20.7645 2.99475 20.2928L2.99509 20.2927L2.99521 20.2926C4.79752 19.7265 7.00035 19.0345 7.99618 18.8105L8.10711 18.7858C9.05682 18.5774 11.4555 18.2546 13.464 17.9843ZM9.27462 21.2481C9.58683 21.2481 10.0375 21.2844 10.6141 21.4938L10.7588 21.5469C10.8691 21.5876 11.0739 21.6478 11.3708 21.7263C11.4397 21.7446 11.4818 21.8192 11.4648 21.8931C11.4583 21.9211 11.3281 21.9099 11.1689 21.8852C10.7662 21.8229 10.3809 21.6828 9.98809 21.5743C9.7717 21.5145 9.62228 21.4971 9.45882 21.5048C9.18834 21.5175 8.61686 21.7424 8.18286 21.9131C7.87638 22.0337 7.63845 22.1273 7.62347 22.1002C7.58728 22.0348 7.63011 21.9517 7.66858 21.9115C8.05812 21.5048 8.27395 21.39 9.27462 21.2481ZM39.6864 10.5906L39.6252 10.4721C39.5793 10.3839 39.5197 10.2707 39.4901 10.2187L39.4806 10.2023C39.3606 10.0032 39.3387 9.75096 39.3694 9.34252L39.3822 9.19155L39.394 9.06013C39.4286 8.65551 39.4198 8.50127 39.3507 8.4216L39.3402 8.41008C39.2714 8.33891 39.1909 8.33984 38.9004 8.40892L38.8295 8.42608C38.4939 8.50846 38.272 8.52852 38.0155 8.46316L37.7937 8.40412L37.5831 8.34906L37.5231 8.33261C36.9941 8.18418 36.7715 8.02475 36.6882 7.63858C36.6683 7.54639 36.6764 7.45109 36.7077 7.33222L36.7148 7.30638C36.7351 7.2347 36.8336 6.95019 36.8335 6.95033C36.8558 6.88291 36.8744 6.82138 36.891 6.75953L36.9123 6.67916C36.9302 6.6105 36.9487 6.53754 36.968 6.45953L37.1688 5.61765C37.2048 5.46923 37.2356 5.34607 37.2481 5.30453L37.3051 5.12506L37.3291 5.0523C37.3448 5.00583 37.3599 4.96301 37.3754 4.9213C37.5009 4.58455 37.6341 4.37661 37.8219 4.31919C37.9949 4.26628 38.1223 4.27351 38.2617 4.33306C38.2908 4.34548 38.3663 4.38403 38.4235 4.41326C38.4542 4.42897 38.4797 4.442 38.4899 4.44681C38.6296 4.51298 38.7727 4.55504 38.9667 4.57591L39.0037 4.57957C39.0972 4.58807 39.1742 4.5771 39.4024 4.52365L39.5661 4.48481C39.7402 4.44434 39.8542 4.42432 39.9791 4.416C40.0924 4.40844 40.1978 4.41373 40.2981 4.43405C40.4634 4.46752 40.7167 4.57771 41.0646 4.76533C41.119 4.79465 41.1409 4.86563 41.1135 4.92386C41.0861 4.9821 41.0199 5.00553 40.9655 4.97621L40.9006 4.94155C40.6035 4.78443 40.3873 4.6924 40.2572 4.66604C40.1761 4.64962 40.0888 4.64524 39.9928 4.65164C39.8746 4.65952 39.7633 4.67987 39.5813 4.72295L39.4443 4.75553C39.2012 4.81246 39.1135 4.82519 38.9968 4.81583L38.985 4.81483C38.747 4.79319 38.571 4.74339 38.4007 4.66274L38.2105 4.56669C38.1973 4.56024 38.1867 4.55519 38.18 4.55236C38.0858 4.51209 38.0084 4.5077 37.8824 4.54622C37.7851 4.57599 37.6808 4.73872 37.5801 5.00884C37.5619 5.05779 37.5441 5.1089 37.525 5.16681L37.4583 5.37554C37.4286 5.46814 37.2121 6.39098 37.2049 6.42279L37.1694 6.56695C37.1463 6.65943 37.1243 6.74488 37.1029 6.82469C37.0886 6.87809 37.0729 6.93096 37.0551 6.98663L37.0414 7.02895C37.0236 7.08297 37.0077 7.13092 36.9936 7.17357C36.894 7.47488 36.8821 7.51076 36.89 7.54164C36.891 7.54581 36.8925 7.5499 36.8941 7.55453C36.8965 7.56148 36.8993 7.56967 36.9021 7.58127L36.903 7.58544C36.9635 7.86616 37.1313 7.98195 37.6088 8.11247L38.042 8.22695C38.2599 8.28724 38.4494 8.27469 38.7456 8.20432L38.9334 8.15874C39.0584 8.12911 39.0901 8.12529 39.1621 8.1222C39.3064 8.11601 39.422 8.15692 39.5122 8.2609C39.6441 8.41293 39.6564 8.58617 39.6139 9.07775L39.592 9.32539L39.5868 9.39474C39.5643 9.72127 39.5821 9.92368 39.6577 10.0603L39.6814 10.1013C39.704 10.1415 39.7381 10.2055 39.7718 10.2693L39.8791 10.4758L39.8934 10.5024C40.0367 10.7668 40.1549 10.9149 40.2806 10.9661L40.2941 10.9712C40.4548 11.0277 40.6535 10.9157 40.9099 10.559L40.9431 10.5126C40.982 10.4612 41.0216 10.4289 41.2039 10.3079L41.4855 10.1226L41.5194 10.0997C41.6953 9.98024 41.7988 9.8914 41.8218 9.84116C42.0911 9.25241 42.2627 8.33341 42.2109 7.28868C42.2044 7.15772 42.1394 6.95709 42.0145 6.69272L42.003 6.66867C42.0008 6.66397 41.9972 6.66002 41.9928 6.6573C41.698 6.47785 41.4835 6.30736 41.3486 6.14297L41.3328 6.12328C41.1945 5.94704 41.0554 5.65942 40.9121 5.25789C40.8904 5.19699 40.9189 5.12875 40.9757 5.10548C41.0326 5.0822 41.0963 5.1127 41.118 5.1736C41.2533 5.55265 41.3823 5.81941 41.5015 5.97137C41.6114 6.11136 41.8011 6.26604 42.07 6.43256L42.136 6.47275C42.1547 6.48394 42.1698 6.50032 42.1794 6.5199L42.1799 6.52105C42.3378 6.84391 42.422 7.09315 42.4311 7.27616C42.4848 8.36077 42.3057 9.31985 42.0197 9.94503C41.9713 10.0511 41.8521 10.1533 41.6375 10.2991L41.584 10.335L41.3561 10.4849C41.1668 10.6102 41.1289 10.6404 41.1031 10.677C40.788 11.1243 40.4992 11.2917 40.2254 11.1956C40.0202 11.1235 39.8682 10.9322 39.6864 10.5906ZM43.0174 3.51731C42.9621 3.48999 42.8967 3.51583 42.8711 3.57503C42.8161 3.7029 42.73 3.78318 42.6068 3.82214C42.5184 3.85008 42.4195 3.86619 42.2984 3.87466C42.2562 3.87762 42.2199 3.87938 42.1657 3.88104L41.9796 3.88613C41.6813 3.89654 41.5514 3.92355 41.4211 4.02404C41.2484 4.15731 41.1759 4.58329 41.2365 4.82865L41.2397 4.84207L41.2464 4.87201L41.2538 4.90757C41.2543 4.90997 41.2561 4.91887 41.2585 4.93116C41.2636 4.95736 41.2719 4.99897 41.2772 5.02574L41.2876 5.07535C41.2969 5.11818 41.3061 5.15639 41.3163 5.19364C41.3572 5.34249 41.4113 5.46304 41.4908 5.56237C41.5018 5.57607 41.5325 5.6356 41.5663 5.70369L41.6821 5.94055C41.7757 6.11715 41.873 6.24555 41.996 6.33144C42.0479 6.36763 42.0953 6.38261 42.1843 6.39978L42.2239 6.40752C42.2961 6.42197 42.3302 6.43109 42.3732 6.44908L42.4066 6.4636C42.4402 6.47736 42.4797 6.48747 42.537 6.49815C42.5641 6.50297 42.5915 6.5076 42.6188 6.51207C42.6518 6.51748 42.6979 6.52509 42.7297 6.53055L42.7891 6.5414C42.8457 6.55244 42.8959 6.56421 42.9437 6.57806C42.9903 6.59157 43.0335 6.6068 43.0736 6.62413L43.0991 6.63479C43.1398 6.65118 43.1737 6.66139 43.2336 6.67649L43.289 6.69023C43.3144 6.69661 43.3325 6.70164 43.3486 6.70704L43.3675 6.7138C43.4385 6.7411 43.4987 6.78883 43.5741 6.88887C43.674 7.02132 43.674 7.08342 43.5972 7.14031C43.5471 7.1774 43.5346 7.25093 43.5692 7.30455C43.6038 7.35818 43.6725 7.37159 43.7226 7.3345C43.9184 7.18942 43.9184 6.96972 43.7456 6.74053C43.6456 6.60795 43.5526 6.53407 43.4419 6.49156C43.4198 6.48307 43.3995 6.47646 43.3742 6.46948L43.3411 6.4608L43.2723 6.44367C43.2294 6.43262 43.2042 6.42481 43.1758 6.41339L43.1266 6.39289C43.0867 6.37698 43.045 6.36283 43.0013 6.35015C42.9363 6.33132 42.8688 6.31621 42.7912 6.30208L42.5799 6.26646C42.5297 6.2572 42.499 6.24931 42.4814 6.24135C42.413 6.21044 42.3712 6.19743 42.2853 6.17969L42.2088 6.16453C42.1578 6.15419 42.1344 6.14622 42.1164 6.13364C42.0285 6.07232 41.5579 5.23656 41.5278 5.12704C41.5166 5.08626 41.5066 5.0431 41.4958 4.99119L41.4651 4.83714C41.4623 4.82401 41.4598 4.81194 41.4572 4.80057L41.4496 4.76824C41.4098 4.60731 41.4654 4.28085 41.55 4.21561C41.6353 4.14977 41.7461 4.12942 42.0182 4.1211L42.1735 4.117C42.2295 4.11527 42.2677 4.11341 42.3128 4.11026L42.353 4.10713C42.4716 4.09688 42.5737 4.07878 42.6692 4.04858C42.8536 3.99027 42.9897 3.86331 43.0713 3.67396C43.0968 3.61476 43.0727 3.54463 43.0174 3.51731Z" fill="#2C1320" fill-opacity="0.8"/>
<path fill-rule="evenodd" clip-rule="evenodd" d="M17.2771 15.8136C17.2728 15.8046 17.2718 15.7896 17.2761 15.7806C17.3138 15.7013 17.3472 15.6319 17.3927 15.5733C17.4415 15.5105 17.5031 15.459 17.5612 15.4051C17.567 15.3998 17.599 15.4132 17.5988 15.4167C17.5979 15.4355 17.5959 15.4599 17.5846 15.4714C17.4983 15.5594 17.4911 15.6763 17.4647 15.7913C17.4357 15.9174 17.4651 16.0161 17.5187 16.1212C17.5545 16.1913 17.5806 16.2683 17.6029 16.3448C17.65 16.5062 17.6966 16.668 17.7342 16.8321C17.7597 16.9427 17.7831 17.0573 17.784 17.1703C17.789 17.7402 17.7861 18.3101 17.7864 18.88C17.7865 19.1711 17.7827 19.4624 17.7906 19.7533C17.7933 19.8482 17.8413 19.9419 17.8428 20.0366C17.844 20.1131 17.8082 20.1909 17.7846 20.2667C17.7812 20.2775 17.7448 20.29 17.7395 20.2845C17.7021 20.2451 17.6395 20.2017 17.6389 20.1586C17.6341 19.8238 17.6461 19.4888 17.643 19.1539C17.6416 19.0029 17.6091 18.8523 17.6056 18.7011C17.5973 18.3488 17.6343 17.9903 17.5836 17.6459C17.5441 17.3769 17.5537 17.1208 17.5576 16.8563C17.5585 16.7969 17.4038 16.7228 17.3114 16.677C17.1916 16.6174 17.1154 16.6971 17.0585 16.8039C17.0533 16.8136 17.0319 16.8183 17.0318 16.8254C17.0291 17.4476 17.0253 18.0698 17.0276 18.692C17.0283 18.8721 17.0476 19.052 17.0559 19.2321C17.059 19.2996 17.0523 19.3347 17.1491 19.3189C17.3126 19.2922 17.5273 19.551 17.48 19.6988C17.4435 19.8126 17.3775 19.9154 17.3409 20.0292C17.2583 20.2859 17.0777 20.5342 17.1573 20.8131C17.2179 21.0248 17.3488 21.2228 17.4825 21.397C17.5357 21.4664 17.6815 21.4517 17.7833 21.4823C17.8177 21.4927 17.8578 21.5185 17.8734 21.5497C17.8835 21.5703 17.8616 21.6237 17.8394 21.6419C17.8261 21.653 17.7848 21.6243 17.7559 21.6142C17.7084 21.5976 17.6617 21.5732 17.613 21.567C17.3839 21.5387 17.3711 21.5237 17.267 21.2504C17.2297 21.1525 17.1597 21.0691 17.1201 20.9718C17.0827 20.88 17.0615 20.7798 17.0407 20.6814C17.0207 20.5866 16.9941 20.4883 17 20.3937C17.0068 20.2822 17.0371 20.1697 17.0727 20.0636C17.1046 19.9689 17.1592 19.8832 17.1988 19.7911C17.2034 19.7805 17.1798 19.7497 17.1634 19.7372C17.1545 19.7304 17.1301 19.7377 17.1178 19.7466C16.9992 19.8333 16.9428 19.9731 16.8677 20.0956C16.843 20.1359 16.8506 20.1989 16.8437 20.2516C16.8334 20.3304 16.8137 20.4094 16.8154 20.4879C16.8185 20.6331 16.8033 20.7911 16.8512 20.9202C16.9507 21.1886 17.0471 21.4719 17.2501 21.6715C17.3247 21.7451 17.4488 21.7803 17.5733 21.7982C17.7373 21.8217 17.8928 21.7709 18.0536 21.7904C18.1271 21.7995 18.207 21.7308 18.284 21.7311C18.3778 21.7315 18.4512 21.6764 18.5341 21.6621C18.629 21.6455 18.7073 21.6018 18.7899 21.5598C18.9248 21.4914 19.0711 21.4426 19.1942 21.3556C19.3036 21.2781 19.3872 21.1592 19.4839 21.0605C19.6332 20.9082 19.7591 20.7399 19.8594 20.5439C19.9035 20.4576 19.9735 20.392 19.9447 20.2827C19.9402 20.2657 19.9289 20.2385 19.9193 20.2378C19.898 20.2362 19.8689 20.2411 19.855 20.2561C19.5387 20.598 19.2302 20.9487 18.9049 21.2804C18.8171 21.3696 18.6799 21.4045 18.5638 21.4608C18.4992 21.4921 18.43 21.5123 18.365 21.5429C18.239 21.6021 18.1362 21.5352 18.03 21.4858C18.0086 21.4759 17.9854 21.4373 18.0079 21.4302C18.2044 21.3742 18.4035 21.3276 18.5974 21.2628C18.687 21.2329 18.7708 21.1748 18.8494 21.1173C18.9255 21.0615 18.9885 20.9857 19.0627 20.9263C19.3398 20.7043 19.5666 20.443 19.6752 20.08C19.7045 19.9818 19.9019 19.9195 20.0154 19.9558C20.0837 19.9776 20.1619 19.9758 20.222 20.0112C20.2606 20.0339 20.3019 20.1106 20.2943 20.1535C20.254 20.3824 20.1199 20.5521 19.9704 20.7151C19.8711 20.8233 19.8097 20.9729 19.7064 21.0752C19.5315 21.2485 19.3488 21.4198 19.1471 21.5533C18.9432 21.6885 18.7168 21.7891 18.4917 21.8806C18.3304 21.9461 18.1568 21.9946 17.9855 22.0099C17.6931 22.0363 17.4054 22.0112 17.1461 21.8253C16.9836 21.7087 16.8741 21.5471 16.7895 21.3726C16.7421 21.2749 16.7877 21.1277 16.7461 21.0233C16.6638 20.8165 16.6486 20.6042 16.6659 20.391C16.6777 20.2455 16.7619 20.1043 16.7624 19.9609C16.763 19.8 16.8735 19.7209 16.9217 19.5994C16.9314 19.5749 16.9055 19.5367 16.9054 19.5048C16.904 19.1411 16.9047 18.7775 16.9044 18.4138C16.9043 18.2307 16.915 18.0464 16.8984 17.865C16.8887 17.7596 16.8277 17.6607 16.8035 17.5552C16.7911 17.5016 16.8121 17.44 16.8127 17.3819C16.8144 17.2173 16.7993 17.0508 16.8168 16.8883C16.8388 16.6838 16.892 16.4833 16.9208 16.2793C16.9369 16.1653 16.9311 16.0478 16.9349 15.9318C16.9422 15.7038 16.9858 15.4786 17.1342 15.3145C17.2499 15.1866 17.3884 15.0656 17.5805 15.0651C17.6277 15.0649 17.6921 14.9735 17.7183 14.9878C17.7779 15.0204 17.8358 15.0855 17.8593 15.1516C17.8697 15.1809 17.8029 15.2573 17.7573 15.2904C17.6761 15.3494 17.5814 15.3473 17.4823 15.3428C17.3196 15.3352 17.1712 15.5633 17.1084 15.7635C17.057 15.9277 17.1357 16.074 17.1007 16.2304C17.0902 16.277 17.176 16.3495 17.2209 16.4072C17.2256 16.4132 17.2672 16.3993 17.2673 16.3944C17.2683 16.2957 17.2746 16.1956 17.2614 16.0986C17.2504 16.0184 17.205 15.938 17.2651 15.8726C17.2806 15.8558 17.2869 15.8343 17.2771 15.8136Z" fill="#EB5E55"/>
<path fill-rule="evenodd" clip-rule="evenodd" d="M23.9114 26.7099C23.8552 27.0303 23.7954 27.3188 23.7462 27.6085C23.738 27.6568 23.7882 27.7126 23.7899 27.7659C23.805 28.2218 23.7257 28.6727 23.7117 29.1285C23.705 29.3474 23.7235 29.5869 23.6663 29.802C23.5953 30.0685 23.6978 30.4184 23.3727 30.5752C23.2474 30.6354 23.0632 30.7495 22.99 30.7006C22.8483 30.6059 22.6127 30.5539 22.6499 30.2617C22.6826 30.0046 22.6141 29.7299 22.6662 29.4809C22.7554 29.0552 22.6607 28.6256 22.7306 28.2118C22.7731 27.9609 22.7271 27.7107 22.7826 27.4737C22.8721 27.0912 22.8586 26.7018 22.9068 26.3186C22.9527 25.9543 22.9803 25.5887 23.0257 25.2263C23.0726 24.8513 23.0997 24.475 23.1482 24.1032C23.1915 23.7702 23.1842 23.4178 23.2756 23.1099C23.3566 22.8368 23.1667 22.5223 23.4203 22.2865C23.4551 22.2542 23.3641 22.1006 23.3781 22.0111C23.4934 21.2675 23.4031 20.5194 23.4394 19.7747C23.4419 19.7222 23.521 19.6468 23.5778 19.6291C23.7564 19.5735 23.9403 19.5315 24.1249 19.5052C24.1677 19.4991 24.2642 19.5768 24.2635 19.6145C24.2525 20.2537 24.2173 20.8926 24.2145 21.5317C24.2124 21.9931 24.2608 22.4545 24.2652 22.9161C24.2674 23.1406 24.2155 23.3657 24.1974 23.5915C24.1787 23.826 24.2484 24.0492 24.1169 24.2994C24.0177 24.4876 24.1047 24.7785 24.0881 25.0218C24.0571 25.4771 24.0308 25.9349 23.9551 26.3826C23.9393 26.4773 23.9054 26.5751 23.9114 26.7099ZM23.0749 29.9998C23.173 30.1554 23.1678 30.151 23.2583 30.0325C23.3649 29.8926 23.284 29.7296 23.3189 29.5879C23.4124 29.2066 23.3891 28.8159 23.4333 28.4315C23.4688 28.123 23.5194 27.8151 23.5353 27.506C23.5557 27.1065 23.5164 26.7014 23.5626 26.3064C23.6023 25.9671 23.5898 25.6266 23.7043 25.2817C23.8204 24.9318 23.7706 24.5211 23.7912 24.1367C23.7961 24.0426 23.7581 23.9266 23.798 23.8582C23.9339 23.6256 23.8123 23.3829 23.8457 23.1484C23.8462 23.1447 23.8456 23.1408 23.8441 23.1367C23.8176 23.0679 23.6809 23.0961 23.6708 23.1691C23.628 23.4757 23.5797 23.7817 23.5558 24.0903C23.5241 24.4997 23.513 24.9117 23.4933 25.3225C23.4918 25.3538 23.5056 25.3952 23.4912 25.4153C23.3293 25.6429 23.4548 25.9144 23.3815 26.1697C23.2887 26.492 23.3303 26.8569 23.314 27.2037C23.3135 27.2144 23.3156 27.225 23.3137 27.2351C23.2647 27.4777 23.2032 27.7192 23.17 27.9644C23.1434 28.1613 23.2532 28.3412 23.1013 28.5701C22.9859 28.7444 23.0869 29.0693 23.0709 29.3251C23.0612 29.48 23.0025 29.6311 22.9857 29.7866C22.9808 29.8324 23.0433 29.887 23.0749 29.9998ZM23.6847 21.3532C23.6785 21.4565 23.8542 21.3288 23.8581 21.2254C23.8622 21.1128 23.8663 21.0002 23.8699 20.8876C23.8706 20.863 23.865 20.8169 23.8619 20.8169C23.8241 20.8164 23.7552 20.8168 23.7532 20.8282C23.7229 21.0021 23.6951 21.1772 23.6847 21.3532Z" fill="#00160A"/>
<path fill-rule="evenodd" clip-rule="evenodd" d="M17.3342 20.961C17.327 20.9477 17.3222 20.9333 17.321 20.9183C17.3205 20.9123 17.3201 20.9063 17.3197 20.9005C17.3155 20.8353 17.3868 20.7746 17.4418 20.8098C17.6302 20.9307 17.8152 21.058 18.0036 21.1789C18.0365 21.2 18.0799 21.2049 18.1193 21.211C18.151 21.2158 18.1732 21.2565 18.1483 21.2769C18.1394 21.2841 18.1311 21.2883 18.124 21.2865C17.9804 21.2526 17.8094 21.3777 17.6899 21.2046C17.6875 21.2013 17.6743 21.2023 17.6693 21.2061C17.6156 21.2463 17.5554 21.3253 17.4953 21.2489C17.4309 21.1667 17.3897 21.0636 17.3342 20.961Z" fill="#00160A"/>
</svg>
