<svg width="523" height="523" viewBox="0 0 523 523" fill="none" xmlns="http://www.w3.org/2000/svg">
<ellipse cx="102.919" cy="325.47" rx="23.6792" ry="22.2668" fill="white"/>
<path fill-rule="evenodd" clip-rule="evenodd" d="M93.6326 246.08C89.5959 235.998 93.1221 229.958 95.3823 222.073C97.2703 215.487 112.035 204.788 118.83 215.943C120.829 219.225 120.027 222.328 124.396 225.212C134.973 232.195 129.203 217.708 129.596 214.046C129.788 212.26 128.279 208.14 128.841 206.417C129.43 204.608 132.573 202.038 132.573 198.288C132.573 194.538 126.181 193.094 124.396 192.173C108.54 183.986 98.4551 170.312 103.481 163.372C110.482 153.703 137.923 168.916 146.169 170.312C146.275 170.33 147.748 162.643 148.951 160.882C151.357 157.361 154.016 153.942 157.189 151.091C158.61 149.814 160.537 149.026 162.43 148.771C168.097 148.006 173.894 147.379 179.57 148.072C181.575 148.316 193.519 134.493 198.176 130.034C233.907 95.8232 305.535 137.512 266.492 194.162C259.315 204.574 250.139 207.885 248.954 211.565C246.322 219.739 262.893 218.664 269.913 219.537C281.905 221.029 287.816 227.189 280.371 237.748C275.734 244.326 248.527 243.99 236.609 239.234C232.185 237.468 226.719 229.749 222.538 236.081C219.657 240.444 208.426 249.701 196.378 254.937C190.94 257.3 184.746 255.876 180.105 257.987C173.573 260.957 154.29 273.432 146.169 273.429C137.989 273.426 127.405 263.583 126.181 262.937C124.314 261.953 109.876 259.132 102.743 248.125C100.586 244.797 95.1103 249.77 93.6326 246.08Z" fill="white"/>
<ellipse cx="232.509" cy="187.637" rx="2.50837" ry="2.47251" fill="#FFB61D"/>
<circle cx="214.144" cy="182.476" r="2.43543" fill="#FFB61D"/>
<circle cx="391.582" cy="180.388" r="33.0523" fill="white"/>
<ellipse cx="288.233" cy="367.896" rx="96.0429" ry="82.0885" fill="white"/>
<path fill-rule="evenodd" clip-rule="evenodd" d="M206.811 412.655L207.889 413.436C205.456 415.619 201.796 412.904 199.744 410.36C196.444 406.269 193.096 401.921 192.092 396.762C191.52 393.826 191.749 390.801 191.98 387.82L192.911 375.797C193.323 370.47 193.737 365.132 194.659 359.869C197.155 345.624 203.438 332.061 212.69 320.945L212.782 320.834C214.416 318.872 216.2 316.729 216.169 314.185C216.102 308.803 219.201 303.774 223.271 300.251C227.34 296.728 232.323 294.467 237.229 292.254C239.452 291.252 242.355 290.353 244.077 292.079C247.62 295.629 253.534 293.368 258.214 291.565C263.96 289.352 270.098 288.159 276.255 288.06C276.434 288.057 276.614 288.054 276.796 288.051L276.796 288.051C280.493 287.999 284.654 287.939 286.909 285.075C288.345 283.252 291.091 283.357 293.395 283.633L309.246 285.529C310.457 285.674 311.909 286.004 312.291 287.163C313.315 290.269 316.927 291.537 320.058 292.481C331.191 295.838 342.073 300.396 351.525 307.169C360.976 313.942 368.965 323.054 373.204 333.882C366.312 324.462 359.242 314.865 349.677 308.175C346.94 306.261 344.028 304.608 341.074 303.05C334.099 299.374 326.841 296.205 319.3 293.903C284.295 283.218 243.803 293.128 217.689 318.77C213.902 322.488 210.352 326.583 208.204 331.436L211.041 332.316C206.545 334.325 203.206 338.728 202.483 343.6C204.292 340.501 206.871 337.855 209.923 335.966C209.049 338.884 206.778 341.229 204.551 343.527C201.713 346.456 198.947 349.31 199.241 353.18C200.588 349.644 203.982 346.975 207.737 346.499C201.782 352.317 195.392 359.146 195.582 367.469C197.754 362.663 201.442 358.555 205.988 355.88L199.444 364.674C196.969 368 194.362 371.801 194.928 375.907C197.081 372.043 200.159 368.699 203.832 366.234C202.064 370.256 199.539 373.944 196.428 377.048C199.386 376.691 202.234 375.465 204.527 373.564C203.566 374.906 202.699 376.42 202.667 378.071C202.635 379.722 203.704 381.493 205.338 381.73C205.832 380.624 207.384 380.157 208.407 380.806C205.306 383.823 205.274 389.413 208.34 392.465C208.612 391.03 209.822 389.821 211.257 389.55C208.97 393.548 208.559 398.569 210.165 402.886C210.651 400.44 212.008 398.177 213.936 396.596C212.824 402.398 210.367 407.938 206.811 412.655ZM205.457 410.807C207.393 410.787 208.597 408.621 208.799 406.696C209.04 404.392 208.468 402.09 207.9 399.844L204.532 386.524C203.898 386.725 203.825 387.414 203.748 388.137C203.682 388.753 203.614 389.394 203.192 389.773C202.34 388.713 202.243 387.109 202.962 385.954C203.687 384.788 203.213 383.155 202.183 382.246C201.154 381.337 199.721 381.029 198.348 380.983C197.607 380.959 196.818 381.016 196.211 381.443C195.604 381.87 195.284 382.778 195.715 383.382C196.999 385.181 197.964 387.205 198.554 389.335C198.598 389.494 198.641 389.655 198.684 389.817L198.684 389.817C198.977 390.922 199.278 392.059 200.087 392.847C200.712 393.456 200.872 394.386 200.999 395.25L202.028 402.249C202.215 403.523 202.402 404.822 202.188 406.092C201.974 407.361 201.287 408.62 200.136 409.196L203.813 410.447C204.347 410.629 204.893 410.813 205.457 410.807ZM245.54 296.085C244.815 296.239 244.207 295.602 243.689 295.058L243.629 294.996C243.097 294.44 242.183 293.956 241.623 294.483C235.096 300.623 227.669 305.804 219.653 309.809C218.198 310.536 218.002 312.496 218.001 314.123C218.001 314.666 218.521 315.428 218.86 315.004C220.513 312.933 222.663 311.325 224.787 309.741C230.765 305.285 236.814 300.786 243.666 297.848C244.498 297.492 245.471 296.987 245.54 296.085ZM311.139 289.18C310.769 288.312 309.717 287.999 308.79 287.824C306.264 287.348 303.692 287.132 301.124 286.917C297.596 286.621 294.073 286.326 290.678 285.357C289.59 285.046 288.66 286.149 288.064 287.11C289.853 286.923 291.653 286.847 293.452 286.88C296.582 286.937 299.696 287.327 302.802 287.716C304.381 287.914 305.97 288.115 307.484 288.604C307.66 288.661 307.838 288.722 308.016 288.784L308.017 288.784C309.05 289.139 310.119 289.505 311.139 289.18ZM277.723 302.521C278.439 302.685 279.12 303.219 279.227 303.945C279.333 304.669 278.839 305.375 278.206 305.744C277.574 306.113 276.827 306.216 276.101 306.312L273.917 306.601C273.698 306.63 273.472 306.662 273.282 306.774C272.733 307.099 272.771 307.98 273.22 308.434C273.669 308.887 274.358 309 274.996 308.999C277.967 308.993 280.78 306.855 281.687 304.025C281.903 303.353 282.017 302.606 281.75 301.953C281.615 301.622 281.388 301.334 281.137 301.08C279.968 299.895 278.227 299.373 276.568 299.491C274.908 299.608 273.329 300.315 271.979 301.286C271.331 301.752 270.714 302.298 270.347 303.005C269.979 303.713 269.9 304.611 270.312 305.294C270.469 305.555 270.711 305.786 271.011 305.835C271.311 305.884 271.658 305.69 271.695 305.388C271.799 304.549 272.411 303.84 273.141 303.414C273.871 302.987 274.713 302.799 275.542 302.634C276.261 302.49 277.008 302.358 277.723 302.521ZM219.166 344.027C219.982 339.198 223.883 335.272 228.431 333.452C230.936 332.45 233.804 332.01 236.324 332.976C236.946 333.214 237.548 333.544 237.996 334.036C238.417 334.499 238.682 335.083 238.882 335.676C240.162 339.473 238.863 343.865 236.112 346.78C233.361 349.694 229.357 351.223 225.359 351.51C224.079 351.602 222.704 351.55 221.646 350.822C220.588 350.094 220.063 348.477 220.878 347.485C221.263 347.503 221.47 347.847 221.683 348.199C221.788 348.373 221.895 348.549 222.024 348.689C222.468 349.167 223.203 349.201 223.854 349.174C226.688 349.054 229.566 348.352 231.872 346.701C234.179 345.05 235.837 342.354 235.789 339.517C235.773 338.603 235.574 337.668 235.056 336.915C234.207 335.679 232.6 335.121 231.103 335.219C229.605 335.318 228.202 335.982 226.927 336.773C225.25 337.814 223.699 339.123 222.648 340.794C221.596 342.465 221.082 344.531 221.527 346.454C221.134 347.163 219.966 347.022 219.483 346.37C219 345.719 219.031 344.826 219.166 344.027ZM245.268 383.829C243.195 385.164 241.475 387.252 241.156 389.697C240.897 391.675 241.56 393.645 242.213 395.53C242.723 397.001 243.25 398.504 244.221 399.721C245.976 401.919 248.88 402.828 251.657 403.275C252.413 403.396 253.56 403.055 253.29 402.338C250.359 402.284 247.476 400.926 245.568 398.699C243.66 396.473 242.759 393.416 243.155 390.511C243.238 389.9 243.378 389.291 243.634 388.73C244.154 387.596 245.122 386.724 246.17 386.046C248.426 384.589 251.172 383.905 253.848 384.137C256.428 384.359 259.005 385.49 260.58 387.546C262.155 389.601 262.531 392.634 261.141 394.819C260.915 395.174 260.75 395.802 261.164 395.877C263.402 394.671 264.644 392.013 264.518 389.475C264.393 386.936 263.052 384.561 261.211 382.809C260.192 381.841 258.986 381.022 257.619 380.693C255.817 380.259 253.933 380.707 252.14 381.178C249.756 381.805 247.342 382.495 245.268 383.829ZM347.111 386.982C339.612 384.183 331.464 383.139 323.501 383.959C320.163 384.302 316.814 384.984 313.812 386.486C308.149 389.32 304.1 395.155 303.426 401.452C302.752 407.749 305.476 414.308 310.411 418.276C312.283 419.781 314.407 420.908 316.534 422.036C317.986 422.806 319.44 423.577 320.815 424.47C321.208 424.845 320.324 425.22 319.807 425.053C314.998 423.501 310.327 421.139 306.896 417.428C302.722 412.913 300.687 406.502 301.492 400.406C302.297 394.311 305.927 388.648 311.13 385.371C315.245 382.78 320.165 381.688 325.025 381.513C329.885 381.337 334.731 382.032 339.537 382.777C342.538 383.242 346.058 384.133 347.111 386.982ZM268.209 396.378C267.869 395.598 266.5 395.394 266.25 396.208C264.659 401.384 259.608 405.298 254.198 405.546C252.976 405.602 251.752 405.489 250.534 405.371C247.91 405.117 245.203 404.817 242.905 403.525C239.601 401.667 237.613 397.852 237.589 394.061C237.566 390.271 239.364 386.587 242.094 383.957C241.715 382.895 240.088 383.408 239.28 384.193C234.802 388.546 234.034 396.058 237.176 401.455C240.318 406.851 246.903 409.876 253.109 409.19C259.316 408.504 264.92 404.348 267.806 398.81C268.199 398.055 268.55 397.158 268.209 396.378ZM229.341 422.59C228.33 426.467 228.234 430.58 229.063 434.501C229.435 436.259 229.476 437.228 229.483 437.409C229.484 437.43 229.485 437.44 229.485 437.44C229.485 437.44 229.486 437.43 229.487 437.409C229.495 437.228 229.539 436.255 229.919 434.494C230.767 430.566 230.566 426.417 229.341 422.59ZM234.713 424.935C233.276 427.946 233.454 431.672 235.172 434.532C235.557 435.174 235.85 435.696 236.065 436.081L236.066 436.082L236.066 436.082C236.356 436.6 236.508 436.871 236.56 436.853C236.617 436.833 236.557 436.47 236.429 435.71L236.429 435.709C236.378 435.404 236.316 435.036 236.247 434.6L234.713 424.935ZM238.757 428.78C238.148 430.702 238.596 432.925 239.904 434.461C241.239 436.029 241.675 436.531 241.268 434.512C240.853 432.452 239.99 430.482 238.757 428.78ZM355.802 406.913C353.968 414.276 348.11 419.855 342.43 424.885C342.69 425.445 343.529 425.244 344.066 424.942C349.819 421.703 354.475 416.426 356.599 410.175C358.723 403.924 358.195 396.742 354.842 391.055C354.561 390.578 354.202 390.069 353.658 389.963C353.114 389.856 352.488 390.487 352.807 390.94C356.03 395.504 357.153 401.492 355.802 406.913ZM273.085 340.437C273.072 339.272 273.088 338.011 273.791 337.083C274.76 335.805 276.597 335.67 278.2 335.648C278.916 335.638 279.64 335.629 280.337 335.794C281.819 336.147 283 337.241 284.053 338.344C284.286 338.588 284.534 338.888 284.476 339.221C284.405 339.634 283.888 339.823 283.478 339.739C283.205 339.683 282.961 339.547 282.716 339.411C282.592 339.343 282.468 339.274 282.341 339.216C280.867 338.539 279.134 339.281 277.809 340.218C277.601 340.365 277.377 340.554 277.371 340.809C277.366 341.065 277.586 341.264 277.792 341.415C279.582 342.726 281.873 343.333 284.077 343.08C284.604 343.02 285.223 342.826 285.36 342.314C285.413 342.114 285.393 341.878 285.372 341.65C285.339 341.27 285.307 340.911 285.627 340.779C285.794 340.71 285.983 340.76 286.156 340.81C287.349 341.157 288.744 341.715 288.975 342.936C289.042 343.288 288.994 343.656 288.882 343.997C288.554 344.995 287.638 345.774 286.6 345.939C286.14 346.012 285.669 345.972 285.205 345.932C283.991 345.828 282.775 345.724 281.573 345.53C279.364 345.174 277.204 344.516 275.172 343.58C274.467 343.255 273.734 342.855 273.377 342.166C273.105 341.642 273.092 341.027 273.085 340.437ZM318.453 311.716C317.743 309.797 316.028 308.283 314.036 307.816C313.419 307.672 312.723 307.636 312.2 307.994C311.678 308.351 311.498 309.221 311.996 309.612C312.48 309.99 312.188 310.881 311.597 311.049C311.007 311.217 310.372 310.817 310.077 310.278C309.782 309.74 309.75 309.1 309.747 308.486C309.742 307.667 309.817 306.753 310.422 306.201C310.653 305.99 310.94 305.855 311.225 305.727C312.404 305.2 313.708 304.753 314.968 305.036C316.169 305.306 317.126 306.192 317.963 307.094C318.65 307.834 319.299 308.608 319.908 309.412C320.444 310.121 320.96 310.878 321.162 311.744C321.363 312.61 321.189 313.615 320.52 314.201C319.865 314.774 318.858 314.823 318.063 314.469C317.361 314.156 316.761 313.468 316.813 312.7C316.866 311.933 317.808 311.297 318.453 311.716ZM324.789 365.663C326.55 365.613 328.19 364.257 328.571 362.537C328.802 361.491 328.516 360.247 327.605 359.684C326.939 359.273 326.102 359.303 325.321 359.353C324.239 359.423 323.117 359.517 322.178 360.057C321.238 360.597 320.54 361.715 320.834 362.758C321.312 364.454 323.028 365.714 324.789 365.663ZM325.015 363.123C324.674 363.214 324.189 363.126 324.158 362.775C324.145 362.629 324.224 362.491 324.313 362.375C324.814 361.727 325.767 361.476 326.522 361.792C326.26 362.435 325.685 362.942 325.015 363.123ZM325.924 337.066C325.638 336.404 326.193 335.633 326.868 335.379C327.409 335.176 327.996 335.197 328.579 335.218C328.724 335.224 328.869 335.229 329.012 335.231C329.734 335.24 330.531 335.119 330.999 334.57C331.164 334.377 331.276 334.092 331.15 333.871C331.018 333.64 330.708 333.6 330.443 333.586C328.604 333.491 326.433 333.548 325.374 335.053C325.146 335.376 324.588 335.267 324.375 334.933C324.162 334.6 324.211 334.163 324.332 333.786C324.766 332.437 326.013 331.456 327.374 331.063C328.735 330.669 330.197 330.793 331.579 331.106C332.045 331.212 332.528 331.35 332.868 331.686C333.138 331.952 333.29 332.316 333.388 332.682C333.859 334.432 333.164 336.436 331.711 337.519C330.258 338.602 328.138 338.696 326.596 337.745C326.321 337.575 326.053 337.363 325.924 337.066ZM319.623 367.988C320.477 369.011 321.488 369.942 322.714 370.462C325.193 371.515 328.363 370.543 329.825 368.281C330.357 367.457 330.596 366.201 329.808 365.616C328.547 368.267 324.888 369.438 322.322 368.012C321.83 367.738 321.383 367.389 320.977 367C319.131 365.233 318.169 362.348 319.252 360.033C319.604 359.279 320.147 358.627 320.739 358.042C322.032 356.766 323.882 355.721 325.607 356.289C325.679 356.312 325.75 356.339 325.822 356.365C326.064 356.454 326.306 356.543 326.56 356.528C326.89 356.509 327.234 356.215 327.149 355.896C327.124 355.801 327.065 355.72 327.005 355.643C325.938 354.284 323.845 353.864 322.337 354.707C320.542 355.71 318.718 356.89 317.764 358.711C316.21 361.675 317.478 365.419 319.623 367.988ZM348.211 322.272C348.132 322.385 348.152 322.542 348.17 322.693C348.193 322.872 348.214 323.041 348.067 323.114C347.53 323.379 346.887 323.351 346.314 323.176C344.751 322.696 343.703 321.261 342.819 319.886C342.301 319.082 341.786 318.228 341.703 317.275C341.619 316.322 342.106 315.25 343.024 314.98C344.047 314.68 345.05 315.441 345.846 316.15C346.745 316.949 347.663 317.774 348.219 318.84C348.774 319.907 348.898 321.285 348.211 322.272ZM344.811 318.703C345.032 318.917 345.153 319.205 345.273 319.493C345.392 319.777 345.511 320.06 345.726 320.274C345.998 320.545 346.41 320.666 346.785 320.586C346.082 319.498 345.268 318.483 344.359 317.56C344.116 317.633 344.095 317.994 344.242 318.201C344.331 318.327 344.455 318.42 344.579 318.513C344.659 318.573 344.74 318.633 344.811 318.703ZM210.995 416.978C210.908 418.405 211.018 420.06 212.16 420.92C212.541 420.707 212.515 420.163 212.467 419.729C212.172 417.061 213 414.489 213.833 411.901C214.43 410.048 215.029 408.186 215.221 406.274C215.277 405.719 215.129 404.96 214.572 404.938C214.155 404.922 213.885 405.363 213.717 405.745C212.156 409.289 211.23 413.112 210.995 416.978ZM321.819 365.494C323.108 366.065 324.537 366.646 325.886 366.237C326.423 366.074 326.9 365.764 327.37 365.458C327.368 366.246 326.69 366.908 325.934 367.134C325.179 367.359 324.366 367.238 323.596 367.071C322.74 366.886 321.693 366.361 321.819 365.494ZM219.852 431.297C220.181 430.711 220.237 430.017 220.286 429.346L220.675 424.009C220.866 421.39 221.057 418.761 220.886 416.14C220.864 415.81 220.831 415.462 220.638 415.192C220.445 414.923 220.038 414.78 219.774 414.979C219.58 415.126 219.53 415.393 219.497 415.634C219.074 418.664 218.849 421.722 218.821 424.781C218.802 427 218.903 429.292 219.852 431.297ZM214.019 426.71C213.677 426.999 213.108 426.745 212.919 426.339C212.731 425.933 212.807 425.459 212.888 425.019C213.732 420.413 214.691 415.828 215.761 411.269C215.788 411.155 215.817 411.036 215.89 410.945C216.172 410.597 216.742 410.947 216.942 411.348C217.433 412.332 217.198 413.505 216.952 414.577L214.314 426.083C214.261 426.312 214.199 426.558 214.019 426.71ZM223.156 426.915C223.009 428.643 223.268 430.376 223.527 432.09C223.619 432.701 224.058 433.512 224.61 433.235L225.685 421.74C225.728 421.272 225.758 420.754 225.468 420.384C225.178 420.015 224.444 420.03 224.351 420.49L223.559 424.432C223.393 425.255 223.228 426.079 223.156 426.915ZM334.154 391.686C331.094 390.11 327.369 389.489 324.19 390.809C321.816 391.795 315.105 396.054 314.212 401.512C313.614 405.166 313.62 408.899 314.899 412.427L315.105 412.981C315.486 413.98 316.699 415.128 317.378 414.302C315.397 410.721 315.027 406.287 316.386 402.427C317.746 398.567 320.814 395.344 324.602 393.795C325.399 393.469 326.231 393.213 327.088 393.131C328.822 392.967 330.553 393.529 332.103 394.323C335.44 396.033 339.574 398.876 341.162 402.272C342.694 405.547 343.821 409.452 342.436 412.791C341.05 416.129 331.947 418.545 331.947 418.545L332.954 420.383C332.954 420.383 338.05 419.378 341.162 417.111C354.228 407.595 337.081 393.193 334.154 391.686Z" fill="#00160A"/>
<path fill-rule="evenodd" clip-rule="evenodd" d="M103.193 344.701C98.5722 345.196 93.6779 344.127 90.0701 341.198C87.5149 339.124 85.7195 336.238 84.4596 333.197C83.0918 329.896 82.3054 326.354 82.1473 322.784C82.0878 321.44 82.1198 320.072 82.5147 318.785C83.1647 316.669 84.7302 314.97 86.3281 313.438C89.7278 310.177 93.7238 307.202 98.384 306.517C101.56 306.05 104.79 306.686 107.898 307.486C110.34 308.115 112.778 308.855 114.974 310.093C119.826 312.829 123.188 318.047 123.675 323.596C124.161 329.145 123.563 332.822 116.074 339.716C112.183 342.257 107.814 344.205 103.193 344.701ZM111.341 327.282C110.592 327.518 109.845 327.936 109.071 327.8C107.491 327.522 107.208 325.353 107.559 323.787C108.563 319.304 111.688 315.345 115.815 313.327C114.881 311.632 112.399 311.507 110.644 312.322C108.889 313.136 107.517 314.604 105.819 315.533C104.975 315.995 103.974 316.323 103.055 316.035C101.542 315.561 100.965 313.581 101.46 312.075C101.955 310.57 103.191 309.447 104.377 308.397C100.078 308.547 95.8249 309.837 92.1669 312.1C89.3032 313.871 86.5869 316.776 86.9668 320.121C89.3346 318.216 92.1145 316.825 95.0594 316.072C95.684 315.912 96.468 315.832 96.8588 316.345C97.1549 316.733 97.0699 317.292 96.8802 317.742C95.9389 319.974 93.1708 320.723 91.4539 322.432C91.2284 322.657 91.0122 322.916 90.9576 323.229C90.8507 323.844 91.436 324.404 92.051 324.506C92.6659 324.609 93.2833 324.385 93.8666 324.165C95.078 323.708 96.2895 323.251 97.5009 322.794C98.3779 322.463 99.4191 322.147 100.199 322.667C101.006 323.205 101.082 324.428 100.626 325.284C100.17 326.14 99.3328 326.714 98.5273 327.254C96.5858 328.555 94.6443 329.856 92.7028 331.157C91.0773 332.247 89.2561 333.716 89.4106 335.666C89.5561 337.503 91.5761 338.751 93.4143 338.633C95.2525 338.515 96.8702 337.391 98.2269 336.145C99.5836 334.899 100.808 333.476 102.384 332.522C103.412 331.899 104.879 331.553 105.714 332.418C106.359 333.086 106.297 334.159 106.055 335.056C105.357 337.64 103.47 339.876 101.04 340.999C103.017 341.455 105.078 341.541 107.086 341.252C108.231 341.086 109.416 340.769 110.244 339.961C111.072 339.153 111.393 337.731 110.675 336.824C109.603 335.471 109.646 333.492 110.33 331.908C111.015 330.323 112.238 329.044 113.435 327.802C113.093 327.095 112.091 327.047 111.341 327.282ZM120.492 330.353C121.569 327.865 121.608 325.051 121.335 322.354C121.034 319.371 119.994 315.96 117.184 314.915C113.066 316.624 109.888 320.437 108.949 324.796C108.87 325.162 108.809 325.556 108.953 325.902C109.097 326.248 109.525 326.5 109.857 326.326C110.995 325.729 112.396 325.391 113.553 325.95C114.71 326.509 115.274 328.253 114.337 329.133C113.301 330.105 112.238 331.116 111.679 332.421C111.121 333.727 111.201 335.417 112.253 336.371C113.043 337.088 113.045 338.496 112.257 339.215C114.498 338.561 116.095 336.634 117.549 334.806C118.66 333.409 119.784 331.991 120.492 330.353ZM94.6907 317.486C92.3592 318.453 90.0961 319.585 87.9238 320.87C87.4072 321.176 86.8851 321.5 86.5074 321.966C85.9973 322.596 85.8035 323.418 85.6459 324.213C85.1367 326.782 84.8741 329.547 85.9528 331.934C86.2972 332.695 86.7678 333.392 87.2361 334.084C87.3743 334.289 87.5312 334.507 87.7681 334.576C88.005 334.645 88.3179 334.454 88.2623 334.213C88.0908 333.473 88.6518 332.776 89.2053 332.255C92.4477 329.203 96.8157 327.451 99.7314 324.085C99.2891 323.561 98.4502 323.808 97.8195 324.077C96.3174 324.718 94.7686 325.25 93.1894 325.667C92.3748 325.882 91.4669 326.056 90.7234 325.66C89.6353 325.08 89.4582 323.493 90.0329 322.402C90.6077 321.311 91.7003 320.607 92.754 319.966C93.8077 319.326 94.9132 318.657 95.5454 317.599C95.4304 317.297 94.9886 317.363 94.6907 317.486ZM102.67 337.931C103.7 337.103 104.813 336.127 104.926 334.81C104.985 334.121 104.543 333.279 103.855 333.345C103.644 333.365 103.45 333.47 103.268 333.579C100.272 335.368 98.3 338.869 94.92 339.739C95.8751 340.166 96.871 340.503 97.8897 340.742C98.1931 340.813 98.509 340.876 98.8141 340.813C99.1691 340.739 99.4662 340.505 99.7488 340.278C100.723 339.496 101.696 338.713 102.67 337.931ZM105.456 309.317C104.79 310.055 104.123 310.792 103.456 311.53C102.928 312.114 102.361 312.884 102.655 313.615C102.872 314.153 103.512 314.425 104.09 314.38C104.668 314.335 105.195 314.04 105.68 313.721C107.409 312.587 108.965 311.042 110.982 310.589C109.583 310.08 108.185 309.57 106.786 309.06C106.495 308.954 106.17 308.848 105.884 308.966C105.712 309.037 105.581 309.179 105.456 309.317Z" fill="#00160A"/>
<path fill-rule="evenodd" clip-rule="evenodd" d="M131.483 221.232C131.308 224.726 128.613 228.51 125.138 228.097C123.57 226.283 122.343 224.032 121.13 221.808C118.801 217.535 116.524 213.36 111.989 212.568C107.534 211.789 103.386 215.066 100.612 218.637C96.5936 223.809 93.997 230.074 93.1785 236.572C92.6973 240.392 94.2639 245.69 98.0913 245.269C102.463 244.789 105.572 248.228 108.734 251.726C111.661 254.963 114.634 258.25 118.695 258.528C123.53 258.858 127.48 261.755 131.479 264.688C134.149 266.646 136.841 268.62 139.833 269.857C145.461 272.182 151.952 271.732 157.697 269.713C163.442 267.693 168.555 264.215 173.394 260.518L173.648 260.324C176.289 258.304 179.055 256.189 182.339 255.744C199.135 253.469 214.758 243.617 224.049 229.441C237.222 239.971 255.639 243.57 271.807 238.773C274.55 237.959 277.311 236.868 279.345 234.856C281.38 232.844 282.533 229.719 281.533 227.038C280.44 224.106 277.172 222.536 274.065 222.159C272.363 221.952 270.647 222.013 268.929 222.074C267.514 222.125 266.097 222.175 264.687 222.076C256.146 221.472 249.035 215.582 242.569 209.97C251.938 207.096 259.535 199.878 264.551 191.459C269.566 183.039 272.255 173.448 274.297 163.863C275.372 158.819 276.17 153.137 273.288 148.86C271.998 146.946 270.107 145.546 268.223 144.152C266.101 142.581 263.987 141.017 262.75 138.731C260.37 134.334 255.732 131.726 251.332 129.351C239.819 123.135 226.594 116.737 214.186 120.888C209.353 122.505 205.178 125.604 201.107 128.671C194.347 133.763 187.105 139.737 185.818 148.102C174.758 143.153 160.448 147.105 153.495 157.029C151.904 159.299 150.683 161.802 149.463 164.302C148.027 167.246 146.593 170.187 144.56 172.738C136.392 169.017 128.071 165.635 119.624 162.603C115.879 161.259 111.405 160.071 108.177 162.398C105.589 164.264 104.796 167.926 105.555 171.025C106.315 174.124 108.343 176.751 110.517 179.085C115.236 184.15 120.903 188.327 127.137 191.335C127.338 191.431 127.54 191.528 127.743 191.625L127.744 191.625L127.744 191.625C129.696 192.555 131.702 193.511 133.002 195.218C134.437 197.102 134.526 200.255 132.514 201.506C129.543 203.353 128.996 207.497 129.605 210.942C129.813 212.12 130.118 213.286 130.424 214.45C131.011 216.694 131.598 218.932 131.483 221.232ZM212.157 239.656C204.669 247.518 194.133 252.117 183.359 253.462C172.586 254.806 161.585 253.058 151.293 249.6C154.061 249.598 156.063 245.974 154.591 243.629C148.919 250.241 140.272 253.338 132.032 256.166C124.588 258.72 115.691 256.865 110.223 251.204C104.755 245.544 103.275 236.257 107.12 229.39C108.792 226.405 111.627 223.807 115.035 223.514C118.443 223.221 122.113 226.047 121.797 229.453C119.901 229.124 117.905 230.735 117.827 232.658C125.164 231.868 132.062 227.663 136.127 221.504C137.53 219.378 138.596 217.063 139.663 214.745C140.379 213.189 141.096 211.632 141.916 210.131C143.956 206.394 146.885 202.832 150.944 201.548C154.202 200.518 157.724 201.089 161.091 201.67L176.05 204.249C177.169 203.283 175.356 201.734 173.908 201.431C169.233 200.454 164.493 199.852 159.752 199.25C155.356 198.692 150.959 198.134 146.614 197.277C137.583 195.495 128.506 192.236 121.933 185.792C126.391 183.227 129.784 178.868 131.176 173.916C131.457 172.914 130.786 171.268 129.973 171.917C129.043 175.132 128.036 178.485 125.707 180.888C123.378 183.291 119.29 184.346 116.654 182.285C113.232 179.608 109.634 176.689 108.281 172.561C106.928 168.433 109.069 162.889 113.383 162.383C115.32 162.156 117.213 162.956 118.999 163.739L137.016 171.637C142.379 173.987 147.821 176.361 153.614 177.214C157.681 177.813 161.817 177.645 165.925 177.476L177.569 176.995C178.045 176.976 178.534 176.953 178.972 176.766C180.142 176.267 180.539 174.838 180.797 173.593C183.922 158.514 188.12 142.602 199.478 132.203C204.56 127.551 210.891 124.275 217.625 122.813C224.263 121.373 231.586 121.796 237.301 125.467C227.714 126.173 218.406 130.215 211.346 136.739C208.38 133.572 202.859 136.16 200.494 139.797C196.826 145.435 196.893 153.267 200.656 158.841C203.823 163.534 204.998 169.132 206.175 174.744C207.257 179.902 208.341 185.07 210.977 189.556C215.146 196.653 222.91 201.208 231.019 202.62C239.128 204.033 247.534 202.558 255.241 199.667C246.615 208.271 232.836 211.247 221.429 206.97C220.597 206.658 219.77 206.309 218.942 205.961C216.321 204.857 213.691 203.75 210.879 203.783C212.527 205.527 214.63 206.836 216.922 207.544C214.279 211.983 211.506 216.345 208.608 220.622C208.238 221.169 207.815 221.752 207.181 221.937C206.474 222.143 205.736 221.791 205.091 221.435C199.763 218.49 194.987 214.549 191.084 209.877L183.275 219.375C187.282 224.274 191.967 228.617 197.154 232.242C190.25 240.771 179.79 246.326 168.857 247.27C180.174 247.847 191.631 242.539 198.508 233.533C202.862 235.977 207.436 238.029 212.157 239.656ZM247.946 156.134C250.446 153.408 251.373 149.513 251.159 145.819C250.946 142.126 249.703 138.573 248.328 135.139C251.91 134.714 255.55 136.065 258.403 138.272C261.256 140.479 263.4 143.482 265.158 146.631C267.289 150.45 268.922 154.578 269.631 158.893C271.301 169.053 267.737 179.411 262.663 188.37C261.678 190.11 260.618 191.838 259.18 193.227C257.732 194.625 255.951 195.63 254.125 196.479C246.592 199.979 237.927 200.989 229.79 199.315C234.984 194.991 238.652 189.033 240.988 182.691C243.325 176.349 244.394 169.609 245.009 162.878L245.013 162.841C245.168 161.144 245.331 159.36 246.299 157.958C246.619 157.494 247.015 157.092 247.412 156.69C247.592 156.507 247.772 156.323 247.946 156.134ZM238.547 184.167C236.305 189.409 232.833 194.223 228.126 197.44C227.575 197.817 226.983 198.181 226.32 198.258C225.734 198.327 225.148 198.165 224.586 197.988C220.584 196.725 216.802 194.485 214.235 191.166C213.303 189.961 212.542 188.632 211.864 187.269C206.922 177.339 206.438 165.292 210.567 154.998C210.764 154.506 211.047 153.954 211.566 153.851C212.238 153.717 212.754 154.405 213.132 154.977C216.216 159.651 221.984 162.017 227.578 162.262C233.173 162.507 238.676 160.917 243.981 159.124C243.015 161.488 242.768 164.064 242.524 166.615C242.494 166.937 242.463 167.257 242.431 167.578C241.862 173.251 240.788 178.924 238.547 184.167ZM237.408 135.464C240.27 134.813 243.611 134.634 245.798 136.592C246.504 137.224 247.029 138.036 247.461 138.88C250.17 144.174 249.109 151.148 244.948 155.397C240.137 160.309 232.522 161.118 225.671 160.535C223.213 160.326 220.685 159.948 218.587 158.651C215.871 156.972 214.263 154.015 212.776 151.19C219.378 143.814 227.755 137.658 237.408 135.464ZM260.561 224.508C259.662 226.776 258.756 229.074 258.462 231.496C258.168 233.917 258.55 236.516 260.023 238.46C247.802 239.136 235.383 235.368 225.599 228.015C228.754 223.55 231.246 218.617 232.967 213.427C233.647 211.377 236.242 210.522 238.349 210.997C240.289 211.434 241.918 212.678 243.506 213.892C243.643 213.997 243.78 214.101 243.916 214.204C249.118 218.154 254.851 221.338 260.561 224.508ZM175.164 255.477C173.237 257.647 170.933 259.448 168.58 261.147C163.669 264.694 158.313 267.917 152.344 268.947C143.596 270.457 134.144 266.684 128.841 259.564L147.922 252.446C148.379 252.276 148.852 252.103 149.339 252.13C149.614 252.146 149.879 252.225 150.144 252.304L150.144 252.304L150.144 252.304L150.144 252.304L150.144 252.304C150.321 252.356 150.497 252.409 150.677 252.443C151.29 252.559 151.908 252.457 152.528 252.355H152.528H152.529H152.529H152.529C152.915 252.291 153.302 252.228 153.689 252.216C155.118 252.173 156.43 252.826 157.729 253.472L157.729 253.472L157.729 253.472L157.729 253.472C158.059 253.636 158.388 253.799 158.717 253.951C163.777 256.278 169.611 255.901 175.164 255.477ZM147.613 173.836C147.478 173.535 147.62 173.189 147.762 172.891C151.67 164.707 156.839 157.127 163.032 150.501C167.387 156.549 170.286 163.639 171.416 171.006C171.642 172.478 171.398 174.515 169.919 174.699C162.833 175.582 155.623 175.462 148.57 174.344C148.197 174.285 147.767 174.18 147.613 173.836ZM174.302 173.331C172.842 165.309 169.813 157.577 165.436 150.698C169.141 148.748 173.521 148.716 177.708 148.729C180.352 148.737 183.239 148.831 185.254 150.543L180.027 165.966C179.139 168.585 178.241 171.277 178.353 174.039L175.048 174.092C174.931 174.094 174.809 174.095 174.701 174.05C174.436 173.939 174.353 173.613 174.302 173.331ZM216.817 212.801C217.694 211.308 218.531 209.713 218.619 207.983C222.572 209.761 226.926 210.643 231.26 210.541C231.94 210.526 231.916 211.574 231.637 212.195C230.793 214.073 229.948 215.953 228.972 217.766C227.969 219.626 226.832 221.41 225.695 223.191L222.971 227.461C222.598 228.046 222.213 228.644 221.659 229.06C220.171 230.178 218.049 229.641 216.352 228.878C213.537 227.614 210.946 225.852 208.734 223.7C211.806 220.368 214.52 216.708 216.817 212.801ZM114.587 216.491C115.897 217.812 116.753 219.504 117.587 221.166L113.658 221.727C112.348 221.914 111.006 222.111 109.849 222.751C108.723 223.374 107.854 224.373 107.09 225.408C103.895 229.738 102.123 235.101 102.112 240.483C102.108 242.426 99.8108 243.813 97.9306 243.32C96.0504 242.827 94.7731 240.96 94.4481 239.043C94.1231 237.127 94.5808 235.168 95.1549 233.311C97.1751 226.776 100.789 220.604 106.135 216.338C107.157 215.523 108.286 214.76 109.576 214.553C111.413 214.26 113.277 215.17 114.587 216.491ZM279.6 227.43C280.054 228.014 280.391 228.725 280.371 229.465C280.344 230.421 279.738 231.259 279.086 231.959C275.293 236.023 269.463 237.407 263.941 238.06C263.577 238.103 263.196 238.142 262.854 238.008C262.574 237.898 262.349 237.682 262.149 237.457C260.817 235.959 260.289 233.865 260.397 231.863C260.505 229.861 261.196 227.933 262.056 226.122C262.237 225.741 262.447 225.341 262.816 225.136C263.111 224.973 263.463 224.96 263.8 224.951L270.482 224.776C272.127 224.733 273.79 224.691 275.401 225.031C277.011 225.37 278.589 226.131 279.6 227.43ZM205.126 164.291C202.403 159.246 200.366 153.831 199.088 148.242L200.188 145.304C201.549 142.669 203.265 140.218 205.274 138.037C206.092 137.149 207.511 137.051 208.64 137.479C209.77 137.907 210.678 138.758 211.555 139.588L215.5 143.326C215.617 143.437 215.74 143.557 215.779 143.714C215.853 144.009 215.609 144.279 215.388 144.489C213.541 146.246 211.899 148.226 210.583 150.409C208.594 153.709 207.379 157.407 206.18 161.069L205.126 164.291ZM215.209 135.955C223.242 131.653 232.028 127.605 241.089 128.573C245.826 129.079 250.357 130.963 254.303 133.633C243 130.727 230.4 133.408 221.258 140.662C219.845 141.783 217.725 143.001 216.467 141.708C216.144 141.376 215.933 140.911 215.727 140.458C215.398 139.733 215.082 139.038 214.343 138.97C213.639 138.905 213.326 137.949 213.624 137.308C213.923 136.667 214.586 136.289 215.209 135.955ZM193.142 214.645C194.728 216.168 196.474 217.513 198.216 218.855L205.253 224.275C203.086 226.185 200.966 228.148 198.894 230.162C193.964 227.239 189.563 223.426 185.968 218.962C187.936 216.913 189.825 214.787 191.629 212.593C191.913 213.402 192.523 214.05 193.142 214.645ZM147.893 199.984C144.187 202.879 140.356 205.926 138.318 210.164C137.919 210.992 137.59 211.863 137.262 212.733C136.564 214.583 135.868 216.426 134.514 217.834C133.914 217.657 133.678 216.95 133.531 216.342L132.121 210.477C131.931 209.685 131.739 208.872 131.848 208.065C131.955 207.262 132.351 206.531 132.74 205.82L136.877 198.26C136.969 198.091 137.065 197.918 137.213 197.796C137.579 197.492 138.12 197.588 138.583 197.702L147.893 199.984ZM208.092 225.956C210.619 228.555 213.759 230.552 217.184 231.739C217.824 231.136 219.062 231.468 219.315 232.311C218.136 233.84 216.843 235.28 215.448 236.615C214.825 237.211 213.828 237.085 212.987 236.892C208.883 235.95 204.93 234.354 201.322 232.182C201.081 232.036 200.81 231.83 200.833 231.549C200.849 231.36 200.998 231.213 201.138 231.085L206.203 226.42C206.734 225.931 207.588 225.439 208.092 225.956ZM272.759 160.791C272.712 161.363 272.631 162.001 272.184 162.36C272.181 157.87 271.067 153.385 268.97 149.415C268.59 148.694 268.178 147.99 267.719 147.318C267.66 147.231 267.6 147.144 267.54 147.058C267.078 146.39 266.604 145.706 266.492 144.909L271.919 150.579C272.418 151.1 272.932 151.644 273.168 152.327C273.396 152.985 273.341 153.703 273.284 154.397L272.759 160.791ZM266.522 153.586L265.293 152.037C263.941 150.332 262.282 148.471 260.106 148.469C258.844 148.467 257.683 149.114 256.587 149.742L254.885 150.718C254.421 150.985 253.943 151.262 253.615 151.686C252.67 152.909 253.36 154.695 254.253 155.956C254.871 156.829 255.613 157.667 256.596 158.087C257.868 158.63 259.331 158.39 260.665 158.022C262.491 157.519 264.256 156.792 265.907 155.864C266.435 155.567 267.018 155.132 266.992 154.527C266.976 154.171 266.744 153.865 266.522 153.586ZM255.785 154.782C255.574 154.445 255.355 154.085 255.352 153.688C255.345 152.91 256.121 152.388 256.803 152.016L259.229 150.693C259.596 150.493 259.978 150.288 260.395 150.26C260.812 150.232 261.275 150.433 261.415 150.826C261.829 151.988 262.848 152.914 264.044 153.216C264.431 153.313 264.555 153.849 264.372 154.204C264.189 154.559 263.815 154.766 263.457 154.944C262.179 155.578 260.842 156.095 259.469 156.487C258.919 156.644 258.337 156.781 257.78 156.649C256.87 156.433 256.283 155.574 255.785 154.782ZM238.528 166.758C236.122 167.038 235.665 171.376 236.782 173.689C237.012 174.165 237.372 174.655 237.896 174.722C238.793 174.836 239.288 173.729 239.486 172.848L239.491 172.827C239.753 171.665 240.92 166.479 238.528 166.758ZM226.121 172.448C226.602 171.326 226.762 170.068 226.578 168.861C226.493 168.3 226.324 167.731 225.949 167.305C225.575 166.879 224.955 166.632 224.421 166.824C223.938 166.997 223.635 167.47 223.406 167.93C222.599 169.552 222.277 171.413 222.492 173.213C222.592 174.05 223.648 174.507 224.448 174.243C225.249 173.978 225.788 173.223 226.121 172.448ZM233.213 169.88C233.586 169.57 234.057 170.132 234.209 170.593C234.707 172.107 235.119 173.65 235.443 175.211C235.648 176.197 235.817 177.222 235.599 178.205C235.292 179.592 234.238 180.72 233.015 181.442C231.792 182.165 230.4 182.539 229.027 182.905C228.665 183.001 228.209 183.07 227.975 182.777C227.776 182.528 227.874 182.138 228.101 181.914C228.322 181.694 228.632 181.593 228.929 181.495L228.946 181.49C231.086 180.787 233.372 179.518 233.87 177.322C234.144 176.115 233.811 174.902 233.476 173.684C233.171 172.574 232.865 171.46 233.016 170.343C233.039 170.172 233.08 169.989 233.213 169.88ZM218.272 164.94C217.709 164.16 218.16 162.974 218.977 162.465C219.794 161.956 220.826 161.963 221.781 162.086C222.92 162.233 224.042 162.523 225.11 162.947C225.337 163.037 225.582 163.152 225.682 163.375C225.867 163.788 225.388 164.241 224.935 164.241C224.57 164.24 224.239 164.065 223.913 163.891C223.833 163.849 223.755 163.807 223.675 163.768C221.892 162.883 219.528 163.396 218.272 164.94ZM238.822 164.671C239.669 164.53 240.568 164.726 241.279 165.206C241.577 165.407 242.003 165.069 242.005 164.71C242.006 164.351 241.739 164.049 241.457 163.828C240.849 163.349 240.092 163.063 239.32 163.02C238.822 162.991 238.27 163.088 237.949 163.47C237.629 163.852 237.725 164.569 238.206 164.703C238.378 164.75 238.558 164.718 238.735 164.686C238.764 164.681 238.793 164.676 238.822 164.671ZM228.306 186.686C228.544 186.551 228.859 186.786 228.895 187.058C228.93 187.329 228.775 187.589 228.598 187.798C227.71 188.846 226.179 189.169 224.827 188.923C223.475 188.678 222.263 187.951 221.122 187.184C220.586 186.824 220.058 186.451 219.538 186.067C218.999 185.669 218.425 185.182 218.361 184.516C218.296 183.849 219.15 183.177 219.638 183.636C220.837 184.765 222.062 185.912 223.553 186.61C225.044 187.309 226.872 187.495 228.306 186.686ZM202.641 192.031C197.647 181.176 195.564 168.999 196.665 157.101C196.684 156.898 196.71 156.68 196.844 156.526C197.034 156.309 197.422 156.319 197.602 156.544C197.538 163.089 197.477 169.673 198.545 176.13C199.613 182.588 201.882 188.976 206.024 194.044C206.148 194.195 206.273 194.346 206.399 194.497C207.112 195.351 207.83 196.213 208.234 197.243C205.541 197.191 203.767 194.479 202.641 192.031ZM207.539 143.014C207.447 142.915 207.339 142.827 207.215 142.773C206.854 142.617 206.432 142.777 206.117 143.01C204.86 143.94 204.855 146.116 206.108 147.052C206.719 146.532 207.346 145.991 207.704 145.272C208.062 144.554 208.084 143.604 207.539 143.014ZM218.377 154.477C219.732 155.577 221.276 156.443 222.92 157.026C228.227 158.908 234.191 157.727 239.312 155.386C240.095 155.028 241.093 155.217 241.691 155.835C238.403 158.178 234.374 159.466 230.337 159.465C229.446 159.465 228.557 159.404 227.67 159.327C225.855 159.168 224.026 158.936 222.319 158.3C220.611 157.664 219.017 156.589 218.05 155.045L218.377 154.477ZM276.167 226.001C276.114 226.182 276.26 226.355 276.393 226.487L278.41 228.488C278.629 227.913 278.383 227.243 277.96 226.795C277.537 226.347 276.966 226.074 276.408 225.812C276.299 225.816 276.198 225.896 276.167 226.001Z" fill="#00160A"/>
<path fill-rule="evenodd" clip-rule="evenodd" d="M408.594 148.165C411.064 149.021 413.391 146.793 415.52 145.275C418.814 142.927 423.111 142.039 427.066 142.889C427.722 143.031 428.409 143.242 428.841 143.756C429.236 144.225 429.348 144.866 429.412 145.476C429.801 149.212 428.867 153.073 426.813 156.218C425.813 157.747 424.561 159.11 423.667 160.703C422.773 162.297 422.263 164.245 422.9 165.958C426.686 176.141 425.11 188.153 418.826 197.015C412.541 205.878 401.728 211.339 390.865 211.136C385.31 211.032 379.867 209.549 374.633 207.685C372.349 206.871 369.839 205.979 367.572 206.838C363.435 208.405 359.081 209.395 354.673 209.77C353.579 209.863 352.436 209.91 351.427 209.479C349.916 208.832 349.004 207.194 348.831 205.56C348.658 203.926 349.109 202.29 349.68 200.75C351.401 196.101 356.744 188.84 359.979 187.168C359.717 181.523 359.746 175.812 360.966 170.295C362.187 164.778 364.677 159.424 368.762 155.521C370.45 153.908 372.381 152.566 374.404 151.402C384.634 145.512 397.44 144.299 408.594 148.165ZM393.014 147.707C385.191 147.89 377.576 151.032 371.461 155.914C369.665 157.348 367.977 158.94 366.63 160.801C365.567 162.268 364.727 163.887 364.025 165.556C359.86 175.463 360.811 187.366 366.496 196.486C366.62 196.684 366.762 196.895 366.983 196.972C367.256 197.068 367.55 196.929 367.805 196.793C385.662 187.277 401.555 174.098 414.212 158.312C414.514 157.936 414.831 157.499 414.766 157.022C414.717 156.664 414.461 156.373 414.212 156.111C408.811 150.449 400.837 147.524 393.014 147.707ZM403.951 206.847C412.433 202.865 418.874 194.997 421.629 186.042C422.253 184.014 422.701 181.918 422.745 179.797C422.782 178.013 422.533 176.237 422.285 174.47C421.925 171.908 421.565 169.347 421.205 166.785C421.11 166.106 420.456 165.21 419.978 165.702C406.708 179.358 392.217 191.828 376.736 202.915C376.221 203.284 375.654 203.74 375.626 204.373C375.594 205.106 376.293 205.637 376.928 206.004C385.045 210.684 395.47 210.829 403.951 206.847ZM351.637 205.804C352.254 206.794 353.591 206.997 354.757 207.029C360.873 207.198 366.924 205.406 372.396 202.669C377.868 199.932 382.82 196.271 387.633 192.493C394.053 187.455 400.28 182.174 406.35 176.719C413.866 169.964 421.252 162.798 426.187 153.978C427.142 152.272 428.023 150.401 427.873 148.452C427.724 146.503 426.169 144.535 424.216 144.611C420.07 144.773 415.994 146.367 412.839 149.06C412.212 149.596 412.655 150.736 413.428 151.026C414.2 151.316 415.061 151.028 415.816 150.694C416.57 150.361 417.356 149.972 418.176 150.063C419.429 150.202 420.319 151.484 420.393 152.743C420.468 154.001 419.911 155.21 419.256 156.287C418.043 158.279 416.458 160.015 414.857 161.712C400.625 176.79 384.207 189.802 366.277 200.214C364.662 201.151 363.028 202.071 361.291 202.755C360.379 203.113 359.334 203.401 358.444 202.991C356.986 202.319 356.869 200.271 357.306 198.726C357.964 196.406 359.383 194.308 361.293 192.836C360.932 191.817 360.57 190.798 360.208 189.779C355.493 192.79 352.185 197.912 351.378 203.448C351.262 204.247 351.21 205.119 351.637 205.804ZM365.042 198.81C365.075 198.705 365.014 198.595 364.955 198.502C364.346 197.534 363.737 196.567 363.128 195.599C362.853 195.161 362.32 194.665 361.906 194.976C360.418 196.098 359.352 197.768 358.962 199.59C358.885 199.95 358.84 200.351 359.036 200.663C359.4 201.242 360.271 201.113 360.915 200.882C362.288 200.39 363.611 199.757 364.856 198.997C364.932 198.95 365.015 198.896 365.042 198.81ZM418.024 152.746C417.962 152.494 417.663 152.385 417.405 152.374C416.62 152.34 415.8 152.985 415.85 153.769C415.899 154.553 417.064 155.046 417.551 154.43C417.698 154.244 417.76 154.006 417.819 153.777C417.877 153.549 417.935 153.321 417.993 153.094C418.022 152.98 418.051 152.86 418.024 152.746Z" fill="#00160A"/>
</svg>
